<?xml version="1.0" encoding="utf-8"?>
<!-- Generator: Adobe Illustrator 19.0.0, SVG Export Plug-In . SVG Version: 6.00 Build 0)  -->
<svg version="1.1" id="Digital_Marketing" xmlns="http://www.w3.org/2000/svg" xmlns:xlink="http://www.w3.org/1999/xlink" x="0px"
	 y="0px" viewBox="-384.1 272.1 74.6 54.3" style="enable-background:new -384.1 272.1 74.6 54.3;" xml:space="preserve">
<style type="text/css">
	.st0{fill:#D9EDF8;}
	.st1{fill:#263339;}
	.st2{fill:#9ECFEF;}
	.st3{fill:#76C7DF;}
	.st4{fill:#D2E9F7;}
	.st5{fill:#263137;}
	.st6{fill:none;}
	.st7{fill:#ACD8F3;}
	.st8{fill:#78BFEB;}
	.st9{fill:#299EE1;}
	.st10{fill:#77C0EB;}
	.st11{fill:#8AD3E6;}
	.st12{fill:#2C9FE0;}
	.st13{fill:#25323A;}
</style>
<g id="XMLID_1305_">
	<g id="XMLID_40_">
		<path id="XMLID_44_" class="st0" d="M-312.1,295.4h-7.9h-7c-1.4,0-2.5-1.1-2.5-2.5s1.2-2.5,2.5-2.5h7h0.8c1.4,0,2.5-1.1,2.5-2.5
			s-1.2-2.5-2.5-2.5h-7.6c-0.6-0.8-1.3-1.5-2-2.3c-9.9-9.9-25.9-9.9-35.8,0c-3.8,3.8-6.2,8.6-7,13.5h-5c-1.4,0-2.5,1.1-2.5,2.5l0,0
			c0,1.6,1.1,2.6,2.5,2.6h3.3h1.7c1.4,0,2.4,1.1,2.4,2.5l0,0c0,1.4-1.1,2.4-2.4,2.4h-1.7h-8.4c-1.4,0-2.4,1.2-2.4,2.5l0,0
			c0,1.4,1,2.4,2.4,2.4h8.3h6.6c1.4,0,2.4,1.1,2.4,2.5l0,0c0,1.4-1.1,2.4-2.4,2.4h-6.6h-1.2c-1.4,0-2.4,1.1-2.4,2.5l0,0
			c0,1.4,1,2.4,2.4,2.4h12.6c9.9,7.5,24.1,6.7,33.2-2.3c2.6-2.6,4.5-5.7,5.8-8.9h5.9c1.4,0,2.4-1.1,2.4-2.5s-1-2.5-2.4-2.5h-2.8
			h-2.2c-1.4,0-2.5-1.1-2.5-2.5s1.2-2.5,2.5-2.5h2.1h7.9c1.4,0,2.5-1.1,2.5-2.5C-309.5,296.5-310.7,295.4-312.1,295.4z"/>
		<path id="XMLID_43_" class="st0" d="M-316.7,288L-316.7,288L-316.7,288z"/>
		<path id="XMLID_42_" class="st0" d="M-309.5,297.9L-309.5,297.9L-309.5,297.9z"/>
		<path id="XMLID_41_" class="st0" d="M-314.8,307.7L-314.8,307.7L-314.8,307.7z"/>
	</g>
</g>
<g id="XMLID_1231_">
	<g id="XMLID_705_">
		<g id="XMLID_777_">
			<path id="XMLID_778_" class="st1" d="M-370.1,292.1h-1.6c-0.2,0-0.3,0.1-0.3,0.3c0,0.2,0.1,0.3,0.3,0.3h1.6
				c0.2,0,0.3-0.1,0.3-0.3S-370,292.1-370.1,292.1z"/>
		</g>
		<g id="XMLID_775_">
			<path id="XMLID_776_" class="st1" d="M-373.4,292.1h-6c-0.2,0-0.3,0.1-0.3,0.3c0,0.2,0.1,0.3,0.3,0.3h6c0.2,0,0.3-0.1,0.3-0.3
				S-373.2,292.1-373.4,292.1z"/>
		</g>
		<g id="XMLID_773_">
			<path id="XMLID_774_" class="st1" d="M-368.5,293.8h-6c-0.2,0-0.3,0.1-0.3,0.3c0,0.2,0.1,0.3,0.3,0.3h6c0.2,0,0.3-0.1,0.3-0.3
				S-368.3,293.8-368.5,293.8z"/>
		</g>
		<g id="XMLID_771_">
			<path id="XMLID_772_" class="st1" d="M-376.7,293.8h-1.1c-0.2,0-0.3,0.1-0.3,0.3c0,0.2,0.1,0.3,0.3,0.3h1.1
				c0.2,0,0.3-0.1,0.3-0.3C-376.4,293.9-376.5,293.8-376.7,293.8z"/>
		</g>
		<g id="XMLID_754_">
			<g id="XMLID_769_">
				<path id="XMLID_770_" class="st1" d="M-320,299h-0.8c-0.2,0-0.3,0.1-0.3,0.3c0,0.2,0.1,0.3,0.3,0.3h0.8c0.2,0,0.3-0.1,0.3-0.3
					C-319.7,299.1-319.8,299-320,299z"/>
			</g>
			<g id="XMLID_767_">
				<path id="XMLID_768_" class="st1" d="M-324.1,299h-0.8c-0.2,0-0.3,0.1-0.3,0.3c0,0.2,0.1,0.3,0.3,0.3h0.8c0.2,0,0.3-0.1,0.3-0.3
					C-323.8,299.1-323.9,299-324.1,299z"/>
			</g>
			<g id="XMLID_765_">
				<path id="XMLID_766_" class="st1" d="M-320.9,297.4l-0.6,0.6c-0.1,0.1-0.1,0.3,0,0.4s0.1,0.1,0.2,0.1s0.1,0,0.2-0.1l0.6-0.6
					c0.1-0.1,0.1-0.3,0-0.4C-320.6,297.3-320.8,297.3-320.9,297.4z"/>
			</g>
			<g id="XMLID_763_">
				<path id="XMLID_764_" class="st1" d="M-323.8,300.3l-0.6,0.6c-0.1,0.1-0.1,0.3,0,0.4s0.1,0.1,0.2,0.1s0.1,0,0.2-0.1l0.6-0.6
					c0.1-0.1,0.1-0.3,0-0.4S-323.7,300.2-323.8,300.3z"/>
			</g>
			<g id="XMLID_761_">
				<path id="XMLID_762_" class="st1" d="M-322.4,296.5c-0.2,0-0.3,0.1-0.3,0.3v0.8c0,0.2,0.1,0.3,0.3,0.3c0.2,0,0.3-0.1,0.3-0.3
					v-0.8C-322.2,296.6-322.3,296.5-322.4,296.5z"/>
			</g>
			<g id="XMLID_759_">
				<path id="XMLID_760_" class="st1" d="M-322.4,300.6c-0.2,0-0.3,0.1-0.3,0.3v0.8c0,0.2,0.1,0.3,0.3,0.3c0.2,0,0.3-0.1,0.3-0.3
					v-0.8C-322.2,300.7-322.3,300.6-322.4,300.6z"/>
			</g>
			<g id="XMLID_757_">
				<path id="XMLID_758_" class="st1" d="M-324,297.4c-0.1-0.1-0.3-0.1-0.4,0s-0.1,0.3,0,0.4l0.6,0.6c0.1,0.1,0.1,0.1,0.2,0.1
					s0.1,0,0.2-0.1s0.1-0.3,0-0.4L-324,297.4z"/>
			</g>
			<g id="XMLID_755_">
				<path id="XMLID_756_" class="st1" d="M-321.1,300.3c-0.1-0.1-0.3-0.1-0.4,0s-0.1,0.3,0,0.4l0.6,0.6c0.1,0.1,0.1,0.1,0.2,0.1
					s0.1,0,0.2-0.1s0.1-0.3,0-0.4L-321.1,300.3z"/>
			</g>
		</g>
		<g id="XMLID_737_">
			<g id="XMLID_752_">
				<path id="XMLID_753_" class="st1" d="M-363,282.5h-0.8c-0.2,0-0.3,0.1-0.3,0.3c0,0.2,0.1,0.3,0.3,0.3h0.8c0.2,0,0.3-0.1,0.3-0.3
					C-362.7,282.7-362.8,282.5-363,282.5z"/>
			</g>
			<g id="XMLID_750_">
				<path id="XMLID_751_" class="st1" d="M-367.1,282.5h-0.8c-0.2,0-0.3,0.1-0.3,0.3c0,0.2,0.1,0.3,0.3,0.3h0.8
					c0.2,0,0.3-0.1,0.3-0.3C-366.8,282.7-366.9,282.5-367.1,282.5z"/>
			</g>
			<g id="XMLID_748_">
				<path id="XMLID_749_" class="st1" d="M-363.9,280.9l-0.6,0.6c-0.1,0.1-0.1,0.3,0,0.4s0.1,0.1,0.2,0.1s0.1,0,0.2-0.1l0.6-0.6
					c0.1-0.1,0.1-0.3,0-0.4C-363.6,280.8-363.8,280.8-363.9,280.9z"/>
			</g>
			<g id="XMLID_746_">
				<path id="XMLID_747_" class="st1" d="M-366.8,283.9l-0.6,0.6c-0.1,0.1-0.1,0.3,0,0.4s0.1,0.1,0.2,0.1s0.1,0,0.2-0.1l0.6-0.6
					c0.1-0.1,0.1-0.3,0-0.4C-366.5,283.7-366.7,283.7-366.8,283.9z"/>
			</g>
			<g id="XMLID_744_">
				<path id="XMLID_745_" class="st1" d="M-365.4,280.1c-0.2,0-0.3,0.1-0.3,0.3v0.8c0,0.2,0.1,0.3,0.3,0.3c0.2,0,0.3-0.1,0.3-0.3
					v-0.8C-365.2,280.2-365.3,280.1-365.4,280.1z"/>
			</g>
			<g id="XMLID_742_">
				<path id="XMLID_743_" class="st1" d="M-365.4,284.2c-0.2,0-0.3,0.1-0.3,0.3v0.8c0,0.2,0.1,0.3,0.3,0.3c0.2,0,0.3-0.1,0.3-0.3
					v-0.8C-365.2,284.3-365.3,284.2-365.4,284.2z"/>
			</g>
			<g id="XMLID_740_">
				<path id="XMLID_741_" class="st1" d="M-367,280.9c-0.1-0.1-0.3-0.1-0.4,0s-0.1,0.3,0,0.4l0.6,0.6c0.1,0.1,0.1,0.1,0.2,0.1
					s0.1,0,0.2-0.1s0.1-0.3,0-0.4L-367,280.9z"/>
			</g>
			<g id="XMLID_738_">
				<path id="XMLID_739_" class="st1" d="M-364.1,283.9c-0.1-0.1-0.3-0.1-0.4,0s-0.1,0.3,0,0.4l0.6,0.6c0.1,0.1,0.1,0.1,0.2,0.1
					s0.1,0,0.2-0.1s0.1-0.3,0-0.4L-364.1,283.9z"/>
			</g>
		</g>
		<g id="XMLID_733_">
			<path id="XMLID_734_" class="st1" d="M-331.3,321.8l-0.6-0.3c-0.3-0.2-0.5-0.4-0.7-0.7l-0.3-0.6c-0.1-0.2-0.4-0.2-0.5,0l-0.3,0.6
				c-0.2,0.3-0.4,0.5-0.7,0.7l-0.6,0.3c-0.1,0-0.1,0.1-0.1,0.2s0.1,0.2,0.1,0.2l0.6,0.3c0.3,0.2,0.5,0.4,0.7,0.7l0.3,0.6
				c0,0.1,0.1,0.1,0.2,0.1s0.2-0.1,0.2-0.1l0.3-0.6c0.2-0.3,0.4-0.5,0.7-0.7l0.6-0.3c0.1,0,0.1-0.1,0.1-0.2
				C-331.1,321.9-331.2,321.8-331.3,321.8z M-332.2,322.1c-0.4,0.2-0.7,0.5-0.9,0.9v0.2l-0.1-0.2c-0.2-0.4-0.5-0.7-0.9-0.9l-0.2-0.1
				l0.2-0.1l0,0c0.4-0.2,0.7-0.5,0.9-0.9l0.1-0.2l0.1,0.2c0.2,0.4,0.5,0.7,0.9,0.9l0.2,0.1L-332.2,322.1z"/>
		</g>
		<g id="XMLID_729_">
			<path id="XMLID_730_" class="st1" d="M-373.2,309.4l-0.6-0.3c-0.3-0.2-0.5-0.4-0.7-0.7l-0.3-0.6c-0.1-0.2-0.4-0.2-0.5,0l-0.3,0.6
				c-0.2,0.3-0.4,0.5-0.7,0.7l-0.6,0.3c-0.1,0-0.1,0.1-0.1,0.2s0.1,0.2,0.1,0.2l0.6,0.3c0.3,0.2,0.5,0.4,0.7,0.7l0.3,0.6
				c0,0.1,0.1,0.1,0.2,0.1s0.2-0.1,0.2-0.1l0.3-0.6c0.2-0.3,0.4-0.5,0.7-0.7l0.6-0.3c0.1,0,0.1-0.1,0.1-0.2
				C-373,309.6-373.1,309.5-373.2,309.4z M-374.1,309.8c-0.4,0.2-0.7,0.5-0.9,0.9l-0.1,0.2v-0.3c-0.2-0.4-0.5-0.7-0.9-0.9h-0.2
				l0.2-0.1c0.4-0.2,0.7-0.5,0.9-0.9l0.1-0.2l0.1,0.2c0.2,0.4,0.5,0.7,0.9,0.9l0.2,0.1L-374.1,309.8z"/>
		</g>
		<g id="XMLID_720_">
			<g id="XMLID_727_">
				<path id="XMLID_728_" class="st1" d="M-318.3,284.5h-0.5c-0.2,0-0.3,0.1-0.3,0.3c0,0.2,0.1,0.3,0.3,0.3h0.5
					c0.2,0,0.3-0.1,0.3-0.3C-318.1,284.6-318.2,284.5-318.3,284.5z"/>
			</g>
			<g id="XMLID_725_">
				<path id="XMLID_726_" class="st1" d="M-321.1,284.5h-0.5c-0.2,0-0.3,0.1-0.3,0.3c0,0.2,0.1,0.3,0.3,0.3h0.5
					c0.2,0,0.3-0.1,0.3-0.3C-320.8,284.6-320.9,284.5-321.1,284.5z"/>
			</g>
			<g id="XMLID_723_">
				<path id="XMLID_724_" class="st1" d="M-320,282.8c-0.2,0-0.3,0.1-0.3,0.3v0.5c0,0.2,0.1,0.3,0.3,0.3c0.2,0,0.3-0.1,0.3-0.3v-0.5
					C-319.7,282.9-319.8,282.8-320,282.8z"/>
			</g>
			<g id="XMLID_721_">
				<path id="XMLID_722_" class="st1" d="M-320,285.6c-0.2,0-0.3,0.1-0.3,0.3v0.5c0,0.2,0.1,0.3,0.3,0.3c0.2,0,0.3-0.1,0.3-0.3v-0.5
					C-319.7,285.7-319.8,285.6-320,285.6z"/>
			</g>
		</g>
		<g id="XMLID_718_">
			<path id="XMLID_719_" class="st1" d="M-310.1,309.1h-12.1c-0.2,0-0.3,0.1-0.3,0.3c0,0.2,0.1,0.3,0.3,0.3h12.1
				c0.2,0,0.3-0.1,0.3-0.3S-310,309.1-310.1,309.1z"/>
		</g>
		<g id="XMLID_716_">
			<path id="XMLID_717_" class="st1" d="M-347.4,320.6h-2.7c-0.2,0-0.3,0.1-0.3,0.3c0,0.2,0.1,0.3,0.3,0.3h2.7
				c0.2,0,0.3-0.1,0.3-0.3S-347.2,320.6-347.4,320.6z"/>
		</g>
		<g id="XMLID_714_">
			<path id="XMLID_715_" class="st1" d="M-350.9,322.5h-15.4c-0.2,0-0.3,0.1-0.3,0.3c0,0.2,0.1,0.3,0.3,0.3h15.3
				c0.2,0,0.3-0.1,0.3-0.3C-350.7,322.6-350.8,322.5-350.9,322.5z"/>
		</g>
		<g id="XMLID_712_">
			<path id="XMLID_713_" class="st1" d="M-356.4,324.4h-7.4c-0.2,0-0.3,0.1-0.3,0.3s0.1,0.3,0.3,0.3h7.4c0.2,0,0.3-0.1,0.3-0.3
				S-356.3,324.4-356.4,324.4z"/>
		</g>
		<g id="XMLID_710_">
			<path id="XMLID_711_" class="st1" d="M-349.3,324.4h-4.9c-0.2,0-0.3,0.1-0.3,0.3s0.1,0.3,0.3,0.3h4.9c0.2,0,0.3-0.1,0.3-0.3
				S-349.1,324.4-349.3,324.4z"/>
		</g>
		<g id="XMLID_708_">
			<path id="XMLID_709_" class="st1" d="M-312.8,307.2h-3.8c-0.2,0-0.3,0.1-0.3,0.3c0,0.2,0.1,0.3,0.3,0.3h3.8
				c0.2,0,0.3-0.1,0.3-0.3C-312.5,307.3-312.7,307.2-312.8,307.2z"/>
		</g>
		<g id="XMLID_706_">
			<path id="XMLID_707_" class="st1" d="M-318.3,307.2h-1.6c-0.2,0-0.3,0.1-0.3,0.3c0,0.2,0.1,0.2,0.2,0.2h1.6
				c0.2,0,0.3-0.1,0.3-0.3C-318.1,307.2-318.2,307.2-318.3,307.2z"/>
		</g>
	</g>
</g>
<g id="XMLID_1054_">
	<g id="XMLID_1075_">
		<g id="XMLID_1229_">
			<rect id="XMLID_195_" x="-359.1" y="285.9" class="st2" width="26.1" height="29.4"/>
		</g>
		<g id="XMLID_1227_">
			<rect id="XMLID_194_" x="-334.3" y="285.9" class="st3" width="1.3" height="29.4"/>
		</g>
		<g id="XMLID_1225_">
			<rect id="XMLID_193_" x="-359.2" y="285.9" class="st4" width="1.3" height="29.4"/>
		</g>
		<g id="XMLID_1223_">
			<path id="XMLID_192_" class="st5" d="M-333,285.4h-26.1c-0.3,0-0.5,0.2-0.5,0.5v29.4c0,0.3,0.2,0.5,0.5,0.5h26.1
				c0.3,0,0.5-0.2,0.5-0.5V291c0-0.3-0.2-0.5-0.5-0.5s-0.5,0.2-0.5,0.5v23.9h-25v-28.4h25v1.4c0,0.3,0.2,0.5,0.5,0.5
				s0.5-0.2,0.5-0.5V286C-332.4,285.6-332.7,285.4-333,285.4z"/>
		</g>
		<g id="XMLID_1221_">
			<line id="XMLID_191_" class="st6" x1="-333" y1="289.3" x2="-333" y2="289.3"/>
		</g>
		<g id="XMLID_1219_">
			<g id="XMLID_39_">
				<rect id="XMLID_45_" x="-350.9" y="308.7" class="st0" width="9.7" height="6.7"/>
			</g>
		</g>
		<g id="XMLID_1217_">
			<g id="XMLID_58_">
				<polygon id="XMLID_59_" class="st7" points="-347.1,315.2 -341.2,311.5 -341.2,310.2 -348.9,315.2 				"/>
			</g>
		</g>
		<g id="XMLID_1215_">
			<g id="XMLID_54_">
				<polygon id="XMLID_55_" class="st7" points="-349.8,315.2 -341.3,309.8 -341.2,309.2 -350.4,315.2 				"/>
			</g>
		</g>
		<g id="XMLID_1213_">
			<g id="XMLID_47_">
				<polygon id="XMLID_52_" class="st7" points="-344.4,315.3 -341.2,313.3 -341.1,312.8 -345,315.3 				"/>
			</g>
		</g>
		<g id="XMLID_1211_">
			<g id="XMLID_35_">
				<path id="XMLID_36_" class="st5" d="M-341.2,308.1h-9.7c-0.3,0-0.5,0.2-0.5,0.5v1.2c0,0.3,0.2,0.5,0.5,0.5s0.5-0.2,0.5-0.5v-0.6
					h8.6v5.6h-8.6v-3.6c0-0.3-0.2-0.5-0.5-0.5s-0.5,0.2-0.5,0.5v4.2c0,0.3,0.2,0.5,0.5,0.5h9.7c0.3,0,0.5-0.2,0.5-0.5v-6.7
					C-340.6,308.3-340.9,308.1-341.2,308.1z"/>
			</g>
		</g>
		<g id="XMLID_1209_">
			<g id="XMLID_31_">
				<path id="XMLID_32_" class="st5" d="M-346,308.1c-0.3,0-0.5,0.2-0.5,0.5v6.7c0,0.3,0.2,0.5,0.5,0.5s0.5-0.2,0.5-0.5v-6.6
					C-345.5,308.3-345.7,308.1-346,308.1z"/>
			</g>
		</g>
		<g id="XMLID_1207_">
			<rect id="XMLID_184_" x="-359.1" y="274.7" class="st2" width="26.1" height="10.1"/>
		</g>
		<g id="XMLID_1205_">
			<rect id="XMLID_183_" x="-334.3" y="274.7" class="st3" width="1.3" height="9.1"/>
		</g>
		<g id="XMLID_1203_">
			<rect id="XMLID_182_" x="-359.2" y="274.7" class="st4" width="1.3" height="9.1"/>
		</g>
		<g id="XMLID_1199_">
			<path id="XMLID_1200_" class="st5" d="M-333,274.2h-26.1c-0.3,0-0.5,0.2-0.5,0.5v10.1c0,0.3,0.2,0.5,0.5,0.5h26.1
				c0.3,0,0.5-0.2,0.5-0.5v-10.1C-332.4,274.4-332.7,274.2-333,274.2z M-333.5,284.2h-25v-9h25V284.2z"/>
		</g>
		<g id="XMLID_1197_">
			<rect id="XMLID_179_" x="-357.3" y="276.8" class="st0" width="3" height="5.2"/>
		</g>
		<g id="XMLID_1195_">
			<polygon id="XMLID_178_" class="st7" points="-356.7,281.9 -354.4,280 -354.4,279.3 -357.3,281.9 			"/>
		</g>
		<g id="XMLID_1193_">
			<rect id="XMLID_177_" x="-352.4" y="276.8" class="st0" width="3" height="5.2"/>
		</g>
		<g id="XMLID_1191_">
			<rect id="XMLID_176_" x="-347.6" y="276.8" class="st0" width="3" height="5.2"/>
		</g>
		<g id="XMLID_1189_">
			<polygon id="XMLID_175_" class="st7" points="-352.5,278.1 -352.5,278.8 -350,276.8 -350.8,276.8 			"/>
		</g>
		<g id="XMLID_1187_">
			<polygon id="XMLID_174_" class="st7" points="-351.8,281.9 -349.5,279.9 -349.5,279.3 -352.4,281.9 			"/>
		</g>
		<g id="XMLID_1185_">
			<polygon id="XMLID_173_" class="st7" points="-351,281.9 -349.6,280.5 -349.6,280.2 -351.3,281.9 			"/>
		</g>
		<g id="XMLID_1183_">
			<polygon id="XMLID_172_" class="st7" points="-347.4,279.4 -344.7,276.9 -344.7,276.6 -347.7,279.4 			"/>
		</g>
		<g id="XMLID_1181_">
			<polygon id="XMLID_171_" class="st7" points="-347.6,278.1 -347.6,278.8 -345.1,276.8 -345.9,276.7 			"/>
		</g>
		<g id="XMLID_1179_">
			<rect id="XMLID_170_" x="-342.7" y="276.8" class="st0" width="3" height="5.2"/>
		</g>
		<g id="XMLID_1177_">
			<rect id="XMLID_169_" x="-337.8" y="276.8" class="st0" width="3" height="5.2"/>
		</g>
		<g id="XMLID_1175_">
			<polygon id="XMLID_168_" class="st7" points="-341.8,281.9 -339.5,279.9 -339.5,279.1 -342.7,281.9 			"/>
		</g>
		<g id="XMLID_1173_">
			<polygon id="XMLID_167_" class="st7" points="-337.9,278.1 -337.8,278.8 -335.4,276.8 -336.2,276.8 			"/>
		</g>
		<g id="XMLID_1169_">
			<path id="XMLID_1170_" class="st5" d="M-354.4,276.2h-3c-0.3,0-0.5,0.2-0.5,0.5v5.2c0,0.3,0.2,0.5,0.5,0.5h3
				c0.3,0,0.5-0.2,0.5-0.5v-5.1C-353.8,276.5-354.1,276.2-354.4,276.2z M-354.9,281.4h-1.9v-4.1h1.9V281.4z"/>
		</g>
		<g id="XMLID_1165_">
			<path id="XMLID_1166_" class="st5" d="M-349.5,276.2h-3c-0.3,0-0.5,0.2-0.5,0.5v5.2c0,0.3,0.2,0.5,0.5,0.5h3
				c0.3,0,0.5-0.2,0.5-0.5v-5.1C-348.9,276.5-349.2,276.2-349.5,276.2z M-350,281.4h-1.9v-4.1h1.9V281.4z"/>
		</g>
		<g id="XMLID_1161_">
			<path id="XMLID_1162_" class="st5" d="M-344.6,276.2h-3c-0.3,0-0.5,0.2-0.5,0.5v5.2c0,0.3,0.2,0.5,0.5,0.5h3
				c0.3,0,0.5-0.2,0.5-0.5v-5.1C-344,276.5-344.3,276.2-344.6,276.2z M-345.1,281.4h-1.9v-4.1h1.9V281.4z"/>
		</g>
		<g id="XMLID_1157_">
			<path id="XMLID_1158_" class="st5" d="M-339.7,276.2h-3c-0.3,0-0.5,0.2-0.5,0.5v5.2c0,0.3,0.2,0.5,0.5,0.5h3
				c0.3,0,0.5-0.2,0.5-0.5v-5.1C-339.1,276.5-339.4,276.2-339.7,276.2z M-340.2,281.4h-1.9v-4.1h1.9V281.4z"/>
		</g>
		<g id="XMLID_1154_">
			<rect id="XMLID_157_" x="-356.7" y="298.4" class="st0" width="21.3" height="4.5"/>
		</g>
		<g id="XMLID_1152_">
			<rect id="XMLID_156_" x="-356.7" y="289.5" class="st0" width="21.3" height="4.5"/>
		</g>
		<g id="XMLID_1150_">
			<polygon id="XMLID_155_" class="st7" points="-351.2,293.9 -349.4,293.9 -342.3,289.5 -344.4,289.5 			"/>
		</g>
		<g id="XMLID_1148_">
			<polygon id="XMLID_154_" class="st7" points="-352.8,293.9 -352.1,293.9 -345.1,289.5 -345.9,289.5 			"/>
		</g>
		<g id="XMLID_1146_">
			<polygon id="XMLID_153_" class="st7" points="-345.2,293.9 -344.5,293.9 -337.5,289.5 -338.4,289.5 			"/>
		</g>
		<g id="XMLID_1144_">
			<polygon id="XMLID_152_" class="st7" points="-348.8,302.9 -347,302.9 -340,298.4 -342,298.4 			"/>
		</g>
		<g id="XMLID_1142_">
			<polygon id="XMLID_151_" class="st7" points="-350.4,302.9 -349.7,302.9 -342.7,298.4 -343.5,298.4 			"/>
		</g>
		<g id="XMLID_1140_">
			<polygon id="XMLID_150_" class="st7" points="-356,302.9 -355.4,302.9 -348.3,298.4 -349.2,298.4 			"/>
		</g>
		<g id="XMLID_1136_">
			<path id="XMLID_1137_" class="st5" d="M-334.8,276.2h-3c-0.3,0-0.5,0.2-0.5,0.5v5.2c0,0.3,0.2,0.5,0.5,0.5h3
				c0.3,0,0.5-0.2,0.5-0.5v-5.1C-334.2,276.5-334.5,276.2-334.8,276.2z M-335.3,281.4h-1.9v-4.1h1.9V281.4z"/>
		</g>
		<g id="XMLID_1134_">
			<g id="XMLID_61_">
				<rect id="XMLID_62_" x="-360.5" y="283.8" class="st8" width="29" height="2.1"/>
			</g>
		</g>
		<g id="XMLID_1132_">
			<g id="XMLID_75_">
				<rect id="XMLID_76_" x="-333.7" y="283.9" class="st9" width="2.2" height="1.8"/>
			</g>
		</g>
		<g id="XMLID_1130_">
			<rect id="XMLID_145_" x="-360.5" y="283.9" class="st10" width="1.3" height="1.8"/>
		</g>
		<g id="XMLID_1127_">
			<path id="XMLID_144_" class="st5" d="M-331.5,283.2h-22.6c-0.3,0-0.5,0.2-0.5,0.5s0.2,0.5,0.5,0.5h22v1H-360v-1h4.3
				c0.3,0,0.5-0.2,0.5-0.5s-0.2-0.5-0.5-0.5h-4.9c-0.3,0-0.5,0.2-0.5,0.5v2.1c0,0.3,0.2,0.5,0.5,0.5h29c0.3,0,0.5-0.2,0.5-0.5v-2.1
				C-331,283.5-331.2,283.2-331.5,283.2z"/>
		</g>
		<g id="XMLID_1125_">
			<g id="XMLID_69_">
				<rect id="XMLID_70_" x="-360.5" y="272.7" class="st10" width="29" height="2.1"/>
			</g>
		</g>
		<g id="XMLID_1123_">
			<g id="XMLID_72_">
				<rect id="XMLID_73_" x="-333.7" y="272.7" class="st9" width="2.2" height="1.8"/>
			</g>
		</g>
		<g id="XMLID_1120_">
			<rect id="XMLID_141_" x="-360.5" y="272.7" class="st10" width="1.3" height="1.8"/>
		</g>
		<g id="XMLID_1118_">
			<path id="XMLID_140_" class="st5" d="M-331.5,272.1h-6.2c-0.3,0-0.5,0.2-0.5,0.5s0.2,0.5,0.5,0.5h5.6v1H-360v-1h19.3
				c0.3,0,0.5-0.2,0.5-0.5s-0.2-0.5-0.5-0.5h-19.8c-0.3,0-0.6,0.3-0.6,0.6v2c0,0.3,0.2,0.5,0.5,0.5h29c0.3,0,0.5-0.2,0.5-0.5v-2
				C-331,272.4-331.2,272.1-331.5,272.1z"/>
		</g>
		<g id="XMLID_1116_">
			<path id="XMLID_139_" class="st5" d="M-339.1,272.1L-339.1,272.1c-0.4,0-0.6,0.2-0.6,0.5s0.2,0.5,0.5,0.5h0.1
				c0.3,0,0.5-0.2,0.5-0.5C-338.6,272.4-338.8,272.1-339.1,272.1z"/>
		</g>
		<g id="XMLID_1113_">
			<path id="XMLID_138_" class="st5" d="M-332.9,288.8L-332.9,288.8c-0.4,0-0.6,0.2-0.6,0.5s0.2,0.5,0.5,0.5h0.1
				c0.3,0,0.5-0.2,0.5-0.5C-332.4,289.1-332.6,288.8-332.9,288.8z"/>
		</g>
		<g id="XMLID_1110_">
			<path id="XMLID_137_" class="st5" d="M-351.5,297.9c-0.3,0-0.5,0.2-0.5,0.5v4.3c0,0.3,0.2,0.5,0.5,0.5s0.5-0.2,0.5-0.5v-4.2
				C-351,298.2-351.2,297.9-351.5,297.9z"/>
		</g>
		<g id="XMLID_1107_">
			<path id="XMLID_136_" class="st5" d="M-340.8,297.9c-0.3,0-0.5,0.2-0.5,0.5v4.3c0,0.3,0.2,0.5,0.5,0.5s0.5-0.2,0.5-0.5v-4.2
				C-340.3,298.2-340.5,297.9-340.8,297.9z"/>
		</g>
		<g id="XMLID_1104_">
			<path id="XMLID_135_" class="st5" d="M-346.3,297.9c-0.3,0-0.5,0.2-0.5,0.5v4.3c0,0.3,0.2,0.5,0.5,0.5s0.5-0.2,0.5-0.5v-4.2
				C-345.8,298.2-346,297.9-346.3,297.9z"/>
		</g>
		<g id="XMLID_1102_">
			<path id="XMLID_134_" class="st5" d="M-335.4,297.8h-12.7c-0.3,0-0.5,0.2-0.5,0.5s0.2,0.5,0.5,0.5h12.2v3.4h-20.2v-3.4h5.2
				c0.3,0,0.5-0.2,0.5-0.5s-0.2-0.5-0.5-0.5h-5.7c-0.3,0-0.5,0.2-0.5,0.5v4.5c0,0.3,0.2,0.5,0.5,0.5h21.3c0.3,0,0.5-0.2,0.5-0.5
				v-4.5C-334.8,298.1-335.1,297.8-335.4,297.8z"/>
		</g>
		<g id="XMLID_1100_">
			<path id="XMLID_133_" class="st5" d="M-349.6,297.8h-0.1c-0.3,0-0.5,0.2-0.5,0.5s0.2,0.5,0.5,0.5h0.1c0.3,0,0.5-0.2,0.5-0.5
				C-349,298.1-349.3,297.8-349.6,297.8z"/>
		</g>
		<g id="XMLID_1095_">
			<rect id="XMLID_132_" x="-357.7" y="302.9" class="st3" width="23.3" height="1.4"/>
			<path id="XMLID_1096_" class="st5" d="M-334.4,302.4h-23.3c-0.3,0-0.5,0.2-0.5,0.5v1.4c0,0.3,0.2,0.5,0.5,0.5h23.3
				c0.3,0,0.5-0.2,0.5-0.5v-1.4C-333.8,302.6-334.1,302.4-334.4,302.4z M-334.9,303.8h-22.2v-0.4h22.2V303.8z"/>
		</g>
		<g id="XMLID_1093_">
			<path id="XMLID_129_" class="st5" d="M-351.5,289c-0.3,0-0.5,0.2-0.5,0.5v4.2c0,0.3,0.2,0.5,0.5,0.5s0.5-0.2,0.5-0.5v-4.2
				C-351,289.2-351.2,289-351.5,289z"/>
		</g>
		<g id="XMLID_1091_">
			<path id="XMLID_128_" class="st5" d="M-340.8,289c-0.3,0-0.5,0.2-0.5,0.5v4.2c0,0.3,0.2,0.5,0.5,0.5s0.5-0.2,0.5-0.5v-4.2
				C-340.3,289.2-340.5,289-340.8,289z"/>
		</g>
		<g id="XMLID_1089_">
			<path id="XMLID_127_" class="st5" d="M-346.3,289c-0.3,0-0.5,0.2-0.5,0.5v4.2c0,0.3,0.2,0.5,0.5,0.5s0.5-0.2,0.5-0.5v-4.2
				C-345.8,289.2-346,289-346.3,289z"/>
		</g>
		<g id="XMLID_1085_">
			<path id="XMLID_1086_" class="st5" d="M-335.4,288.9h-21.3c-0.3,0-0.5,0.2-0.5,0.5v4.5c0,0.3,0.2,0.5,0.5,0.5h21.3
				c0.3,0,0.5-0.2,0.5-0.5v-4.5C-334.8,289.1-335.1,288.9-335.4,288.9z M-335.9,293.4h-20.2V290h20.2V293.4z"/>
		</g>
		<g id="XMLID_1080_">
			<rect id="XMLID_124_" x="-357.7" y="294" class="st3" width="23.3" height="1.4"/>
			<path id="XMLID_1081_" class="st5" d="M-334.4,293.4h-23.3c-0.3,0-0.5,0.2-0.5,0.5v1.4c0,0.3,0.2,0.5,0.5,0.5h23.3
				c0.3,0,0.5-0.2,0.5-0.5v-1.4C-333.8,293.7-334.1,293.4-334.4,293.4z M-334.9,294.9h-22.2v-0.4h22.2V294.9z"/>
		</g>
		<g id="XMLID_1078_">
			<path id="XMLID_121_" class="st5" d="M-347.4,311c-0.3,0-0.5,0.2-0.5,0.5v0.5c0,0.3,0.2,0.5,0.5,0.5s0.5-0.2,0.5-0.5v-0.5
				C-346.8,311.3-347.1,311-347.4,311z"/>
		</g>
		<g id="XMLID_1076_">
			<path id="XMLID_120_" class="st5" d="M-344.9,311c-0.3,0-0.5,0.2-0.5,0.5v0.5c0,0.3,0.2,0.5,0.5,0.5s0.5-0.2,0.5-0.5v-0.5
				C-344.3,311.3-344.6,311-344.9,311z"/>
		</g>
	</g>
	<g id="XMLID_1057_">
		<g id="XMLID_1073_">
			<g id="XMLID_28_">
				<path id="XMLID_29_" class="st11" d="M-358.9,306.9c0-0.1,0-0.2,0-0.3c0-1.3-1-2.3-2.3-2.3s-2.3,1-2.3,2.3c0,0.1,0,0.3,0,0.4
					c-1.1,0.4-1.9,1.4-1.9,2.7c0,1.5,1.2,2.8,2.8,2.8c1,0,1.9-0.5,2.3-1.3c0.4,0.2,0.8,0.3,1.2,0.3c1.3,0,2.3-1,2.3-2.3
					C-356.8,308-357.7,307-358.9,306.9z"/>
			</g>
		</g>
		<g id="XMLID_1068_">
			<g id="XMLID_63_">
				<g id="XMLID_66_">
					<path id="XMLID_67_" class="st11" d="M-363.4,306.6c0,0.1,0,0.3,0,0.4c-1.1,0.4-1.9,1.4-1.9,2.7c0,1.5,1.2,2.8,2.8,2.8
						c0.2,0,0.3,0,0.5,0c-1.3-0.2-2.3-1.4-2.3-2.7c0-1.2,0.8-2.3,1.9-2.7c0-0.1,0-0.3,0-0.4c0-1.1,0.8-2.1,1.9-2.3
						c-0.1,0-0.3,0-0.4,0C-362.3,304.3-363.4,305.3-363.4,306.6z"/>
				</g>
				<g id="XMLID_64_">
					<path id="XMLID_65_" class="st12" d="M-359.1,306.9c0-0.1,0-0.2,0-0.3c0-1.3-1-2.3-2.3-2.3c-0.2,0-0.3,0-0.4,0
						c1.1,0.2,1.9,1.1,1.9,2.3c0,0.1,0,0.2,0,0.3c1.2,0.1,2.2,1.1,2.2,2.3c0,1.1-0.8,2.1-1.9,2.3c0.1,0,0.3,0,0.4,0
						c1.3,0,2.3-1,2.3-2.3C-357,308-357.9,307-359.1,306.9z"/>
				</g>
			</g>
		</g>
		<g id="XMLID_1064_">
			<g id="XMLID_48_">
				<path id="XMLID_49_" class="st13" d="M-358.4,306.5c-0.1-1.5-1.3-2.7-2.9-2.7s-2.9,1.3-2.9,2.9c0,0,0,0,0,0.1
					c-1.2,0.5-1.9,1.7-1.9,3c0,1.8,1.5,3.3,3.3,3.3c1,0,1.9-0.4,2.5-1.1c0.3,0.1,0.7,0.2,1,0.2c1.6,0,2.9-1.3,2.9-2.9
					C-356.2,307.9-357.1,306.8-358.4,306.5z M-359.1,311c-0.3,0-0.6-0.1-0.9-0.3c-0.3-0.2-0.6-0.1-0.7,0.2c-0.4,0.6-1.1,1-1.9,1
					c-1.2,0-2.2-1-2.2-2.2c0-1,0.6-1.8,1.6-2.1c0.3-0.1,0.4-0.4,0.4-0.6c0-0.1,0-0.2,0-0.3c0-1,0.8-1.8,1.8-1.8s1.8,0.8,1.8,1.8
					c0,0.1,0,0.1,0,0.2c0,0.2,0,0.3,0.1,0.4s0.2,0.2,0.4,0.2c0.9,0.1,1.6,0.8,1.6,1.8C-357.3,310.2-358.1,311-359.1,311z"/>
			</g>
		</g>
		<g id="XMLID_1062_">
			<g id="XMLID_25_">
				<path id="XMLID_26_" class="st13" d="M-360.8,307.5c-0.3,0-0.5,0.2-0.5,0.5v7.1c0,0.3,0.2,0.5,0.5,0.5s0.5-0.2,0.5-0.5V308
					C-360.2,307.7-360.5,307.5-360.8,307.5z"/>
			</g>
		</g>
		<g id="XMLID_1060_">
			<g id="XMLID_22_">
				<path id="XMLID_23_" class="st13" d="M-360,309l-0.9,0.9c-0.2,0.2-0.2,0.6,0,0.8c0.1,0.1,0.2,0.2,0.4,0.2c0.1,0,0.3-0.1,0.4-0.2
					l0.9-0.9c0.2-0.2,0.2-0.6,0-0.8C-359.4,308.7-359.8,308.7-360,309z"/>
			</g>
		</g>
		<g id="XMLID_1058_">
			<g id="XMLID_19_">
				<path id="XMLID_20_" class="st13" d="M-361.8,307.7c-0.2-0.2-0.6-0.2-0.8,0s-0.2,0.6,0,0.8l1.4,1.4c0.1,0.1,0.2,0.2,0.4,0.2
					c0.1,0,0.3-0.1,0.4-0.2c0.2-0.2,0.2-0.6,0-0.8L-361.8,307.7z"/>
			</g>
		</g>
	</g>
	<g id="XMLID_1055_">
		<path id="XMLID_111_" class="st5" d="M-325.4,314.9h-39.5c-0.3,0-0.5,0.2-0.5,0.5s0.2,0.5,0.5,0.5h39.4c0.3,0,0.5-0.2,0.5-0.5
			C-324.9,315.1-325.1,314.9-325.4,314.9z"/>
	</g>
</g>
</svg>
