<?xml version="1.0" encoding="utf-8"?>
<!-- Generator: Adobe Illustrator 19.0.0, SVG Export Plug-In . SVG Version: 6.00 Build 0)  -->
<svg version="1.1" id="Isolation_Mode" xmlns="http://www.w3.org/2000/svg" xmlns:xlink="http://www.w3.org/1999/xlink" x="0px"
	 y="0px" viewBox="-402.7 280.3 34.8 34.9" style="enable-background:new -402.7 280.3 34.8 34.9;" xml:space="preserve">
<style type="text/css">
	.st0{fill:url(#SVGID_1_);}
	.st1{fill:url(#SVGID_2_);}
	.st2{fill:url(#SVGID_3_);}
	.st3{fill:url(#SVGID_4_);}
	.st4{fill:url(#SVGID_5_);}
	.st5{fill:url(#SVGID_6_);}
	.st6{fill:url(#SVGID_7_);}
	.st7{fill:url(#SVGID_8_);}
</style>
<g>
	
		<linearGradient id="SVGID_1_" gradientUnits="userSpaceOnUse" x1="-410.77" y1="279.158" x2="-367.2891" y2="311.9232" gradientTransform="matrix(1 0 0 -1 0 595.4399)">
		<stop  offset="0" style="stop-color:#7094A8"/>
		<stop  offset="0.9946" style="stop-color:#DDEDF5"/>
	</linearGradient>
	<path class="st0" d="M-367.9,292.2c0-0.2-0.1-0.4-0.2-0.5l-3-3c-0.3-0.3-0.7-0.3-1,0l-2.3,2.3c-0.1,0-0.1,0.1-0.2,0.1
		c0,0-0.1,0.1-0.1,0.2l-2.3,2.3v-5.9c0-1-0.9-1.9-1.9-1.9h-3.8v-1c0-0.4-0.3-0.7-0.6-0.7h-2c-0.3-2.2-2.2-3.8-4.5-3.8
		c-2.3,0-4.2,1.7-4.5,3.8h-2c-0.4,0-0.7,0.3-0.7,0.7v1h-3.8c-1,0-1.9,0.9-1.9,1.9l0,0v25.6l0,0c0,1,0.9,1.9,1.9,1.9h22
		c1,0,1.9-0.9,1.9-1.9v-11.8l5.9-5.9l0.9,0.9l-5.3,5.2c-0.3,0.3-0.3,0.7,0,1c0.3,0.3,0.7,0.3,1,0l5.8-5.7c0.1-0.1,0.2-0.3,0.2-0.5
		c0-0.2-0.1-0.4-0.2-0.5l-1.4-1.4l1.9-1.9C-368,292.5-367.9,292.4-367.9,292.2z M-395.6,285.5h2c0.4,0,0.7-0.3,0.7-0.7
		c0-1.7,1.4-3.1,3.2-3.1s3.2,1.4,3.2,3.1c0,0.4,0.3,0.7,0.7,0.7h2v2.1h-11.8V285.5z M-378.4,313.3c0,0.2-0.2,0.5-0.5,0.5h-22
		c-0.2,0-0.5-0.2-0.5-0.5v-25.6c0-0.2,0.2-0.5,0.5-0.5h3.9v1c0,0.4,0.3,0.7,0.7,0.7h13c0.4,0,0.7-0.3,0.7-0.7v-1h3.8
		c0.2,0,0.5,0.2,0.5,0.5v7.3l-9.2,9.1c-1.2,1.2-1.7,2.6-1.4,3.8c0,0.1,0.1,0.3,0.1,0.4l-1.2,1.2c-0.3,0.3-0.3,0.7,0,1
		c0.3,0.3,0.7,0.3,1,0l1.2-1.2c0.2,0.1,0.3,0.2,0.5,0.2c1.2,0.3,2.5-0.2,3.8-1.4l5.1-5.1V313.3z M-384.5,307.1
		c-0.8,0.8-1.7,1.2-2.4,1c-0.2,0-0.3-0.1-0.4-0.2l0,0c-0.1-0.1-0.1-0.2-0.2-0.4c-0.2-0.7,0.2-1.5,1-2.4l12.5-12.5l2,2L-384.5,307.1z
		 M-371,293.6l-2-2l1.4-1.4l2,2L-371,293.6z"/>
	
		<linearGradient id="SVGID_2_" gradientUnits="userSpaceOnUse" x1="-415.7584" y1="287.1987" x2="-372.8234" y2="319.5526" gradientTransform="matrix(1 0 0 -1 0 595.4399)">
		<stop  offset="0" style="stop-color:#7094A8"/>
		<stop  offset="0.9946" style="stop-color:#DDEDF5"/>
	</linearGradient>
	<path class="st1" d="M-395.3,292.5l-1,1.3l-0.8-1.1c-0.2-0.3-0.7-0.4-1-0.1c-0.3,0.2-0.4,0.7-0.1,1l1.4,1.8
		c0.1,0.2,0.3,0.3,0.6,0.3s0.4-0.1,0.6-0.3l1.6-2.1c0.2-0.3,0.2-0.8-0.1-1C-394.6,292.1-395.1,292.2-395.3,292.5z"/>
	
		<linearGradient id="SVGID_3_" gradientUnits="userSpaceOnUse" x1="-413.6891" y1="284.1581" x2="-370.754" y2="316.5121" gradientTransform="matrix(1 0 0 -1 0 595.4399)">
		<stop  offset="0" style="stop-color:#7094A8"/>
		<stop  offset="0.9946" style="stop-color:#DDEDF5"/>
	</linearGradient>
	<path class="st2" d="M-395.3,297.1l-1,1.3l-0.8-1.1c-0.2-0.3-0.7-0.4-1-0.1c-0.3,0.2-0.4,0.7-0.1,1l1.4,1.8
		c0.1,0.2,0.3,0.3,0.6,0.3s0.4-0.1,0.6-0.3l1.6-2.1c0.2-0.3,0.2-0.8-0.1-1C-394.6,296.7-395.1,296.8-395.3,297.1z"/>
	
		<linearGradient id="SVGID_4_" gradientUnits="userSpaceOnUse" x1="-411.6196" y1="281.1176" x2="-368.685" y2="313.4712" gradientTransform="matrix(1 0 0 -1 0 595.4399)">
		<stop  offset="0" style="stop-color:#7094A8"/>
		<stop  offset="0.9946" style="stop-color:#DDEDF5"/>
	</linearGradient>
	<path class="st3" d="M-395.3,301.7l-1,1.3l-0.8-1.1c-0.2-0.3-0.7-0.4-1-0.1c-0.3,0.2-0.4,0.7-0.1,1l1.4,1.8
		c0.1,0.2,0.3,0.3,0.6,0.3s0.4-0.1,0.6-0.3l1.6-2.1c0.2-0.3,0.2-0.8-0.1-1C-394.6,301.3-395.1,301.4-395.3,301.7z"/>
	
		<linearGradient id="SVGID_5_" gradientUnits="userSpaceOnUse" x1="-412.4147" y1="282.9985" x2="-369.8389" y2="315.0816" gradientTransform="matrix(1 0 0 -1 0 595.4399)">
		<stop  offset="0" style="stop-color:#7094A8"/>
		<stop  offset="0.9946" style="stop-color:#DDEDF5"/>
	</linearGradient>
	<path class="st4" d="M-392.2,294.5h9.1c0.4,0,0.7-0.3,0.7-0.7s-0.3-0.7-0.7-0.7h-9.1c-0.4,0-0.7,0.3-0.7,0.7
		S-392.6,294.5-392.2,294.5z"/>
	
		<linearGradient id="SVGID_6_" gradientUnits="userSpaceOnUse" x1="-410.773" y1="280.4399" x2="-368.1446" y2="312.5626" gradientTransform="matrix(1 0 0 -1 0 595.4399)">
		<stop  offset="0" style="stop-color:#7094A8"/>
		<stop  offset="0.9946" style="stop-color:#DDEDF5"/>
	</linearGradient>
	<path class="st5" d="M-392.2,299.2h6.7c0.4,0,0.7-0.3,0.7-0.7c0-0.4-0.3-0.7-0.7-0.7h-6.7c-0.4,0-0.7,0.3-0.7,0.7
		C-392.9,298.9-392.6,299.2-392.2,299.2z"/>
	
		<linearGradient id="SVGID_7_" gradientUnits="userSpaceOnUse" x1="-409.3573" y1="278.1124" x2="-366.5818" y2="310.3459" gradientTransform="matrix(1 0 0 -1 0 595.4399)">
		<stop  offset="0" style="stop-color:#7094A8"/>
		<stop  offset="0.9946" style="stop-color:#DDEDF5"/>
	</linearGradient>
	<path class="st6" d="M-388,303.1c0-0.4-0.3-0.7-0.7-0.7h-3.5c-0.4,0-0.7,0.3-0.7,0.7c0,0.4,0.3,0.7,0.7,0.7h3.5
		C-388.3,303.8-388,303.5-388,303.1z"/>
	
		<linearGradient id="SVGID_8_" gradientUnits="userSpaceOnUse" x1="-417.8286" y1="289.5389" x2="-374.2783" y2="322.3564" gradientTransform="matrix(1 0 0 -1 0 595.4399)">
		<stop  offset="0" style="stop-color:#7094A8"/>
		<stop  offset="0.9946" style="stop-color:#DDEDF5"/>
	</linearGradient>
	<path class="st7" d="M-389.8,282.8c-1.1,0-2,0.9-2,2s0.9,2,2,2s2-0.9,2-2S-388.7,282.8-389.8,282.8z M-389.8,285.4
		c-0.3,0-0.6-0.3-0.6-0.6s0.3-0.6,0.6-0.6c0.3,0,0.6,0.3,0.6,0.6S-389.5,285.4-389.8,285.4z"/>
</g>
</svg>
