<?xml version="1.0" encoding="utf-8"?>
<!-- Generator: Adobe Illustrator 19.0.0, SVG Export Plug-In . SVG Version: 6.00 Build 0)  -->
<svg version="1.1" id="Digital_Marketing" xmlns="http://www.w3.org/2000/svg" xmlns:xlink="http://www.w3.org/1999/xlink" x="0px"
	 y="0px" viewBox="-383.1 273.1 74.5 50.6" style="enable-background:new -383.1 273.1 74.5 50.6;" xml:space="preserve">
<style type="text/css">
	.st0{fill:#DFF1FB;}
	.st1{fill:#4B6270;}
	.st2{fill:#4C6371;}
	.st3{fill:#BCE2F5;}
	.st4{fill:#D2E9F7;}
	.st5{fill:#4B636F;}
	.st6{fill:#BCE2F7;}
	.st7{fill:#8ECEF1;}
	.st8{fill:#E0F2FC;}
	.st9{fill:#8DCFF1;}
	.st10{fill:#4FB4E8;}
	.st11{fill:#90CFF2;}
	.st12{fill:#9FDCEE;}
	.st13{fill:#E0F3FA;}
</style>
<path id="XMLID_110_" class="st0" d="M-311.1,290.7h-7.9h-2.1c-1.4,0-2.5-1.1-2.5-2.4l0,0c0-1.4,1.2-2.5,2.5-2.5h2.1h2.8
	c1.4,0,2.4-1.1,2.4-2.4l0,0c0-1.4-1-2.5-2.4-2.5h-10.3h-1c-0.1-0.1-0.2-0.2-0.3-0.4c-9.9-9.9-25.9-9.9-35.8,0
	c-2.2,2.2-4,4.8-5.2,7.5h-4.8c-1.4,0-2.4,1.1-2.4,2.4l0,0c0,1.4,1.1,2.5,2.4,2.5h1.1h6.7c1.4,0,2.4,1.1,2.4,2.4l0,0
	c0,1.4-1,2.5-2.4,2.5h-6.7h-8.2c-1.4,0-2.4,1.1-2.4,2.4l0,0c0,1.4,1.1,2.5,2.4,2.5h8.2h1.7c1.4,0,2.4,1.1,2.4,2.4l0,0
	c0,1.4-1,2.5-2.4,2.5h-1.7h-3.1c-1.4,0-2.6,1.1-2.6,2.4l0,0c0,1.4,1.2,2.5,2.6,2.5h8.9c0.9,1.3,1.9,2.5,3.1,3.7
	c9.9,9.9,25.9,9.9,35.8,0c3.1-3.1,5.3-6.9,6.4-10.8h3.2c1.4,0,2.5-1.1,2.5-2.4l0,0c0-1.4-1.2-2.5-2.5-2.5h-0.8h-7
	c-1.4,0-2.5-1.1-2.5-2.4l0,0c0-1.4,1.2-2.5,2.5-2.5h7h7.9c1.4,0,2.5-1.1,2.5-2.4l0,0C-308.6,291.8-309.8,290.7-311.1,290.7z"/>
<g id="XMLID_963_">
	<g id="XMLID_702_">
		<g id="XMLID_778_">
			<g id="XMLID_785_">
				<path id="XMLID_786_" class="st1" d="M-342.1,322.2h-1.6c-0.2,0-0.3,0.1-0.3,0.3c0,0.2,0.1,0.3,0.3,0.3h1.6
					c0.2,0,0.3-0.1,0.3-0.3C-341.8,322.3-341.9,322.2-342.1,322.2z"/>
			</g>
			<g id="XMLID_783_">
				<path id="XMLID_784_" class="st1" d="M-334.4,322.2h-6c-0.2,0-0.3,0.1-0.3,0.3c0,0.2,0.1,0.3,0.3,0.3h6c0.2,0,0.3-0.1,0.3-0.3
					C-334.1,322.3-334.2,322.2-334.4,322.2z"/>
			</g>
			<g id="XMLID_781_">
				<path id="XMLID_782_" class="st1" d="M-339.3,320.5h-6c-0.2,0-0.3,0.1-0.3,0.3c0,0.2,0.1,0.3,0.3,0.3h6c0.2,0,0.3-0.1,0.3-0.3
					C-339,320.6-339.2,320.5-339.3,320.5z"/>
			</g>
			<g id="XMLID_779_">
				<path id="XMLID_780_" class="st1" d="M-336,320.5h-1.1c-0.2,0-0.3,0.1-0.3,0.3c0,0.2,0.1,0.3,0.3,0.3h1.1c0.2,0,0.3-0.1,0.3-0.3
					C-335.7,320.6-335.9,320.5-336,320.5z"/>
			</g>
		</g>
		<g id="XMLID_761_">
			<g id="XMLID_776_">
				<path id="XMLID_777_" class="st1" d="M-364,277.3h-0.8c-0.2,0-0.3,0.1-0.3,0.3c0,0.2,0.2,0.2,0.3,0.2h0.8c0.2,0,0.3-0.1,0.3-0.3
					C-363.7,277.3-363.8,277.3-364,277.3z"/>
			</g>
			<g id="XMLID_774_">
				<path id="XMLID_775_" class="st1" d="M-359.9,277.3h-0.8c-0.2,0-0.3,0.1-0.3,0.3c0,0.2,0.2,0.2,0.3,0.2h0.8
					c0.2,0,0.3-0.1,0.3-0.3C-359.6,277.3-359.7,277.3-359.9,277.3z"/>
			</g>
			<g id="XMLID_772_">
				<path id="XMLID_773_" class="st1" d="M-363.7,278.5l-0.6,0.6c-0.1,0.1-0.1,0.3,0,0.4c0.1,0.1,0.1,0.1,0.2,0.1s0.1,0,0.2-0.1
					l0.6-0.6c0.1-0.1,0.1-0.3,0-0.4C-363.4,278.4-363.6,278.4-363.7,278.5z"/>
			</g>
			<g id="XMLID_770_">
				<path id="XMLID_771_" class="st1" d="M-360.8,275.6l-0.6,0.6c-0.1,0.1-0.1,0.3,0,0.4c0.1,0.1,0.1,0.1,0.2,0.1s0.1,0,0.2-0.1
					l0.6-0.6c0.1-0.1,0.1-0.3,0-0.4C-360.5,275.5-360.7,275.5-360.8,275.6z"/>
			</g>
			<g id="XMLID_768_">
				<path id="XMLID_769_" class="st1" d="M-362.3,278.9c-0.2,0-0.3,0.1-0.3,0.3v0.8c0,0.2,0.1,0.3,0.3,0.3c0.2,0,0.3-0.1,0.3-0.3
					v-0.8C-362,279-362.2,278.9-362.3,278.9z"/>
			</g>
			<g id="XMLID_766_">
				<path id="XMLID_767_" class="st1" d="M-362.3,274.8c-0.2,0-0.3,0.1-0.3,0.3v0.8c0,0.2,0.1,0.3,0.3,0.3c0.2,0,0.3-0.2,0.3-0.3
					v-0.8C-362,274.9-362.2,274.8-362.3,274.8z"/>
			</g>
			<g id="XMLID_764_">
				<path id="XMLID_765_" class="st1" d="M-361,278.5c-0.1-0.1-0.3-0.1-0.4,0c-0.1,0.1-0.1,0.3,0,0.4l0.6,0.6
					c0.1,0.1,0.1,0.1,0.2,0.1s0.1,0,0.2-0.1c0.1-0.1,0.1-0.3,0-0.4L-361,278.5z"/>
			</g>
			<g id="XMLID_762_">
				<path id="XMLID_763_" class="st1" d="M-363.9,275.6c-0.1-0.1-0.3-0.1-0.4,0c-0.1,0.1-0.1,0.3,0,0.4l0.6,0.6
					c0.1,0.1,0.1,0.1,0.2,0.1s0.1,0,0.2-0.1c0.1-0.1,0.1-0.3,0-0.4L-363.9,275.6z"/>
			</g>
		</g>
		<g id="XMLID_744_">
			<g id="XMLID_759_">
				<path id="XMLID_760_" class="st1" d="M-321,286.3h-0.8c-0.2,0-0.3,0.1-0.3,0.3c0,0.2,0.1,0.3,0.3,0.3h0.8c0.2,0,0.3-0.1,0.3-0.3
					C-320.7,286.4-320.8,286.3-321,286.3z"/>
			</g>
			<g id="XMLID_757_">
				<path id="XMLID_758_" class="st1" d="M-316.9,286.3h-0.8c-0.2,0-0.3,0.1-0.3,0.3c0,0.2,0.1,0.3,0.3,0.3h0.8
					c0.2,0,0.3-0.1,0.3-0.3C-316.6,286.4-316.7,286.3-316.9,286.3z"/>
			</g>
			<g id="XMLID_755_">
				<path id="XMLID_756_" class="st1" d="M-320.7,287.5l-0.6,0.6c-0.1,0.1-0.1,0.3,0,0.4c0.1,0.1,0.1,0.1,0.2,0.1s0.1,0,0.2-0.1
					l0.6-0.6c0.1-0.1,0.1-0.3,0-0.4C-320.4,287.4-320.6,287.4-320.7,287.5z"/>
			</g>
			<g id="XMLID_753_">
				<path id="XMLID_754_" class="st1" d="M-317.8,284.6l-0.6,0.6c-0.1,0.1-0.1,0.3,0,0.4c0.1,0.1,0.1,0.1,0.2,0.1s0.1,0,0.2-0.1
					l0.6-0.6c0.1-0.1,0.1-0.3,0-0.4C-317.5,284.5-317.7,284.5-317.8,284.6z"/>
			</g>
			<g id="XMLID_751_">
				<path id="XMLID_752_" class="st1" d="M-319.3,287.9c-0.2,0-0.3,0.1-0.3,0.3v0.8c0,0.2,0.1,0.3,0.3,0.3c0.2,0,0.3-0.1,0.3-0.3
					v-0.8C-319,288.1-319.2,287.9-319.3,287.9z"/>
			</g>
			<g id="XMLID_749_">
				<path id="XMLID_750_" class="st1" d="M-319.3,283.8c-0.2,0-0.3,0.1-0.3,0.3v0.8c0,0.2,0.1,0.3,0.3,0.3c0.2,0,0.3-0.1,0.3-0.3
					v-0.8C-319,284-319.2,283.8-319.3,283.8z"/>
			</g>
			<g id="XMLID_747_">
				<path id="XMLID_748_" class="st1" d="M-318,287.5c-0.1-0.1-0.3-0.1-0.4,0c-0.1,0.1-0.1,0.3,0,0.4l0.6,0.6
					c0.1,0.1,0.1,0.1,0.2,0.1s0.1,0,0.2-0.1c0.1-0.1,0.1-0.3,0-0.4L-318,287.5z"/>
			</g>
			<g id="XMLID_745_">
				<path id="XMLID_746_" class="st1" d="M-320.9,284.6c-0.1-0.1-0.3-0.1-0.4,0c-0.1,0.1-0.1,0.3,0,0.4l0.6,0.6
					c0.1,0.1,0.1,0.1,0.2,0.1c0.1,0,0.1,0,0.2-0.1s0.1-0.3,0-0.4L-320.9,284.6z"/>
			</g>
		</g>
		<g id="XMLID_740_">
			<path id="XMLID_741_" class="st1" d="M-327.7,317.9l-0.6-0.3c-0.3-0.2-0.5-0.4-0.7-0.7l-0.3-0.6c0-0.1-0.1-0.1-0.2-0.1
				s-0.2,0.1-0.2,0.1l-0.3,0.6c-0.2,0.3-0.4,0.5-0.7,0.7l-0.6,0.3c-0.1,0-0.1,0.1-0.1,0.2s0.1,0.2,0.1,0.2l0.6,0.3
				c0.3,0.2,0.5,0.4,0.7,0.7l0.3,0.6c0,0.1,0.1,0.1,0.2,0.1s0.2-0.1,0.2-0.1l0.3-0.6c0.2-0.3,0.4-0.5,0.7-0.7l0.6-0.3
				c0.1,0,0.1-0.1,0.1-0.2S-327.6,317.9-327.7,317.9z M-328.6,318.2L-328.6,318.2c-0.4,0.2-0.7,0.5-0.9,0.9l-0.1,0.2l-0.1-0.2
				c-0.2-0.4-0.5-0.7-0.9-0.9l-0.2-0.1l0.2-0.1c0.4-0.2,0.7-0.5,0.9-0.9l0.1-0.2l0.1,0.2c0.2,0.4,0.5,0.7,0.9,0.9l0.2,0.1
				L-328.6,318.2z"/>
		</g>
		<g id="XMLID_736_">
			<path id="XMLID_737_" class="st1" d="M-368.7,286.5l-0.6-0.3c-0.3-0.2-0.5-0.4-0.7-0.7l-0.3-0.6c-0.1-0.2-0.4-0.2-0.5,0l-0.3,0.6
				c-0.2,0.3-0.4,0.5-0.7,0.7l-0.6,0.3c-0.1,0-0.1,0.1-0.1,0.2s0.1,0.2,0.1,0.2l0.6,0.3c0.3,0.2,0.5,0.4,0.7,0.7l0.3,0.6
				c0,0.1,0.1,0.1,0.2,0.1s0.2-0.1,0.2-0.1l0.3-0.6c0.2-0.3,0.4-0.5,0.7-0.7l0,0l0.6-0.3c0.1,0,0.1-0.1,0.1-0.2
				S-368.6,286.6-368.7,286.5z M-369.6,286.9c-0.4,0.2-0.7,0.5-0.9,0.9l-0.1,0.2l-0.1-0.2c-0.2-0.4-0.5-0.7-0.9-0.9l-0.1-0.1
				l0.2-0.1c0.4-0.2,0.7-0.5,0.9-0.9l0.1-0.2l0.1,0.2c0.2,0.4,0.5,0.7,0.9,0.9l0.2,0.1L-369.6,286.9z"/>
		</g>
		<g id="XMLID_727_">
			<g id="XMLID_734_">
				<path id="XMLID_735_" class="st1" d="M-355.5,318.9h-0.5c-0.2,0-0.3,0.1-0.3,0.3s0.1,0.3,0.3,0.3h0.5c0.2,0,0.3-0.1,0.3-0.3
					S-355.3,318.9-355.5,318.9z"/>
			</g>
			<g id="XMLID_732_">
				<path id="XMLID_733_" class="st1" d="M-352.7,318.9h-0.5c-0.2,0-0.3,0.1-0.3,0.3s0.1,0.3,0.3,0.3h0.5c0.2,0,0.3-0.1,0.3-0.3
					S-352.6,318.9-352.7,318.9z"/>
			</g>
			<g id="XMLID_730_">
				<path id="XMLID_731_" class="st1" d="M-354.4,320c-0.2,0-0.3,0.1-0.3,0.3v0.5c0,0.2,0.1,0.3,0.3,0.3c0.2,0,0.3-0.1,0.3-0.3v-0.5
					C-354.1,320.1-354.2,320-354.4,320z"/>
			</g>
			<g id="XMLID_728_">
				<path id="XMLID_729_" class="st1" d="M-354.4,317.3c-0.2,0-0.3,0.1-0.3,0.3v0.5c0,0.2,0.1,0.3,0.3,0.3c0.2,0,0.3-0.1,0.3-0.3
					v-0.5C-354.1,317.4-354.2,317.3-354.4,317.3z"/>
			</g>
		</g>
		<g id="XMLID_718_">
			<g id="XMLID_725_">
				<path id="XMLID_726_" class="st1" d="M-330.8,280.3h-3.6c-0.2,0-0.3,0.1-0.3,0.3c0,0.2,0.1,0.3,0.3,0.3h3.6
					c0.2,0,0.3-0.1,0.3-0.3C-330.5,280.4-330.7,280.3-330.8,280.3z"/>
			</g>
			<g id="XMLID_723_">
				<path id="XMLID_724_" class="st1" d="M-321.5,278.3h-10.7c-0.2,0-0.3,0.1-0.3,0.3c0,0.2,0.1,0.3,0.3,0.3h10.7
					c0.2,0,0.3-0.1,0.3-0.3C-321.2,278.4-321.4,278.3-321.5,278.3z"/>
			</g>
			<g id="XMLID_721_">
				<path id="XMLID_722_" class="st1" d="M-325.3,276.4h-1.4c-0.2,0-0.3,0.1-0.3,0.3s0.1,0.3,0.3,0.3h1.4c0.2,0,0.3-0.1,0.3-0.3
					S-325.2,276.4-325.3,276.4z"/>
			</g>
			<g id="XMLID_719_">
				<path id="XMLID_720_" class="st1" d="M-328.9,276.4h-7.7c-0.2,0-0.3,0.1-0.3,0.3s0.1,0.3,0.3,0.3h7.7c0.2,0,0.3-0.1,0.3-0.3
					S-328.8,276.4-328.9,276.4z"/>
			</g>
		</g>
		<g id="XMLID_709_">
			<g id="XMLID_716_">
				<path id="XMLID_717_" class="st1" d="M-376.8,303.3h-3.3c-0.2,0-0.3,0.1-0.3,0.3c0,0.2,0.1,0.2,0.3,0.2h3.3
					c0.2,0,0.3-0.1,0.3-0.3C-376.5,303.3-376.7,303.3-376.8,303.3z"/>
			</g>
			<g id="XMLID_714_">
				<path id="XMLID_715_" class="st1" d="M-370.5,301.4h-6c-0.2,0-0.3,0.1-0.3,0.3s0.1,0.3,0.3,0.3h6c0.2,0,0.3-0.1,0.3-0.3
					C-370.3,301.5-370.4,301.4-370.5,301.4z"/>
			</g>
			<g id="XMLID_712_">
				<path id="XMLID_713_" class="st1" d="M-372.7,299.4h-0.9c-0.2,0-0.3,0.1-0.3,0.3s0.1,0.3,0.3,0.3h0.8c0.2,0,0.3-0.1,0.3-0.3
					C-372.5,299.6-372.6,299.4-372.7,299.4z"/>
			</g>
			<g id="XMLID_710_">
				<path id="XMLID_711_" class="st1" d="M-374.7,299.4h-4.3c-0.2,0-0.3,0.1-0.3,0.3s0.1,0.3,0.3,0.3h4.4c0.2,0,0.3-0.1,0.3-0.3
					C-374.4,299.6-374.5,299.4-374.7,299.4z"/>
			</g>
		</g>
		<g id="XMLID_707_">
			<path id="XMLID_708_" class="st1" d="M-310.3,301.9h-10.1c-0.2,0-0.3,0.1-0.3,0.3s0.1,0.3,0.3,0.3h10.1c0.2,0,0.3-0.1,0.3-0.3
				S-310.1,301.9-310.3,301.9z"/>
		</g>
		<g id="XMLID_705_">
			<path id="XMLID_706_" class="st1" d="M-316.6,303.5h-3c-0.2,0-0.3,0.1-0.3,0.3c0,0.2,0.1,0.3,0.3,0.3h3c0.2,0,0.3-0.1,0.3-0.3
				C-316.3,303.7-316.4,303.5-316.6,303.5z"/>
		</g>
		<g id="XMLID_703_">
			<path id="XMLID_704_" class="st1" d="M-313.8,303.5h-1.4c-0.2,0-0.3,0.1-0.3,0.3c0,0.2,0.1,0.3,0.3,0.3h1.4
				c0.2,0,0.3-0.1,0.3-0.3C-313.6,303.7-313.7,303.5-313.8,303.5z"/>
		</g>
	</g>
</g>
<g id="XMLID_837_">
	<g id="XMLID_961_">
		<path id="XMLID_62_" class="st2" d="M-324.5,312H-364c-0.3,0-0.5,0.2-0.5,0.5c0,0.3,0.2,0.5,0.5,0.5h39.4c0.3,0,0.5-0.2,0.5-0.5
			C-324.1,312.2-324.2,312-324.5,312z"/>
	</g>
	<g id="XMLID_859_">
		<g id="XMLID_959_">
			<g id="XMLID_167_">
				<rect id="XMLID_168_" x="-362.5" y="287.4" class="st0" width="26.6" height="25.2"/>
			</g>
		</g>
		<g id="XMLID_957_">
			<g id="XMLID_170_">
				<rect id="XMLID_171_" x="-337.7" y="287.4" class="st3" width="1.8" height="25.2"/>
			</g>
		</g>
		<g id="XMLID_955_">
			<rect id="XMLID_59_" x="-362.5" y="287.4" class="st4" width="1.6" height="25.2"/>
		</g>
		<g id="XMLID_953_">
			<g id="XMLID_248_">
				<path id="XMLID_249_" class="st5" d="M-335.9,286.8h-26.6c-0.3,0-0.5,0.2-0.5,0.5v25.2c0,0.3,0.2,0.5,0.5,0.5h26.6
					c0.3,0,0.5-0.2,0.5-0.5v-21.4c0-0.3-0.2-0.5-0.5-0.5c-0.3,0-0.5,0.2-0.5,0.5V312h-25.5v-24.1h25.5v1.6c0,0.3,0.2,0.5,0.5,0.5
					c0.3,0,0.5-0.2,0.5-0.5v-2.2C-335.3,287.1-335.6,286.8-335.9,286.8z"/>
			</g>
		</g>
		<g id="XMLID_951_">
			<g id="XMLID_183_">
				<rect id="XMLID_184_" x="-362.4" y="282.8" class="st6" width="11" height="4.6"/>
			</g>
		</g>
		<g id="XMLID_949_">
			<g id="XMLID_186_">
				<rect id="XMLID_187_" x="-353" y="282.8" class="st7" width="1.6" height="4.6"/>
			</g>
		</g>
		<g id="XMLID_947_">
			<rect id="XMLID_55_" x="-362.5" y="282.8" class="st4" width="1.6" height="4.6"/>
		</g>
		<g id="XMLID_943_">
			<g id="XMLID_262_">
				<path id="XMLID_264_" class="st5" d="M-351.5,282.3h-11c-0.3,0-0.5,0.2-0.5,0.5v4.6c0,0.3,0.2,0.5,0.5,0.5h11
					c0.3,0,0.5-0.2,0.5-0.5v-4.6C-350.9,282.5-351.2,282.3-351.5,282.3z M-352,286.8h-9.9v-3.5h9.9V286.8z"/>
			</g>
		</g>
		<g id="XMLID_928_">
			<g id="XMLID_940_">
				<g id="XMLID_180_">
					<g id="XMLID_181_">
						<path id="XMLID_182_" class="st8" d="M-357.3,303.8L-357.3,303.8c-1.4,0-2.6,1.2-2.6,2.6v6h5.2v-6
							C-354.8,305-355.9,303.8-357.3,303.8z"/>
					</g>
				</g>
			</g>
			<g id="XMLID_935_">
				<g id="XMLID_269_">
					<g id="XMLID_270_">
						<path id="XMLID_271_" class="st5" d="M-357.3,303.3c-1.7,0-3.1,1.4-3.1,3.1v6c0,0.3,0.2,0.5,0.5,0.5h5.2
							c0.3,0,0.5-0.2,0.5-0.5v-6C-354.2,304.7-355.6,303.3-357.3,303.3z M-355.3,311.8h-4.1v-5.4c0-1.1,0.9-2,2-2c1.1,0,2,0.9,2,2
							L-355.3,311.8L-355.3,311.8z"/>
					</g>
				</g>
			</g>
			<g id="XMLID_933_">
				<g id="XMLID_241_">
					<path id="XMLID_246_" class="st5" d="M-357.4,303.3c-0.3,0-0.5,0.2-0.5,0.5v8.2c0,0.3,0.2,0.5,0.5,0.5c0.3,0,0.5-0.2,0.5-0.5
						v-8.2C-356.8,303.5-357.1,303.3-357.4,303.3z"/>
				</g>
			</g>
			<g id="XMLID_931_">
				<g id="XMLID_238_">
					<path id="XMLID_239_" class="st5" d="M-355.2,309.9h-4.7c-0.3,0-0.5,0.2-0.5,0.5c0,0.3,0.2,0.5,0.5,0.5h4.7
						c0.3,0,0.5-0.2,0.5-0.5C-354.7,310.1-354.9,309.9-355.2,309.9z"/>
				</g>
			</g>
			<g id="XMLID_929_">
				<g id="XMLID_234_">
					<path id="XMLID_235_" class="st5" d="M-355.2,306.8h-4.7c-0.3,0-0.5,0.2-0.5,0.5c0,0.3,0.2,0.5,0.5,0.5h4.7
						c0.3,0,0.5-0.2,0.5-0.5C-354.7,307-354.9,306.8-355.2,306.8z"/>
				</g>
			</g>
		</g>
		<g id="XMLID_926_">
			<g id="XMLID_189_">
				<rect id="XMLID_190_" x="-363.1" y="298.1" class="st7" width="27.8" height="2.1"/>
			</g>
		</g>
		<g id="XMLID_924_">
			<g id="XMLID_177_">
				<rect id="XMLID_178_" x="-363.1" y="298.1" class="st9" width="2.2" height="2.1"/>
			</g>
		</g>
		<g id="XMLID_922_">
			<g id="XMLID_185_">
				<rect id="XMLID_188_" x="-337.8" y="298.1" class="st10" width="2.2" height="2.1"/>
			</g>
		</g>
		<g id="XMLID_920_">
			<g id="XMLID_231_">
				<path id="XMLID_232_" class="st5" d="M-335.4,297.6h-21.7c-0.3,0-0.5,0.2-0.5,0.5c0,0.3,0.2,0.5,0.5,0.5h21.2v1h-26.7v-1h2.4
					c0.3,0,0.5-0.2,0.5-0.5c0-0.3-0.2-0.5-0.5-0.5h-2.9c-0.3,0-0.5,0.2-0.5,0.5v2.1c0,0.3,0.2,0.5,0.5,0.5h27.8
					c0.3,0,0.5-0.2,0.5-0.5v-2.1C-334.8,297.8-335.1,297.6-335.4,297.6z"/>
			</g>
		</g>
		<g id="XMLID_918_">
			<g id="XMLID_228_">
				<path id="XMLID_229_" class="st5" d="M-358.7,297.6L-358.7,297.6c-0.4,0-0.6,0.2-0.6,0.5c0,0.3,0.2,0.5,0.5,0.5h0.1
					c0.3,0,0.5-0.2,0.5-0.5C-358.1,297.8-358.4,297.6-358.7,297.6z"/>
			</g>
		</g>
		<g id="XMLID_916_">
			<rect id="XMLID_41_" x="-359.7" y="290.2" class="st4" width="21.3" height="5"/>
		</g>
		<g id="XMLID_914_">
			<polygon id="XMLID_40_" class="st4" points="-359.1,295.3 -357.5,295.3 -350,290.1 -351.7,290.1 			"/>
		</g>
		<g id="XMLID_912_">
			<polygon id="XMLID_39_" class="st4" points="-347.3,295.3 -346.4,295.3 -339,290.1 -339.9,290.1 			"/>
		</g>
		<g id="XMLID_910_">
			<polygon id="XMLID_38_" class="st4" points="-348.9,295.3 -348.3,295.3 -340.8,290.1 -341.5,290.1 			"/>
		</g>
		<g id="XMLID_908_">
			<polygon id="XMLID_37_" class="st4" points="-356.4,295.3 -355.7,295.3 -348.3,290.1 -349,290.1 			"/>
		</g>
		<g id="XMLID_904_">
			<g id="XMLID_242_">
				<path id="XMLID_243_" class="st5" d="M-338.3,289.7h-21.4c-0.3,0-0.5,0.2-0.5,0.5v5c0,0.3,0.2,0.5,0.5,0.5h21.3
					c0.3,0,0.5-0.2,0.5-0.5v-5C-337.8,289.9-338,289.7-338.3,289.7z M-338.9,294.7h-20.2v-3.9h20.2V294.7z"/>
			</g>
		</g>
		<g id="XMLID_902_">
			<rect id="XMLID_34_" x="-350.7" y="302.8" class="st4" width="12" height="5.8"/>
		</g>
		<g id="XMLID_900_">
			<polygon id="XMLID_33_" class="st4" points="-350.8,304.8 -350.8,305.8 -346.3,302.8 -347.9,302.8 			"/>
		</g>
		<g id="XMLID_898_">
			<polygon id="XMLID_32_" class="st4" points="-350.7,308.6 -349.1,308.6 -340.7,302.8 -342.3,302.8 			"/>
		</g>
		<g id="XMLID_896_">
			<polygon id="XMLID_31_" class="st4" points="-348,308.6 -347.3,308.6 -338.9,302.8 -339.6,302.8 			"/>
		</g>
		<g id="XMLID_894_">
			<g id="XMLID_225_">
				<path id="XMLID_226_" class="st5" d="M-338.7,302.3h-12c-0.3,0-0.5,0.2-0.5,0.5v5.8c0,0.3,0.2,0.5,0.5,0.5h6.2
					c0.3,0,0.5-0.2,0.5-0.5c0-0.3-0.2-0.5-0.5-0.5h-5.7v-4.7h10.9v4.7h-2.3c-0.3,0-0.5,0.2-0.5,0.5c0,0.3,0.2,0.5,0.5,0.5h2.8
					c0.3,0,0.5-0.2,0.5-0.5v-5.8C-338.2,302.5-338.4,302.3-338.7,302.3z"/>
			</g>
		</g>
		<g id="XMLID_892_">
			<g id="XMLID_222_">
				<path id="XMLID_223_" class="st5" d="M-343.3,308.2c-0.1,0.1-0.2,0.2-0.2,0.4c0,0.1,0.1,0.3,0.2,0.4c0.1,0.1,0.2,0.2,0.4,0.2
					c0.1,0,0.3-0.1,0.4-0.2c0.1-0.1,0.2-0.2,0.2-0.4c0-0.1-0.1-0.3-0.2-0.4C-342.7,308-343.1,308-343.3,308.2z"/>
			</g>
		</g>
		<g id="XMLID_890_">
			<g id="XMLID_219_">
				<path id="XMLID_220_" class="st5" d="M-349.2,289.7c-0.3,0-0.5,0.2-0.5,0.5v4.7c0,0.3,0.2,0.5,0.5,0.5c0.3,0,0.5-0.2,0.5-0.5
					v-4.7C-348.7,290-348.9,289.7-349.2,289.7z"/>
			</g>
		</g>
		<g id="XMLID_888_">
			<g id="XMLID_216_">
				<path id="XMLID_217_" class="st5" d="M-345.6,289.7c-0.3,0-0.5,0.2-0.5,0.5v4.7c0,0.3,0.2,0.5,0.5,0.5s0.5-0.2,0.5-0.5v-4.7
					C-345.1,290-345.3,289.7-345.6,289.7z"/>
			</g>
		</g>
		<g id="XMLID_886_">
			<g id="XMLID_213_">
				<path id="XMLID_214_" class="st5" d="M-342.1,289.7c-0.3,0-0.5,0.2-0.5,0.5v4.7c0,0.3,0.2,0.5,0.5,0.5s0.5-0.2,0.5-0.5v-4.7
					C-341.5,290-341.8,289.7-342.1,289.7z"/>
			</g>
		</g>
		<g id="XMLID_884_">
			<g id="XMLID_210_">
				<path id="XMLID_211_" class="st5" d="M-356.4,289.7c-0.3,0-0.5,0.2-0.5,0.5v4.7c0,0.3,0.2,0.5,0.5,0.5c0.3,0,0.5-0.2,0.5-0.5
					v-4.7C-355.8,290-356,289.7-356.4,289.7z"/>
			</g>
		</g>
		<g id="XMLID_882_">
			<g id="XMLID_207_">
				<path id="XMLID_208_" class="st5" d="M-352.8,289.7c-0.3,0-0.5,0.2-0.5,0.5v4.7c0,0.3,0.2,0.5,0.5,0.5c0.3,0,0.5-0.2,0.5-0.5
					v-4.7C-352.2,290-352.5,289.7-352.8,289.7z"/>
			</g>
		</g>
		<g id="XMLID_880_">
			<g id="XMLID_204_">
				<path id="XMLID_205_" class="st5" d="M-339,283.3h-12.4c-0.3,0-0.5,0.2-0.5,0.5c0,0.3,0.2,0.5,0.5,0.5h11.8v3
					c0,0.3,0.2,0.5,0.5,0.5s0.5-0.2,0.5-0.5v-3.5C-338.5,283.5-338.7,283.3-339,283.3z"/>
			</g>
		</g>
		<g id="XMLID_878_">
			<g id="XMLID_201_">
				<path id="XMLID_202_" class="st5" d="M-348.9,283.3c-0.3,0-0.5,0.2-0.5,0.5v3.6c0,0.3,0.2,0.5,0.5,0.5c0.3,0,0.5-0.2,0.5-0.5
					v-3.6C-348.3,283.5-348.6,283.3-348.9,283.3z"/>
			</g>
		</g>
		<g id="XMLID_876_">
			<g id="XMLID_198_">
				<path id="XMLID_199_" class="st5" d="M-346.4,283.3c-0.3,0-0.5,0.2-0.5,0.5v3.6c0,0.3,0.2,0.5,0.5,0.5c0.3,0,0.5-0.2,0.5-0.5
					v-3.6C-345.9,283.5-346.1,283.3-346.4,283.3z"/>
			</g>
		</g>
		<g id="XMLID_874_">
			<g id="XMLID_195_">
				<path id="XMLID_196_" class="st5" d="M-344,283.3c-0.3,0-0.5,0.2-0.5,0.5v3.6c0,0.3,0.2,0.5,0.5,0.5c0.3,0,0.5-0.2,0.5-0.5v-3.6
					C-343.4,283.5-343.7,283.3-344,283.3z"/>
			</g>
		</g>
		<g id="XMLID_872_">
			<g id="XMLID_192_">
				<path id="XMLID_193_" class="st5" d="M-341.5,283.3c-0.3,0-0.5,0.2-0.5,0.5v3.6c0,0.3,0.2,0.5,0.5,0.5c0.3,0,0.5-0.2,0.5-0.5
					v-3.6C-340.9,283.5-341.2,283.3-341.5,283.3z"/>
			</g>
		</g>
		<g id="XMLID_870_">
			<g id="XMLID_164_">
				<rect id="XMLID_165_" x="-348.4" y="310.7" class="st3" width="2.1" height="1"/>
			</g>
		</g>
		<g id="XMLID_868_">
			<g id="XMLID_152_">
				<rect id="XMLID_153_" x="-350.9" y="310.7" class="st11" width="2.1" height="1"/>
			</g>
		</g>
		<g id="XMLID_866_">
			<g id="XMLID_161_">
				<rect id="XMLID_162_" x="-353.4" y="310.7" class="st3" width="2.1" height="1"/>
			</g>
		</g>
		<g id="XMLID_864_">
			<g id="XMLID_158_">
				<rect id="XMLID_159_" x="-352.1" y="309.3" class="st3" width="2.1" height="1"/>
			</g>
		</g>
		<g id="XMLID_862_">
			<g id="XMLID_149_">
				<rect id="XMLID_150_" x="-341" y="309.3" class="st11" width="2.1" height="1"/>
			</g>
		</g>
		<g id="XMLID_860_">
			<g id="XMLID_155_">
				<rect id="XMLID_156_" x="-342" y="310.7" class="st3" width="2.1" height="1"/>
			</g>
		</g>
	</g>
	<g id="XMLID_838_">
		<g id="XMLID_857_">
			<g id="XMLID_128_">
				<path id="XMLID_129_" class="st2" d="M-327.3,308.4c-0.3,0-0.5,0.2-0.5,0.5v3.5c0,0.3,0.2,0.5,0.5,0.5c0.3,0,0.5-0.2,0.5-0.5
					v-3.5C-326.7,308.6-327,308.4-327.3,308.4z"/>
			</g>
		</g>
		<g id="XMLID_855_">
			<g id="XMLID_140_">
				<path id="XMLID_141_" class="st12" d="M-327.8,301.3c-0.8,1.3-2.3,4-2.3,5.2c0,1.5,1.2,2.8,2.8,2.8c1.5,0,2.8-1.2,2.8-2.8
					c0-1.2-1.6-3.9-2.3-5.2C-327.1,300.9-327.6,300.9-327.8,301.3z"/>
			</g>
		</g>
		<g id="XMLID_853_">
			<g id="XMLID_143_">
				<path id="XMLID_144_" class="st12" d="M-325.7,306.6c0,1.8-1.9,2.7-1.9,2.7c1.5,0,2.8-1.2,2.8-2.8c0-1.6-1.9-3.9-2.7-5.2
					C-327.5,301.3-325.7,304.6-325.7,306.6z"/>
			</g>
		</g>
		<g id="XMLID_851_">
			<g id="XMLID_146_">
				<path id="XMLID_147_" class="st0" d="M-328.9,306.6c0-1.9,1.4-5.3,1.4-5.3c-0.8,1.3-2.7,4-2.7,5.2c0,1.5,1.2,2.8,2.8,2.8
					C-327.4,309.2-328.9,308.4-328.9,306.6z"/>
			</g>
		</g>
		<g id="XMLID_849_">
			<path id="XMLID_8_" class="st2" d="M-325.2,304.4c-0.3,0.1-0.4,0.4-0.3,0.7c0.4,0.8,0.4,1.2,0.4,1.4c0,1.2-1,2.2-2.2,2.2l0,0
				c-1.2,0-2.2-1-2.2-2.2c0-0.7,0.9-2.5,2.2-4.8c0.3,0.5,0.5,1,0.8,1.6c0.1,0.2,0.2,0.5,0.4,0.8c0.1,0.3,0.5,0.4,0.7,0.3
				c0.3-0.1,0.4-0.5,0.3-0.7c-0.1-0.3-0.2-0.5-0.4-0.8c-0.3-0.7-0.6-1.2-0.9-1.8c-0.2-0.3-0.5-0.5-0.9-0.5l0,0
				c-0.4,0-0.7,0.2-0.9,0.5c-1.1,1.8-2.4,4.3-2.4,5.5c0,1.8,1.5,3.3,3.3,3.3l0,0c1.8,0,3.3-1.5,3.3-3.3c0-0.4-0.2-1-0.5-1.8
				C-324.6,304.4-324.9,304.2-325.2,304.4z"/>
		</g>
		<g id="XMLID_847_">
			<g id="XMLID_123_">
				<path id="XMLID_124_" class="st2" d="M-331,309.4c-0.3,0-0.5,0.2-0.5,0.5v2.4c0,0.3,0.2,0.5,0.5,0.5c0.3,0,0.5-0.2,0.5-0.5v-2.4
					C-330.5,309.7-330.7,309.4-331,309.4z"/>
			</g>
		</g>
		<g id="XMLID_845_">
			<g id="XMLID_137_">
				<path id="XMLID_138_" class="st12" d="M-331.2,304.6c-0.5,0.9-1.6,2.8-1.6,3.6c0,1.1,0.9,1.9,1.9,1.9c1.1,0,1.9-0.9,1.9-1.9
					c0-0.8-1.1-2.7-1.6-3.6C-330.7,304.4-331.1,304.4-331.2,304.6z"/>
			</g>
		</g>
		<g id="XMLID_843_">
			<g id="XMLID_134_">
				<path id="XMLID_135_" class="st12" d="M-329.6,308.2c0,1.2-1.3,1.8-1.3,1.8c1,0,1.9-0.8,1.9-1.9c0-0.8-1.3-2.6-1.8-3.5
					C-330.8,304.7-329.6,306.9-329.6,308.2z"/>
			</g>
		</g>
		<g id="XMLID_841_">
			<g id="XMLID_142_">
				<path id="XMLID_145_" class="st13" d="M-332,307.8c0-1.3,0.9-3.3,0.9-3.3c-0.5,0.9-1.8,2.7-1.8,3.5c0,1,0.8,1.9,1.9,1.9
					C-331,309.9-332,309.1-332,307.8z"/>
			</g>
		</g>
		<g id="XMLID_839_">
			<path id="XMLID_68_" class="st2" d="M-330.9,303.9c-0.3,0-0.6,0.2-0.8,0.4c0,0.1-0.1,0.2-0.2,0.3c-0.2,0.3-0.4,0.7-0.6,1
				c-0.1,0.3-0.1,0.6,0.2,0.7c0.3,0.1,0.6,0.1,0.7-0.2c0.1-0.3,0.4-0.6,0.6-0.9l0,0c1,1.7,1.4,2.7,1.4,3.1s-0.1,0.7-0.4,1
				c-0.3,0.3-0.6,0.4-1,0.4l0,0c-0.4,0-0.7-0.1-1-0.4c-0.3-0.3-0.4-0.6-0.4-1c0-0.1,0-0.3,0.2-0.8c0.1-0.3,0-0.6-0.3-0.7
				c-0.3-0.1-0.6,0-0.7,0.3c-0.2,0.5-0.3,0.9-0.3,1.2c0,0.7,0.3,1.3,0.7,1.8c0.5,0.5,1.1,0.7,1.8,0.7l0,0c0.7,0,1.3-0.3,1.8-0.7
				c0.5-0.5,0.7-1.1,0.7-1.8c0-0.7-0.6-2-1.7-3.9C-330.3,304-330.6,303.9-330.9,303.9z"/>
		</g>
	</g>
</g>
</svg>
