<?xml version="1.0" encoding="utf-8"?>
<!-- Generator: Adobe Illustrator 19.0.0, SVG Export Plug-In . SVG Version: 6.00 Build 0)  -->
<svg version="1.1" id="Digital_Marketing" xmlns="http://www.w3.org/2000/svg" xmlns:xlink="http://www.w3.org/1999/xlink" x="0px"
	 y="0px" viewBox="-387 272.8 64.9 51.5" style="enable-background:new -387 272.8 64.9 51.5;" xml:space="preserve">
<style type="text/css">
	.st0{fill:#ECFAFD;}
	.st1{fill:#95C7E0;}
	.st2{fill:#C7F2FB;}
	.st3{fill:#9ECFEF;}
	.st4{fill:#BDECFC;}
	.st5{fill:#FFFFFF;}
	.st6{fill:#94C8E0;}
	.st7{fill:#EBFAFD;}
	.st8{fill:#98C6E0;}
	.st9{fill:#BEEDFD;}
	.st10{fill:#97C6E0;}
	.st11{fill:#D7F4FC;}
	.st12{fill:#96C5DF;}
	.st13{fill:#BDEDFB;}
	.st14{fill:#D6F4FC;}
	.st15{fill:#D8F3FE;}
	.st16{fill:#97C6E4;}
	.st17{fill:#D0F2FC;}
	.st18{fill:#BEEEFC;}
</style>
<g id="XMLID_587_">
	<g id="XMLID_730_">
		<g id="XMLID_40_">
			<path id="XMLID_44_" class="st0" d="M-322.2,316.5L-322.2,316.5L-322.2,316.5z"/>
			<path id="XMLID_43_" class="st0" d="M-324.5,314.2h-3.6h-6.6c-1.3,0-2.4-1.1-2.4-2.4s1.1-2.3,2.4-2.3h6.6l0,0
				c1.3,0,2.3-1.1,2.3-2.4c0-1.3-1-2.3-2.3-2.3l0,0h-2c-1.3,0-2.4-1.1-2.4-2.4c0-1.3,1.1-2.3,2.4-2.3h2h2.8c1.3,0,2.4-1.1,2.4-2.4
				c0-1.3-1.1-2.3-2.4-2.3h-4.5c-0.9-4.6-3-8.9-6.6-12.5c-8.6-8.3-22.4-8.9-31.7-1.4l-7.9-0.1c-1.3,0-2.3,1-2.3,2.3
				c0,0.3,0,0.5,0.1,0.8c0.3,0.9,1.2,1.5,2.2,1.6l4,0.1c1.3,0,2.3,1.1,2.3,2.3l0,0c0,1.3-1.1,2.3-2.3,2.3l-6.2-0.1l-6.5-0.1
				c-1.3,0-2.3,1-2.3,2.3l0,0c0,1.3,1,2.3,2.3,2.3l6.4,0.1h1.6c1.3,0,2.3,1.1,2.3,2.3l0,0c0,1.3-1.1,2.3-2.3,2.3h-1.6h-0.9
				c-1.3,0-2.3,1-2.3,2.3c0,1.3,1,2.3,2.3,2.3h2.7c0.9,4.5,3,8.8,6.5,12.3c8.6,8.6,22.1,9.2,31.5,1.9h14.1c1.3,0,2.3-1.1,2.3-2.4
				C-322.2,315.2-323.2,314.2-324.5,314.2z"/>
			<path id="XMLID_42_" class="st0" d="M-325.8,307.3v-0.1V307.3z"/>
			<path id="XMLID_41_" class="st0" d="M-322.9,298L-322.9,298L-322.9,298z"/>
		</g>
	</g>
	<g id="XMLID_589_">
		<g id="XMLID_851_">
			<g id="XMLID_938_">
				<path id="XMLID_939_" class="st1" d="M-363.6,320.7h-3.1c-0.1,0-0.3,0.1-0.3,0.3c0,0.2,0.1,0.3,0.3,0.3h3.1
					c0.1,0,0.3-0.1,0.3-0.3C-363.3,320.8-363.5,320.7-363.6,320.7z"/>
			</g>
			<g id="XMLID_936_">
				<path id="XMLID_937_" class="st1" d="M-356.4,320.7h-5.7c-0.1,0-0.3,0.1-0.3,0.3c0,0.2,0.1,0.3,0.3,0.3h5.7
					c0.1,0,0.3-0.1,0.3-0.3C-356.1,320.8-356.2,320.7-356.4,320.7z"/>
			</g>
			<g id="XMLID_934_">
				<path id="XMLID_935_" class="st1" d="M-334.8,313h-2.1c-0.1,0-0.3,0.1-0.3,0.3c0,0.1,0.1,0.3,0.3,0.3h2.1c0.1,0,0.3-0.1,0.3-0.3
					S-334.6,313-334.8,313z"/>
			</g>
			<g id="XMLID_932_">
				<path id="XMLID_933_" class="st1" d="M-327.5,313h-5.7c-0.1,0-0.3,0.1-0.3,0.3c0,0.1,0.1,0.3,0.3,0.3h5.7c0.1,0,0.3-0.1,0.3-0.3
					C-327.3,313.1-327.4,313-327.5,313z"/>
			</g>
			<g id="XMLID_930_">
				<path id="XMLID_931_" class="st1" d="M-330.4,311.4h-4.1c-0.1,0-0.3,0.1-0.3,0.3c0,0.1,0.1,0.3,0.3,0.3h4.1
					c0.1,0,0.3-0.1,0.3-0.3C-330.1,311.5-330.2,311.4-330.4,311.4z"/>
			</g>
			<g id="XMLID_928_">
				<path id="XMLID_929_" class="st1" d="M-361,322.2h-12.6c-0.1,0-0.3,0.1-0.3,0.3c0,0.2,0.1,0.3,0.3,0.3h12.6
					c0.1,0,0.3-0.1,0.3-0.3C-360.7,322.3-360.9,322.2-361,322.2z"/>
			</g>
			<g id="XMLID_926_">
				<path id="XMLID_927_" class="st1" d="M-357.9,322.2h-1c-0.1,0-0.3,0.1-0.3,0.3c0,0.2,0.1,0.3,0.3,0.3h1c0.1,0,0.3-0.1,0.3-0.3
					C-357.6,322.3-357.8,322.2-357.9,322.2z"/>
			</g>
			<g id="XMLID_909_">
				<g id="XMLID_924_">
					<path id="XMLID_925_" class="st1" d="M-356.9,275.1h-0.8c-0.1,0-0.3,0.1-0.3,0.3c0,0.1,0.1,0.3,0.3,0.3h0.8
						c0.1,0,0.3-0.1,0.3-0.3C-356.6,275.2-356.8,275.1-356.9,275.1z"/>
				</g>
				<g id="XMLID_922_">
					<path id="XMLID_923_" class="st1" d="M-353,275.1h-0.8c-0.1,0-0.3,0.1-0.3,0.3c0,0.1,0.1,0.3,0.3,0.3h0.8
						c0.1,0,0.3-0.1,0.3-0.3C-352.8,275.2-352.9,275.1-353,275.1z"/>
				</g>
				<g id="XMLID_920_">
					<path id="XMLID_921_" class="st1" d="M-356.8,273.5c-0.1-0.1-0.3-0.1-0.4,0c-0.1,0.1-0.1,0.3,0,0.4l0.5,0.5
						c0.1,0.1,0.1,0.1,0.2,0.1s0.1,0,0.2-0.1s0.1-0.3,0-0.4L-356.8,273.5z"/>
				</g>
				<g id="XMLID_918_">
					<path id="XMLID_919_" class="st1" d="M-354.1,276.3c-0.1-0.1-0.3-0.1-0.4,0s-0.1,0.3,0,0.4l0.5,0.5c0.1,0.1,0.1,0.1,0.2,0.1
						c0.1,0,0.1,0,0.2-0.1s0.1-0.3,0-0.4L-354.1,276.3z"/>
				</g>
				<g id="XMLID_916_">
					<path id="XMLID_917_" class="st1" d="M-355.4,272.8c-0.1,0-0.3,0.1-0.3,0.3v0.8c0,0.1,0.1,0.3,0.3,0.3c0.2,0,0.3-0.1,0.3-0.3
						V273C-355.1,272.9-355.2,272.8-355.4,272.8z"/>
				</g>
				<g id="XMLID_914_">
					<path id="XMLID_915_" class="st1" d="M-355.4,276.6c-0.1,0-0.3,0.1-0.3,0.3v0.8c0,0.1,0.1,0.3,0.3,0.3c0.2,0,0.3-0.1,0.3-0.3
						v-0.8C-355.1,276.8-355.2,276.6-355.4,276.6z"/>
				</g>
				<g id="XMLID_912_">
					<path id="XMLID_913_" class="st1" d="M-353.9,273.5l-0.5,0.5c-0.1,0.1-0.1,0.3,0,0.4s0.1,0.1,0.2,0.1c0.1,0,0.1,0,0.2-0.1
						l0.5-0.5c0.1-0.1,0.1-0.3,0-0.4C-353.6,273.4-353.8,273.4-353.9,273.5z"/>
				</g>
				<g id="XMLID_910_">
					<path id="XMLID_911_" class="st1" d="M-356.6,276.3l-0.5,0.5c-0.1,0.1-0.1,0.3,0,0.4s0.1,0.1,0.2,0.1s0.1,0,0.2-0.1l0.5-0.5
						c0.1-0.1,0.1-0.3,0-0.4C-356.4,276.2-356.5,276.2-356.6,276.3z"/>
				</g>
			</g>
			<g id="XMLID_892_">
				<g id="XMLID_907_">
					<path id="XMLID_908_" class="st1" d="M-382.4,294.9h-0.8c-0.1,0-0.3,0.1-0.3,0.3c0,0.1,0.1,0.3,0.3,0.3h0.8
						c0.1,0,0.3-0.1,0.3-0.3C-382.1,295-382.3,294.9-382.4,294.9z"/>
				</g>
				<g id="XMLID_905_">
					<path id="XMLID_906_" class="st1" d="M-378.5,294.9h-0.8c-0.1,0-0.3,0.1-0.3,0.3c0,0.1,0.1,0.3,0.3,0.3h0.8
						c0.1,0,0.3-0.1,0.3-0.3C-378.3,295-378.4,294.9-378.5,294.9z"/>
				</g>
				<g id="XMLID_903_">
					<path id="XMLID_904_" class="st1" d="M-382.3,293.4c-0.1-0.1-0.3-0.1-0.4,0c-0.1,0.1-0.1,0.3,0,0.4l0.6,0.5c0,0,0.1,0,0.2,0
						s0.1,0,0.2-0.1c0.1-0.1,0.1-0.3,0-0.4L-382.3,293.4z"/>
				</g>
				<g id="XMLID_901_">
					<path id="XMLID_902_" class="st1" d="M-379.6,296.1c-0.1-0.1-0.3-0.1-0.4,0c-0.1,0.1-0.1,0.3,0,0.4l0.5,0.5
						c0.1,0.1,0.1,0.1,0.2,0.1c0.1,0,0.1,0,0.2-0.1c0.1-0.1,0.1-0.3,0-0.4L-379.6,296.1z"/>
				</g>
				<g id="XMLID_899_">
					<path id="XMLID_900_" class="st1" d="M-380.9,292.6c-0.1,0-0.3,0.1-0.3,0.3v0.8c0,0.1,0.1,0.3,0.3,0.3c0.1,0,0.3-0.1,0.3-0.3
						v-0.8C-380.6,292.7-380.7,292.6-380.9,292.6z"/>
				</g>
				<g id="XMLID_897_">
					<path id="XMLID_898_" class="st1" d="M-380.9,296.5c-0.1,0-0.3,0.1-0.3,0.3v0.8c0,0.1,0.1,0.3,0.3,0.3c0.1,0,0.3-0.1,0.3-0.3
						v-0.8C-380.6,296.6-380.7,296.5-380.9,296.5z"/>
				</g>
				<g id="XMLID_895_">
					<path id="XMLID_896_" class="st1" d="M-379.4,293.4l-0.5,0.5c-0.1,0.1-0.1,0.3,0,0.4h0.1c0.1,0,0.1,0,0.2-0.1l0.6-0.5
						c0.1-0.1,0.1-0.3,0-0.4C-379.1,293.3-379.3,293.3-379.4,293.4z"/>
				</g>
				<g id="XMLID_893_">
					<path id="XMLID_894_" class="st1" d="M-382.1,296.1l-0.5,0.5c-0.1,0.1-0.1,0.3,0,0.4c0.1,0.1,0.1,0.1,0.2,0.1s0.1,0,0.2-0.1
						l0.5-0.5c0.1-0.1,0.1-0.3,0-0.4C-381.9,296-382,296-382.1,296.1z"/>
				</g>
			</g>
			<g id="XMLID_888_">
				<path id="XMLID_889_" class="st1" d="M-372.4,312.3l-0.6-0.3c-0.3-0.1-0.5-0.4-0.6-0.6l-0.3-0.6c-0.1-0.2-0.4-0.2-0.5,0
					l-0.3,0.6c-0.1,0.3-0.4,0.5-0.6,0.6l-0.6,0.3c-0.1,0-0.1,0.1-0.1,0.2c0,0.1,0.1,0.2,0.1,0.2l0.6,0.3c0.3,0.1,0.5,0.4,0.6,0.6
					l0.3,0.6c0,0.1,0.1,0.1,0.2,0.1c0.1,0,0.2-0.1,0.2-0.1l0.3-0.6c0.1-0.3,0.4-0.5,0.6-0.6l0.6-0.3c0.1,0,0.1-0.1,0.1-0.2
					C-372.3,312.4-372.3,312.4-372.4,312.3z M-373.3,312.6c-0.3,0.2-0.6,0.5-0.8,0.8l-0.1,0.2l-0.1-0.2c-0.2-0.3-0.5-0.6-0.8-0.8
					l-0.2-0.1l0.2-0.1c0.3-0.2,0.6-0.5,0.8-0.8l0.1-0.2l0.1,0.2c0.2,0.3,0.5,0.6,0.8,0.8l0.2,0.1L-373.3,312.6z"/>
			</g>
			<g id="XMLID_884_">
				<path id="XMLID_885_" class="st1" d="M-323.2,300.4l-0.6-0.3l0,0c-0.3-0.2-0.5-0.4-0.6-0.6l-0.3-0.6c-0.1-0.2-0.4-0.2-0.5,0
					l-0.3,0.6c-0.1,0.3-0.4,0.5-0.6,0.6l-0.6,0.3c-0.1,0-0.1,0.1-0.1,0.2c0,0.1,0.1,0.2,0.1,0.2l0.6,0.3c0.3,0.1,0.5,0.4,0.6,0.6
					l0.3,0.6c0,0.1,0.1,0.1,0.2,0.1s0.2-0.1,0.2-0.1l0.3-0.6c0.1-0.3,0.4-0.5,0.6-0.6l0.6-0.3c0.1,0,0.1-0.1,0.1-0.2
					C-323,300.5-323.1,300.4-323.2,300.4z M-324,300.7c-0.3,0.2-0.6,0.5-0.8,0.8l-0.1,0.2l-0.1-0.2c-0.2-0.3-0.5-0.6-0.8-0.8
					l-0.2-0.1l0.2-0.1c0.3-0.2,0.6-0.5,0.8-0.8l0.1-0.2l0.1,0.2c0.2,0.3,0.5,0.6,0.8,0.8l0.2,0.1L-324,300.7z"/>
			</g>
			<g id="XMLID_875_">
				<g id="XMLID_882_">
					<path id="XMLID_883_" class="st1" d="M-347.1,322.2h-0.5c-0.1,0-0.3,0.1-0.3,0.3c0,0.2,0.1,0.3,0.3,0.3h0.5
						c0.1,0,0.3-0.1,0.3-0.3C-346.8,322.3-347,322.2-347.1,322.2z"/>
				</g>
				<g id="XMLID_880_">
					<path id="XMLID_881_" class="st1" d="M-344.5,322.2h-0.5c-0.1,0-0.3,0.1-0.3,0.3c0,0.2,0.1,0.3,0.3,0.3h0.5
						c0.1,0,0.3-0.1,0.3-0.3C-344.2,322.3-344.4,322.2-344.5,322.2z"/>
				</g>
				<g id="XMLID_878_">
					<path id="XMLID_879_" class="st1" d="M-346.1,320.7c-0.1,0-0.3,0.1-0.3,0.3v0.5c0,0.1,0.1,0.3,0.3,0.3c0.1,0,0.3-0.1,0.3-0.3
						V321C-345.8,320.8-346,320.7-346.1,320.7z"/>
				</g>
				<g id="XMLID_876_">
					<path id="XMLID_877_" class="st1" d="M-346.1,323.2c-0.1,0-0.3,0.1-0.3,0.3v0.5c0,0.1,0.1,0.3,0.3,0.3c0.1,0,0.3-0.1,0.3-0.3
						v-0.5C-345.8,323.4-346,323.2-346.1,323.2z"/>
				</g>
			</g>
			<g id="XMLID_866_">
				<g id="XMLID_873_">
					<path id="XMLID_874_" class="st1" d="M-332.4,287.7h-0.6c-0.1,0-0.3,0.1-0.3,0.3c0,0.1,0.1,0.3,0.3,0.3h0.5
						c0.1,0,0.3-0.1,0.3-0.3C-332.2,287.8-332.3,287.7-332.4,287.7z"/>
				</g>
				<g id="XMLID_871_">
					<path id="XMLID_872_" class="st1" d="M-329.9,287.7h-0.5c-0.1,0-0.3,0.1-0.3,0.3c0,0.1,0.1,0.3,0.3,0.3h0.5
						c0.1,0,0.3-0.1,0.3-0.3C-329.6,287.8-329.7,287.7-329.9,287.7z"/>
				</g>
				<g id="XMLID_869_">
					<path id="XMLID_870_" class="st1" d="M-331.4,286.2c-0.1,0-0.3,0.1-0.3,0.3v0.5c0,0.1,0.1,0.3,0.3,0.3c0.2,0,0.3-0.1,0.3-0.3
						v-0.5C-331.2,286.3-331.3,286.2-331.4,286.2z"/>
				</g>
				<g id="XMLID_867_">
					<path id="XMLID_868_" class="st1" d="M-331.4,288.7c-0.1,0-0.3,0.1-0.3,0.3v0.5c0,0.1,0.1,0.3,0.3,0.3c0.2,0,0.3-0.1,0.3-0.3
						V289C-331.2,288.9-331.3,288.7-331.4,288.7z"/>
				</g>
			</g>
			<g id="XMLID_864_">
				<path id="XMLID_865_" class="st1" d="M-371.3,279.2h-2.6c-0.1,0-0.3,0.1-0.3,0.3c0,0.1,0.1,0.3,0.3,0.3h2.6
					c0.1,0,0.3-0.1,0.3-0.3C-371.1,279.3-371.2,279.2-371.3,279.2z"/>
			</g>
			<g id="XMLID_862_">
				<path id="XMLID_863_" class="st1" d="M-362.3,281h-8.2c-0.1,0-0.3,0.1-0.3,0.3c0,0.1,0.1,0.3,0.3,0.3h8.2c0.1,0,0.3-0.1,0.3-0.3
					C-362.1,281.1-362.2,281-362.3,281z"/>
			</g>
			<g id="XMLID_860_">
				<path id="XMLID_861_" class="st1" d="M-363.3,282.8h-2.1c-0.1,0-0.3,0.1-0.3,0.3c0,0.2,0.1,0.3,0.3,0.3h2.1
					c0.1,0,0.3-0.1,0.3-0.3C-363,282.9-363.2,282.8-363.3,282.8z"/>
			</g>
			<g id="XMLID_858_">
				<path id="XMLID_859_" class="st1" d="M-367.5,282.8h-4.6c-0.1,0-0.3,0.1-0.3,0.3c0,0.2,0.1,0.3,0.3,0.3h4.6
					c0.1,0,0.3-0.1,0.3-0.3C-367.2,282.9-367.3,282.8-367.5,282.8z"/>
			</g>
			<g id="XMLID_856_">
				<path id="XMLID_857_" class="st1" d="M-330.6,281.3H-344c-0.1,0-0.3,0.1-0.3,0.3c0,0.2,0.1,0.3,0.3,0.3h13.4
					c0.1,0,0.3-0.1,0.3-0.3C-330.3,281.4-330.5,281.3-330.6,281.3z"/>
			</g>
			<g id="XMLID_854_">
				<path id="XMLID_855_" class="st1" d="M-336.8,279.5h-4.6c-0.1,0-0.3,0.1-0.3,0.3s0.1,0.3,0.3,0.3h4.6c0.1,0,0.3-0.1,0.3-0.3
					S-336.7,279.5-336.8,279.5z"/>
			</g>
			<g id="XMLID_852_">
				<path id="XMLID_853_" class="st1" d="M-332.7,279.5h-1.5c-0.1,0-0.3,0.1-0.3,0.3s0.1,0.3,0.3,0.3h1.5c0.1,0,0.3-0.1,0.3-0.3
					S-332.6,279.5-332.7,279.5z"/>
			</g>
		</g>
	</g>
</g>
<g id="XMLID_412_">
	<g id="XMLID_582_">
		<g id="XMLID_102_">
			<path id="XMLID_103_" class="st2" d="M-370,309c0,0,14.6,10.8,15,10.8s20-11.8,20-11.8l-16-9.9L-370,309z"/>
		</g>
	</g>
	<g id="XMLID_578_">
		<path id="XMLID_348_" class="st3" d="M-370,309c0,0,1.1,1.1,1.4,1.1c0.3,0,19.1-11.1,19.1-11.1l-1.5-0.9L-370,309z"/>
	</g>
	<g id="XMLID_572_">
		<g id="XMLID_105_">
			<path id="XMLID_106_" class="st4" d="M-356.5,318.9c0,0,1.1,1,1.5,1c0.3,0,20-11.9,20-11.9l-1.5-0.8L-356.5,318.9z"/>
		</g>
	</g>
	<g id="XMLID_569_">
		<g id="XMLID_127_">
			<polygon id="XMLID_128_" class="st0" points="-370.1,309.1 -350.8,298.1 -350.8,280.4 -370.1,291.3 			"/>
		</g>
	</g>
	<g id="XMLID_561_">
		<polygon id="XMLID_344_" class="st5" points="-370.2,309.2 -368.8,308.3 -368.8,290.5 -370.2,291.4 		"/>
	</g>
	<g id="XMLID_557_">
		<g id="XMLID_28_">
			<path id="XMLID_29_" class="st6" d="M-350.6,279.9c-0.2-0.1-0.4-0.1-0.5,0l-19.3,11c-0.2,0.1-0.3,0.3-0.3,0.4v1.2
				c0,0.3,0.2,0.5,0.5,0.5c0.3,0,0.5-0.2,0.5-0.5v-0.9l18.3-10.4v16.6l-18.2,10.4v-13.1c0-0.3-0.2-0.5-0.5-0.5
				c-0.3,0-0.5,0.2-0.5,0.5v14c0,0.2,0.1,0.4,0.3,0.4c0.1,0,0.2,0.1,0.3,0.1s0.2,0,0.3-0.1l19.3-11c0.2-0.1,0.3-0.3,0.3-0.4v-17.7
				C-350.3,280.2-350.4,280-350.6,279.9z"/>
		</g>
	</g>
	<g id="XMLID_554_">
		<path id="XMLID_342_" class="st6" d="M-370.1,293.3c-0.3,0-0.5,0.2-0.5,0.5v0.1c0,0.3,0.2,0.5,0.5,0.5c0.3,0,0.5-0.2,0.5-0.5v-0.1
			C-369.6,293.5-369.8,293.3-370.1,293.3z"/>
	</g>
	<g id="XMLID_550_">
		<g id="XMLID_124_">
			<polygon id="XMLID_125_" class="st0" points="-350.8,298.1 -335,308.1 -335,290.3 -350.8,280.4 			"/>
		</g>
	</g>
	<g id="XMLID_546_">
		<polygon id="XMLID_340_" class="st0" points="-349.7,298.8 -348.5,299.6 -348.5,281.8 -349.7,281 		"/>
	</g>
	<g id="XMLID_500_">
		<g id="XMLID_25_">
			<path id="XMLID_26_" class="st6" d="M-334.8,289.9l-15.8-10c-0.2-0.1-0.4-0.1-0.5,0c-0.2,0.1-0.3,0.3-0.3,0.5v17.8
				c0,0.3,0.2,0.5,0.5,0.5s0.5-0.2,0.5-0.5v-16.9l14.8,9.3V308c0,0.3,0.2,0.5,0.5,0.5c0.3,0,0.5-0.2,0.5-0.5v-17.7
				C-334.5,290.2-334.6,290-334.8,289.9z"/>
		</g>
	</g>
	<g id="XMLID_498_">
		<g id="XMLID_154_">
			<polygon id="XMLID_155_" class="st7" points="-366.8,311.3 -366.5,311.6 -347.4,300.4 -347.7,300.3 			"/>
		</g>
	</g>
	<g id="XMLID_496_">
		<g id="XMLID_151_">
			<polygon id="XMLID_152_" class="st7" points="-364,313.7 -363.7,314 -344.1,302.4 -344.4,302.3 			"/>
		</g>
	</g>
	<g id="XMLID_494_">
		<g id="XMLID_148_">
			<polygon id="XMLID_149_" class="st7" points="-360.9,315.9 -360.5,316.2 -340.7,304.4 -341,304.3 			"/>
		</g>
	</g>
	<g id="XMLID_491_">
		<g id="XMLID_145_">
			<polygon id="XMLID_146_" class="st7" points="-357.1,318 -356.7,318.3 -337,306.5 -337.3,306.5 			"/>
		</g>
	</g>
	<g id="XMLID_487_">
		<g id="XMLID_142_">
			<polygon id="XMLID_143_" class="st7" points="-353.4,299.2 -337.2,309.4 -336.8,309.1 -353.1,299.2 			"/>
		</g>
	</g>
	<g id="XMLID_485_">
		<g id="XMLID_139_">
			<polygon id="XMLID_140_" class="st7" points="-356.9,301.4 -340.7,311.6 -340.3,311.3 -356.6,301.3 			"/>
		</g>
	</g>
	<g id="XMLID_483_">
		<g id="XMLID_136_">
			<polygon id="XMLID_137_" class="st7" points="-360.5,303.5 -344.3,313.9 -344,313.6 -360.2,303.4 			"/>
		</g>
	</g>
	<g id="XMLID_481_">
		<g id="XMLID_133_">
			<polygon id="XMLID_134_" class="st7" points="-364.2,305.4 -347.9,315.8 -347.6,315.5 -363.9,305.3 			"/>
		</g>
	</g>
	<g id="XMLID_478_">
		<g id="XMLID_130_">
			<polygon id="XMLID_131_" class="st7" points="-367.5,307.6 -351.9,318.2 -351.5,317.9 -367.3,307.5 			"/>
		</g>
	</g>
	<g id="XMLID_474_">
		<g id="XMLID_22_">
			<path id="XMLID_23_" class="st6" d="M-334.8,307.7l-4.1-2.7c-0.2-0.2-0.6-0.1-0.7,0.1c-0.2,0.2-0.1,0.6,0.1,0.7l3.4,2.2l-9.5,5.6
				c-0.2,0.1-0.3,0.5-0.2,0.7c0.1,0.2,0.3,0.3,0.4,0.3s0.2,0,0.3-0.1l10.2-6c0.2-0.1,0.2-0.3,0.3-0.4
				C-334.5,307.9-334.6,307.8-334.8,307.7z"/>
		</g>
	</g>
	<g id="XMLID_472_">
		<g id="XMLID_19_">
			<path id="XMLID_20_" class="st6" d="M-341.5,303.3l-9-5.6c-0.2-0.1-0.4-0.1-0.5,0l-19.1,11c-0.2,0.1-0.2,0.2-0.3,0.4
				c0,0.2,0.1,0.3,0.2,0.4l15,10.8c0.1,0.1,0.2,0.1,0.3,0.1s0.2,0,0.3-0.1l8.6-5c0.2-0.1,0.3-0.5,0.2-0.7c-0.1-0.2-0.5-0.3-0.7-0.2
				l-8.5,4.9l-14-10.2l18.2-10.4l8.8,5.5c0.2,0.2,0.6,0.1,0.7-0.2C-341.2,303.8-341.3,303.5-341.5,303.3z"/>
		</g>
	</g>
	<g id="XMLID_470_">
		<g id="XMLID_35_">
			<path id="XMLID_36_" class="st8" d="M-340.2,304.2l-0.1-0.1c-0.2-0.2-0.6-0.1-0.7,0.2c-0.2,0.2-0.1,0.6,0.2,0.7l0.1,0.1
				c0.1,0.1,0.2,0.1,0.3,0.1c0.2,0,0.3-0.1,0.4-0.2C-339.8,304.6-339.9,304.3-340.2,304.2z"/>
		</g>
	</g>
	<g id="XMLID_419_">
		<g id="XMLID_465_">
			<path id="XMLID_294_" class="st9" d="M-357.3,293.5l-8.6,4.3c-0.7,0.4-1.2,0.8-1.2,1.6v7.6l1.6,1.2l10.4-13.9l0.4-0.6
				C-355.6,293.3-356.4,293-357.3,293.5z"/>
			<path id="XMLID_466_" class="st10" d="M-354.2,293.2c-0.9-0.4-1.9-0.8-3-0.2l-8.6,4.3c-0.7,0.3-1.5,0.9-1.5,2.1v7.6
				c0,0.2,0.1,0.3,0.2,0.4l1.6,1.2c0.1,0.1,0.2,0.1,0.3,0.1c0.2,0,0.3-0.1,0.4-0.2l10.4-13.9l0.4-0.6c0.1-0.1,0.1-0.3,0.1-0.4
				C-354,293.4-354.1,293.3-354.2,293.2z M-365.3,307.4l-1-0.7v-7.3c0-0.5,0.2-0.8,0.9-1.2l8.6-4.3c0.5-0.3,1-0.2,1.6,0
				L-365.3,307.4z"/>
		</g>
		<g id="XMLID_460_">
			<g id="XMLID_116_">
				<path id="XMLID_122_" class="st11" d="M-354.6,293.9l-9.8,4.8c-0.7,0.4-0.8,0.9-0.8,1.7v7.7l10.9-5.3v-7.7
					C-354.2,294.3-354.3,293.7-354.6,293.9z"/>
				<g id="XMLID_117_">
					<g id="XMLID_118_">
						<path id="XMLID_119_" class="st12" d="M-354.3,293.4c-0.2-0.1-0.4-0.1-0.6,0.1l-9.7,4.7c-1,0.5-1.1,1.3-1.1,2.2v7.7
							c0,0.2,0.1,0.3,0.2,0.4c0.1,0.1,0.2,0.1,0.3,0.1c0.1,0,0.2,0,0.2-0.1l11-5.2c0.2-0.1,0.3-0.3,0.3-0.5v-7.7
							C-353.7,294-353.9,293.6-354.3,293.4z M-354.8,302.5l-9.9,4.8v-6.9c0-0.8,0.1-1,0.5-1.3l9.4-4.6c0,0.2,0,0.3,0,0.6
							C-354.8,295.1-354.8,302.5-354.8,302.5z"/>
					</g>
				</g>
			</g>
		</g>
		<g id="XMLID_458_">
			<g id="XMLID_91_">
				<path id="XMLID_92_" class="st13" d="M-354.8,294.6l-0.7,0.3v6.5l0.8-0.2l-0.1-5.1C-354.8,295.2-354.8,294.9-354.8,294.6z"/>
			</g>
		</g>
		<g id="XMLID_456_">
			<g id="XMLID_225_">
				<path id="XMLID_226_" class="st14" d="M-364.7,300v3.2l0.5-0.3v-3.7C-364.5,299.3-364.7,299.6-364.7,300z"/>
			</g>
		</g>
		<g id="XMLID_451_">
			<path id="XMLID_270_" class="st15" d="M-349.6,300.5l-4.4-2.8l-1.3,0.6c-0.4,0.1,1.8,4.4,2,4.8l3.4,4.3l1.5-0.7v-3.9
				C-348.4,301.9-348.9,301-349.6,300.5z"/>
			<path id="XMLID_452_" class="st16" d="M-349.3,300.1l-4.4-2.9c-0.2-0.1-0.3-0.1-0.5,0l-1.3,0.6c-0.1,0.1-0.3,0.2-0.3,0.3
				c-0.3,0.8,2.1,5.1,2.1,5.2l0,0l3.4,4.3c0.1,0.1,0.3,0.2,0.4,0.2s0.2,0,0.2-0.1l1.5-0.7c0.2-0.1,0.3-0.3,0.3-0.5v-3.9
				C-347.9,301.7-348.5,300.7-349.3,300.1z M-349,306.4l-0.8,0.4l-3.1-4c-0.3-0.5-1.7-3.2-1.9-4.2l0.8-0.4l4.1,2.7
				c0.6,0.4,1,1.1,1,1.8v3.7H-349z"/>
		</g>
		<g id="XMLID_446_">
			<path id="XMLID_266_" class="st9" d="M-351.1,301.1l-3.7-2.4c-0.5-0.3-0.7-0.7-0.7,0.2v5l5.5,3.4v-4
				C-350,302.4-350.4,301.6-351.1,301.1z"/>
			<path id="XMLID_447_" class="st16" d="M-350.9,300.7l-3.6-2.4c-0.1,0-0.1-0.1-0.2-0.1c-0.2-0.2-0.5-0.4-0.9-0.2
				c-0.4,0.2-0.4,0.7-0.4,1v5c0,0.2,0.1,0.3,0.3,0.4l5.5,3.3c0.1,0,0.2,0.1,0.3,0.1s0.2,0,0.3-0.1c0.2-0.1,0.3-0.3,0.3-0.4v-4
				C-349.4,302.3-350,301.3-350.9,300.7z M-350.5,306.4l-4.5-2.7v-4.5l3.6,2.4c0.6,0.4,1,1.1,1,1.8v3H-350.5z"/>
		</g>
		<g id="XMLID_441_">
			<polygon id="XMLID_260_" class="st15" points="-363.6,307 -358.1,310.7 -350.1,306.7 -350.1,304.8 			"/>
			<path id="XMLID_442_" class="st16" d="M-349.8,304.4c-0.1-0.1-0.3-0.1-0.4-0.1l-13.5,2.2c-0.2,0-0.4,0.2-0.4,0.4
				c0,0.2,0,0.4,0.2,0.5l5.5,3.7c0.1,0.1,0.2,0.1,0.3,0.1s0.2,0,0.2-0.1l8-4c0.2-0.1,0.3-0.3,0.3-0.5l-0.1-1.9
				C-349.6,304.6-349.7,304.5-349.8,304.4z M-358.1,310.1l-4.2-2.8l11.6-1.9v1L-358.1,310.1z"/>
		</g>
		<g id="XMLID_439_">
			<g id="XMLID_94_">
				<polygon id="XMLID_95_" class="st4" points="-363.6,305.3 -358.1,308.9 -350.1,304.9 -355.6,301.3 				"/>
			</g>
		</g>
		<g id="XMLID_437_">
			<path id="XMLID_256_" class="st10" d="M-349.8,304.5l-5.5-3.7c-0.2-0.1-0.3-0.1-0.5,0l-1.2,0.6c-0.3,0.1-0.4,0.4-0.2,0.7
				c0.1,0.3,0.4,0.4,0.7,0.2l0.9-0.4l4.5,3l-7,3.5l-4.5-3l3.9-1.9c0.3-0.1,0.4-0.4,0.2-0.7c-0.1-0.3-0.4-0.4-0.7-0.2l-4.7,2.3
				c-0.2,0.1-0.3,0.2-0.3,0.4s0.1,0.4,0.2,0.5l5.5,3.7c0.1,0.1,0.2,0.1,0.3,0.1c0.1,0,0.2,0,0.2-0.1l8-4c0.2-0.1,0.3-0.2,0.3-0.4
				C-349.6,304.8-349.6,304.6-349.8,304.5z"/>
		</g>
		<g id="XMLID_435_">
			<g id="XMLID_31_">
				<path id="XMLID_32_" class="st8" d="M-357.9,301.9L-357.9,301.9c-0.4,0-0.6,0.3-0.5,0.6c0,0.3,0.3,0.4,0.5,0.4c0,0,0,0,0.1,0
					h0.1c0.3,0,0.5-0.3,0.4-0.6C-357.3,302-357.6,301.8-357.9,301.9z"/>
			</g>
		</g>
		<g id="XMLID_430_">
			<path id="XMLID_254_" class="st15" d="M-359.3,305.1l-4.1-2.8c-0.1-0.1-0.3-0.1-0.4,0l-1.2,0.5l5.5,9.2l1.5-0.5v-4.2
				C-358.1,306.4-358.5,305.6-359.3,305.1z"/>
			<path id="XMLID_431_" class="st10" d="M-359,304.7l-4.1-2.8c-0.3-0.2-0.6-0.2-0.9-0.1l-1.2,0.5c-0.1,0.1-0.3,0.2-0.3,0.3
				c0,0.1,0,0.3,0,0.4l5.5,9.3c0.1,0.2,0.3,0.3,0.4,0.3s0.1,0,0.2,0l1.5-0.5c0.2-0.1,0.4-0.3,0.4-0.5v-4.3
				C-357.6,306.3-358.1,305.3-359,304.7z M-358.6,311.1l-0.7,0.2l-5-8.3l0.6-0.2l4.1,2.7c0.6,0.4,1,1.1,1,1.8V311.1z"/>
		</g>
		<g id="XMLID_428_">
			<g id="XMLID_97_">
				<path id="XMLID_98_" class="st9" d="M-360.8,305.7l-4.4-2.9v5.4l5.5,3.9v-4.2C-359.6,307-360.1,306.2-360.8,305.7z"/>
			</g>
		</g>
		<g id="XMLID_426_">
			<g id="XMLID_46_">
				<path id="XMLID_47_" class="st10" d="M-360.5,305.3l-4.4-2.9c-0.2-0.1-0.4-0.1-0.5,0c-0.2,0.1-0.3,0.3-0.3,0.5v5.4
					c0,0.2,0.1,0.3,0.2,0.4l5.5,3.9c0.1,0.1,0.2,0.1,0.3,0.1c0.1,0,0.2,0,0.2-0.1c0.2-0.1,0.3-0.3,0.3-0.5v-1.6
					c0-0.3-0.2-0.5-0.5-0.5c-0.3,0-0.5,0.2-0.5,0.5v0.6l-4.5-3.2v-4.1l3.6,2.4c0.6,0.4,1,1.1,1,1.8v1.3c0,0.3,0.2,0.5,0.5,0.5
					c0.3,0,0.5-0.2,0.5-0.5V308C-359.1,306.8-359.6,305.9-360.5,305.3z"/>
			</g>
		</g>
		<g id="XMLID_424_">
			<g id="XMLID_222_">
				<polygon id="XMLID_223_" class="st14" points="-364.6,303.8 -364.6,307.9 -364.1,308.2 -364.2,304.1 				"/>
			</g>
		</g>
		<g id="XMLID_422_">
			<path id="XMLID_247_" class="st17" d="M-366.2,299c-0.1,0.2-0.1,0.4-0.1,0.6v7.1l0.2,0.2v-8.1L-366.2,299z"/>
		</g>
		<g id="XMLID_420_">
			<polygon id="XMLID_246_" class="st3" points="-355,299.2 -355,301 -354.5,301.4 -354.5,299.5 			"/>
		</g>
	</g>
	<g id="XMLID_417_">
		<g id="XMLID_56_">
			<polygon id="XMLID_57_" class="st11" points="-346.6,292.6 -339.2,297.1 -339.2,291.1 -346.6,286.5 			"/>
		</g>
	</g>
	<g id="XMLID_415_">
		<g id="XMLID_68_">
			<path id="XMLID_69_" class="st18" d="M-342,293.4L-342,293.4l-1-1.6c-0.4-0.8-1.5-0.9-2.1-0.4l-1.4,1.2l7.4,4.5l-1-2.8
				C-340.4,293.5-341.3,293.1-342,293.4z"/>
		</g>
	</g>
	<g id="XMLID_413_">
		<g id="XMLID_38_">
			<path id="XMLID_39_" class="st10" d="M-338.9,290.6l-7.4-4.5c-0.2-0.1-0.4-0.1-0.5,0c-0.2,0.1-0.3,0.3-0.3,0.4v1.8
				c0,0.3,0.2,0.5,0.5,0.5c0.3,0,0.5-0.2,0.5-0.5v-0.9l6.4,3.9v4.9l-6.4-3.9v-2.7c0-0.3-0.2-0.5-0.5-0.5c-0.3,0-0.5,0.2-0.5,0.5v3
				c0,0.2,0.1,0.3,0.2,0.4l7.4,4.5c0.1,0.1,0.2,0.1,0.3,0.1c0.1,0,0.2,0,0.3-0.1c0.2-0.1,0.3-0.3,0.3-0.4V291
				C-338.7,290.9-338.8,290.7-338.9,290.6z"/>
		</g>
	</g>
</g>
</svg>
