<?xml version="1.0" encoding="utf-8"?>
<!-- Generator: Adobe Illustrator 19.0.0, SVG Export Plug-In . SVG Version: 6.00 Build 0)  -->
<svg version="1.1" id="Isolation_Mode" xmlns="http://www.w3.org/2000/svg" xmlns:xlink="http://www.w3.org/1999/xlink" x="0px"
	 y="0px" viewBox="0 0 34.4 34" style="enable-background:new 0 0 34.4 34;" xml:space="preserve">
<style type="text/css">
	.st0{fill:url(#SVGID_1_);}
	.st1{fill:url(#SVGID_2_);}
	.st2{fill:url(#SVGID_3_);}
</style>
<g>
	<linearGradient id="SVGID_1_" gradientUnits="userSpaceOnUse" x1="-4.0825" y1="33.0293" x2="39.6368" y2="8.452029e-002">
		<stop  offset="0" style="stop-color:#7094A8"/>
		<stop  offset="0.9946" style="stop-color:#DDEDF5"/>
	</linearGradient>
	<path class="st0" d="M33.8,8c-0.6-0.7-1.5-0.8-2.2-0.8H25L25,4l0-1.1c0-0.8-0.2-1.5-0.7-2C23.7,0.1,22.7,0,22,0H2.9
		C1.3,0,0,1.3,0,2.9v22.7c0,1.6,1.3,2.9,2.9,2.9h14.9v2.8c0,1.5,1.2,2.7,2.7,2.7h11.1c1.5,0,2.6-1.2,2.7-2.7L34.4,11l0-1.1
		C34.4,9.1,34.2,8.5,33.8,8z M19.2,27.2V11.9h13.7l-0.1,15.4H19.2z M32.7,9C32.9,9.2,33,9.5,33,9.9l0,0.6H19.2V9.9
		c0-0.7,0.5-1.3,1.2-1.3h11.1C31.9,8.6,32.4,8.7,32.7,9z M20.4,7.2c-1.5,0-2.7,1.2-2.7,2.7v11.7H1.4v-17h22.2l0,2.6H20.4z M2.9,1.4
		H22c0.3,0,1,0.1,1.3,0.4c0.2,0.2,0.3,0.5,0.3,0.9l0,0.4H1.4V2.9C1.4,2.1,2.1,1.4,2.9,1.4z M2.9,27c-0.8,0-1.4-0.6-1.4-1.4v-2.5
		h16.3V27H2.9z M31.6,32.6H20.4c-0.7,0-1.2-0.6-1.2-1.3v-2.6h13.6l0,2.6C32.8,32,32.3,32.6,31.6,32.6z"/>
	<linearGradient id="SVGID_2_" gradientUnits="userSpaceOnUse" x1="5.749" y1="45.917" x2="49.6301" y2="12.8503">
		<stop  offset="0" style="stop-color:#7094A8"/>
		<stop  offset="0.9946" style="stop-color:#DDEDF5"/>
	</linearGradient>
	<path class="st1" d="M27.2,29.9h-2.4c-0.4,0-0.7,0.3-0.7,0.7s0.3,0.7,0.7,0.7h2.4c0.4,0,0.7-0.3,0.7-0.7S27.6,29.9,27.2,29.9z"/>
	<linearGradient id="SVGID_3_" gradientUnits="userSpaceOnUse" x1="-2.0273" y1="35.7975" x2="41.8638" y2="2.7231">
		<stop  offset="0" style="stop-color:#7094A8"/>
		<stop  offset="0.9946" style="stop-color:#DDEDF5"/>
	</linearGradient>
	<path class="st2" d="M13.8,24.2h-2.7c-0.4,0-0.7,0.3-0.7,0.7s0.3,0.7,0.7,0.7h2.7c0.4,0,0.7-0.3,0.7-0.7S14.2,24.2,13.8,24.2z"/>
</g>
</svg>
