<?xml version="1.0" encoding="utf-8"?>
<!-- Generator: Adobe Illustrator 19.0.0, SVG Export Plug-In . SVG Version: 6.00 Build 0)  -->
<svg version="1.1" id="Digital_Marketing" xmlns="http://www.w3.org/2000/svg" xmlns:xlink="http://www.w3.org/1999/xlink" x="0px"
	 y="0px" viewBox="-383.8 273.6 71.5 49" style="enable-background:new -383.8 273.6 71.5 49;" xml:space="preserve">
<style type="text/css">
	.st0{fill:#EDEFCA;}
	.st1{fill:#3F4213;}
	.st2{fill:#D7DC88;}
	.st3{fill:#BCC43A;}
	.st4{fill:#EBEFCA;}
	.st5{fill:#C8D063;}
	.st6{fill:#C8D061;}
	.st7{fill:#CAD064;}
	.st8{fill:#3E4210;}
	.st9{fill:#C9D164;}
</style>
<g id="XMLID_763_">
	<g id="XMLID_1407_">
		<g id="XMLID_305_">
			<g id="XMLID_306_">
				<path id="XMLID_307_" class="st0" d="M-314.8,290.7h-7.6h-2c-1.3,0-2.4-1.1-2.4-2.4c0-1.3,1.1-2.4,2.4-2.4h2h2.7
					c1.3,0,2.4-1.1,2.4-2.4c0-1.3-1.1-2.4-2.4-2.4h-9.8h-0.9c-0.1-0.2-0.2-0.3-0.4-0.4c-9.5-9.5-24.8-9.5-34.3,0
					c-2.1,2.1-3.8,4.5-4.9,7.1h-4.6c-1.3,0-2.4,1.1-2.4,2.4c0,1.4,1.1,2.5,2.4,2.5h1.1h6.4c1.3,0,2.4,1.1,2.4,2.4
					c0,1.3-1.1,2.4-2.4,2.4h-6.4h-7.9c-1.3,0-2.4,1.1-2.4,2.4c0,1.3,1.1,2.4,2.4,2.4h7.9h1.7c1.3,0,2.4,1.1,2.4,2.4
					s-1.1,2.4-2.4,2.4h-1.7h-3c-1.3,0-2.4,1.1-2.4,2.4c0,1.3,1.1,2.4,2.4,2.4h8.4c0.9,1.3,1.9,2.5,3,3.6c9.5,9.5,24.8,9.5,34.3,0
					c3-3,5-6.5,6.1-10.3h3.1c1.3,0,2.4-1.1,2.4-2.4c0-1.3-1.1-2.4-2.4-2.4h-0.7h-6.7c-1.3,0-2.4-1.1-2.4-2.4c0-1.3,1.1-2.4,2.4-2.4
					h6.7h7.6c1.3,0,2.4-1.1,2.4-2.4C-312.5,291.8-313.5,290.7-314.8,290.7z"/>
			</g>
		</g>
	</g>
	<g id="XMLID_1313_">
		<g id="XMLID_1129_">
			<g id="XMLID_1225_">
				<g id="XMLID_1232_">
					<path id="XMLID_1234_" class="st1" d="M-344.5,320.8h-1.5c-0.1,0-0.3,0.1-0.3,0.3c0,0.1,0.1,0.3,0.3,0.3h1.6
						c0.1,0,0.3-0.1,0.3-0.3C-344.2,320.9-344.3,320.8-344.5,320.8z"/>
				</g>
				<g id="XMLID_1230_">
					<path id="XMLID_1231_" class="st1" d="M-337.1,320.8h-5.8c-0.1,0-0.3,0.1-0.3,0.3c0,0.1,0.1,0.3,0.3,0.3h5.8
						c0.1,0,0.3-0.1,0.3-0.3C-336.9,320.9-337,320.8-337.1,320.8z"/>
				</g>
				<g id="XMLID_1228_">
					<path id="XMLID_1229_" class="st1" d="M-341.8,319.2h-5.8c-0.1,0-0.3,0.1-0.3,0.3c0,0.1,0.1,0.3,0.3,0.3h5.8
						c0.1,0,0.3-0.1,0.3-0.3C-341.6,319.4-341.7,319.2-341.8,319.2z"/>
				</g>
				<g id="XMLID_1226_">
					<path id="XMLID_1227_" class="st1" d="M-338.7,319.2h-1c-0.1,0-0.3,0.1-0.3,0.3c0,0.1,0.1,0.3,0.3,0.3h1c0.1,0,0.3-0.1,0.3-0.3
						C-338.4,319.4-338.5,319.2-338.7,319.2z"/>
				</g>
			</g>
			<g id="XMLID_1205_">
				<g id="XMLID_1222_">
					<path id="XMLID_1223_" class="st1" d="M-365.5,277.8h-0.8c-0.1,0-0.3,0.1-0.3,0.3c0,0.1,0.1,0.3,0.3,0.3h0.8
						c0.1,0,0.3-0.1,0.3-0.3C-365.2,277.9-365.3,277.8-365.5,277.8z"/>
				</g>
				<g id="XMLID_1220_">
					<path id="XMLID_1221_" class="st1" d="M-361.5,277.8h-0.8c-0.1,0-0.3,0.1-0.3,0.3c0,0.1,0.1,0.3,0.3,0.3h0.8
						c0.1,0,0.3-0.1,0.3-0.3C-361.3,277.9-361.4,277.8-361.5,277.8z"/>
				</g>
				<g id="XMLID_1218_">
					<path id="XMLID_1219_" class="st1" d="M-365.2,279l-0.6,0.6c-0.1,0.1-0.1,0.3,0,0.4c0.1,0.1,0.1,0.1,0.2,0.1
						c0.1,0,0.1,0,0.2-0.1l0.6-0.6c0.1-0.1,0.1-0.3,0-0.4C-364.9,278.9-365,278.9-365.2,279z"/>
				</g>
				<g id="XMLID_1215_">
					<path id="XMLID_1217_" class="st1" d="M-362.4,276.2l-0.6,0.6c-0.1,0.1-0.1,0.3,0,0.4c0.1,0.1,0.1,0.1,0.2,0.1s0.1,0,0.2-0.1
						l0.6-0.6c0.1-0.1,0.1-0.3,0-0.4C-362.1,276.1-362.3,276.1-362.4,276.2z"/>
				</g>
				<g id="XMLID_1213_">
					<path id="XMLID_1214_" class="st1" d="M-363.9,279.4c-0.1,0-0.3,0.1-0.3,0.3v0.8c0.1,0.1,0.2,0.2,0.3,0.2s0.3-0.1,0.3-0.3v-0.8
						C-363.6,279.5-363.7,279.4-363.9,279.4z"/>
				</g>
				<g id="XMLID_1211_">
					<path id="XMLID_1212_" class="st1" d="M-363.9,275.4c-0.1,0-0.3,0.1-0.3,0.3v0.8c0.1,0.1,0.2,0.2,0.3,0.2s0.3-0.1,0.3-0.3v-0.7
						C-363.6,275.5-363.7,275.4-363.9,275.4z"/>
				</g>
				<g id="XMLID_1209_">
					<path id="XMLID_1210_" class="st1" d="M-362.6,279c-0.1-0.1-0.3-0.1-0.4,0c-0.1,0.1-0.1,0.3,0,0.4l0.6,0.6
						c0.1,0.1,0.1,0.1,0.2,0.1s0.1,0,0.2-0.1c0.1-0.1,0.1-0.3,0-0.4L-362.6,279z"/>
				</g>
				<g id="XMLID_1206_">
					<path id="XMLID_1207_" class="st1" d="M-365.3,276.2c-0.1-0.1-0.3-0.1-0.4,0s-0.1,0.3,0,0.4l0.6,0.6c0,0,0.1,0,0.1,0
						c0.1,0,0.1,0,0.2-0.1s0.1-0.3,0-0.4L-365.3,276.2z"/>
				</g>
			</g>
			<g id="XMLID_1186_">
				<g id="XMLID_1203_">
					<path id="XMLID_1204_" class="st1" d="M-327.7,286.4h-0.8c-0.1,0-0.3,0.1-0.3,0.3c0,0.1,0.1,0.3,0.3,0.3h0.8
						c0.1,0,0.3-0.1,0.3-0.3C-327.4,286.6-327.5,286.4-327.7,286.4z"/>
				</g>
				<g id="XMLID_1200_">
					<path id="XMLID_1202_" class="st1" d="M-323.7,286.4h-0.8c-0.1,0-0.3,0.1-0.3,0.3c0,0.1,0.1,0.3,0.3,0.3h0.8
						c0.1,0,0.3-0.1,0.3-0.3C-323.5,286.6-323.6,286.4-323.7,286.4z"/>
				</g>
				<g id="XMLID_1198_">
					<path id="XMLID_1199_" class="st1" d="M-327.4,287.7l-0.6,0.6c-0.1,0.1-0.1,0.3,0,0.4c0.1,0.1,0.1,0.1,0.2,0.1s0.1,0,0.2-0.1
						l0.6-0.6c0.1-0.1,0.1-0.3,0-0.4C-327.1,287.6-327.3,287.6-327.4,287.7z"/>
				</g>
				<g id="XMLID_1196_">
					<path id="XMLID_1197_" class="st1" d="M-324.6,284.9l-0.6,0.6c-0.1,0.1-0.1,0.3,0,0.4c0.1,0.1,0.1,0.1,0.2,0.1
						c0.1,0,0.1,0,0.2-0.1l0.6-0.6c0.1-0.1,0.1-0.3,0-0.4C-324.3,284.8-324.5,284.8-324.6,284.9z"/>
				</g>
				<g id="XMLID_1194_">
					<path id="XMLID_1195_" class="st1" d="M-326.1,288c-0.1,0-0.3,0.1-0.3,0.3v0.8c0,0.1,0.1,0.3,0.3,0.3c0.1,0,0.3-0.1,0.3-0.3
						v-0.8C-325.8,288.1-326,288-326.1,288z"/>
				</g>
				<g id="XMLID_1191_">
					<path id="XMLID_1193_" class="st1" d="M-326.1,284.1c-0.1,0-0.3,0.1-0.3,0.3v0.8c0,0.1,0.1,0.3,0.3,0.3c0.1,0,0.3-0.1,0.3-0.3
						v-0.8C-325.8,284.2-326,284.1-326.1,284.1z"/>
				</g>
				<g id="XMLID_1189_">
					<path id="XMLID_1190_" class="st1" d="M-324.8,287.7c-0.1-0.1-0.3-0.1-0.4,0s-0.1,0.3,0,0.4l0.6,0.6c0.1,0.1,0.1,0.1,0.2,0.1
						s0.1,0,0.2-0.1s0.1-0.3,0-0.4L-324.8,287.7z"/>
				</g>
				<g id="XMLID_1187_">
					<path id="XMLID_1188_" class="st1" d="M-327.6,284.9c-0.1-0.1-0.3-0.1-0.4,0c-0.1,0.1-0.1,0.3,0,0.4l0.6,0.6
						c0.1,0.1,0.1,0.1,0.2,0.1s0.1,0,0.2-0.1c0.1-0.1,0.1-0.3,0-0.4L-327.6,284.9z"/>
				</g>
			</g>
			<g id="XMLID_1181_">
				<path id="XMLID_1183_" class="st1" d="M-330.7,316.7l-0.6-0.3c-0.3-0.1-0.5-0.4-0.6-0.6l-0.3-0.6c0-0.1-0.1-0.1-0.2-0.1
					c-0.1,0-0.2,0.1-0.2,0.1l-0.4,0.6c-0.1,0.3-0.4,0.5-0.6,0.6l-0.6,0.3c-0.1,0-0.1,0.1-0.1,0.2c0,0.1,0.1,0.2,0.1,0.2l0.6,0.3
					c0.3,0.1,0.5,0.4,0.6,0.6l0.3,0.6c0,0.1,0.1,0.1,0.2,0.1s0.2-0.1,0.2-0.1l0.3-0.6c0.1-0.3,0.4-0.5,0.6-0.6l0,0l0.6-0.3
					c0.1,0,0.1-0.1,0.1-0.2C-330.6,316.8-330.6,316.8-330.7,316.7z M-331.5,317L-331.5,317c-0.4,0.2-0.6,0.5-0.8,0.8l-0.1,0.2
					l-0.1-0.2c-0.2-0.4-0.5-0.6-0.8-0.8l-0.2-0.1l0.2-0.1c0.4-0.2,0.6-0.5,0.8-0.8l0.1-0.2l0.1,0.2c0.2,0.4,0.5,0.6,0.8,0.8l0.2,0.1
					L-331.5,317z"/>
			</g>
			<g id="XMLID_1177_">
				<path id="XMLID_1178_" class="st1" d="M-370,286.7l-0.6-0.3c-0.3-0.1-0.5-0.4-0.6-0.6l-0.3-0.6c0-0.1-0.1-0.1-0.2-0.1
					s-0.2,0.1-0.2,0.1l-0.3,0.6c-0.1,0.3-0.4,0.5-0.6,0.6l-0.7,0.3c-0.1,0-0.1,0.1-0.1,0.2c0,0.1,0.1,0.2,0.1,0.2l0.6,0.3
					c0.3,0.1,0.5,0.4,0.6,0.6l0.3,0.7c0,0.1,0.1,0.1,0.2,0.1s0.2-0.1,0.2-0.1l0.3-0.6c0.1-0.3,0.4-0.5,0.6-0.6l0,0l0.6-0.3
					c0.1,0,0.1-0.1,0.1-0.2C-370,286.9-369.9,286.8-370,286.7z M-370.8,287c-0.4,0.2-0.6,0.5-0.8,0.8l-0.1,0.2l-0.1-0.2
					c-0.2-0.4-0.5-0.6-0.8-0.8l-0.2-0.1l0.2-0.1c0.4-0.2,0.6-0.5,0.8-0.8l0.1-0.2l0.1,0.2c0.2,0.4,0.5,0.6,0.8,0.8l0.2,0.1
					L-370.8,287z"/>
			</g>
			<g id="XMLID_1166_">
				<g id="XMLID_1175_">
					<path id="XMLID_1176_" class="st1" d="M-357.3,317.7h-0.5c-0.1,0-0.3,0.1-0.3,0.3c0,0.1,0.1,0.3,0.3,0.3h0.5
						c0.1,0,0.3-0.1,0.3-0.3C-357.1,317.8-357.2,317.7-357.3,317.7z"/>
				</g>
				<g id="XMLID_1172_">
					<path id="XMLID_1173_" class="st1" d="M-354.7,317.7h-0.5c-0.1,0-0.3,0.1-0.3,0.3c0,0.1,0.1,0.3,0.3,0.3h0.5
						c0.1,0,0.3-0.1,0.3-0.3C-354.4,317.8-354.6,317.7-354.7,317.7z"/>
				</g>
				<g id="XMLID_1170_">
					<path id="XMLID_1171_" class="st1" d="M-356.3,318.7c-0.1,0-0.3,0.1-0.3,0.3v0.5c0,0.1,0.1,0.3,0.3,0.3s0.3-0.1,0.3-0.3V319
						C-356,318.8-356.1,318.7-356.3,318.7z"/>
				</g>
				<g id="XMLID_1168_">
					<path id="XMLID_1169_" class="st1" d="M-356.3,316.1c-0.1,0-0.3,0.1-0.3,0.3v0.5c0,0.1,0.1,0.3,0.3,0.3s0.3-0.1,0.3-0.3v-0.5
						C-356,316.2-356.1,316.1-356.3,316.1z"/>
				</g>
			</g>
			<g id="XMLID_1156_">
				<g id="XMLID_1164_">
					<path id="XMLID_1165_" class="st1" d="M-368.9,297.7h-0.5c-0.1,0-0.3,0.1-0.3,0.3c0,0.2,0.1,0.3,0.3,0.3h0.5
						c0.1,0,0.3-0.1,0.3-0.3C-368.6,297.8-368.7,297.7-368.9,297.7z"/>
				</g>
				<g id="XMLID_1162_">
					<path id="XMLID_1163_" class="st1" d="M-366.2,297.7h-0.5c-0.1,0-0.3,0.1-0.3,0.3c0,0.2,0.1,0.3,0.3,0.3h0.5
						c0.1,0,0.3-0.1,0.3-0.3C-365.9,297.8-366.1,297.7-366.2,297.7z"/>
				</g>
				<g id="XMLID_1160_">
					<path id="XMLID_1161_" class="st1" d="M-367.8,298.8c-0.1,0-0.3,0.1-0.3,0.3v0.5c0,0.1,0.1,0.3,0.3,0.3s0.3-0.1,0.3-0.3v-0.5
						C-367.5,298.9-367.7,298.8-367.8,298.8z"/>
				</g>
				<g id="XMLID_1157_">
					<path id="XMLID_1158_" class="st1" d="M-367.8,296.2c-0.1,0-0.3,0.1-0.3,0.3v0.5c0,0.1,0.1,0.3,0.3,0.3s0.3-0.1,0.3-0.3v-0.5
						C-367.5,296.3-367.7,296.2-367.8,296.2z"/>
				</g>
			</g>
			<g id="XMLID_1147_">
				<g id="XMLID_1154_">
					<path id="XMLID_1155_" class="st1" d="M-333.7,280.7h-3.4c-0.1,0-0.3,0.1-0.3,0.3c0,0.2,0.1,0.3,0.3,0.3h3.4
						c0.1,0,0.3-0.1,0.3-0.3C-333.4,280.8-333.6,280.7-333.7,280.7z"/>
				</g>
				<g id="XMLID_1152_">
					<path id="XMLID_1153_" class="st1" d="M-324.8,278.8H-335c-0.1,0-0.3,0.1-0.3,0.3c0,0.1,0.1,0.3,0.3,0.3h10.2
						c0.1,0,0.3-0.1,0.3-0.3C-324.5,279-324.6,278.8-324.8,278.8z"/>
				</g>
				<g id="XMLID_1150_">
					<path id="XMLID_1151_" class="st1" d="M-328.5,277h-1.3c-0.1,0-0.3,0.1-0.3,0.3c0,0.1,0.1,0.3,0.3,0.3h1.3
						c0.1,0,0.3-0.1,0.3-0.3C-328.2,277.1-328.3,277-328.5,277z"/>
				</g>
				<g id="XMLID_1148_">
					<path id="XMLID_1149_" class="st1" d="M-331.9,277h-7.3c-0.1,0-0.3,0.1-0.3,0.3c0,0.1,0.1,0.3,0.3,0.3h7.3
						c0.1,0,0.3-0.1,0.3-0.3C-331.6,277.1-331.7,277-331.9,277z"/>
				</g>
			</g>
			<g id="XMLID_1136_">
				<g id="XMLID_1144_">
					<path id="XMLID_1146_" class="st1" d="M-377.8,302.7h-3.1c-0.1,0-0.3,0.1-0.3,0.3c0,0.1,0.1,0.3,0.3,0.3h3.1
						c0.1,0,0.3-0.1,0.3-0.3C-377.5,302.8-377.6,302.7-377.8,302.7z"/>
				</g>
				<g id="XMLID_1142_">
					<path id="XMLID_1143_" class="st1" d="M-371.7,300.9h-5.8c-0.1,0-0.3,0.1-0.3,0.3c0,0.1,0.1,0.3,0.3,0.3h5.8
						c0.1,0,0.3-0.1,0.3-0.3C-371.5,301-371.6,300.9-371.7,300.9z"/>
				</g>
				<g id="XMLID_1140_">
					<path id="XMLID_1141_" class="st1" d="M-373.8,299h-0.8c-0.1,0-0.3,0.1-0.3,0.3c0,0.2,0.1,0.3,0.3,0.3h0.8
						c0.1,0,0.3-0.1,0.3-0.3C-373.5,299.1-373.7,299-373.8,299z"/>
				</g>
				<g id="XMLID_1137_">
					<path id="XMLID_1138_" class="st1" d="M-375.7,299h-4.2c-0.1,0-0.3,0.1-0.3,0.3c0,0.2,0.1,0.3,0.3,0.3h4.2
						c0.1,0,0.3-0.1,0.3-0.3C-375.4,299.1-375.5,299-375.7,299z"/>
				</g>
			</g>
			<g id="XMLID_1134_">
				<path id="XMLID_1135_" class="st1" d="M-314,301.4h-9.7c-0.1,0-0.3,0.1-0.3,0.3c0,0.1,0.1,0.3,0.3,0.3h9.7
					c0.1,0,0.3-0.1,0.3-0.3C-313.8,301.5-313.9,301.4-314,301.4z"/>
			</g>
			<g id="XMLID_1132_">
				<path id="XMLID_1133_" class="st1" d="M-320.1,303h-2.9c-0.1,0-0.3,0.1-0.3,0.3c0,0.2,0.1,0.3,0.3,0.3h2.9
					c0.1,0,0.3-0.1,0.3-0.3C-319.8,303.1-319.9,303-320.1,303z"/>
			</g>
			<g id="XMLID_1130_">
				<path id="XMLID_1131_" class="st1" d="M-317.4,303h-1.3c-0.1,0-0.3,0.1-0.3,0.3c0,0.2,0.1,0.3,0.3,0.3h1.3
					c0.1,0,0.3-0.1,0.3-0.3C-317.1,303.1-317.3,303-317.4,303z"/>
			</g>
		</g>
	</g>
	<g id="XMLID_764_">
		<g id="XMLID_1311_">
			<g id="XMLID_286_">
				<rect id="XMLID_287_" x="-356.1" y="278.8" class="st2" width="11.2" height="34.6"/>
			</g>
		</g>
		<g id="XMLID_1309_">
			<g id="XMLID_243_">
				<rect id="XMLID_244_" x="-346.5" y="278.8" class="st3" width="1.8" height="34.6"/>
			</g>
		</g>
		<g id="XMLID_1307_">
			<path id="XMLID_657_" class="st1" d="M-326.1,312.9h-44.3c-0.3,0-0.5,0.2-0.5,0.5c0,0.3,0.2,0.5,0.5,0.5h44.3
				c0.3,0,0.5-0.2,0.5-0.5C-325.6,313.1-325.8,312.9-326.1,312.9z"/>
		</g>
		<g id="XMLID_1300_">
			<g id="XMLID_301_">
				<path id="XMLID_302_" class="st1" d="M-344.6,278.3h-12.8c-0.3,0-0.5,0.2-0.5,0.5v34.6c0,0.3,0.2,0.5,0.5,0.5h12.8
					c0.3,0,0.5-0.2,0.5-0.5v-34.6C-344.1,278.5-344.3,278.3-344.6,278.3z M-345.1,312.9h-11.8v-33.6h11.7v33.6H-345.1z"/>
			</g>
		</g>
		<g id="XMLID_1296_">
			<g id="XMLID_238_">
				<rect id="XMLID_239_" x="-343.2" y="295.3" class="st0" width="12.6" height="18.1"/>
			</g>
		</g>
		<g id="XMLID_1292_">
			<g id="XMLID_229_">
				<rect id="XMLID_235_" x="-332" y="295.3" class="st4" width="1.7" height="18.1"/>
			</g>
		</g>
		<g id="XMLID_1284_">
			<g id="XMLID_290_">
				<path id="XMLID_291_" class="st1" d="M-330.2,294.8h-14.3c-0.3,0-0.5,0.2-0.5,0.5v18.1c0,0.3,0.2,0.5,0.5,0.5h14.3
					c0.3,0,0.5-0.2,0.5-0.5v-18.1C-329.7,295-329.9,294.8-330.2,294.8z M-330.7,312.9H-344v-17.1h13.3V312.9z"/>
			</g>
		</g>
		<g id="XMLID_1279_">
			<g id="XMLID_216_">
				<rect id="XMLID_227_" x="-354.3" y="309.3" class="st0" width="6.3" height="3.8"/>
			</g>
		</g>
		<g id="XMLID_1275_">
			<rect id="XMLID_640_" x="-349.8" y="309.3" class="st0" width="1.7" height="3.8"/>
		</g>
		<g id="XMLID_1267_">
			<g id="XMLID_248_">
				<path id="XMLID_249_" class="st1" d="M-348,308.8h-6.3c-0.3,0-0.5,0.2-0.5,0.5v3.8c0,0.3,0.2,0.5,0.5,0.5h6.3
					c0.3,0,0.5-0.2,0.5-0.5v-3.8C-347.5,309-347.7,308.8-348,308.8z M-348.5,312.6h-5.2v-2.8h5.2V312.6z"/>
			</g>
		</g>
		<g id="XMLID_1262_">
			<g id="XMLID_210_">
				<rect id="XMLID_212_" x="-341.6" y="307.4" class="st0" width="8.2" height="5.8"/>
			</g>
		</g>
		<g id="XMLID_1258_">
			<g id="XMLID_207_">
				<rect id="XMLID_208_" x="-339.2" y="307.4" class="st5" width="1.6" height="5.8"/>
			</g>
		</g>
		<g id="XMLID_1254_">
			<g id="XMLID_204_">
				<rect id="XMLID_205_" x="-334.8" y="307.4" class="st5" width="1.6" height="5.8"/>
			</g>
		</g>
		<g id="XMLID_1241_">
			<g id="XMLID_230_">
				<path id="XMLID_232_" class="st1" d="M-333.3,306.9h-8.2c-0.3,0-0.5,0.2-0.5,0.5v5.8c0,0.3,0.2,0.5,0.5,0.5h8.2
					c0.3,0,0.5-0.2,0.5-0.5v-5.8C-332.8,307.1-333,306.9-333.3,306.9z M-333.9,312.6h-7.1v-4.7h7.2v4.7H-333.9z"/>
			</g>
		</g>
		<g id="XMLID_1233_">
			<g id="XMLID_201_">
				<path id="XMLID_202_" class="st1" d="M-337.6,306.9c-0.3,0-0.5,0.2-0.5,0.5v5.3c0,0.3,0.2,0.5,0.5,0.5c0.3,0,0.5-0.2,0.5-0.5
					v-5.2C-337.1,307.1-337.4,306.9-337.6,306.9z"/>
			</g>
		</g>
		<g id="XMLID_1224_">
			<g id="XMLID_198_">
				<rect id="XMLID_199_" x="-355.5" y="297.9" class="st0" width="2" height="2"/>
			</g>
		</g>
		<g id="XMLID_1216_">
			<g id="XMLID_195_">
				<rect id="XMLID_196_" x="-352" y="297.9" class="st0" width="2" height="2"/>
			</g>
		</g>
		<g id="XMLID_1208_">
			<g id="XMLID_192_">
				<rect id="XMLID_193_" x="-352.1" y="294.5" class="st0" width="2" height="2"/>
			</g>
		</g>
		<g id="XMLID_1201_">
			<g id="XMLID_189_">
				<rect id="XMLID_190_" x="-355.5" y="290.9" class="st0" width="2" height="2"/>
			</g>
		</g>
		<g id="XMLID_1192_">
			<g id="XMLID_182_">
				<rect id="XMLID_187_" x="-352.1" y="287.5" class="st0" width="2" height="2"/>
			</g>
		</g>
		<g id="XMLID_1182_">
			<g id="XMLID_171_">
				<rect id="XMLID_172_" x="-348.3" y="287.5" class="st0" width="2" height="2"/>
			</g>
		</g>
		<g id="XMLID_1174_">
			<g id="XMLID_165_">
				<rect id="XMLID_166_" x="-348.3" y="284.1" class="st0" width="2" height="2"/>
			</g>
		</g>
		<g id="XMLID_1167_">
			<g id="XMLID_162_">
				<rect id="XMLID_163_" x="-351.7" y="280.8" class="st0" width="2" height="2"/>
			</g>
		</g>
		<g id="XMLID_1159_">
			<g id="XMLID_155_">
				<rect id="XMLID_160_" x="-355.5" y="280.8" class="st0" width="2" height="2"/>
			</g>
		</g>
		<g id="XMLID_1139_">
			<g id="XMLID_183_">
				<path id="XMLID_184_" class="st1" d="M-353.4,297.3h-2c-0.3,0-0.5,0.2-0.5,0.5v2c0,0.3,0.2,0.5,0.5,0.5h2c0.3,0,0.5-0.2,0.5-0.5
					v-2C-352.9,297.6-353.2,297.3-353.4,297.3z M-354,299.3h-1v-1h1V299.3z"/>
			</g>
		</g>
		<g id="XMLID_1121_">
			<g id="XMLID_178_">
				<path id="XMLID_179_" class="st1" d="M-350,297.3h-2c-0.3,0-0.5,0.2-0.5,0.5v2c0,0.3,0.2,0.5,0.5,0.5h2c0.3,0,0.5-0.2,0.5-0.5
					v-2C-349.5,297.6-349.7,297.3-350,297.3z M-350.6,299.3h-1v-1h1V299.3z"/>
			</g>
		</g>
		<g id="XMLID_1099_">
			<g id="XMLID_173_">
				<path id="XMLID_174_" class="st1" d="M-350.1,294h-2c-0.3,0-0.5,0.2-0.5,0.5v2c0,0.3,0.2,0.5,0.5,0.5h2c0.3,0,0.5-0.2,0.5-0.5
					v-2C-349.6,294.2-349.8,294-350.1,294z M-350.6,296h-1v-1h1V296z"/>
			</g>
		</g>
		<g id="XMLID_1090_">
			<g id="XMLID_152_">
				<rect id="XMLID_153_" x="-343" y="298.2" class="st0" width="10.5" height="2"/>
			</g>
		</g>
		<g id="XMLID_1083_">
			<g id="XMLID_144_">
				<rect id="XMLID_145_" x="-343" y="302.2" class="st0" width="10.5" height="2"/>
			</g>
		</g>
		<g id="XMLID_1074_">
			<g id="XMLID_140_">
				<rect id="XMLID_141_" x="-334.2" y="298.2" class="st5" width="1.7" height="2"/>
			</g>
		</g>
		<g id="XMLID_1066_">
			<g id="XMLID_133_">
				<rect id="XMLID_138_" x="-334.2" y="302.2" class="st5" width="1.7" height="2"/>
			</g>
		</g>
		<g id="XMLID_1048_">
			<path id="XMLID_1051_" class="st1" d="M-332.5,297.7H-343c-0.3,0-0.5,0.2-0.5,0.5v2c0,0.3,0.2,0.5,0.5,0.5h10.5
				c0.3,0,0.5-0.2,0.5-0.5v-2C-331.9,297.9-332.2,297.7-332.5,297.7z M-333,299.7h-9.4v-1h9.4V299.7z"/>
		</g>
		<g id="XMLID_1031_">
			<path id="XMLID_1035_" class="st1" d="M-332.5,301.7H-343c-0.3,0-0.5,0.2-0.5,0.5v2c0,0.3,0.2,0.5,0.5,0.5h10.5
				c0.3,0,0.5-0.2,0.5-0.5v-2C-331.9,301.9-332.2,301.7-332.5,301.7z M-333,303.7h-9.4v-1h9.4V303.7z"/>
		</g>
		<g id="XMLID_1014_">
			<g id="XMLID_156_">
				<path id="XMLID_157_" class="st1" d="M-353.4,290.3h-2c-0.3,0-0.5,0.2-0.5,0.5v2c0,0.3,0.2,0.5,0.5,0.5h2c0.3,0,0.5-0.2,0.5-0.5
					v-2C-352.9,290.6-353.2,290.3-353.4,290.3z M-354,292.3h-1v-1h1V292.3z"/>
			</g>
		</g>
		<g id="XMLID_1006_">
			<g id="XMLID_118_">
				<rect id="XMLID_123_" x="-348.4" y="290.9" class="st0" width="2" height="2"/>
			</g>
		</g>
		<g id="XMLID_985_">
			<g id="XMLID_148_">
				<path id="XMLID_149_" class="st1" d="M-346.4,290.3h-2c-0.3,0-0.5,0.2-0.5,0.5v2c0,0.3,0.2,0.5,0.5,0.5h2c0.3,0,0.5-0.2,0.5-0.5
					v-2C-345.8,290.6-346.1,290.3-346.4,290.3z M-346.9,292.3h-1v-1h1V292.3z"/>
			</g>
		</g>
		<g id="XMLID_976_">
			<g id="XMLID_87_">
				<rect id="XMLID_92_" x="-351.9" y="304.3" class="st0" width="2" height="2"/>
			</g>
		</g>
		<g id="XMLID_967_">
			<g id="XMLID_84_">
				<rect id="XMLID_85_" x="-348.5" y="304.3" class="st0" width="2" height="2"/>
			</g>
		</g>
		<g id="XMLID_958_">
			<g id="XMLID_76_">
				<rect id="XMLID_81_" x="-348.5" y="301" class="st0" width="2" height="2"/>
			</g>
		</g>
		<g id="XMLID_942_">
			<g id="XMLID_134_">
				<path id="XMLID_135_" class="st1" d="M-349.9,303.8h-2c-0.3,0-0.5,0.2-0.5,0.5v2c0,0.3,0.2,0.5,0.5,0.5h2c0.3,0,0.5-0.2,0.5-0.5
					v-2C-349.4,304.1-349.6,303.8-349.9,303.8z M-350.4,305.8h-1v-1h1V305.8z"/>
			</g>
		</g>
		<g id="XMLID_923_">
			<g id="XMLID_129_">
				<path id="XMLID_130_" class="st1" d="M-346.5,303.8h-2c-0.3,0-0.5,0.2-0.5,0.5v2c0,0.3,0.2,0.5,0.5,0.5h2c0.3,0,0.5-0.2,0.5-0.5
					v-2C-346,304.1-346.2,303.8-346.5,303.8z M-347,305.8h-1v-1h1V305.8z"/>
			</g>
		</g>
		<g id="XMLID_907_">
			<g id="XMLID_124_">
				<path id="XMLID_125_" class="st1" d="M-346.5,300.5h-2c-0.3,0-0.5,0.2-0.5,0.5v2c0,0.3,0.2,0.5,0.5,0.5h2c0.3,0,0.5-0.2,0.5-0.5
					v-2C-346,300.7-346.2,300.5-346.5,300.5z M-347.1,302.5h-1v-1h1V302.5z"/>
			</g>
		</g>
		<g id="XMLID_891_">
			<g id="XMLID_119_">
				<path id="XMLID_120_" class="st1" d="M-350.1,287h-2c-0.3,0-0.5,0.2-0.5,0.5v2c0,0.3,0.2,0.5,0.5,0.5h2c0.3,0,0.5-0.2,0.5-0.5
					v-2C-349.6,287.2-349.8,287-350.1,287z M-350.6,289h-1v-1h1V289z"/>
			</g>
		</g>
		<g id="XMLID_875_">
			<g id="XMLID_114_">
				<path id="XMLID_115_" class="st1" d="M-346.3,287h-2c-0.3,0-0.5,0.2-0.5,0.5v2c0,0.3,0.2,0.5,0.5,0.5h2c0.3,0,0.5-0.2,0.5-0.5
					v-2C-345.8,287.2-346,287-346.3,287z M-346.8,289h-1v-1h1V289z"/>
			</g>
		</g>
		<g id="XMLID_858_">
			<g id="XMLID_109_">
				<path id="XMLID_110_" class="st1" d="M-346.3,283.6h-2c-0.3,0-0.5,0.2-0.5,0.5v2c0,0.3,0.2,0.5,0.5,0.5h2c0.3,0,0.5-0.2,0.5-0.5
					v-2C-345.8,283.8-346,283.6-346.3,283.6z M-346.8,285.6h-1v-1h1V285.6z"/>
			</g>
		</g>
		<g id="XMLID_842_">
			<g id="XMLID_104_">
				<path id="XMLID_105_" class="st1" d="M-349.7,280.2h-2c-0.3,0-0.5,0.2-0.5,0.5v2c0,0.3,0.2,0.5,0.5,0.5h2c0.3,0,0.5-0.2,0.5-0.5
					v-2C-349.2,280.5-349.4,280.2-349.7,280.2z M-350.2,282.2h-1v-1h1V282.2z"/>
			</g>
		</g>
		<g id="XMLID_834_">
			<g id="XMLID_99_">
				<path id="XMLID_100_" class="st1" d="M-353.4,280.2h-2c-0.3,0-0.5,0.2-0.5,0.5v2c0,0.3,0.2,0.5,0.5,0.5h2c0.3,0,0.5-0.2,0.5-0.5
					v-2C-352.9,280.5-353.2,280.2-353.4,280.2z M-354,282.2h-1v-1h1V282.2z"/>
			</g>
		</g>
		<g id="XMLID_832_">
			<g id="XMLID_73_">
				<path id="XMLID_74_" class="st6" d="M-328.7,306.8c-0.4,0-1.4,2.5-1.4,3.3s0.6,1.4,1.4,1.4c0.8,0,1.4-0.6,1.4-1.4
					C-327.3,309.3-328.4,306.8-328.7,306.8z"/>
			</g>
		</g>
		<g id="XMLID_830_">
			<g id="XMLID_65_">
				<path id="XMLID_66_" class="st7" d="M-328.7,306.8c-0.4,0,0.2,2.5,0.2,3.3s-1,1.4-0.2,1.4c0.8,0,1.4-0.6,1.4-1.4
					C-327.3,309.3-328.4,306.8-328.7,306.8z"/>
			</g>
		</g>
		<g id="XMLID_826_">
			<g id="XMLID_88_">
				<path id="XMLID_89_" class="st1" d="M-328.7,306.2c-0.3,0-0.7,0.1-1.3,1.7c-0.3,0.7-0.6,1.6-0.6,2.2c0,1.1,0.9,2,2,2
					c1.1,0,2-0.9,2-2c0-0.5-0.3-1.5-0.6-2.2C-328.1,306.4-328.4,306.2-328.7,306.2z M-328.7,311c-0.5,0-0.9-0.4-0.9-0.9
					s0.5-1.8,0.9-2.5c0.4,0.7,0.9,2,0.9,2.5S-328.2,311-328.7,311z"/>
			</g>
		</g>
		<g id="XMLID_823_">
			<g id="XMLID_57_">
				<path id="XMLID_58_" class="st1" d="M-328.7,311.1c-0.3,0-0.5,0.2-0.5,0.5v1.6c0,0.3,0.2,0.5,0.5,0.5c0.3,0,0.5-0.2,0.5-0.5
					v-1.6C-328.2,311.3-328.4,311.1-328.7,311.1z"/>
			</g>
		</g>
		<g id="XMLID_775_">
			<g id="XMLID_820_">
				<g id="XMLID_49_">
					<path id="XMLID_54_" class="st4" d="M-365.5,307.3l-2.5,1.8v4.2h5.5v-4.2l-2.3-1.8C-365,307.1-365.3,307.1-365.5,307.3z"/>
				</g>
			</g>
			<g id="XMLID_788_">
				<g id="XMLID_77_">
					<path id="XMLID_78_" class="st8" d="M-362.1,308.7l-2.3-1.8c-0.4-0.4-1-0.4-1.4,0l-2.5,1.8c-0.1,0.1-0.2,0.3-0.2,0.4v4.2
						c0,0.3,0.2,0.5,0.5,0.5h5.5c0.3,0,0.5-0.2,0.5-0.5v-4.2C-361.9,309-362,308.8-362.1,308.7z M-363,312.8h-4.5v-3.4l2.2-1.7l0,0
						l0,0l0,0l2.1,1.7v3.4H-363z"/>
				</g>
			</g>
			<g id="XMLID_786_">
				<g id="XMLID_46_">
					<path id="XMLID_47_" class="st5" d="M-365.2,310.5c-0.4,0-0.8,0.4-0.8,0.8v1.8h1.6v-1.8C-364.4,310.9-364.7,310.5-365.2,310.5z
						"/>
				</g>
			</g>
			<g id="XMLID_782_">
				<g id="XMLID_69_">
					<path id="XMLID_70_" class="st8" d="M-365.2,310c-0.7,0-1.3,0.6-1.3,1.3v1.8c0,0.3,0.2,0.5,0.5,0.5h1.6c0.3,0,0.5-0.2,0.5-0.5
						v-1.8C-363.9,310.6-364.4,310-365.2,310z M-364.9,312.6h-0.5v-1.3c0-0.1,0.1-0.3,0.3-0.3c0.1,0,0.3,0.1,0.3,0.3v1.3H-364.9z"/>
				</g>
			</g>
			<g id="XMLID_780_">
				<g id="XMLID_42_">
					<path id="XMLID_43_" class="st2" d="M-364.5,305.6c-0.2-0.2-0.4-0.3-0.7-0.3c-0.3,0-0.5,0.1-0.7,0.3l-3.7,3
						c-0.3,0.3-0.3,0.8,0,1l0.5,0.5l3.6-2.8c0.2-0.2,0.5-0.2,0.7,0c0.8,0.7,2.9,2.4,3,2.5c0,0,0.3-0.2,0.6-0.4
						c0.3-0.3,0.3-0.8,0-1.1L-364.5,305.6z"/>
				</g>
			</g>
			<g id="XMLID_776_">
				<g id="XMLID_61_">
					<path id="XMLID_62_" class="st8" d="M-360.9,307.9l-3.3-2.6c-0.3-0.3-0.7-0.4-1.1-0.4s-0.7,0.1-1,0.4l-3.7,3l0,0
						c-0.3,0.2-0.4,0.6-0.4,0.9c0,0.3,0.1,0.7,0.4,0.9l0.5,0.5c0.1,0.1,0.2,0.2,0.4,0.2c0.1,0,0.2,0,0.3-0.1l3.6-2.8l0,0l0,0
						c0.6,0.6,2,1.7,2.7,2.2c0.2,0.1,0.3,0.2,0.3,0.3c0.2,0.2,0.5,0.3,0.9-0.1c0.1-0.1,0.2-0.2,0.4-0.4c0.2-0.2,0.4-0.6,0.4-0.9
						C-360.4,308.5-360.6,308.2-360.9,307.9C-360.8,307.9-360.9,307.9-360.9,307.9z M-361.6,309c-0.1,0.1-0.1,0.1-0.2,0.2
						c0,0-0.1,0-0.1-0.1c-0.7-0.5-2-1.6-2.6-2.1c-0.4-0.4-1-0.4-1.5,0l-3.2,2.5l-0.2-0.2c-0.1-0.1-0.1-0.1-0.1-0.1s0-0.1,0.1-0.1
						l3.7-3l0,0c0.1-0.1,0.2-0.1,0.3-0.1s0.3,0.1,0.3,0.1l0,0l3.3,2.6c0,0.1,0.1,0.1,0.1,0.1C-361.5,308.9-361.5,308.9-361.6,309z"
						/>
				</g>
			</g>
		</g>
		<g id="XMLID_773_">
			<g id="XMLID_39_">
				<path id="XMLID_40_" class="st9" d="M-359.7,304.1c-0.5,0-2,3.5-2,4.6s0.9,2,2,2s2-0.9,2-2
					C-357.7,307.7-359.2,304.1-359.7,304.1z"/>
			</g>
		</g>
		<g id="XMLID_771_">
			<g id="XMLID_36_">
				<path id="XMLID_37_" class="st9" d="M-359.7,304.1c-0.5,0,0.8,3.5,0.8,4.6c0,1.9-1.9,2-0.8,2s2-0.9,2-2
					C-357.7,307.7-359.2,304.1-359.7,304.1z"/>
			</g>
		</g>
		<g id="XMLID_767_">
			<g id="XMLID_50_">
				<path id="XMLID_51_" class="st1" d="M-359.7,303.6c-0.3,0-0.7,0-1.7,2.2c-0.4,1-0.9,2.2-0.9,2.9c0,1.4,1.1,2.5,2.5,2.5
					s2.5-1.1,2.5-2.5c0-0.7-0.4-2-0.9-2.9C-359,303.6-359.4,303.6-359.7,303.6z M-359.7,310.3c-0.8,0-1.5-0.7-1.5-1.5
					c0-0.8,1-3.2,1.5-3.9c0.5,0.8,1.5,3.1,1.5,3.9C-358.2,309.6-358.9,310.3-359.7,310.3z"/>
			</g>
		</g>
		<g id="XMLID_765_">
			<g id="XMLID_33_">
				<path id="XMLID_34_" class="st1" d="M-359.7,310.3c-0.3,0-0.5,0.2-0.5,0.5v2.4c0,0.3,0.2,0.5,0.5,0.5c0.3,0,0.5-0.2,0.5-0.5
					v-2.4C-359.2,310.6-359.4,310.3-359.7,310.3z"/>
			</g>
		</g>
	</g>
</g>
</svg>
