<?xml version="1.0" encoding="utf-8"?>
<!-- Generator: Adobe Illustrator 19.0.0, SVG Export Plug-In . SVG Version: 6.00 Build 0)  -->
<svg version="1.1" id="Isolation_Mode" xmlns="http://www.w3.org/2000/svg" xmlns:xlink="http://www.w3.org/1999/xlink" x="0px"
	 y="0px" viewBox="-399.5 279.3 38.7 37.8" style="enable-background:new -399.5 279.3 38.7 37.8;" xml:space="preserve">
<style type="text/css">
	.st0{fill:url(#SVGID_1_);}
	.st1{fill:url(#SVGID_2_);}
	.st2{fill:url(#SVGID_3_);}
	.st3{fill:url(#SVGID_4_);}
	.st4{fill:url(#SVGID_5_);}
	.st5{fill:url(#SVGID_6_);}
	.st6{fill:url(#SVGID_7_);}
	.st7{fill:url(#SVGID_8_);}
	.st8{fill:url(#SVGID_9_);}
	.st9{fill:url(#SVGID_10_);}
	.st10{fill:url(#SVGID_11_);}
</style>
<g>
	
		<linearGradient id="SVGID_1_" gradientUnits="userSpaceOnUse" x1="-401.4461" y1="281.0973" x2="-354.2799" y2="316.6396" gradientTransform="matrix(1 0 0 -1 0 597.24)">
		<stop  offset="0" style="stop-color:#7094A8"/>
		<stop  offset="0.9946" style="stop-color:#DDEDF5"/>
	</linearGradient>
	<path class="st0" d="M-366.7,311.2h-27c-1.2,0-2.2-1-2.2-2.2v-17.7c0-1.2,1-2.2,2.2-2.2h10.4c0.4,0,0.7,0.3,0.7,0.7
		s-0.3,0.7-0.7,0.7h-10.4c-0.4,0-0.8,0.3-0.8,0.8V309c0,0.4,0.3,0.8,0.8,0.8h27.1c0.4,0,0.8-0.4,0.8-0.8c0-0.4,0.3-0.7,0.7-0.7
		c0.4,0,0.7,0.3,0.7,0.7C-364.5,310.2-365.5,311.2-366.7,311.2z"/>
</g>
<g>
	
		<linearGradient id="SVGID_2_" gradientUnits="userSpaceOnUse" x1="-397.1792" y1="275.0975" x2="-348.8523" y2="311.5144" gradientTransform="matrix(1 0 0 -1 0 597.24)">
		<stop  offset="0" style="stop-color:#7094A8"/>
		<stop  offset="0.9946" style="stop-color:#DDEDF5"/>
	</linearGradient>
	<path class="st1" d="M-366.7,311.2h-27c-1.2,0-2.2-1-2.2-2.2c0-0.4,0.3-0.7,0.7-0.7s0.7,0.3,0.7,0.7c0,0.4,0.4,0.8,0.8,0.8h27.1
		c0.4,0,0.8-0.3,0.8-0.8v-11.3c0-0.4,0.3-0.7,0.7-0.7c0.4,0,0.7,0.3,0.7,0.7V309C-364.5,310.2-365.5,311.2-366.7,311.2z"/>
</g>
<g>
	
		<linearGradient id="SVGID_3_" gradientUnits="userSpaceOnUse" x1="-390.2846" y1="263.8264" x2="-341.4378" y2="300.635" gradientTransform="matrix(1 0 0 -1 0 597.24)">
		<stop  offset="0" style="stop-color:#7094A8"/>
		<stop  offset="0.9946" style="stop-color:#DDEDF5"/>
	</linearGradient>
	<path class="st2" d="M-361.6,316.6c-0.2,0-0.4-0.1-0.6-0.3l-3.8-5.3c-0.2-0.3-0.2-0.8,0.2-1c0.3-0.2,0.8-0.2,1,0.2l3.8,5.3
		c0.2,0.3,0.2,0.8-0.2,1C-361.3,316.6-361.5,316.6-361.6,316.6z"/>
</g>
<g>
	
		<linearGradient id="SVGID_4_" gradientUnits="userSpaceOnUse" x1="-388.5537" y1="260.933" x2="-339.472" y2="297.9187" gradientTransform="matrix(1 0 0 -1 0 597.24)">
		<stop  offset="0" style="stop-color:#7094A8"/>
		<stop  offset="0.9946" style="stop-color:#DDEDF5"/>
	</linearGradient>
	<path class="st3" d="M-362.2,317.1c-0.4,0-0.7-0.3-0.7-0.7c0-0.4,0.3-0.6,0.6-0.7c0-0.1,0.1-0.3,0.3-0.4c0.3-0.2,0.8-0.2,1,0.1
		c0.2,0.3,0.2,0.6,0.1,1C-361.2,316.9-361.8,317.1-362.2,317.1z"/>
</g>
<g>
	
		<linearGradient id="SVGID_5_" gradientUnits="userSpaceOnUse" x1="-394.793" y1="271.5785" x2="-347.7856" y2="307.0011" gradientTransform="matrix(1 0 0 -1 0 597.24)">
		<stop  offset="0" style="stop-color:#7094A8"/>
		<stop  offset="0.9946" style="stop-color:#DDEDF5"/>
	</linearGradient>
	<path class="st4" d="M-362.2,317.1h-36c-0.4,0-1-0.2-1.2-0.7c-0.2-0.3-0.1-0.7,0.1-1l3.8-5.3c0.2-0.3,0.7-0.4,1-0.2
		c0.3,0.2,0.4,0.7,0.2,1l-3.3,4.7h35.5c0.4,0,0.7,0.3,0.7,0.7S-361.8,317.1-362.2,317.1z"/>
</g>
<g>
	
		<linearGradient id="SVGID_6_" gradientUnits="userSpaceOnUse" x1="-404.2867" y1="284.7049" x2="-355.2139" y2="321.6838" gradientTransform="matrix(1 0 0 -1 0 597.24)">
		<stop  offset="0" style="stop-color:#7094A8"/>
		<stop  offset="0.9946" style="stop-color:#DDEDF5"/>
	</linearGradient>
	<path class="st5" d="M-384.4,302.9c-1.4-0.1-2.6-1.2-3.2-2.7c-0.2,0-0.3-0.1-0.4-0.2c-0.3-0.2-0.4-0.5-0.5-0.8l-0.2-1.4
		c-0.1-0.4,0.1-0.8,0.4-1.1c0-0.1,0-0.2,0-0.2V296c0-1.6,1.2-2.8,2.7-2.9c0.1-0.1,0.2-0.2,0.4-0.2c0.5-0.2,1.4-0.2,2.3,0.2
		c0.2,0.1,0.5,0.2,0.6,0.3c1,0.4,1.7,1.5,1.7,2.7v0.5c0,0.1,0,0.2,0,0.2c0.3,0.3,0.5,0.7,0.4,1.1l-0.2,1.4c0,0.3-0.2,0.6-0.5,0.8
		c-0.1,0.1-0.2,0.1-0.3,0.2C-381.9,301.8-383.1,302.9-384.4,302.9z M-387.1,298.8c0.3,0,0.6,0.2,0.7,0.5c0.4,1.3,1.3,2.1,2,2.2
		c0.6,0,1.6-0.9,1.9-2.2c0.1-0.3,0.3-0.5,0.6-0.5l0.1-0.9c-0.2-0.1-0.3-0.2-0.4-0.3c-0.1-0.2-0.1-0.4-0.1-0.6c0-0.1,0.1-0.3,0.1-0.5
		V296c0-0.6-0.3-1.2-0.9-1.4c-0.2-0.1-0.4-0.2-0.5-0.3c-0.5-0.2-0.9-0.2-1.1-0.2c0,0.1-0.1,0.1-0.1,0.2c-0.1,0.1-0.3,0.2-0.5,0.2
		h-0.3c-0.8,0-1.4,0.7-1.4,1.5v0.5c0,0.2,0,0.3,0.1,0.5c0.1,0.2,0,0.4-0.1,0.6c-0.1,0.1-0.2,0.2-0.4,0.3L-387.1,298.8
		C-387.2,298.8-387.1,298.8-387.1,298.8z"/>
</g>
<g>
	
		<linearGradient id="SVGID_7_" gradientUnits="userSpaceOnUse" x1="-402.6454" y1="281.6809" x2="-352.8584" y2="319.1981" gradientTransform="matrix(1 0 0 -1 0 597.24)">
		<stop  offset="0" style="stop-color:#7094A8"/>
		<stop  offset="0.9946" style="stop-color:#DDEDF5"/>
	</linearGradient>
	<path class="st6" d="M-392,310.7c-0.4,0-0.7-0.3-0.7-0.6l-0.4-4c0-1.2,1-2,2.1-2.2c1.4-0.3,3-0.8,3.5-1.1c0.1-0.1,0.2-0.1,0.3-0.1
		c0.4-0.1,0.8,0.2,0.9,0.6c0.1,0.3-0.1,0.7-0.4,0.8c-1,0.6-3.2,1.1-3.9,1.2c-0.4,0-1.1,0.3-1.1,0.7v0.4l0.4,3.5
		C-391.2,310.3-391.5,310.6-392,310.7L-392,310.7z"/>
</g>
<g>
	
		<linearGradient id="SVGID_8_" gradientUnits="userSpaceOnUse" x1="-397.679" y1="276.7552" x2="-350.6855" y2="312.1672" gradientTransform="matrix(1 0 0 -1 0 597.24)">
		<stop  offset="0" style="stop-color:#7094A8"/>
		<stop  offset="0.9946" style="stop-color:#DDEDF5"/>
	</linearGradient>
	<path class="st7" d="M-376.9,310.7C-376.9,310.7-377,310.7-376.9,310.7c-0.5,0-0.8-0.4-0.7-0.8l0.4-3.5v-0.3c0-0.4-0.6-0.7-0.9-0.8
		c-0.7-0.1-3-0.7-4-1.3c-0.3-0.1-0.4-0.4-0.4-0.7c0.1-0.4,0.4-0.7,0.8-0.6l0,0c0.1,0,0.2,0.1,0.3,0.1c0.5,0.3,2.1,0.8,3.5,1.1
		c1,0.2,2.1,1,2.1,2.2v0.4l-0.4,3.5C-376.2,310.4-376.5,310.7-376.9,310.7z"/>
</g>
<g>
	
		<linearGradient id="SVGID_9_" gradientUnits="userSpaceOnUse" x1="-404.4018" y1="284.0824" x2="-355.0414" y2="321.2781" gradientTransform="matrix(1 0 0 -1 0 597.24)">
		<stop  offset="0" style="stop-color:#7094A8"/>
		<stop  offset="0.9946" style="stop-color:#DDEDF5"/>
	</linearGradient>
	<path class="st8" d="M-377.8,298.7c-0.1,0-0.3,0-0.4-0.1c-0.2-0.1-0.3-0.4-0.3-0.6v-3.8c-1.9-1.7-2.9-3.8-2.9-6.1
		c0-4.9,4.6-8.8,10.3-8.8c5.7,0,10.3,4,10.3,8.8c0,4.8-4.6,8.8-10.3,8.8c-1,0-1.9-0.1-2.8-0.3c-1,0.8-1.7,1.2-3.5,2.1
		C-377.6,298.7-377.7,298.7-377.8,298.7z M-371.2,280.7c-4.8,0-8.8,3.3-8.8,7.3c0,2,0.9,3.9,2.7,5.3c0.2,0.1,0.3,0.3,0.3,0.6v2.9
		c1.1-0.6,1.6-0.9,2.4-1.6c0.1-0.2,0.4-0.2,0.6-0.2c0.9,0.3,1.9,0.4,2.8,0.4c4.9,0,8.9-3.3,8.9-7.4
		C-362.3,283.9-366.3,280.7-371.2,280.7z"/>
</g>
<g>
	
		<linearGradient id="SVGID_10_" gradientUnits="userSpaceOnUse" x1="-403.4656" y1="286.2461" x2="-356.2416" y2="321.8319" gradientTransform="matrix(1 0 0 -1 0 597.24)">
		<stop  offset="0" style="stop-color:#7094A8"/>
		<stop  offset="0.9946" style="stop-color:#DDEDF5"/>
	</linearGradient>
	<path class="st9" d="M-365.8,287.4h-10.8c-0.4,0-0.7-0.3-0.7-0.7s0.3-0.7,0.7-0.7h10.8c0.4,0,0.7,0.3,0.7,0.7
		S-365.4,287.4-365.8,287.4z"/>
</g>
<g>
	
		<linearGradient id="SVGID_11_" gradientUnits="userSpaceOnUse" x1="-402.7642" y1="284.8427" x2="-355.4418" y2="320.5027" gradientTransform="matrix(1 0 0 -1 0 597.24)">
		<stop  offset="0" style="stop-color:#7094A8"/>
		<stop  offset="0.9946" style="stop-color:#DDEDF5"/>
	</linearGradient>
	<path class="st10" d="M-369,290.5h-7.5c-0.4,0-0.7-0.3-0.7-0.7s0.3-0.7,0.7-0.7h7.5c0.4,0,0.7,0.3,0.7,0.7S-368.6,290.5-369,290.5z
		"/>
</g>
</svg>
