<?xml version="1.0" encoding="utf-8"?>
<!-- Generator: Adobe Illustrator 19.0.0, SVG Export Plug-In . SVG Version: 6.00 Build 0)  -->
<svg version="1.1" id="Isolation_Mode" xmlns="http://www.w3.org/2000/svg" xmlns:xlink="http://www.w3.org/1999/xlink" x="0px"
	 y="0px" viewBox="-403 279.7 34.8 36.6" style="enable-background:new -403 279.7 34.8 36.6;" xml:space="preserve">
<style type="text/css">
	.st0{fill:url(#SVGID_1_);}
	.st1{fill:url(#SVGID_2_);}
	.st2{fill:url(#SVGID_3_);}
	.st3{fill:url(#SVGID_4_);}
	.st4{fill:url(#SVGID_5_);}
	.st5{fill:url(#SVGID_6_);}
	.st6{fill:url(#SVGID_7_);}
	.st7{fill:url(#SVGID_8_);}
	.st8{fill:url(#SVGID_9_);}
	.st9{fill:url(#SVGID_10_);}
</style>
<g>
	
		<linearGradient id="SVGID_1_" gradientUnits="userSpaceOnUse" x1="-420.2525" y1="292.5868" x2="-372.0181" y2="328.934" gradientTransform="matrix(1 0 0 -1 0 596.04)">
		<stop  offset="0" style="stop-color:#7094A8"/>
		<stop  offset="0.9946" style="stop-color:#DDEDF5"/>
	</linearGradient>
	<path class="st0" d="M-393,284.7c0.1,0.2,0.4,0.4,0.6,0.4c0.1,0,0.2,0,0.4-0.1c0.3-0.2,0.5-0.6,0.3-1l-1.6-2.6
		c-0.2-0.3-0.6-0.5-1-0.3c-0.3,0.2-0.5,0.6-0.3,1L-393,284.7z"/>
	
		<linearGradient id="SVGID_2_" gradientUnits="userSpaceOnUse" x1="-418.0597" y1="292.9344" x2="-372.9228" y2="326.9475" gradientTransform="matrix(1 0 0 -1 0 596.04)">
		<stop  offset="0" style="stop-color:#7094A8"/>
		<stop  offset="0.9946" style="stop-color:#DDEDF5"/>
	</linearGradient>
	<path class="st1" d="M-397,288.7l-2.6-1.5c-0.4-0.2-0.8-0.1-1,0.2c-0.2,0.4-0.1,0.8,0.2,1l2.6,1.5c0.1,0.1,0.2,0.1,0.4,0.1
		c0.2,0,0.5-0.1,0.6-0.4C-396.6,289.3-396.7,288.9-397,288.7z"/>
	
		<linearGradient id="SVGID_3_" gradientUnits="userSpaceOnUse" x1="-415.5903" y1="288.7771" x2="-369.814" y2="323.272" gradientTransform="matrix(1 0 0 -1 0 596.04)">
		<stop  offset="0" style="stop-color:#7094A8"/>
		<stop  offset="0.9946" style="stop-color:#DDEDF5"/>
	</linearGradient>
	<path class="st2" d="M-398.5,296.1c0-0.4-0.3-0.7-0.7-0.7h-3c-0.5,0-0.8,0.3-0.8,0.7c0,0.4,0.3,0.7,0.7,0.7h3
		C-398.8,296.8-398.5,296.5-398.5,296.1z"/>
	
		<linearGradient id="SVGID_4_" gradientUnits="userSpaceOnUse" x1="-411.4987" y1="282.7532" x2="-365.2904" y2="317.5737" gradientTransform="matrix(1 0 0 -1 0 596.04)">
		<stop  offset="0" style="stop-color:#7094A8"/>
		<stop  offset="0.9946" style="stop-color:#DDEDF5"/>
	</linearGradient>
	<path class="st3" d="M-397.8,302.3l-2.6,1.5c-0.3,0.2-0.5,0.6-0.3,1c0.1,0.2,0.4,0.4,0.6,0.4c0.1,0,0.2,0,0.4-0.1l2.6-1.5
		c0.3-0.2,0.5-0.6,0.3-1C-397,302.3-397.4,302.1-397.8,302.3z"/>
	
		<linearGradient id="SVGID_5_" gradientUnits="userSpaceOnUse" x1="-414.0933" y1="285.7978" x2="-367.4755" y2="320.9269" gradientTransform="matrix(1 0 0 -1 0 596.04)">
		<stop  offset="0" style="stop-color:#7094A8"/>
		<stop  offset="0.9946" style="stop-color:#DDEDF5"/>
	</linearGradient>
	<path class="st4" d="M-379.1,285c0.1,0.1,0.2,0.1,0.4,0.1c0.2,0,0.5-0.1,0.6-0.4l1.5-2.6c0.2-0.3,0.1-0.8-0.3-1
		c-0.3-0.2-0.8-0.1-1,0.3l-1.5,2.6C-379.5,284.4-379.4,284.8-379.1,285z"/>
	
		<linearGradient id="SVGID_6_" gradientUnits="userSpaceOnUse" x1="-409.2174" y1="279.6785" x2="-363.0092" y2="314.4988" gradientTransform="matrix(1 0 0 -1 0 596.04)">
		<stop  offset="0" style="stop-color:#7094A8"/>
		<stop  offset="0.9946" style="stop-color:#DDEDF5"/>
	</linearGradient>
	<path class="st5" d="M-373.7,290.1c0.1,0,0.2,0,0.4-0.1l2.6-1.5c0.3-0.2,0.5-0.6,0.3-1c-0.2-0.3-0.6-0.5-1-0.3l-2.6,1.5
		c-0.3,0.2-0.5,0.6-0.3,1C-374.2,290-374,290.1-373.7,290.1z"/>
	
		<linearGradient id="SVGID_7_" gradientUnits="userSpaceOnUse" x1="-404.6807" y1="274.0276" x2="-358.9044" y2="308.5226" gradientTransform="matrix(1 0 0 -1 0 596.04)">
		<stop  offset="0" style="stop-color:#7094A8"/>
		<stop  offset="0.9946" style="stop-color:#DDEDF5"/>
	</linearGradient>
	<path class="st6" d="M-368.9,295.5h-3c-0.4,0-0.7,0.3-0.7,0.7s0.3,0.7,0.7,0.7h3c0.4,0,0.7-0.3,0.7-0.7S-368.5,295.5-368.9,295.5z"
		/>
	
		<linearGradient id="SVGID_8_" gradientUnits="userSpaceOnUse" x1="-401.5012" y1="270.3545" x2="-356.3643" y2="304.3676" gradientTransform="matrix(1 0 0 -1 0 596.04)">
		<stop  offset="0" style="stop-color:#7094A8"/>
		<stop  offset="0.9946" style="stop-color:#DDEDF5"/>
	</linearGradient>
	<path class="st7" d="M-370.8,303.9l-2.6-1.5c-0.3-0.2-0.8-0.1-1,0.3c-0.2,0.3-0.1,0.8,0.3,1l2.6,1.5c0.1,0.1,0.2,0.1,0.4,0.1
		c0.2,0,0.5-0.1,0.6-0.4C-370.3,304.6-370.5,304.1-370.8,303.9z"/>
	
		<linearGradient id="SVGID_9_" gradientUnits="userSpaceOnUse" x1="-408.3345" y1="277.745" x2="-361.3121" y2="313.1789" gradientTransform="matrix(1 0 0 -1 0 596.04)">
		<stop  offset="0" style="stop-color:#7094A8"/>
		<stop  offset="0.9946" style="stop-color:#DDEDF5"/>
	</linearGradient>
	<path class="st8" d="M-375.9,314.9h-1.4v-5.7c0-0.4-0.3-0.7-0.7-0.7h-1.4v-1.8c0-0.4-0.3-0.7-0.7-0.7h-1.7c0.1-0.3,0.2-0.6,0.2-1
		l0.6-8.8c0.3,0,0.5-0.1,0.6-0.1c1.2-0.5,1.5-2.1,1.6-2.4l0.8-4.6c0.2-1.1-0.6-2.1-2.1-2.5l-2.7-0.7c0.5-0.9,0.9-2,0.9-2.9
		c0-2-1.5-3.3-3.7-3.3c-2.2,0-3.7,1.3-3.7,3.3c0,1,0.3,2,0.9,2.9l-2.7,0.7c-1.5,0.4-2.3,1.4-2.1,2.5l0.8,4.6
		c0.1,0.8,0.6,1.7,1.4,2.2c0.3,0.2,0.5,0.3,0.8,0.3l0.6,8.7c0,0.4,0.1,0.8,0.3,1.1h-1.8c-0.4,0-0.7,0.3-0.7,0.7v1.8h-1.4
		c-0.4,0-0.7,0.3-0.7,0.7v5.7h-1.4c-0.4,0-0.7,0.3-0.7,0.7c0,0.4,0.3,0.7,0.7,0.7h19.4c0.4,0,0.7-0.3,0.7-0.7
		C-375.2,315.2-375.5,314.9-375.9,314.9z M-385.6,281c0.8,0,2.3,0.2,2.3,1.9c0,1.7-1.3,3.6-2.3,3.6s-2.3-1.9-2.3-3.6
		C-387.8,281.3-386.4,281-385.6,281z M-389.6,294.7h-0.1h-0.1c-0.2,0-0.3,0-0.5-0.1c-0.3-0.2-0.6-0.8-0.7-1.2l-0.8-4.6
		c-0.1-0.6,1-0.8,1.1-0.9l3.3-0.9c0.6,0.5,1.2,0.8,1.8,0.8c0.7,0,1.3-0.3,1.8-0.8l3.3,0.9c0,0,1.2,0.3,1.1,0.9l-0.7,4.6
		c-0.1,0.5-0.4,1.2-0.7,1.3c-0.1,0-0.2,0.1-0.6-0.1l-2.7-1.6c-0.3-0.2-0.8-0.1-1,0.2c-0.2,0.3-0.1,0.8,0.2,1l2.5,1.5l-0.6,9.2
		c0,0.5-0.2,0.7-0.3,0.7c-0.3,0.2-0.8,0.2-1.1-0.1c-0.2-0.1-0.4-0.3-0.4-0.7c0,0,0,0,0-0.1v-7c0-0.4-0.3-0.7-0.7-0.7
		s-0.7,0.3-0.7,0.7v7c0,0.7-0.4,0.9-0.8,0.9s-1.1-0.3-1.1-0.9l-0.8-9.3C-388.9,295-389.2,294.7-389.6,294.7z M-390.4,307.4h9.6v1.1
		h-9.6V307.4z M-378.7,314.9h-13.8v-5h13.7L-378.7,314.9L-378.7,314.9z"/>
	
		<linearGradient id="SVGID_10_" gradientUnits="userSpaceOnUse" x1="-411.9806" y1="282.8373" x2="-365.2876" y2="318.0231" gradientTransform="matrix(1 0 0 -1 0 596.04)">
		<stop  offset="0" style="stop-color:#7094A8"/>
		<stop  offset="0.9946" style="stop-color:#DDEDF5"/>
	</linearGradient>
	<path class="st9" d="M-382.6,292.2c0.1,0,0.1,0,0.2,0c0.3,0,0.6-0.2,0.7-0.5l0.4-1.4c0.1-0.4-0.1-0.8-0.5-0.9
		c-0.4-0.1-0.8,0.1-0.9,0.5l-0.4,1.4C-383.2,291.7-383,292.1-382.6,292.2z"/>
</g>
</svg>
