<?xml version="1.0" encoding="utf-8"?>
<!-- Generator: Adobe Illustrator 19.0.0, SVG Export Plug-In . SVG Version: 6.00 Build 0)  -->
<svg version="1.1" id="Isolation_Mode" xmlns="http://www.w3.org/2000/svg" xmlns:xlink="http://www.w3.org/1999/xlink" x="0px"
	 y="0px" viewBox="0 0 36.9 33.7" style="enable-background:new 0 0 36.9 33.7;" xml:space="preserve">
<style type="text/css">
	.st0{fill:url(#SVGID_1_);}
	.st1{fill:url(#SVGID_2_);}
	.st2{fill:url(#SVGID_3_);}
	.st3{fill:url(#SVGID_4_);}
	.st4{fill:url(#SVGID_5_);}
	.st5{fill:url(#SVGID_6_);}
	.st6{fill:url(#SVGID_7_);}
	.st7{fill:url(#SVGID_8_);}
</style>
<g>
	<linearGradient id="SVGID_1_" gradientUnits="userSpaceOnUse" x1="-9.2725" y1="35.6298" x2="32.1863" y2="4.3884">
		<stop  offset="0" style="stop-color:#7094A8"/>
		<stop  offset="0.9946" style="stop-color:#DDEDF5"/>
	</linearGradient>
	<path class="st0" d="M36.2,4.2h-2.5V0.7C33.7,0.3,33.4,0,33,0H20.3c0,0,0,0,0,0c-0.1,0-0.2,0-0.3,0.1c-0.1,0-0.2,0.1-0.2,0.2
		c0,0,0,0,0,0c0,0,0,0,0,0l-1.3,1.4l-1.3-1.4C17,0.1,16.8,0,16.6,0H3.9C3.5,0,3.2,0.3,3.2,0.7v3.5H0.7C0.3,4.2,0,4.5,0,4.9v21.4
		c0,0.4,0.3,0.7,0.7,0.7h14.1c0,0,0,0.1,0,0.1v5h-5c-0.4,0-0.7,0.3-0.7,0.7s0.3,0.7,0.7,0.7h17.2c0.4,0,0.7-0.3,0.7-0.7
		s-0.3-0.7-0.7-0.7h-5v-5c0-0.1,0-0.1,0-0.1h14.1c0.4,0,0.7-0.3,0.7-0.7V4.9C36.9,4.5,36.6,4.2,36.2,4.2z M4.6,20.9h11.7l1.5,1.6
		H4.6V20.9z M19.1,3.1l1.5-1.7h11.7v18.1h-12h0c-0.1,0-0.2,0-0.3,0.1c-0.1,0-0.2,0.1-0.2,0.2c0,0,0,0,0,0c0,0,0,0,0,0l-0.7,0.7V3.1z
		 M32.3,20.9v1.6H19.1l1.5-1.6H32.3z M4.6,1.4h11.7l1.4,1.5v17.4l-0.5-0.6c-0.1-0.1-0.3-0.2-0.5-0.2h-12V1.4z M20.7,27.3v5h-4.5v-5
		c0-0.1,0-0.1,0-0.1h4.5C20.7,27.2,20.7,27.2,20.7,27.3z M35.4,25.7h-34v-20h1.7v14.6c0,0,0,0.1,0,0.1c0,0,0,0.1,0,0.1v2.9
		c0,0.4,0.3,0.7,0.7,0.7H33c0.4,0,0.7-0.3,0.7-0.7v-2.8c0,0,0-0.1,0-0.1c0,0,0-0.1,0-0.1V5.7h1.7V25.7z"/>
	<linearGradient id="SVGID_2_" gradientUnits="userSpaceOnUse" x1="-10.9764" y1="32.8648" x2="30.118" y2="1.898">
		<stop  offset="0" style="stop-color:#7094A8"/>
		<stop  offset="0.9946" style="stop-color:#DDEDF5"/>
	</linearGradient>
	<path class="st1" d="M14.8,15.5H7.4c-0.4,0-0.7,0.3-0.7,0.7c0,0.4,0.3,0.7,0.7,0.7h7.4c0.4,0,0.7-0.3,0.7-0.7
		C15.5,15.8,15.2,15.5,14.8,15.5z"/>
	<linearGradient id="SVGID_3_" gradientUnits="userSpaceOnUse" x1="-16.3551" y1="25.3409" x2="24.7392" y2="-5.626">
		<stop  offset="0" style="stop-color:#7094A8"/>
		<stop  offset="0.9946" style="stop-color:#DDEDF5"/>
	</linearGradient>
	<path class="st2" d="M14.8,3.9H7.4C7,3.9,6.7,4.2,6.7,4.6S7,5.4,7.4,5.4h7.4c0.4,0,0.7-0.3,0.7-0.7S15.2,3.9,14.8,3.9z"/>
	<linearGradient id="SVGID_4_" gradientUnits="userSpaceOnUse" x1="-14.5623" y1="27.8488" x2="26.5321" y2="-3.1181">
		<stop  offset="0" style="stop-color:#7094A8"/>
		<stop  offset="0.9946" style="stop-color:#DDEDF5"/>
	</linearGradient>
	<path class="st3" d="M14.8,7.8H7.4C7,7.8,6.7,8.1,6.7,8.5S7,9.2,7.4,9.2h7.4c0.4,0,0.7-0.3,0.7-0.7S15.2,7.8,14.8,7.8z"/>
	<linearGradient id="SVGID_5_" gradientUnits="userSpaceOnUse" x1="-12.7692" y1="30.357" x2="28.3251" y2="-0.6099">
		<stop  offset="0" style="stop-color:#7094A8"/>
		<stop  offset="0.9946" style="stop-color:#DDEDF5"/>
	</linearGradient>
	<path class="st4" d="M14.8,11.6H7.4c-0.4,0-0.7,0.3-0.7,0.7s0.3,0.7,0.7,0.7h7.4c0.4,0,0.7-0.3,0.7-0.7S15.2,11.6,14.8,11.6z"/>
	<linearGradient id="SVGID_6_" gradientUnits="userSpaceOnUse" x1="-11.0811" y1="32.3885" x2="30.0132" y2="1.4216">
		<stop  offset="0" style="stop-color:#7094A8"/>
		<stop  offset="0.9946" style="stop-color:#DDEDF5"/>
	</linearGradient>
	<path class="st5" d="M22,5.4h7.4c0.4,0,0.7-0.3,0.7-0.7s-0.3-0.7-0.7-0.7H22c-0.4,0-0.7,0.3-0.7,0.7S21.7,5.4,22,5.4z"/>
	<linearGradient id="SVGID_7_" gradientUnits="userSpaceOnUse" x1="-9.2883" y1="34.8963" x2="31.8061" y2="3.9295">
		<stop  offset="0" style="stop-color:#7094A8"/>
		<stop  offset="0.9946" style="stop-color:#DDEDF5"/>
	</linearGradient>
	<path class="st6" d="M22,9.2h7.4c0.4,0,0.7-0.3,0.7-0.7s-0.3-0.7-0.7-0.7H22c-0.4,0-0.7,0.3-0.7,0.7S21.7,9.2,22,9.2z"/>
	<linearGradient id="SVGID_8_" gradientUnits="userSpaceOnUse" x1="-7.4952" y1="37.4045" x2="33.5991" y2="6.4377">
		<stop  offset="0" style="stop-color:#7094A8"/>
		<stop  offset="0.9946" style="stop-color:#DDEDF5"/>
	</linearGradient>
	<path class="st7" d="M22,13.1h7.4c0.4,0,0.7-0.3,0.7-0.7s-0.3-0.7-0.7-0.7H22c-0.4,0-0.7,0.3-0.7,0.7S21.7,13.1,22,13.1z"/>
</g>
</svg>
