<?xml version="1.0" encoding="utf-8"?>
<!-- Generator: Adobe Illustrator 19.0.0, SVG Export Plug-In . SVG Version: 6.00 Build 0)  -->
<svg version="1.1" id="Digital_Marketing" xmlns="http://www.w3.org/2000/svg" xmlns:xlink="http://www.w3.org/1999/xlink" x="0px"
	 y="0px" viewBox="-387.1 272.6 65.5 52" style="enable-background:new -387.1 272.6 65.5 52;" xml:space="preserve">
<style type="text/css">
	.st0{fill:#E5F6FD;}
	.st1{fill:#7194A8;}
	.st2{fill:#C9EAF9;}
	.st3{fill:#B3E7F4;}
	.st4{fill:#9ECFEF;}
	.st5{fill:#D2E9F7;}
	.st6{fill:#A5DFF5;}
	.st7{fill:#74CCF2;}
	.st8{fill:#7093A7;}
</style>
<g id="XMLID_1248_">
	<g id="XMLID_54_">
		<path id="XMLID_60_" class="st0" d="M-381.7,298L-381.7,298L-381.7,298z"/>
		<path id="XMLID_59_" class="st0" d="M-322.6,302.3L-322.6,302.3L-322.6,302.3z"/>
		<path id="XMLID_58_" class="st0" d="M-321.7,283.6L-321.7,283.6L-321.7,283.6z"/>
		<path id="XMLID_57_" class="st0" d="M-336.7,288.3L-336.7,288.3L-336.7,288.3z"/>
		<path id="XMLID_56_" class="st0" d="M-332,297.6L-332,297.6L-332,297.6z"/>
		<path id="XMLID_55_" class="st0" d="M-324.1,281.3h-14.1c-9.4-7.5-23.2-6.8-31.9,1.9c-3.5,3.5-5.7,7.9-6.6,12.4h-2.7
			c-1.3,0-2.3,1.1-2.3,2.4c0,1.3,1.1,2.3,2.4,2.3h0.9h1.6c1.3,0,2.3,1,2.4,2.3c0,1.3-1,2.3-2.3,2.4h-1.6l-6.5,0.1
			c-1.3,0-2.3,1.1-2.3,2.4c0,1.3,1.1,2.3,2.4,2.3l6.5-0.1l6.3-0.1c1.3,0,2.3,1,2.4,2.3c0.1,1.3-1,2.3-2.3,2.4l-4.1,0.1
			c-1,0-1.9,0.7-2.2,1.6c-0.1,0.2-0.1,0.5-0.1,0.8c0,1.3,1.1,2.3,2.4,2.3l7.9-0.1c9.4,7.6,23.3,7.1,32.1-1.7
			c3.5-3.5,5.7-7.9,6.6-12.5h4.5c1.3,0,2.3-1.1,2.3-2.3c0-1.3-1.1-2.3-2.3-2.3h-2.8h-2c-1.3,0-2.3-1.1-2.3-2.3l0,0l0,0l0,0
			c0-1.3,1-2.3,2.3-2.3h2l0,0c1.3,0,2.3-1,2.3-2.3l0,0c0-1.3-1-2.3-2.3-2.3l0,0h-6.7c-1.3,0-2.3-1.1-2.3-2.3l0,0l0,0l0,0
			c0-1.3,1-2.3,2.3-2.3h6.7h3.6c1.3,0,2.3-1.1,2.3-2.3C-321.7,282.3-322.8,281.3-324.1,281.3z"/>
	</g>
</g>
<g id="XMLID_1061_">
	<g id="XMLID_688_">
		<g id="XMLID_827_">
			<path id="XMLID_828_" class="st1" d="M-354.5,322.4h-3.1c-0.1,0-0.3,0.1-0.3,0.3c0,0.2,0.1,0.3,0.3,0.3h3.1
				c0.1,0,0.3-0.1,0.3-0.3C-354.2,322.5-354.3,322.4-354.5,322.4z"/>
		</g>
		<g id="XMLID_825_">
			<path id="XMLID_826_" class="st1" d="M-359.1,322.4h-5.7c-0.1,0-0.3,0.1-0.3,0.3c0,0.2,0.1,0.3,0.3,0.3h5.7
				c0.1,0,0.3-0.1,0.3-0.3C-358.8,322.5-359,322.4-359.1,322.4z"/>
		</g>
		<g id="XMLID_821_">
			<path id="XMLID_823_" class="st1" d="M-374.2,301.4h-2.1c-0.1,0-0.3,0.1-0.3,0.3c0,0.1,0.1,0.3,0.3,0.3h2.1
				c0.1,0,0.3-0.1,0.3-0.3C-373.9,301.5-374.1,301.4-374.2,301.4z"/>
		</g>
		<g id="XMLID_819_">
			<path id="XMLID_820_" class="st1" d="M-377.8,301.4h-5.7c-0.1,0-0.3,0.1-0.3,0.3c0,0.1,0.1,0.3,0.3,0.3h5.7
				c0.1,0,0.3-0.1,0.3-0.3C-377.6,301.5-377.7,301.4-377.8,301.4z"/>
		</g>
		<g id="XMLID_789_">
			<path id="XMLID_790_" class="st1" d="M-376.5,299.8h-4.2c-0.1,0-0.3,0.1-0.3,0.3s0.1,0.3,0.3,0.3h4.2c0.1,0,0.3-0.1,0.3-0.3
				S-376.4,299.8-376.5,299.8z"/>
		</g>
		<g id="XMLID_787_">
			<path id="XMLID_788_" class="st1" d="M-347.4,324h-12.8c-0.1,0-0.3,0.1-0.3,0.3c0,0.1,0.1,0.3,0.3,0.3h12.7
				c0.1,0,0.3-0.1,0.3-0.3C-347.2,324.1-347.3,324-347.4,324z"/>
		</g>
		<g id="XMLID_785_">
			<path id="XMLID_786_" class="st1" d="M-362.2,324h-1c-0.1,0-0.3,0.1-0.3,0.3c0,0.1,0.1,0.3,0.3,0.3h1c0.1,0,0.3-0.1,0.3-0.3
				C-362,324.1-362.1,324-362.2,324z"/>
		</g>
		<g id="XMLID_768_">
			<g id="XMLID_783_">
				<path id="XMLID_784_" class="st1" d="M-345.6,274.9h-0.8c-0.1,0-0.3,0.1-0.3,0.3c0,0.1,0.1,0.3,0.3,0.3h0.8
					c0.1,0,0.3-0.1,0.3-0.3C-345.4,275-345.5,274.9-345.6,274.9z"/>
			</g>
			<g id="XMLID_781_">
				<path id="XMLID_782_" class="st1" d="M-349.5,274.9h-0.8c-0.1,0-0.3,0.1-0.3,0.3c0,0.1,0.1,0.3,0.3,0.3h0.8
					c0.1,0,0.3-0.1,0.3-0.3C-349.3,275-349.4,274.9-349.5,274.9z"/>
			</g>
			<g id="XMLID_779_">
				<path id="XMLID_780_" class="st1" d="M-346.5,273.3l-0.6,0.6c-0.1,0.1-0.1,0.3,0,0.4c0.1,0.1,0.1,0.1,0.2,0.1
					c0.1,0,0.1,0,0.2-0.1l0.6-0.6c0.1-0.1,0.1-0.3,0-0.4C-346.2,273.2-346.4,273.2-346.5,273.3z"/>
			</g>
			<g id="XMLID_777_">
				<path id="XMLID_778_" class="st1" d="M-349.3,276.1l-0.6,0.6c-0.1,0.1-0.1,0.3,0,0.4c0.1,0.1,0.1,0.1,0.2,0.1s0.1,0,0.2-0.1
					l0.6-0.6c0.1-0.1,0.1-0.3,0-0.4C-349,276-349.2,276-349.3,276.1z"/>
			</g>
			<g id="XMLID_775_">
				<path id="XMLID_776_" class="st1" d="M-348,272.6c-0.1,0-0.3,0.1-0.3,0.3v0.8c0,0.1,0.1,0.3,0.3,0.3c0.2,0,0.3-0.1,0.3-0.3v-0.9
					C-347.7,272.7-347.8,272.6-348,272.6z"/>
			</g>
			<g id="XMLID_773_">
				<path id="XMLID_774_" class="st1" d="M-348,276.5c-0.1,0-0.3,0.1-0.3,0.3v0.8c0,0.1,0.1,0.3,0.3,0.3c0.2,0,0.3-0.1,0.3-0.3v-0.9
					C-347.7,276.6-347.8,276.5-348,276.5z"/>
			</g>
			<g id="XMLID_771_">
				<path id="XMLID_772_" class="st1" d="M-349.4,273.3c-0.1-0.1-0.3-0.1-0.4,0c-0.1,0.1-0.1,0.3,0,0.4l0.6,0.6
					c0.1,0.1,0.1,0.1,0.2,0.1c0.1,0,0.1,0,0.2-0.1c0.1-0.1,0.1-0.3,0-0.4L-349.4,273.3z"/>
			</g>
			<g id="XMLID_769_">
				<path id="XMLID_770_" class="st1" d="M-346.7,276.1c-0.1-0.1-0.3-0.1-0.4,0s-0.1,0.3,0,0.4l0.6,0.6c0.1,0.1,0.1,0.1,0.2,0.1
					s0.1,0,0.2-0.1c0.1-0.2,0.1-0.4,0-0.5L-346.7,276.1z"/>
			</g>
		</g>
		<g id="XMLID_751_">
			<g id="XMLID_766_">
				<path id="XMLID_767_" class="st1" d="M-324.6,304.8h-0.8c-0.1,0-0.3,0.1-0.3,0.3s0.1,0.3,0.3,0.3h0.8c0.1,0,0.3-0.1,0.3-0.3
					S-324.4,304.8-324.6,304.8z"/>
			</g>
			<g id="XMLID_764_">
				<path id="XMLID_765_" class="st1" d="M-328.5,304.8h-0.8c-0.1,0-0.3,0.1-0.3,0.3s0.1,0.3,0.3,0.3h0.8c0.1,0,0.3-0.1,0.3-0.3
					S-328.3,304.8-328.5,304.8z"/>
			</g>
			<g id="XMLID_762_">
				<path id="XMLID_763_" class="st1" d="M-325.5,303.2l-0.5,0.5c-0.1,0.1-0.1,0.3,0,0.4s0.1,0.1,0.2,0.1c0.1,0,0.1,0,0.2-0.1
					l0.6-0.6c0.1-0.1,0.1-0.3,0-0.4C-325.2,303.1-325.4,303.1-325.5,303.2z"/>
			</g>
			<g id="XMLID_760_">
				<path id="XMLID_761_" class="st1" d="M-328.2,305.9l-0.6,0.6c-0.1,0.1-0.1,0.3,0,0.4c0.1,0.1,0.1,0.1,0.2,0.1s0.1,0,0.2-0.1
					l0.6-0.6c0.1-0.1,0.1-0.3,0-0.4C-328,305.8-328.1,305.8-328.2,305.9z"/>
			</g>
			<g id="XMLID_758_">
				<path id="XMLID_759_" class="st1" d="M-326.9,302.4c-0.1,0-0.3,0.1-0.3,0.3v0.8c0,0.1,0.1,0.3,0.3,0.3c0.2,0,0.3-0.1,0.3-0.3
					v-0.8C-326.7,302.6-326.8,302.4-326.9,302.4z"/>
			</g>
			<g id="XMLID_756_">
				<path id="XMLID_757_" class="st1" d="M-326.9,306.3c-0.1,0-0.3,0.1-0.3,0.3v0.8c0,0.1,0.1,0.3,0.3,0.3c0.2,0,0.3-0.1,0.3-0.3
					v-0.8C-326.7,306.4-326.8,306.3-326.9,306.3z"/>
			</g>
			<g id="XMLID_754_">
				<path id="XMLID_755_" class="st1" d="M-328.4,303.2c-0.1-0.1-0.3-0.1-0.4,0c-0.1,0.1-0.1,0.3,0,0.4l0.6,0.6
					c0.1,0.1,0.1,0.1,0.2,0.1c0.1,0,0.1,0,0.2-0.1s0.1-0.3,0-0.4L-328.4,303.2z"/>
			</g>
			<g id="XMLID_752_">
				<path id="XMLID_753_" class="st1" d="M-325.7,305.9c-0.1-0.1-0.3-0.1-0.4,0c-0.1,0.1-0.1,0.3,0,0.4l0.6,0.6
					c0.1,0.1,0.1,0.1,0.2,0.1s0.1,0,0.2-0.1c0.1-0.1,0.1-0.3,0-0.4L-325.7,305.9z"/>
			</g>
		</g>
		<g id="XMLID_747_">
			<path id="XMLID_748_" class="st1" d="M-328.3,292.2l-0.6-0.3c-0.3-0.1-0.5-0.4-0.6-0.6l-0.3-0.6c0-0.1-0.1-0.1-0.2-0.1
				s-0.2,0.1-0.2,0.1l-0.3,0.6c-0.1,0.3-0.4,0.5-0.6,0.6l0,0l-0.6,0.3c-0.1,0-0.1,0.1-0.1,0.2c0,0.1,0.1,0.2,0.1,0.2l0.6,0.3
				c0.3,0.1,0.5,0.4,0.6,0.6l0.3,0.6c0,0.1,0.1,0.1,0.2,0.1s0.2-0.1,0.2-0.1l0.3-0.6c0.1-0.3,0.4-0.5,0.6-0.6l0.6-0.3
				c0.1,0,0.1-0.1,0.1-0.2C-328.2,292.3-328.2,292.2-328.3,292.2z M-329.1,292.5c-0.4,0.2-0.6,0.5-0.8,0.8l-0.1,0.2l-0.1-0.2
				c-0.2-0.4-0.5-0.6-0.8-0.8l-0.2-0.1l0.2-0.1l0,0c0.4-0.2,0.6-0.5,0.8-0.8l0.1-0.2l0.1,0.2c0.2,0.4,0.5,0.6,0.8,0.8l0.2,0.1
				L-329.1,292.5z"/>
		</g>
		<g id="XMLID_740_">
			<path id="XMLID_741_" class="st1" d="M-372.9,310.1l-0.6-0.3c-0.3-0.1-0.5-0.4-0.6-0.6l-0.3-0.6c0-0.1-0.1-0.1-0.2-0.1
				s-0.2,0.1-0.2,0.1l-0.3,0.6c-0.1,0.3-0.4,0.5-0.6,0.6l-0.6,0.3c-0.1,0-0.1,0.1-0.1,0.2c0,0.1,0.1,0.2,0.1,0.2l0.6,0.3
				c0.3,0.1,0.5,0.4,0.6,0.6l0.3,0.6c0,0.1,0.1,0.1,0.2,0.1s0.2-0.1,0.2-0.1l0.3-0.6c0.1-0.3,0.4-0.5,0.6-0.6l0.6-0.3
				c0.1,0,0.1-0.1,0.1-0.2C-372.7,310.2-372.8,310.1-372.9,310.1z M-373.7,310.4c-0.4,0.2-0.6,0.5-0.8,0.8l-0.1,0.2l-0.1-0.2
				c-0.2-0.4-0.5-0.6-0.8-0.8l-0.2-0.1l0.2-0.1c0.4-0.2,0.6-0.5,0.8-0.8l0.1-0.2l0.1,0.2c0.2,0.4,0.5,0.6,0.8,0.8l0.2,0.1
				L-373.7,310.4z"/>
		</g>
		<g id="XMLID_724_">
			<g id="XMLID_736_">
				<path id="XMLID_738_" class="st1" d="M-332.6,319.1h-0.5c-0.1,0-0.3,0.1-0.3,0.3c0,0.2,0.1,0.3,0.3,0.3h0.5
					c0.1,0,0.3-0.1,0.3-0.3C-332.3,319.2-332.5,319.1-332.6,319.1z"/>
			</g>
			<g id="XMLID_732_">
				<path id="XMLID_734_" class="st1" d="M-335.2,319.1h-0.5c-0.1,0-0.3,0.1-0.3,0.3c0,0.2,0.1,0.3,0.3,0.3h0.5
					c0.1,0,0.3-0.1,0.3-0.3C-334.9,319.2-335.1,319.1-335.2,319.1z"/>
			</g>
			<g id="XMLID_728_">
				<path id="XMLID_730_" class="st1" d="M-334.2,317.5c-0.1,0-0.3,0.1-0.3,0.3v0.5c0,0.1,0.1,0.3,0.3,0.3c0.1,0,0.3-0.1,0.3-0.3
					v-0.5C-333.9,317.6-334.1,317.5-334.2,317.5z"/>
			</g>
			<g id="XMLID_725_">
				<path id="XMLID_726_" class="st1" d="M-334.2,320.1c-0.1,0-0.3,0.1-0.3,0.3v0.5c0,0.1,0.1,0.3,0.3,0.3c0.1,0,0.3-0.1,0.3-0.3
					v-0.5C-333.9,320.2-334.1,320.1-334.2,320.1z"/>
			</g>
		</g>
		<g id="XMLID_710_">
			<g id="XMLID_722_">
				<path id="XMLID_723_" class="st1" d="M-374.2,284.5h-0.5c-0.1,0-0.3,0.1-0.3,0.3c0,0.2,0.1,0.3,0.3,0.3h0.5
					c0.1,0,0.3-0.1,0.3-0.3C-373.9,284.6-374.1,284.5-374.2,284.5z"/>
			</g>
			<g id="XMLID_720_">
				<path id="XMLID_721_" class="st1" d="M-376.8,284.5h-0.5c-0.1,0-0.3,0.1-0.3,0.3c0,0.2,0.1,0.3,0.3,0.3h0.5
					c0.1,0,0.3-0.1,0.3-0.3C-376.5,284.6-376.6,284.5-376.8,284.5z"/>
			</g>
			<g id="XMLID_716_">
				<path id="XMLID_718_" class="st1" d="M-375.8,283c-0.1,0-0.3,0.1-0.3,0.3v0.4c0,0.1,0.1,0.3,0.3,0.3c0.2,0,0.3-0.1,0.3-0.3v-0.5
					C-375.5,283.1-375.6,283-375.8,283z"/>
			</g>
			<g id="XMLID_712_">
				<path id="XMLID_714_" class="st1" d="M-375.8,285.6c-0.1,0-0.3,0.1-0.3,0.3v0.5c0,0.1,0.1,0.3,0.3,0.3c0.2,0,0.3-0.1,0.3-0.3
					v-0.5C-375.5,285.7-375.6,285.6-375.8,285.6z"/>
			</g>
		</g>
		<g id="XMLID_706_">
			<path id="XMLID_708_" class="st1" d="M-329.3,279.1h-2.6c-0.1,0-0.3,0.1-0.3,0.3c0,0.2,0.1,0.3,0.3,0.3h2.6
				c0.1,0,0.3-0.1,0.3-0.3C-329,279.2-329.1,279.1-329.3,279.1z"/>
		</g>
		<g id="XMLID_703_">
			<path id="XMLID_704_" class="st1" d="M-332.6,280.9h-8.4c-0.1,0-0.3,0.1-0.3,0.3c0,0.1,0.1,0.3,0.3,0.3h8.3
				c0.1,0,0.3-0.1,0.3-0.3C-332.4,281-332.5,280.9-332.6,280.9z"/>
		</g>
		<g id="XMLID_700_">
			<path id="XMLID_701_" class="st1" d="M-337.8,282.7h-2.1c-0.1,0-0.3,0.1-0.3,0.3c0,0.2,0.1,0.3,0.3,0.3h2.1
				c0.1,0,0.3-0.1,0.3-0.3C-337.5,282.8-337.7,282.7-337.8,282.7z"/>
		</g>
		<g id="XMLID_697_">
			<path id="XMLID_698_" class="st1" d="M-331.1,282.7h-4.7c-0.1,0-0.3,0.1-0.3,0.3c0,0.1,0.1,0.3,0.3,0.3h4.7
				c0.1,0,0.3-0.1,0.3-0.3C-330.8,282.8-330.9,282.7-331.1,282.7z"/>
		</g>
		<g id="XMLID_693_">
			<path id="XMLID_695_" class="st1" d="M-357.6,277.5h-13.5c-0.1,0-0.3,0.1-0.3,0.3c0,0.1,0.1,0.3,0.3,0.3h13.5
				c0.1,0,0.3-0.1,0.3-0.3C-357.3,277.6-357.4,277.5-357.6,277.5z"/>
		</g>
		<g id="XMLID_691_">
			<path id="XMLID_692_" class="st1" d="M-360.2,275.7h-4.7c-0.1,0-0.3,0.1-0.3,0.3c0,0.1,0.1,0.3,0.3,0.3h4.7
				c0.1,0,0.3-0.1,0.3-0.3C-359.9,275.8-360,275.7-360.2,275.7z"/>
		</g>
		<g id="XMLID_689_">
			<path id="XMLID_690_" class="st1" d="M-367.4,275.7h-1.6c-0.1,0-0.3,0.1-0.3,0.3c0,0.1,0.1,0.3,0.3,0.3h1.6
				c0.1,0,0.3-0.1,0.3-0.3C-367.2,275.8-367.3,275.7-367.4,275.7z"/>
		</g>
	</g>
</g>
<g id="XMLID_480_">
	<g id="XMLID_1056_">
		<g id="XMLID_130_">
			<path id="XMLID_131_" class="st2" d="M-359.6,302.4c0.4,0.6,1,0.4,1.9,0.4s1.4-0.9,1.8-1.5l0.9-9.5l-2.9,0.1L-359.6,302.4z"/>
		</g>
	</g>
	<g id="XMLID_1052_">
		<g id="XMLID_127_">
			<path id="XMLID_128_" class="st2" d="M-351.4,292l-2.7-0.2l-0.6,10.6c0.4,0.6,1.1,0.3,1.9,0.3c0.8,0,1.6-0.7,2-1.2l0,0
				L-351.4,292z"/>
		</g>
	</g>
	<g id="XMLID_1050_">
		<g id="XMLID_124_">
			<path id="XMLID_125_" class="st2" d="M-350.4,291.8l0.9,10.8c0,0,2.4,1,3.4-1.1l-1.9-9.7H-350.4z"/>
		</g>
	</g>
	<g id="XMLID_1046_">
		<g id="XMLID_121_">
			<path id="XMLID_122_" class="st2" d="M-346.5,291.8l2.5,10.9c0.4,0.6,0.9,0.2,1.8,0.2s1.1-0.8,1.5-1.5l-3.5-9.6H-346.5z"/>
		</g>
	</g>
	<g id="XMLID_1041_">
		<g id="XMLID_133_">
			<rect id="XMLID_134_" x="-360.2" y="284" class="st3" width="14.5" height="3.6"/>
		</g>
	</g>
	<g id="XMLID_1037_">
		<rect id="XMLID_616_" x="-347.2" y="284" class="st3" width="1.6" height="3.6"/>
	</g>
	<g id="XMLID_1033_">
		<g id="XMLID_118_">
			<path id="XMLID_119_" class="st2" d="M-370.2,302.1c-0.1,0.4,0.7,0.4,0.8,0.5c0.4,0.3,0.9-0.1,1.5-0.1c0.6,0,1.3-0.5,1.8-0.8
				c0.1-0.1,0.2-0.2,0.3-0.3c0-0.1,0-0.1,0-0.2l3.4-9.2h-2.1L-370.2,302.1z"/>
		</g>
	</g>
	<g id="XMLID_1029_">
		<g id="XMLID_115_">
			<path id="XMLID_116_" class="st2" d="M-364.7,302.3c0.4,0.7,0.9,0.3,1.8,0.3c0.9,0,1.8-0.9,2.2-1.5l1.7-9.3h-2.4L-364.7,302.3z"
				/>
		</g>
	</g>
	<g id="XMLID_1024_">
		<path id="XMLID_596_" class="st4" d="M-340.3,290.5h-24.2c-0.1,0-0.1,0-0.1,0.1v0.3c0,0.1,0,0.1,0.1,0.1h24.1c0.1,0,0.2,0,0.2-0.1
			v-0.3C-340.2,290.5-340.3,290.5-340.3,290.5z"/>
	</g>
	<g id="XMLID_1016_">
		<path id="XMLID_1018_" class="st5" d="M-340.4,302c-0.6,0.6-3.3,1.3-5.3-0.1c-1.2,1.6-4.6,0.6-5.2-0.1c-1,1.8-4.3,0.7-4.9,0.1
			c-2.1,1.9-4.4,0.4-5-0.2c-0.6,0.6-2.8,1.9-4.3,0.6c-0.1,0.1-0.4-0.6-0.5-0.6c-0.3,0.2-0.4,0.4-0.6,0.5v11.1c0,0.7,0.6,1.2,1.3,1.2
			h1.3v-7.8c0-0.3,0.2-0.5,0.5-0.5h5.2c0.3,0,0.6,0.2,0.6,0.5v7.8h17.5c0.7,0,1.2-0.5,1.2-1.2v-10.1C-338.9,303-340,302.3-340.4,302
			z M-341.7,311.8h-11.6c-0.3,0-0.4-0.4-0.4-0.7v-1.4v-3.5c0-0.3,0.1-0.5,0.4-0.5h11.5c0.3,0,0.3,0.2,0.3,0.5v3.5v1.4
			C-341.5,311.4-341.4,311.8-341.7,311.8z"/>
	</g>
	<g id="XMLID_1012_">
		<g id="XMLID_112_">
			<path id="XMLID_113_" class="st2" d="M-340.8,291.8h-2.2l4.2,10.6c0,0.1,1.2,0.8,2.3,0c1.2-0.4,1.2-0.7,1.2-1.7l-1-1.8
				L-340.8,291.8z"/>
		</g>
	</g>
	<g id="XMLID_1007_">
		<path id="XMLID_588_" class="st2" d="M-335.5,300.2l-5.3-8.4l-1.1,0.1l5.5,10.1c0.7,0.2,0.8,0.1,0.7-0.3
			C-335.2,301.1-335.5,300.2-335.5,300.2z"/>
	</g>
	<g id="XMLID_1003_">
		<path id="XMLID_586_" class="st2" d="M-357.4,302.5c0.4,0.6,1.6,0.1,1.8-1.6l0.5-8.9h-1L-357.4,302.5z"/>
	</g>
	<g id="XMLID_996_">
		<path id="XMLID_581_" class="st2" d="M-352.5,291.8l0.1,10.5c0.4,0.6,1.3-0.3,1.7-0.8l-0.9-9.7
			C-351.6,291.8-352.5,291.8-352.5,291.8z"/>
	</g>
	<g id="XMLID_992_">
		<path id="XMLID_579_" class="st2" d="M-347.6,292l-1-0.3l1.7,10.7c0,0,1.6-0.5,1.3-1.2L-347.6,292z"/>
	</g>
	<g id="XMLID_987_">
		<path id="XMLID_577_" class="st2" d="M-345.1,291.8l3.1,10.6c0.4,0.6,1-0.4,1.4-1l-3.7-9.7h-0.8V291.8z"/>
	</g>
	<g id="XMLID_983_">
		<path id="XMLID_575_" class="st2" d="M-368.2,302.6c-0.1,0.4,1.3-0.8,1.8-1.2c0.1-0.1,0.2-0.2,0.3-0.3c0-0.1,0-0.2,0-0.2l3.3-9.2
			l-0.8,0.1L-368.2,302.6z"/>
	</g>
	<g id="XMLID_978_">
		<path id="XMLID_570_" class="st2" d="M-362.8,302.6c0.6,0.1,0.7,0,0.9-0.1c0.3-0.1,0.7-0.6,1.1-1.2l1.7-9.3l-1-0.2L-362.8,302.6z"
			/>
	</g>
	<g id="XMLID_974_">
		<g id="XMLID_142_">
			<rect id="XMLID_143_" x="-352.4" y="310.2" class="st6" width="10.1" height="0.8"/>
		</g>
	</g>
	<g id="XMLID_969_">
		<rect id="XMLID_566_" x="-352.4" y="305.8" class="st5" width="10.1" height="3.9"/>
	</g>
	<g id="XMLID_965_">
		<rect id="XMLID_564_" x="-362.5" y="307.1" class="st5" width="3.9" height="7.5"/>
	</g>
	<g id="XMLID_960_">
		<g id="XMLID_139_">
			<rect id="XMLID_140_" x="-360.2" y="307.1" class="st3" width="1.6" height="7.5"/>
		</g>
	</g>
	<g id="XMLID_956_">
		<g id="XMLID_136_">
			<rect id="XMLID_137_" x="-344.6" y="305.6" class="st3" width="1.6" height="4.4"/>
		</g>
	</g>
	<g id="XMLID_952_">
		<g id="XMLID_145_">
			<rect id="XMLID_146_" x="-344.6" y="310" class="st7" width="1.6" height="1"/>
		</g>
	</g>
	<g id="XMLID_948_">
		<path id="XMLID_555_" class="st5" d="M-341,314.9c0,0,1.8,0.1,1.8-1.3s0-11,0-11l-1.8-0.4V314.9z"/>
	</g>
	<g id="XMLID_945_">
		<g id="XMLID_103_">
			<path id="XMLID_104_" class="st8" d="M-343.9,314.5h-21.8c-0.7,0-1.2-0.6-1.2-1.2v-10.5c0-0.3-0.2-0.5-0.5-0.5
				c-0.3,0-0.5,0.2-0.5,0.5v10.4c0,1.3,1,2.3,2.3,2.3h21.8c0.3,0,0.5-0.2,0.5-0.5C-343.4,314.7-343.6,314.5-343.9,314.5z"/>
		</g>
	</g>
	<g id="XMLID_939_">
		<g id="XMLID_100_">
			<path id="XMLID_101_" class="st8" d="M-338.8,302.3c-0.3,0-0.5,0.2-0.5,0.5v10.4c0,0.7-0.6,1.2-1.2,1.2h-1.8
				c-0.3,0-0.5,0.2-0.5,0.5c0,0.3,0.2,0.5,0.5,0.5h1.8c1.3,0,2.3-1,2.3-2.3v-10.3C-338.3,302.5-338.5,302.3-338.8,302.3z"/>
		</g>
	</g>
	<g id="XMLID_934_">
		<g id="XMLID_93_">
			<path id="XMLID_98_" class="st8" d="M-365.1,291.1c-0.2-0.1-0.6-0.1-0.7,0.2l-1.5,2.5c-0.1,0.2-0.1,0.6,0.2,0.7
				c0.1,0,0.2,0.1,0.3,0.1c0.2,0,0.4-0.1,0.4-0.3l1.5-2.5C-364.7,291.5-364.8,291.2-365.1,291.1z"/>
		</g>
	</g>
	<g id="XMLID_930_">
		<g id="XMLID_90_">
			<path id="XMLID_91_" class="st8" d="M-367.2,294.6c-0.3-0.1-0.6,0-0.7,0.2l-0.3,0.5c-0.1,0.3,0,0.6,0.2,0.7
				c0.1,0,0.2,0.1,0.2,0.1c0.2,0,0.4-0.1,0.5-0.3l0.3-0.5C-366.8,295.1-366.9,294.7-367.2,294.6z"/>
		</g>
	</g>
	<g id="XMLID_925_">
		<g id="XMLID_86_">
			<path id="XMLID_87_" class="st8" d="M-335.3,299.4C-335.3,299.3-335.4,299.3-335.3,299.4l-2.4-3.7c-0.2-0.2-0.5-0.3-0.7-0.2
				c-0.2,0.1-0.3,0.5-0.2,0.7l2.3,3.6l0.4,0.8c-0.1,0.9-1.1,1.7-2.2,1.7c-0.9,0-1.7-0.4-2.1-1.1c-0.1-0.2-0.3-0.3-0.5-0.3l0,0
				c-0.2,0-0.4,0.1-0.5,0.3c-0.4,0.7-1.2,1.1-2.1,1.1c-0.9,0-1.7-0.4-2.1-1.1c-0.1-0.2-0.3-0.3-0.5-0.3l0,0c-0.2,0-0.4,0.1-0.5,0.3
				c-0.4,0.7-1.2,1.1-2.1,1.1s-1.7-0.4-2.1-1.1c-0.1-0.2-0.3-0.3-0.5-0.3l0,0c-0.2,0-0.4,0.1-0.5,0.3c-0.4,0.7-1.2,1.1-2.1,1.1
				c-0.9,0-1.7-0.4-2.1-1.1c-0.1-0.2-0.3-0.3-0.5-0.3l0,0c-0.2,0-0.4,0.1-0.5,0.3c-0.4,0.7-1.2,1.1-2.1,1.1s-1.7-0.4-2.1-1.1
				c-0.1-0.2-0.3-0.3-0.5-0.3l0,0c-0.2,0-0.4,0.1-0.5,0.3c-0.4,0.7-1.2,1.1-2.1,1.1s-1.7-0.4-2.1-1.1c-0.1-0.2-0.3-0.3-0.5-0.3
				c-0.2,0-0.4,0.1-0.5,0.3c-0.1,0.2-0.3,0.4-0.4,0.5c-0.4,0.4-1,0.6-1.6,0.6c-0.6,0-1.2-0.2-1.6-0.5c-0.1-0.1-0.4-0.5-0.3-1
				l2.3-3.8c0.1-0.2,0.1-0.6-0.2-0.7c-0.2-0.1-0.6-0.1-0.7,0.2l-2.3,3.9c0,0,0,0.1-0.1,0.1c-0.3,1.1,0.5,2,0.6,2l0,0
				c0.6,0.5,1.4,0.8,2.3,0.8c0.8,0,1.7-0.3,2.3-0.8c0.1-0.1,0.1-0.1,0.2-0.2c0.6,0.7,1.6,1.1,2.6,1.1s1.9-0.4,2.5-1
				c0.6,0.6,1.5,1,2.5,1s1.9-0.4,2.5-1c0.6,0.6,1.5,1,2.5,1s1.9-0.4,2.5-1c0.6,0.6,1.5,1,2.5,1s1.9-0.4,2.5-1c0.6,0.6,1.5,1,2.5,1
				s1.9-0.4,2.5-1c0.6,0.6,1.5,1,2.5,1c1.8,0,3.3-1.3,3.3-2.8c0-0.1,0-0.2-0.1-0.2L-335.3,299.4z"/>
		</g>
	</g>
	<g id="XMLID_921_">
		<g id="XMLID_83_">
			<path id="XMLID_84_" class="st8" d="M-338.8,294.1c-0.2-0.2-0.5-0.3-0.7-0.2c-0.2,0.2-0.3,0.5-0.2,0.7l0.4,0.6
				c0.1,0.2,0.3,0.2,0.4,0.2c0.1,0,0.2,0,0.3-0.1c0.2-0.2,0.3-0.5,0.2-0.7L-338.8,294.1z"/>
		</g>
	</g>
	<g id="XMLID_917_">
		<g id="XMLID_80_">
			<path id="XMLID_81_" class="st8" d="M-340.6,291.2c-0.2-0.2-0.5-0.3-0.7-0.2c-0.2,0.2-0.3,0.5-0.2,0.7l1.1,1.8
				c0.1,0.2,0.3,0.2,0.4,0.2s0.2,0,0.3-0.1c0.2-0.2,0.3-0.5,0.2-0.7L-340.6,291.2z"/>
		</g>
	</g>
	<g id="XMLID_909_">
		<g id="XMLID_94_">
			<path id="XMLID_95_" class="st8" d="M-340.6,289.5h-25c-0.6,0-1.2,0.5-1.2,1.2v0.2c0,0.6,0.5,1.2,1.2,1.2h24.9
				c0.6,0,1.2-0.5,1.2-1.2v-0.2C-339.5,290-340,289.5-340.6,289.5z M-340.5,290.9c0,0.1-0.1,0.1-0.1,0.1h-25c-0.1,0-0.1-0.1-0.1-0.1
				v-0.2c0-0.1,0.1-0.1,0.1-0.1h24.9c0.1,0,0.1,0.1,0.1,0.1v0.2H-340.5z"/>
		</g>
	</g>
	<g id="XMLID_906_">
		<g id="XMLID_77_">
			<path id="XMLID_78_" class="st8" d="M-355,291.3c-0.3,0-0.5,0.2-0.6,0.5l-0.4,7.2c0,0.3,0.2,0.5,0.5,0.6l0,0
				c0.3,0,0.5-0.2,0.5-0.5l0.5-7.3C-354.5,291.5-354.7,291.3-355,291.3z"/>
		</g>
	</g>
	<g id="XMLID_901_">
		<g id="XMLID_74_">
			<path id="XMLID_75_" class="st8" d="M-355.6,299.9c-0.3,0-0.5,0.2-0.6,0.5l-0.1,1.1c0,0.3,0.2,0.5,0.5,0.6l0,0
				c0.3,0,0.5-0.2,0.5-0.5l0.1-1.1C-355.1,300.2-355.3,299.9-355.6,299.9z"/>
		</g>
	</g>
	<g id="XMLID_897_">
		<g id="XMLID_71_">
			<path id="XMLID_72_" class="st8" d="M-358.8,291.1c-0.3-0.1-0.6,0.1-0.6,0.4l-1.8,9.8c-0.1,0.3,0.1,0.6,0.4,0.6h0.1
				c0.2,0,0.5-0.2,0.5-0.4l1.8-9.8C-358.4,291.5-358.5,291.2-358.8,291.1z"/>
		</g>
	</g>
	<g id="XMLID_893_">
		<g id="XMLID_68_">
			<path id="XMLID_69_" class="st8" d="M-362.1,291.2c-0.3-0.1-0.6,0-0.7,0.3l-3.6,9.7c-0.1,0.3,0,0.6,0.3,0.7c0.1,0,0.1,0,0.2,0
				c0.2,0,0.4-0.1,0.5-0.3l3.6-9.7C-361.7,291.6-361.8,291.3-362.1,291.2z"/>
		</g>
	</g>
	<g id="XMLID_889_">
		<g id="XMLID_65_">
			<path id="XMLID_66_" class="st8" d="M-350.9,291.7c0-0.3-0.3-0.5-0.6-0.5c-0.3,0-0.5,0.3-0.5,0.6l0.6,9.7c0,0.3,0.2,0.5,0.5,0.5
				l0,0c0.3,0,0.5-0.3,0.5-0.6L-350.9,291.7z"/>
		</g>
	</g>
	<g id="XMLID_885_">
		<g id="XMLID_51_">
			<path id="XMLID_63_" class="st8" d="M-347,291.5c-0.1-0.3-0.3-0.5-0.6-0.4s-0.4,0.4-0.4,0.6l1.9,9.8c0,0.2,0.3,0.4,0.5,0.4h0.1
				c0.3-0.1,0.5-0.3,0.4-0.6L-347,291.5z"/>
		</g>
	</g>
	<g id="XMLID_881_">
		<g id="XMLID_48_">
			<path id="XMLID_49_" class="st8" d="M-343.6,291.5c-0.1-0.3-0.4-0.4-0.7-0.3c-0.3,0.1-0.4,0.4-0.3,0.7l3.6,9.6
				c0.1,0.2,0.3,0.3,0.5,0.3c0.1,0,0.1,0,0.2,0c0.3-0.1,0.4-0.4,0.3-0.7L-343.6,291.5z"/>
		</g>
	</g>
	<g id="XMLID_877_">
		<g id="XMLID_43_">
			<path id="XMLID_44_" class="st8" d="M-358.7,306.2h-5.2c-0.3,0-0.5,0.2-0.5,0.5v8c0,0.3,0.2,0.5,0.5,0.5c0.3,0,0.5-0.2,0.5-0.5
				v-7.5h4.1v7.5c0,0.3,0.2,0.5,0.5,0.5c0.3,0,0.5-0.2,0.5-0.5v-8C-358.2,306.5-358.4,306.2-358.7,306.2z"/>
		</g>
	</g>
	<g id="XMLID_873_">
		<g id="XMLID_40_">
			<path id="XMLID_41_" class="st8" d="M-342.7,305.4h-5.2c-0.3,0-0.5,0.2-0.5,0.5c0,0.3,0.2,0.5,0.5,0.5h4.7v4.4h-10.3v-4.4h2.7
				c0.3,0,0.5-0.2,0.5-0.5c0-0.3-0.2-0.5-0.5-0.5h-3.2c-0.3,0-0.5,0.2-0.5,0.5v5.4c0,0.3,0.2,0.5,0.5,0.5h11.3
				c0.3,0,0.5-0.2,0.5-0.5v-5.4C-342.2,305.6-342.4,305.4-342.7,305.4z"/>
		</g>
	</g>
	<g id="XMLID_869_">
		<g id="XMLID_37_">
			<path id="XMLID_38_" class="st8" d="M-349.4,305.4L-349.4,305.4c-0.4,0-0.6,0.2-0.6,0.5c0,0.3,0.2,0.5,0.5,0.5h0.1
				c0.3,0,0.5-0.2,0.5-0.5C-348.9,305.6-349.1,305.4-349.4,305.4z"/>
		</g>
	</g>
	<g id="XMLID_861_">
		<g id="XMLID_52_">
			<path id="XMLID_53_" class="st8" d="M-342.7,309.3H-354c-0.3,0-0.5,0.2-0.5,0.5v1.4c0,0.3,0.2,0.5,0.5,0.5h11.3
				c0.3,0,0.5-0.2,0.5-0.5v-1.4C-342.2,309.6-342.4,309.3-342.7,309.3z M-343.2,310.8h-10.3v-0.4h10.2v0.4H-343.2z"/>
		</g>
	</g>
	<g id="XMLID_856_">
		<g id="XMLID_34_">
			<circle id="XMLID_35_" class="st8" cx="-362.1" cy="310.6" r="0.7"/>
		</g>
	</g>
	<g id="XMLID_852_">
		<g id="XMLID_31_">
			<path id="XMLID_32_" class="st8" d="M-352.4,283h-9.3c-0.3,0-0.5,0.2-0.5,0.5v4.7c0,0.3,0.2,0.5,0.5,0.5h2.8
				c0.3,0,0.5-0.2,0.5-0.5c0-0.3-0.2-0.5-0.5-0.5h-2.3v-3.6h8.8c0.3,0,0.5-0.2,0.5-0.5C-351.9,283.2-352.1,283-352.4,283z"/>
		</g>
	</g>
	<g id="XMLID_848_">
		<g id="XMLID_28_">
			<path id="XMLID_29_" class="st8" d="M-345.5,283h-4.3c-0.3,0-0.5,0.2-0.5,0.5c0,0.3,0.2,0.5,0.5,0.5h3.8v3.6h-11.6
				c-0.3,0-0.5,0.2-0.5,0.5s0.2,0.5,0.5,0.5h12.1c0.3,0,0.5-0.2,0.5-0.5v-4.7C-345,283.2-345.2,283-345.5,283z"/>
		</g>
	</g>
	<g id="XMLID_844_">
		<g id="XMLID_25_">
			<path id="XMLID_26_" class="st8" d="M-351.1,283L-351.1,283c-0.4,0-0.6,0.2-0.6,0.5c0,0.3,0.2,0.5,0.5,0.5h0.1
				c0.3,0,0.5-0.2,0.5-0.5C-350.6,283.2-350.8,283-351.1,283z"/>
		</g>
	</g>
	<g id="XMLID_824_">
		<g id="XMLID_22_">
			<path id="XMLID_23_" class="st8" d="M-360.2,287.6c-0.3,0-0.5,0.2-0.5,0.5v1.8c0,0.3,0.2,0.5,0.5,0.5c0.3,0,0.5-0.2,0.5-0.5v-1.8
				C-359.7,287.9-359.9,287.6-360.2,287.6z"/>
		</g>
	</g>
	<g id="XMLID_822_">
		<g id="XMLID_19_">
			<path id="XMLID_20_" class="st8" d="M-347.2,287.6c-0.3,0-0.5,0.2-0.5,0.5v1.8c0,0.3,0.2,0.5,0.5,0.5c0.3,0,0.5-0.2,0.5-0.5v-1.8
				C-346.7,287.9-346.9,287.6-347.2,287.6z"/>
		</g>
	</g>
</g>
</svg>
