<?xml version="1.0" encoding="utf-8"?>
<!-- Generator: Adobe Illustrator 19.0.0, SVG Export Plug-In . SVG Version: 6.00 Build 0)  -->
<svg version="1.1" id="Isolation_Mode" xmlns="http://www.w3.org/2000/svg" xmlns:xlink="http://www.w3.org/1999/xlink" x="0px"
	 y="0px" viewBox="0 0 38.6 34.8" style="enable-background:new 0 0 38.6 34.8;" xml:space="preserve">
<style type="text/css">
	.st0{fill:url(#SVGID_1_);}
	.st1{fill:url(#SVGID_2_);}
	.st2{fill:url(#SVGID_3_);}
	.st3{fill:url(#SVGID_4_);}
	.st4{fill:url(#SVGID_5_);}
</style>
<g>
	<linearGradient id="SVGID_1_" gradientUnits="userSpaceOnUse" x1="-4.8757" y1="40.575" x2="43.3962" y2="4.1995">
		<stop  offset="0" style="stop-color:#7094A8"/>
		<stop  offset="0.9946" style="stop-color:#DDEDF5"/>
	</linearGradient>
	<path class="st0" d="M38.5,33.2C38.5,33.1,38.5,33.1,38.5,33.2l-3.8-5.4c0.2-0.3,0.3-0.7,0.3-1.2V8.9c0-1.2-1-2.2-2.2-2.2h-5.8
		c-0.4,0-0.7,0.3-0.7,0.7s0.3,0.7,0.7,0.7h5.8c0.4,0,0.8,0.3,0.8,0.8v17.7c0,0.4-0.4,0.8-0.8,0.8h-1.2c0,0,0,0,0,0l0.6-6.8V20
		c0-1.6-1.5-2.7-2.9-3c-2.2-0.5-4.7-1.2-5.5-1.7c-0.1-0.1-0.2-0.1-0.3-0.1l-0.1,0c-0.4-0.1-0.7,0.2-0.8,0.6c0,0.3,0.1,0.6,0.4,0.7
		c1.3,0.9,4.9,1.7,6,1.9c0.7,0.1,1.8,0.6,1.8,1.6l0,0.5l-0.6,6.8c0,0.1,0,0.1,0,0.2h-8.3c0-0.1,0-0.1,0-0.2l-1.2-7.8l1-2.7
		c0.1-0.2,0.1-0.5-0.1-0.7c-0.1-0.2-0.4-0.3-0.6-0.3h-3.5c-0.2,0-0.5,0.1-0.6,0.3c-0.1,0.2-0.2,0.4-0.1,0.7l1,2.7l-1.2,7.8
		c0,0.1,0,0.1,0,0.2H8.4c0-0.1,0-0.1,0-0.2l-0.6-6.7V20c0-1,1.1-1.4,1.8-1.6c1-0.2,4.5-1,5.9-1.9c0.3-0.1,0.5-0.4,0.5-0.8
		c-0.1-0.4-0.5-0.7-0.9-0.6c-0.1,0-0.2,0.1-0.3,0.1c-0.8,0.6-3.3,1.3-5.5,1.7c-1.4,0.3-2.9,1.3-2.9,3l0,0.6L7,27.4c0,0,0,0,0,0H5.8
		C5.4,27.4,5,27,5,26.6V8.9c0-0.4,0.3-0.8,0.8-0.8h5.8c0.4,0,0.7-0.3,0.7-0.7S12,6.7,11.6,6.7H5.8c-1.2,0-2.2,1-2.2,2.2v17.7
		c0,0.4,0.1,0.8,0.4,1.2l-3.8,5.3c-0.2,0.3-0.2,0.6-0.1,1c0.2,0.4,0.8,0.7,1.2,0.7h36c0.4,0,1-0.2,1.2-0.7
		C38.7,33.8,38.7,33.4,38.5,33.2z M20,17.2L19.3,19l-0.7-1.9H20z M19.3,19.8l1.2,7.6h-2.4L19.3,19.8z M5.1,28.7
		c0.2,0.1,0.5,0.1,0.7,0.1h27.1c0.3,0,0.5-0.1,0.7-0.1l3.3,4.6l-35.1,0L5.1,28.7z"/>
	<linearGradient id="SVGID_2_" gradientUnits="userSpaceOnUse" x1="-11.8822" y1="30.5578" x2="36.3893" y2="-5.8174">
		<stop  offset="0" style="stop-color:#7094A8"/>
		<stop  offset="0.9946" style="stop-color:#DDEDF5"/>
	</linearGradient>
	<path class="st1" d="M14,10.5c0.2,0.2,0.5,0.2,0.7,0.3c0.8,2.3,2.7,4,4.7,4.1c1.9-0.1,3.8-1.8,4.6-4.1c0.2,0,0.4-0.1,0.6-0.2
		c0.3-0.2,0.5-0.6,0.6-0.9l0.3-2.1c0.1-0.5-0.1-1-0.5-1.3c0-0.1-0.1-0.2-0.1-0.3c0-0.1,0-0.2,0-0.4V4.7c0-1.7-1-3.2-2.4-3.8
		c-0.3-0.2-0.6-0.3-1-0.4c-1.3-0.5-2.5-0.6-3.3-0.3c-0.2,0.1-0.4,0.3-0.5,0.4c-2.2,0.1-3.9,1.9-3.9,4.1v0.8c0,0.2,0,0.4,0,0.5
		c0,0,0,0,0,0c-0.5,0.3-0.7,0.8-0.6,1.4l0.3,2.1C13.5,9.9,13.7,10.3,14,10.5z M23.7,9.3l-0.2,0c-0.4-0.1-0.7,0.2-0.8,0.5
		c-0.6,2-2,3.5-3.4,3.6c-1.4-0.1-2.9-1.6-3.4-3.6c-0.1-0.3-0.4-0.5-0.7-0.5c0,0-0.1,0-0.1,0l-0.2,0.1l-0.4-2.1l0.2,0
		c0.2,0,0.4-0.2,0.5-0.3c0.1-0.2,0.1-0.4,0.1-0.6c0-0.1,0-0.1,0-0.2c0.3-0.8,0.8-0.8,2.2-0.7c1.2,0.1,2.9,0.3,4.3-0.9
		c0.6,0.3,1.2,1,1.5,1.6c0,0.1,0,0.2-0.1,0.2c-0.1,0.2,0,0.4,0.1,0.6c0.1,0.2,0.3,0.3,0.5,0.3l0.2,0L23.7,9.3z M17.7,2h0.4
		c0.2,0,0.4-0.1,0.5-0.2c0.1-0.1,0.2-0.2,0.2-0.3c0.3-0.1,1.1,0,2.1,0.4c0.3,0.1,0.5,0.2,0.8,0.4c0.6,0.3,1.1,0.8,1.4,1.5
		c-0.4-0.3-0.9-0.6-1.4-0.7c-0.3-0.1-0.5,0-0.7,0.2c-0.9,1.1-2.1,0.9-3.3,0.8c-0.7-0.1-1.6-0.2-2.4,0.1C15.5,2.9,16.5,2,17.7,2z"/>
	<linearGradient id="SVGID_3_" gradientUnits="userSpaceOnUse" x1="-12.5687" y1="30.2059" x2="36.1229" y2="-6.4859">
		<stop  offset="0" style="stop-color:#7094A8"/>
		<stop  offset="0.9946" style="stop-color:#DDEDF5"/>
	</linearGradient>
	<path class="st2" d="M18.3,7.8V7.2c0-0.4-0.3-0.7-0.7-0.7s-0.7,0.3-0.7,0.7v0.5c0,0.4,0.3,0.7,0.7,0.7S18.3,8.1,18.3,7.8z"/>
	<linearGradient id="SVGID_4_" gradientUnits="userSpaceOnUse" x1="-11.3999" y1="31.939" x2="37.2917" y2="-4.7528">
		<stop  offset="0" style="stop-color:#7094A8"/>
		<stop  offset="0.9946" style="stop-color:#DDEDF5"/>
	</linearGradient>
	<path class="st3" d="M21.1,6.5c-0.4,0-0.7,0.3-0.7,0.7v0.5c0,0.4,0.3,0.7,0.7,0.7s0.7-0.3,0.7-0.7V7.2C21.8,6.8,21.5,6.5,21.1,6.5z
		"/>
	<linearGradient id="SVGID_5_" gradientUnits="userSpaceOnUse" x1="-9.6197" y1="32.8578" x2="37.88" y2="-2.9358">
		<stop  offset="0" style="stop-color:#7094A8"/>
		<stop  offset="0.9946" style="stop-color:#DDEDF5"/>
	</linearGradient>
	<path class="st4" d="M19.8,10.5c-0.3,0.2-0.8,0.2-0.9,0c-0.3-0.3-0.7-0.3-1,0c-0.3,0.3-0.3,0.7,0,1c0.4,0.4,0.9,0.5,1.4,0.5
		c0.5,0,1-0.2,1.4-0.5c0.3-0.2,0.4-0.7,0.1-1C20.6,10.3,20.1,10.2,19.8,10.5z"/>
</g>
</svg>
