<?xml version="1.0" encoding="utf-8"?>
<!-- Generator: Adobe Illustrator 19.0.0, SVG Export Plug-In . SVG Version: 6.00 Build 0)  -->
<svg version="1.1" id="Layer_1" xmlns="http://www.w3.org/2000/svg" xmlns:xlink="http://www.w3.org/1999/xlink" x="0px" y="0px"
	 viewBox="0 0 60.3 45.5" style="enable-background:new 0 0 60.3 45.5;" xml:space="preserve">
<style type="text/css">
	.st0{fill-rule:evenodd;clip-rule:evenodd;fill:#BECF31;}
</style>
<g id="XMLID_6_">
	<path id="XMLID_2_" class="st0" d="M24.7,2.9C25.9,1.1,27.9,0,30.1,0c2.2,0,4.2,1.1,5.5,2.9l22.7,31.1c1.3,1.6,1.9,2.9,1.9,4.7
		c0,3.8-3,6.8-6.8,6.8c-2.3,0-4.4-1.2-5.6-2.9c-0.2-0.3-0.4-0.5-0.6-0.9c0,0-5.5-8.6-17.1-8.6c-11.6,0-17.1,8.6-17.1,8.6
		c-0.2,0.3-0.4,0.6-0.6,0.9c-1.2,1.8-3.3,2.9-5.6,2.9c-3.8,0-6.8-3-6.8-6.8c0-1.8,0.7-3.2,1.9-4.7L24.7,2.9z"/>
</g>
</svg>
