<?xml version="1.0" encoding="utf-8"?>
<!-- Generator: Adobe Illustrator 19.0.0, SVG Export Plug-In . SVG Version: 6.00 Build 0)  -->
<svg version="1.1" id="Digital_Marketing" xmlns="http://www.w3.org/2000/svg" xmlns:xlink="http://www.w3.org/1999/xlink" x="0px"
	 y="0px" viewBox="-378.2 270 84.5 56.5" style="enable-background:new -378.2 270 84.5 56.5;" xml:space="preserve">
<style type="text/css">
	.st0{fill:#E7E9C4;}
	.st1{fill:#E7E9C2;}
	.st2{fill:#CACF7F;}
	.st3{fill:#A5B12B;}
	.st4{fill:#B5BD56;}
	.st5{fill:#CACF7D;}
	.st6{fill:#B8BF57;}
</style>
<g id="XMLID_2206_">
	<g id="XMLID_2394_">
		<path id="XMLID_2202_" class="st0" d="M-298.4,302.3h-6.1h-5.3c-1.5,0-2.7-1.2-2.7-2.7l0,0c0-1.5,1.2-2.7,2.7-2.7h2
			c1.5,0,2.7-1.2,2.7-2.7l0,0c0-1.5-1.2-2.7-2.7-2.7h-7.4c-1.5,0-2.7-1.2-2.7-2.7l0,0c0-1.5,1.2-2.7,2.7-2.7h10.8h0.9
			c1.5,0,2.7-1.2,2.7-2.7l0,0c0-1.5-1.2-2.7-2.7-2.7H-315c-0.7-0.8-1.4-1.7-2.2-2.5c-10.9-11-28.6-10.9-39.5,0
			c-4.2,4.2-6.8,9.5-7.8,15h-8.4c-1.5,0-2.7,1.2-2.7,2.7l0,0c0,1.5,1.2,2.7,2.7,2.7h6.6h1.9c1.5,0,2.7,1.2,2.7,2.7l0,0
			c0,1.5-1.2,2.7-2.7,2.7h-1.9h-9.2c-1.5,0-2.7,1.2-2.7,2.7l0,0c0,1.5,1.2,2.7,2.7,2.7h9.1h7.4c1.5,0,2.7,1.2,2.7,2.7l0,0
			c0,1.5-1.2,2.7-2.7,2.7h-7.3h-1.3c-1.5,0-2.7,1.2-2.7,2.7l0,0c0,1.5,1.2,2.7,2.7,2.7h14.1c10.9,8,26.4,7.2,36.3-2.7
			c2.9-2.9,5-6.2,6.3-9.8h12.5c1.5,0,2.7-1.2,2.7-2.7l0,0C-295.7,303.6-296.9,302.3-298.4,302.3z"/>
	</g>
	<g id="XMLID_2305_">
		<g id="XMLID_2392_">
			<path id="XMLID_2200_" d="M-302.4,308.4h-1.8c-0.2,0-0.3,0.1-0.3,0.3c0,0.2,0.1,0.3,0.3,0.3h1.8c0.2,0,0.3-0.1,0.3-0.3
				C-302.1,308.5-302.3,308.4-302.4,308.4z"/>
		</g>
		<g id="XMLID_2390_">
			<path id="XMLID_2198_" d="M-294,308.4h-6.6c-0.2,0-0.3,0.1-0.3,0.3c0,0.2,0.1,0.3,0.3,0.3h6.6c0.2,0,0.3-0.1,0.3-0.3
				C-293.7,308.5-293.8,308.4-294,308.4z"/>
		</g>
		<g id="XMLID_2388_">
			<path id="XMLID_2196_" d="M-299.4,306.6h-6.6c-0.2,0-0.3,0.1-0.3,0.3c0,0.2,0.1,0.3,0.3,0.3h6.6c0.2,0,0.3-0.1,0.3-0.3
				C-299.1,306.7-299.3,306.6-299.4,306.6z"/>
		</g>
		<g id="XMLID_2386_">
			<path id="XMLID_2194_" d="M-295.8,306.6h-1.2c-0.2,0-0.3,0.1-0.3,0.3c0,0.2,0.1,0.3,0.3,0.3h1.2c0.2,0,0.3-0.1,0.3-0.3
				C-295.5,306.7-295.6,306.6-295.8,306.6z"/>
		</g>
		<g id="XMLID_2369_">
			<g id="XMLID_2384_">
				<path id="XMLID_2192_" d="M-362.4,298.1h-0.9c-0.2,0-0.3,0.1-0.3,0.3c0,0.2,0.1,0.3,0.3,0.3h0.9c0.2,0,0.3-0.1,0.3-0.3
					C-362.1,298.2-362.3,298.1-362.4,298.1z"/>
			</g>
			<g id="XMLID_2382_">
				<path id="XMLID_2189_" d="M-357.9,298.1h-0.9c-0.2,0-0.3,0.1-0.3,0.3c0,0.2,0.1,0.3,0.3,0.3h0.9c0.2,0,0.3-0.1,0.3-0.3
					C-357.6,298.2-357.8,298.1-357.9,298.1z"/>
			</g>
			<g id="XMLID_2380_">
				<path id="XMLID_2188_" d="M-362.1,299.5l-0.6,0.6c-0.1,0.1-0.1,0.3,0,0.4s0.1,0.1,0.2,0.1c0.1,0,0.2,0,0.2-0.1l0.6-0.6
					c0.1-0.1,0.1-0.3,0-0.4C-361.8,299.3-362,299.3-362.1,299.5z"/>
			</g>
			<g id="XMLID_2378_">
				<path id="XMLID_2185_" d="M-358.9,296.3l-0.6,0.6c-0.1,0.1-0.1,0.3,0,0.4c0.1,0.1,0.1,0.1,0.2,0.1s0.2,0,0.2-0.1l0.6-0.6
					c0.1-0.1,0.1-0.3,0-0.4C-358.6,296.1-358.8,296.1-358.9,296.3z"/>
			</g>
			<g id="XMLID_2376_">
				<path id="XMLID_2184_" d="M-360.6,299.9c-0.2,0-0.3,0.1-0.3,0.3v0.9c0,0.2,0.1,0.3,0.3,0.3c0.2,0,0.3-0.1,0.3-0.3v-0.9
					C-360.3,300.1-360.5,299.9-360.6,299.9z"/>
			</g>
			<g id="XMLID_2374_">
				<path id="XMLID_2181_" d="M-360.6,295.4c-0.2,0-0.3,0.1-0.3,0.3v0.9c0,0.2,0.1,0.3,0.3,0.3c0.2,0,0.3-0.1,0.3-0.3v-0.9
					C-360.3,295.5-360.5,295.4-360.6,295.4z"/>
			</g>
			<g id="XMLID_2372_">
				<path id="XMLID_2179_" d="M-359.1,299.5c-0.1-0.1-0.3-0.1-0.4,0c-0.1,0.1-0.1,0.3,0,0.4l0.6,0.6c0.1,0.1,0.1,0.1,0.2,0.1
					s0.2,0,0.2-0.1c0.1-0.1,0.1-0.3,0-0.4L-359.1,299.5z"/>
			</g>
			<g id="XMLID_2370_">
				<path id="XMLID_2177_" d="M-362.3,296.3c-0.1-0.1-0.3-0.1-0.4,0c-0.1,0.1-0.1,0.3,0,0.4l0.6,0.6c0.1,0.1,0.1,0.1,0.2,0.1
					c0.1,0,0.2,0,0.2-0.1c0.1-0.1,0.1-0.3,0-0.4L-362.3,296.3z"/>
			</g>
		</g>
		<g id="XMLID_2352_">
			<g id="XMLID_2367_">
				<path id="XMLID_2175_" d="M-323.5,320.7h-0.9c-0.2,0-0.3,0.1-0.3,0.3s0.1,0.3,0.3,0.3h0.9c0.2,0,0.3-0.1,0.3-0.3
					S-323.4,320.7-323.5,320.7z"/>
			</g>
			<g id="XMLID_2365_">
				<path id="XMLID_2172_" d="M-319,320.7h-0.9c-0.2,0-0.3,0.1-0.3,0.3s0.1,0.3,0.3,0.3h0.9c0.2,0,0.3-0.1,0.3-0.3
					S-318.9,320.7-319,320.7z"/>
			</g>
			<g id="XMLID_2363_">
				<path id="XMLID_2170_" d="M-323.2,322.1l-0.6,0.6c-0.1,0.1-0.1,0.3,0,0.4s0.1,0.1,0.2,0.1s0.2,0,0.2-0.1l0.6-0.6
					c0.1-0.1,0.1-0.3,0-0.4C-322.9,321.9-323.1,321.9-323.2,322.1z"/>
			</g>
			<g id="XMLID_2361_">
				<path id="XMLID_2168_" d="M-320,318.9l-0.6,0.6c-0.1,0.1-0.1,0.3,0,0.4s0.1,0.1,0.2,0.1c0.1,0,0.2,0,0.2-0.1l0.6-0.6
					c0.1-0.1,0.1-0.3,0-0.4C-319.7,318.7-319.9,318.7-320,318.9z"/>
			</g>
			<g id="XMLID_2359_">
				<path id="XMLID_2166_" d="M-321.7,322.5c-0.2,0-0.3,0.1-0.3,0.3v1c0,0.2,0.1,0.3,0.3,0.3s0.3-0.1,0.3-0.3v-1
					C-321.4,322.7-321.6,322.5-321.7,322.5z"/>
			</g>
			<g id="XMLID_2357_">
				<path id="XMLID_2163_" d="M-321.7,318c-0.2,0-0.3,0.1-0.3,0.3v0.9c0,0.2,0.1,0.3,0.3,0.3s0.3-0.1,0.3-0.3v-0.9
					C-321.4,318.2-321.6,318-321.7,318z"/>
			</g>
			<g id="XMLID_2355_">
				<path id="XMLID_2161_" d="M-320.2,322.1c-0.1-0.1-0.3-0.1-0.4,0s-0.1,0.3,0,0.4l0.6,0.6c0.1,0.1,0.1,0.1,0.2,0.1s0.2,0,0.2-0.1
					c0.1-0.1,0.1-0.3,0-0.4L-320.2,322.1z"/>
			</g>
			<g id="XMLID_2353_">
				<path id="XMLID_2159_" d="M-323.4,318.9c-0.1-0.1-0.3-0.1-0.4,0s-0.1,0.3,0,0.4l0.6,0.6c0.1,0.1,0.1,0.1,0.2,0.1
					c0.1,0,0.2,0,0.2-0.1c0.1-0.1,0.1-0.3,0-0.4L-323.4,318.9z"/>
			</g>
		</g>
		<g id="XMLID_2348_">
			<path id="XMLID_2349_" d="M-348.5,272.8l-0.7-0.4c-0.3-0.2-0.6-0.4-0.7-0.7l-0.4-0.7c0-0.1-0.1-0.2-0.2-0.2
				c-0.1,0-0.2,0.1-0.3,0.2l-0.4,0.7c-0.2,0.3-0.4,0.6-0.7,0.7l-0.7,0.4c-0.1,0.1-0.2,0.2-0.2,0.3s0.1,0.2,0.2,0.3l0.7,0.4
				c0.3,0.2,0.6,0.4,0.7,0.7l0.4,0.7c0.1,0.1,0.2,0.2,0.3,0.2c0.1,0,0.2-0.1,0.3-0.2l0.4-0.7c0.2-0.3,0.4-0.6,0.7-0.7l0,0l0.7-0.4
				c0.1-0.1,0.2-0.2,0.2-0.3S-348.4,272.8-348.5,272.8z M-349.5,273.1c-0.4,0.2-0.7,0.6-1,1l-0.1,0.2l-0.1-0.2c-0.2-0.4-0.6-0.7-1-1
				l-0.2-0.1l0.2-0.1c0.4-0.2,0.7-0.6,1-1l0.2-0.1l0.1,0.2c0.2,0.4,0.6,0.7,1,1l0.2,0.1H-349.5z"/>
		</g>
		<g id="XMLID_2344_">
			<path id="XMLID_2345_" d="M-304,291.3l-0.7-0.4c-0.3-0.2-0.6-0.4-0.7-0.7l-0.4-0.7c-0.1-0.1-0.2-0.2-0.3-0.2s-0.2,0.1-0.3,0.2
				l-0.4,0.7c-0.2,0.3-0.4,0.6-0.7,0.7l-0.5,0.4c-0.1,0.1-0.2,0.2-0.2,0.3s0.1,0.2,0.2,0.3l0.7,0.4c0.3,0.2,0.6,0.4,0.7,0.7l0.4,0.7
				c0.1,0.1,0.2,0.2,0.3,0.2s0.2-0.1,0.3-0.2l0.4-0.7c0.2-0.3,0.4-0.6,0.7-0.7l0,0l0.5-0.5c0.1-0.1,0.2-0.2,0.2-0.3
				S-303.9,291.3-304,291.3z M-304.9,291.6L-304.9,291.6c-0.4,0.2-0.7,0.6-1,1l-0.1,0.2l-0.1-0.2c-0.2-0.4-0.6-0.7-1-1l-0.2-0.1
				l0.2-0.1c0.4-0.2,0.7-0.6,1-1l0.1-0.2l0.1,0.2c0.2,0.4,0.6,0.7,1,1l0.2,0.1L-304.9,291.6z"/>
		</g>
		<g id="XMLID_2335_">
			<g id="XMLID_2342_">
				<path id="XMLID_2148_" d="M-314.8,281.2h-0.6c-0.2,0-0.3,0.1-0.3,0.3s0.1,0.3,0.3,0.3h0.6c0.2,0,0.3-0.1,0.3-0.3
					S-314.6,281.2-314.8,281.2z"/>
			</g>
			<g id="XMLID_2340_">
				<path id="XMLID_2144_" d="M-311.8,281.2h-0.6c-0.2,0-0.3,0.1-0.3,0.3s0.1,0.3,0.3,0.3h0.6c0.2,0,0.3-0.1,0.3-0.3
					S-311.6,281.2-311.8,281.2z"/>
			</g>
			<g id="XMLID_2338_">
				<path id="XMLID_2142_" d="M-313.6,282.4c-0.2,0-0.3,0.1-0.3,0.3v0.6c0,0.2,0.1,0.3,0.3,0.3c0.2,0,0.3-0.1,0.3-0.3v-0.6
					C-313.3,282.6-313.4,282.4-313.6,282.4z"/>
			</g>
			<g id="XMLID_2336_">
				<path id="XMLID_2141_" d="M-313.6,279.4c-0.2,0-0.3,0.1-0.3,0.3v0.6c0,0.2,0.1,0.3,0.3,0.3c0.2,0,0.3-0.1,0.3-0.3v-0.6
					C-313.3,279.6-313.4,279.4-313.6,279.4z"/>
			</g>
		</g>
		<g id="XMLID_2326_">
			<g id="XMLID_2333_">
				<path id="XMLID_2137_" d="M-365.8,316.2h-0.6c-0.2,0-0.3,0.1-0.3,0.3s0.1,0.3,0.3,0.3h0.6c0.2,0,0.3-0.1,0.3-0.3
					S-365.6,316.2-365.8,316.2z"/>
			</g>
			<g id="XMLID_2331_">
				<path id="XMLID_2135_" d="M-362.7,316.2h-0.6c-0.2,0-0.3,0.1-0.3,0.3s0.1,0.3,0.3,0.3h0.6c0.2,0,0.3-0.1,0.3-0.3
					S-362.6,316.2-362.7,316.2z"/>
			</g>
			<g id="XMLID_2329_">
				<path id="XMLID_2133_" d="M-364.6,317.4c-0.2,0-0.3,0.1-0.3,0.3v0.6c0,0.2,0.1,0.3,0.3,0.3c0.2,0,0.3-0.1,0.3-0.3v-0.6
					C-364.2,317.6-364.4,317.4-364.6,317.4z"/>
			</g>
			<g id="XMLID_2327_">
				<path id="XMLID_2131_" d="M-364.6,314.4c-0.2,0-0.3,0.1-0.3,0.3v0.6c0,0.2,0.1,0.3,0.3,0.3c0.2,0,0.3-0.1,0.3-0.3v-0.6
					C-364.2,314.5-364.4,314.4-364.6,314.4z"/>
			</g>
		</g>
		<g id="XMLID_2324_">
			<path id="XMLID_2129_" d="M-355.2,282.7h-13.3c-0.2,0-0.3,0.1-0.3,0.3s0.1,0.3,0.3,0.3h13.3c0.2,0,0.3-0.1,0.3-0.3
				S-355,282.7-355.2,282.7z"/>
		</g>
		<g id="XMLID_2322_">
			<path id="XMLID_2127_" d="M-354.6,325.9h-3c-0.2,0-0.3,0.1-0.3,0.3c0,0.2,0.1,0.3,0.3,0.3h3c0.2,0,0.3-0.1,0.3-0.3
				C-354.3,326-354.4,325.9-354.6,325.9z"/>
		</g>
		<g id="XMLID_2320_">
			<path id="XMLID_2125_" d="M-336.8,323.8h-16.9c-0.2,0-0.3,0.1-0.3,0.3c0,0.2,0.1,0.3,0.3,0.3h16.9c0.2,0,0.3-0.1,0.3-0.3
				C-336.5,323.9-336.6,323.8-336.8,323.8z"/>
		</g>
		<g id="XMLID_2318_">
			<path id="XMLID_2123_" d="M-339.5,321.6h-8.1c-0.2,0-0.3,0.1-0.3,0.3c0,0.2,0.1,0.3,0.3,0.3h8.1c0.2,0,0.3-0.1,0.3-0.3
				C-339.2,321.7-339.4,321.6-339.5,321.6z"/>
		</g>
		<g id="XMLID_2316_">
			<path id="XMLID_2121_" d="M-350.1,321.6h-5.4c-0.2,0-0.3,0.1-0.3,0.3c0,0.2,0.1,0.3,0.3,0.3h5.4c0.2,0,0.3-0.1,0.3-0.3
				C-349.8,321.7-349.9,321.6-350.1,321.6z"/>
		</g>
		<g id="XMLID_2314_">
			<path id="XMLID_2119_" d="M-323.5,272.8h-2.1c-0.2,0-0.4,0.1-0.4,0.3c0,0.2,0.1,0.3,0.3,0.3h2.1c0.2,0,0.3-0.1,0.3-0.3
				C-323.3,272.9-323.4,272.8-323.5,272.8z"/>
		</g>
		<g id="XMLID_2312_">
			<path id="XMLID_2117_" d="M-321.1,271.3h-7.5c-0.2,0-0.3,0.1-0.3,0.3c0,0.2,0.1,0.3,0.3,0.3h7.5c0.2,0,0.3-0.1,0.3-0.3
				C-320.8,271.4-321,271.3-321.1,271.3z"/>
		</g>
		<g id="XMLID_2310_">
			<path id="XMLID_2115_" d="M-327.2,272.8h-5.4c-0.2,0-0.3,0.1-0.3,0.3c0,0.2,0.1,0.3,0.3,0.3h5.4c0.2,0,0.3-0.1,0.3-0.3
				C-326.9,272.9-327,272.8-327.2,272.8z"/>
		</g>
		<g id="XMLID_2308_">
			<path id="XMLID_2113_" d="M-361.2,284.9h-4.2c-0.2,0-0.3,0.1-0.3,0.3c0,0.2,0.1,0.3,0.3,0.3h4.2c0.2,0,0.3-0.1,0.3-0.3
				C-360.9,285-361.1,284.9-361.2,284.9z"/>
		</g>
		<g id="XMLID_2306_">
			<path id="XMLID_2111_" d="M-357.6,284.9h-1.8c-0.2,0-0.3,0.1-0.3,0.3c0,0.2,0.1,0.3,0.3,0.3h1.8c0.2,0,0.3-0.1,0.3-0.3
				C-357.3,285-357.4,284.9-357.6,284.9z"/>
		</g>
	</g>
	<g id="XMLID_2209_">
		<g id="XMLID_2303_">
			<g id="XMLID_103_">
				<rect id="XMLID_104_" x="-350" y="279.3" class="st0" width="2.3" height="8.9"/>
			</g>
		</g>
		<g id="XMLID_2301_">
			<rect id="XMLID_2107_" x="-328.9" y="299" class="st0" width="1.7" height="4.2"/>
		</g>
		<g id="XMLID_2299_">
			<g id="XMLID_100_">
				<circle id="XMLID_101_" class="st0" cx="-352.1" cy="303" r="3.4"/>
			</g>
		</g>
		<g id="XMLID_2297_">
			<circle id="XMLID_2103_" class="st0" cx="-331" cy="313.7" r="2.4"/>
		</g>
		<g id="XMLID_2295_">
			<circle id="XMLID_2101_" class="st0" cx="-316.2" cy="313.7" r="2.4"/>
		</g>
		<g id="XMLID_2293_">
			<g id="XMLID_97_">
				<rect id="XMLID_98_" x="-348" y="279.1" class="st0" width="21.6" height="9.4"/>
			</g>
		</g>
		<g id="XMLID_2291_">
			<g id="XMLID_94_">
				<polygon id="XMLID_95_" class="st1" points="-340.4,293.8 -338.7,295.5 -337.1,294 -338.8,292.3 				"/>
			</g>
		</g>
		<g id="XMLID_2289_">
			<g id="XMLID_91_">
				<path id="XMLID_92_" class="st2" d="M-354.3,303c0,2,1.6,3.7,3.7,3.7c1.1-1.5,1.8-1.6,1.8-3.7c0-2-1.2-3.1-1.7-3.7
					C-352.6,299.4-354.3,301-354.3,303z"/>
			</g>
		</g>
		<g id="XMLID_2287_">
			<g id="XMLID_88_">
				<path id="XMLID_89_" class="st2" d="M-332.4,313.6c0,1.4,1.1,2.6,2.6,2.6c0.4-0.5,0.7-1.2,0.7-2.6s-0.2-1.8-0.7-2.6
					C-331.2,311.1-332.4,312.2-332.4,313.6z"/>
			</g>
		</g>
		<g id="XMLID_2285_">
			<g id="XMLID_85_">
				<path id="XMLID_86_" class="st3" d="M-317.5,313.9c0,1.4,1.1,2.6,2.6,2.6c0.5-1.2,0.8-1.2,0.8-2.6s-0.2-1.3-0.8-2.6
					C-316.4,311.3-317.5,312.5-317.5,313.9z"/>
			</g>
		</g>
		<g id="XMLID_2283_">
			<rect id="XMLID_2089_" x="-327.2" y="298.8" class="st0" width="8.8" height="4.4"/>
		</g>
		<g id="XMLID_2270_">
			<g id="XMLID_2281_">
				<rect id="XMLID_2086_" x="-328.4" y="279.1" class="st0" width="1.8" height="9.3"/>
			</g>
			<g id="XMLID_2279_">
				<g id="XMLID_82_">
					<polygon id="XMLID_83_" class="st4" points="-339.1,292.2 -337.4,293.8 -339.1,295.5 -338.2,296.3 -335.8,293.9 -335.6,293.8 
						-338.2,291.3 					"/>
				</g>
			</g>
			<g id="XMLID_2277_">
				<g id="XMLID_79_">
					<path id="XMLID_80_" class="st5" d="M-352.1,299.4c-0.3,0-0.6,0-0.9,0.1c1.6,0.4,2.8,1.8,2.8,3.6c0,1.7-1.2,3.1-2.8,3.5
						c0.3,0.1,0.6,0.1,0.9,0.1c2,0,3.7-1.6,3.7-3.7C-348.4,301-350.1,299.4-352.1,299.4z"/>
				</g>
			</g>
			<g id="XMLID_2275_">
				<g id="XMLID_76_">
					<path id="XMLID_77_" class="st5" d="M-331,311.1c-0.3,0-0.6,0.1-0.9,0.2c1,0.4,1.7,1.3,1.7,2.4c0,1.1-0.7,2-1.7,2.4
						c0.3,0.1,0.6,0.2,0.9,0.2c1.4,0,2.6-1.1,2.6-2.6C-328.5,312.2-329.6,311.1-331,311.1z"/>
				</g>
			</g>
			<g id="XMLID_2273_">
				<g id="XMLID_73_">
					<path id="XMLID_74_" class="st3" d="M-316.1,311.3c-0.3,0-0.6,0.1-0.9,0.2c1,0.4,1.7,1.3,1.7,2.4s-0.7,2-1.7,2.4
						c0.3,0.1,0.6,0.2,0.9,0.2c1.4,0,2.6-1.1,2.6-2.6C-313.6,312.5-314.7,311.3-316.1,311.3z"/>
				</g>
			</g>
			<g id="XMLID_2271_">
				<g id="XMLID_63_">
					<rect id="XMLID_64_" x="-320.2" y="298.7" class="st6" width="1.8" height="4.5"/>
				</g>
			</g>
		</g>
		<g id="XMLID_2268_">
			<g id="XMLID_60_">
				<path id="XMLID_61_" d="M-326.4,278.6h-3.6c-0.3,0-0.6,0.3-0.6,0.6c0,0.3,0.3,0.6,0.6,0.6h3v8.2h-16.3c-0.3,0-0.6,0.3-0.6,0.6
					c0,0.3,0.3,0.6,0.6,0.6h16.9c0.3,0,0.6-0.3,0.6-0.6v-9.4C-325.8,278.8-326.1,278.6-326.4,278.6z"/>
			</g>
		</g>
		<g id="XMLID_2266_">
			<g id="XMLID_56_">
				<path id="XMLID_58_" d="M-331.5,278.6h-18.3c-0.3,0-0.6,0.3-0.6,0.6v9.4c0,0.3,0.3,0.6,0.6,0.6h2.2c0.3,0,0.6-0.3,0.6-0.6
					c0-0.3-0.3-0.6-0.6-0.6h-1.6v-8.2h17.7c0.3,0,0.6-0.3,0.6-0.6C-330.9,278.8-331.2,278.6-331.5,278.6z"/>
			</g>
		</g>
		<g id="XMLID_2264_">
			<g id="XMLID_49_">
				<path id="XMLID_54_" d="M-345.2,287.9h-0.4c-0.3,0-0.6,0.3-0.6,0.6s0.3,0.6,0.6,0.6h0.4c0.3,0,0.6-0.3,0.6-0.6
					S-344.9,287.9-345.2,287.9z"/>
			</g>
		</g>
		<g id="XMLID_2262_">
			<g id="XMLID_46_">
				<circle id="XMLID_47_" cx="-344.4" cy="284" r="1.3"/>
			</g>
		</g>
		<g id="XMLID_2260_">
			<g id="XMLID_42_">
				<circle id="XMLID_43_" cx="-331.7" cy="284" r="1.3"/>
			</g>
		</g>
		<g id="XMLID_2258_">
			<g id="XMLID_39_">
				<circle id="XMLID_40_" cx="-338.1" cy="284" r="1.3"/>
			</g>
		</g>
		<g id="XMLID_2256_">
			<g id="XMLID_36_">
				<path id="XMLID_37_" d="M-338.3,288.2c-0.3,0-0.6,0.3-0.6,0.6v2.1c0,0.3,0.3,0.6,0.6,0.6c0.3,0,0.6-0.3,0.6-0.6v-2.1
					C-337.7,288.4-338,288.2-338.3,288.2z"/>
			</g>
		</g>
		<g id="XMLID_2252_">
			<g id="XMLID_50_">
				<path id="XMLID_51_" d="M-337.8,290.9c-0.1-0.1-0.3-0.2-0.4-0.2c-0.2,0-0.3,0.1-0.4,0.2l-2.6,2.6c-0.2,0.2-0.2,0.6,0,0.9
					l2.6,2.6c0.1,0.1,0.3,0.2,0.4,0.2s0.3-0.1,0.4-0.2l2.6-2.6c0.2-0.2,0.2-0.6,0-0.9L-337.8,290.9z M-338.2,295.5l-1.7-1.7l1.7-1.7
					l1.7,1.7L-338.2,295.5z"/>
			</g>
		</g>
		<g id="XMLID_2250_">
			<g id="XMLID_33_">
				<path id="XMLID_34_" d="M-340.8,293.4h-11.4c-0.3,0-0.6,0.3-0.6,0.6v5.1c0,0.3,0.3,0.6,0.6,0.6s0.6-0.3,0.6-0.6v-4.5h10.8
					c0.3,0,0.6-0.3,0.6-0.6S-340.5,293.4-340.8,293.4z"/>
			</g>
		</g>
		<g id="XMLID_2248_">
			<g id="XMLID_30_">
				<path id="XMLID_31_" d="M-323.7,293.4h-11.9c-0.3,0-0.6,0.3-0.6,0.6s0.3,0.6,0.6,0.6h11.3v3.6c0,0.3,0.3,0.6,0.6,0.6
					s0.6-0.3,0.6-0.6V294C-323.1,293.7-323.4,293.4-323.7,293.4z"/>
			</g>
		</g>
		<g id="XMLID_2241_">
			<g id="XMLID_65_">
				<path id="XMLID_71_" d="M-348.5,302C-348.5,302-348.4,302-348.5,302C-348.4,302-348.4,302-348.5,302L-348.5,302z"/>
				<path id="XMLID_70_" d="M-348.3,302.1L-348.3,302.1L-348.3,302.1z"/>
				<path id="XMLID_69_" d="M-348.4,302L-348.4,302L-348.4,302z"/>
				<path id="XMLID_66_" d="M-348.5,302c-0.3,0-0.6,0.3-0.5,0.7v0.1c0,0.3,0.3,0.5,0.6,0.5c0.3,0,0.6-0.3,0.6-0.6c0-0.1,0-0.2,0-0.3
					C-348,302.1-348.2,301.9-348.5,302z M-348.5,302L-348.5,302C-348.4,302-348.4,302-348.5,302C-348.4,302-348.4,302-348.5,302
					C-348.4,302-348.4,302-348.5,302L-348.5,302L-348.5,302h0.2H-348.5L-348.5,302L-348.5,302C-348.4,302-348.4,302-348.5,302
					C-348.4,302-348.4,302-348.5,302C-348.4,302-348.5,302-348.5,302z"/>
			</g>
		</g>
		<g id="XMLID_2239_">
			<g id="XMLID_27_">
				<path id="XMLID_28_" d="M-348.4,303.6c-0.3-0.1-0.7,0.1-0.8,0.4c-0.4,1.3-1.6,2.1-2.9,2.1c-1.7,0-3.1-1.4-3.1-3.1
					s1.4-3.1,3.1-3.1c1.1,0,2.1,0.6,2.6,1.5c0.2,0.3,0.5,0.4,0.8,0.2c0.3-0.2,0.4-0.5,0.2-0.8c-0.8-1.3-2.2-2.1-3.7-2.1
					c-2.4,0-4.3,1.9-4.3,4.3s1.9,4.3,4.3,4.3c1.8,0,3.5-1.2,4.1-2.9C-347.9,304.1-348.1,303.7-348.4,303.6z"/>
			</g>
		</g>
		<g id="XMLID_2231_">
			<path id="XMLID_2233_" d="M-331,310.5c-1.8,0-3.2,1.4-3.2,3.2c0,1.8,1.4,3.2,3.2,3.2c1.8,0,3.2-1.4,3.2-3.2
				C-327.9,311.9-329.3,310.5-331,310.5z M-331,315.6c-1.1,0-2-0.9-2-2s0.9-2,2-2c1.1,0,2,0.9,2,2
				C-329.1,314.7-329.9,315.6-331,315.6z"/>
		</g>
		<g id="XMLID_2223_">
			<path id="XMLID_2225_" d="M-316.1,310.7c-1.8,0-3.2,1.4-3.2,3.2c0,1.8,1.4,3.2,3.2,3.2c1.8,0,3.2-1.4,3.2-3.2
				C-313,312.1-314.4,310.7-316.1,310.7z M-316.1,315.9c-1.1,0-2-0.9-2-2s0.9-2,2-2s2,0.9,2,2C-314.2,315-315.1,315.9-316.1,315.9z"
				/>
		</g>
		<g id="XMLID_2219_">
			<g id="XMLID_24_">
				<path id="XMLID_25_" d="M-318.4,298.3h-2.2c-0.3,0-0.6,0.3-0.6,0.6c0,0.3,0.3,0.6,0.6,0.6h1.6v3.2h-9.4v-3.2h6.3
					c0.3,0,0.6-0.3,0.6-0.6c0-0.3-0.3-0.6-0.6-0.6h-6.9c-0.3,0-0.6,0.3-0.6,0.6v4.4c0,0.3,0.3,0.6,0.6,0.6h10.7
					c0.3,0,0.6-0.3,0.6-0.6v-4.4C-317.8,298.5-318.1,298.3-318.4,298.3z"/>
			</g>
		</g>
		<g id="XMLID_2215_">
			<g id="XMLID_21_">
				<path id="XMLID_22_" d="M-323.8,303c-0.3,0-0.6,0.3-0.6,0.6v3.3c0,0.3,0.3,0.6,0.6,0.6c0.3,0,0.6-0.3,0.6-0.6v-3.3
					C-323.2,303.2-323.5,303-323.8,303z"/>
			</g>
		</g>
		<g id="XMLID_2211_">
			<g id="XMLID_18_">
				<path id="XMLID_19_" d="M-316,307.2h-15.1c-0.3,0-0.6,0.3-0.6,0.6v3c0,0.3,0.3,0.6,0.6,0.6c0.3,0,0.6-0.3,0.6-0.6v-2.4h13.9v2.1
					c0,0.3,0.3,0.6,0.6,0.6c0.3,0,0.6-0.3,0.6-0.6v-2.7C-315.4,307.5-315.7,307.2-316,307.2z"/>
			</g>
		</g>
	</g>
</g>
</svg>
