<?xml version="1.0" encoding="utf-8"?>
<!-- Generator: Adobe Illustrator 19.0.0, SVG Export Plug-In . SVG Version: 6.00 Build 0)  -->
<svg version="1.1" id="Digital_Marketing" xmlns="http://www.w3.org/2000/svg" xmlns:xlink="http://www.w3.org/1999/xlink" x="0px"
	 y="0px" viewBox="-375.2 262.8 90 71.4" style="enable-background:new -375.2 262.8 90 71.4;" xml:space="preserve">
<style type="text/css">
	.st0{fill:#D2E9F7;}
	.st1{fill:#E5F6FC;}
	.st2{fill:#7094A8;}
	.st3{fill:#C9EBF9;}
	.st4{fill:#AED0E1;}
	.st5{fill:#FFFFFF;}
	.st6{fill:#A5DEF6;}
	.st7{fill:#7194A8;}
	.st8{fill:#7397AA;}
	.st9{fill:#7194A9;}
</style>
<g id="XMLID_1328_">
	<g id="XMLID_1557_">
		<g id="XMLID_1558_">
			<path id="XMLID_1324_" class="st0" d="M-290,310.6L-290,310.6L-290,310.6z"/>
			<path id="XMLID_1322_" class="st1" d="M-288.2,320.2h-5h-9.2c-1.8,0-3.2-1.4-3.2-3.2l0,0c0-1.8,1.5-3.2,3.2-3.2h9.1l0,0
				c1.8,0,3.2-1.4,3.2-3.2c0-1.8-1.4-3.2-3.2-3.2l0,0h-2.7c-1.8,0-3.2-1.4-3.2-3.2l0,0c0-1.8,1.5-3.2,3.2-3.2h2.7h3.8
				c1.8,0,3.2-1.4,3.2-3.2l0,0c0-1.8-1.4-3.2-3.2-3.2h-6.2c-1.2-6.3-4.2-12.3-9.1-17.1c-11.9-12.2-31-13-44-2.5l-10.9-0.2
				c-1.8,0-3.2,1.4-3.3,3.2c0,0.4,0.1,0.8,0.2,1.1c0.4,1.2,1.6,2.1,3,2.2l5.6,0.1c1.8,0,3.2,1.5,3.2,3.3l0,0c0,1.8-1.5,3.2-3.3,3.2
				l-8.6-0.1l-9-0.1c-1.8,0-3.2,1.4-3.3,3.2c0,1.8,1.4,3.2,3.2,3.3l9,0.1h2.2c1.8,0,3.2,1.5,3.2,3.3c0,1.8-1.5,3.2-3.3,3.2h-2.2
				h-1.2c-1.8,0-3.2,1.4-3.3,3.2c0,1.8,1.4,3.2,3.2,3.3l3.7,0.1c1.2,6.3,4.2,12.2,9.1,17.1c12,12,30.9,12.8,43.8,2.6h19.4
				c1.8,0,3.2-1.4,3.2-3.2l0,0C-285,321.7-286.4,320.2-288.2,320.2z"/>
		</g>
	</g>
	<g id="XMLID_1468_">
		<g id="XMLID_1555_">
			<path id="XMLID_1319_" class="st2" d="M-331.1,329.6h-4.3c-0.2,0-0.4,0.2-0.4,0.4c0,0.2,0.2,0.4,0.4,0.4h4.3
				c0.2,0,0.4-0.2,0.4-0.4S-330.9,329.6-331.1,329.6z"/>
		</g>
		<g id="XMLID_1553_">
			<path id="XMLID_1317_" class="st2" d="M-337.5,329.6h-7.9c-0.2,0-0.4,0.2-0.4,0.4c0,0.2,0.2,0.4,0.4,0.4h7.9
				c0.2,0,0.4-0.2,0.4-0.4S-337.3,329.6-337.5,329.6z"/>
		</g>
		<g id="XMLID_1551_">
			<path id="XMLID_1315_" class="st2" d="M-357.5,302.5h-2.9c-0.2,0-0.4,0.2-0.4,0.4c0,0.2,0.2,0.4,0.4,0.4h2.9
				c0.2,0,0.4-0.2,0.4-0.4C-357.1,302.7-357.3,302.5-357.5,302.5z"/>
		</g>
		<g id="XMLID_1549_">
			<path id="XMLID_1312_" class="st2" d="M-362.5,302.5h-7.9c-0.2,0-0.4,0.2-0.4,0.4c0,0.2,0.2,0.4,0.4,0.4h7.9
				c0.2,0,0.4-0.2,0.4-0.4C-362.1,302.7-362.3,302.5-362.5,302.5z"/>
		</g>
		<g id="XMLID_1547_">
			<path id="XMLID_1310_" class="st2" d="M-360.7,300.3h-5.7c-0.2,0-0.4,0.2-0.4,0.4c0,0.2,0.2,0.4,0.4,0.4h5.7
				c0.2,0,0.4-0.2,0.4-0.4C-360.3,300.5-360.5,300.3-360.7,300.3z"/>
		</g>
		<g id="XMLID_1545_">
			<path id="XMLID_1308_" class="st2" d="M-321.4,331.8h-17.5c-0.2,0-0.4,0.2-0.4,0.4c0,0.2,0.2,0.4,0.4,0.4h17.5
				c0.2,0,0.4-0.2,0.4-0.4C-321,332-321.2,331.8-321.4,331.8z"/>
		</g>
		<g id="XMLID_1543_">
			<path id="XMLID_1306_" class="st2" d="M-341.8,331.8h-1.4c-0.2,0-0.4,0.2-0.4,0.4c0,0.2,0.2,0.4,0.4,0.4h1.4
				c0.2,0,0.4-0.2,0.4-0.4C-341.4,332-341.6,331.8-341.8,331.8z"/>
		</g>
		<g id="XMLID_1526_">
			<g id="XMLID_1541_">
				<path id="XMLID_1304_" class="st2" d="M-318.2,266h-1.1c-0.2,0-0.4,0.2-0.4,0.4c0,0.2,0.2,0.4,0.4,0.4h1.1
					c0.2,0,0.4-0.2,0.4-0.4C-317.8,266.2-318,266-318.2,266z"/>
			</g>
			<g id="XMLID_1539_">
				<path id="XMLID_1298_" class="st2" d="M-323.6,266h-1.1c-0.2,0-0.4,0.2-0.4,0.4c0,0.2,0.2,0.4,0.4,0.4h1.1
					c0.2,0,0.4-0.2,0.4-0.4C-323.2,266.2-323.4,266-323.6,266z"/>
			</g>
			<g id="XMLID_1537_">
				<path id="XMLID_1294_" class="st2" d="M-319.4,263.9l-0.8,0.8c-0.1,0.1-0.1,0.4,0,0.5s0.2,0.1,0.3,0.1c0.1,0,0.2,0,0.3-0.1
					l0.8-0.8c0.1-0.1,0.1-0.4,0-0.5C-319,263.7-319.2,263.7-319.4,263.9z"/>
			</g>
			<g id="XMLID_1535_">
				<path id="XMLID_1290_" class="st2" d="M-323.2,267.6l-0.8,0.8c-0.1,0.1-0.1,0.4,0,0.5c0.1,0.1,0.2,0.1,0.3,0.1s0.2,0,0.3-0.1
					l0.8-0.8c0.1-0.1,0.1-0.4,0-0.5C-322.8,267.5-323,267.5-323.2,267.6z"/>
			</g>
			<g id="XMLID_1533_">
				<path id="XMLID_1288_" class="st2" d="M-321.4,262.8c-0.2,0-0.4,0.2-0.4,0.4v1.1c0,0.2,0.2,0.4,0.4,0.4c0.2,0,0.4-0.2,0.4-0.4
					v-1.1C-321.1,263-321.2,262.8-321.4,262.8z"/>
			</g>
			<g id="XMLID_1531_">
				<path id="XMLID_1282_" class="st2" d="M-321.4,268.2c-0.2,0-0.4,0.2-0.4,0.4v1.1c0,0.2,0.2,0.4,0.4,0.4c0.2,0,0.4-0.2,0.4-0.4
					v-1.2C-321.1,268.3-321.2,268.2-321.4,268.2z"/>
			</g>
			<g id="XMLID_1529_">
				<path id="XMLID_1277_" class="st2" d="M-323.4,263.9c-0.1-0.1-0.4-0.1-0.5,0c-0.1,0.1-0.1,0.4,0,0.5l0.8,0.8
					c0.1,0.1,0.2,0.1,0.3,0.1s0.2,0,0.3-0.1c0.1-0.1,0.1-0.4,0-0.5L-323.4,263.9z"/>
			</g>
			<g id="XMLID_1527_">
				<path id="XMLID_1273_" class="st2" d="M-319.6,267.6c-0.1-0.1-0.4-0.1-0.5,0c-0.1,0.1-0.1,0.4,0,0.5l0.8,0.8
					c0.1,0.1,0.2,0.1,0.3,0.1c0.1,0,0.2,0,0.3-0.1s0.1-0.4,0-0.5L-319.6,267.6z"/>
			</g>
		</g>
		<g id="XMLID_1509_">
			<g id="XMLID_1524_">
				<path id="XMLID_1271_" class="st2" d="M-285.7,318.9h-1.1c-0.2,0-0.4,0.2-0.4,0.4s0.2,0.4,0.4,0.4h1.1c0.2,0,0.4-0.2,0.4-0.4
					S-285.5,318.9-285.7,318.9z"/>
			</g>
			<g id="XMLID_1522_">
				<path id="XMLID_1265_" class="st2" d="M-291.1,318.9h-1.1c-0.2,0-0.4,0.2-0.4,0.4s0.2,0.4,0.4,0.4h1.1c0.2,0,0.4-0.2,0.4-0.4
					S-290.9,318.9-291.1,318.9z"/>
			</g>
			<g id="XMLID_1520_">
				<path id="XMLID_1261_" class="st2" d="M-286.9,316.7l-0.8,0.8c-0.1,0.1-0.1,0.4,0,0.5c0.1,0.1,0.2,0.1,0.3,0.1s0.2,0,0.3-0.1
					l0.8-0.8c0.1-0.1,0.1-0.4,0-0.5C-286.5,316.6-286.7,316.6-286.9,316.7z"/>
			</g>
			<g id="XMLID_1518_">
				<path id="XMLID_1257_" class="st2" d="M-290.6,320.5l-0.8,0.8c-0.1,0.1-0.1,0.4,0,0.5c0.1,0.1,0.2,0.1,0.3,0.1s0.2,0,0.3-0.1
					l0.8-0.8c0.1-0.1,0.1-0.4,0-0.5C-290.3,320.4-290.5,320.4-290.6,320.5z"/>
			</g>
			<g id="XMLID_1516_">
				<path id="XMLID_1252_" class="st2" d="M-288.9,315.7c-0.2,0-0.4,0.2-0.4,0.4v1.1c0,0.2,0.2,0.4,0.4,0.4c0.2,0,0.4-0.2,0.4-0.4
					v-1.1C-288.6,315.8-288.7,315.7-288.9,315.7z"/>
			</g>
			<g id="XMLID_1514_">
				<path id="XMLID_1250_" class="st2" d="M-288.9,321c-0.2,0-0.4,0.2-0.4,0.4v1.1c0,0.2,0.2,0.4,0.4,0.4c0.2,0,0.4-0.2,0.4-0.4
					v-1.1C-288.6,321.2-288.7,321-288.9,321z"/>
			</g>
			<g id="XMLID_1512_">
				<path id="XMLID_1237_" class="st2" d="M-290.9,316.7c-0.1-0.1-0.4-0.1-0.5,0c-0.1,0.1-0.1,0.4,0,0.5l0.8,0.8
					c0.1,0.1,0.2,0.1,0.3,0.1s0.2,0,0.3-0.1c0.1-0.1,0.1-0.4,0-0.5L-290.9,316.7z"/>
			</g>
			<g id="XMLID_1510_">
				<path id="XMLID_1228_" class="st2" d="M-287.1,320.5c-0.1-0.1-0.4-0.1-0.5,0c-0.1,0.1-0.1,0.4,0,0.5l0.8,0.8
					c0.1,0.1,0.2,0.1,0.3,0.1s0.2,0,0.3-0.1s0.1-0.4,0-0.5L-287.1,320.5z"/>
			</g>
		</g>
		<g id="XMLID_1505_">
			<path id="XMLID_1506_" class="st2" d="M-289.4,290.5l-0.8-0.4c-0.4-0.2-0.7-0.5-0.9-0.9l-0.4-0.8c-0.1-0.1-0.2-0.2-0.3-0.2
				s-0.3,0.1-0.3,0.2l-0.4,0.8c-0.2,0.4-0.5,0.7-0.9,0.9l-0.8,0.4c-0.1,0.1-0.2,0.2-0.2,0.3s0.1,0.3,0.2,0.3l0.8,0.4
				c0.4,0.2,0.7,0.5,0.9,0.9l0.4,0.8c0.1,0.1,0.2,0.2,0.3,0.2s0.3-0.1,0.3-0.2l0.4-0.8c0.2-0.4,0.5-0.7,0.9-0.9l0.8-0.4
				c0.1-0.1,0.2-0.2,0.2-0.3C-289.3,290.7-289.3,290.6-289.4,290.5z M-290.6,290.9c-0.5,0.3-0.9,0.7-1.1,1.1l-0.2,0.3l-0.1-0.2
				c-0.3-0.5-0.7-0.9-1.1-1.1l-0.2-0.1l0.2-0.1c0.5-0.3,0.9-0.7,1.1-1.1l0.1-0.2l0.1,0.2c0.3,0.5,0.7,0.9,1.1,1.1L-290.6,290.9
				L-290.6,290.9z"/>
		</g>
		<g id="XMLID_1501_">
			<path id="XMLID_1502_" class="st2" d="M-354.7,324.1l-0.8-0.4c-0.4-0.2-0.7-0.5-0.9-0.9l-0.4-0.8c-0.1-0.1-0.2-0.2-0.3-0.2
				s-0.3,0.1-0.3,0.2l-0.4,0.8c-0.2,0.4-0.5,0.7-0.9,0.9l-0.8,0.4c-0.1,0.1-0.2,0.2-0.2,0.3s0.1,0.3,0.2,0.3l0.8,0.4
				c0.4,0.2,0.7,0.5,0.9,0.9l0.4,0.8c0.1,0.1,0.2,0.2,0.3,0.2s0.3-0.1,0.3-0.2l0.4-0.8c0.2-0.4,0.5-0.7,0.9-0.9l0.8-0.4
				c0.1-0.1,0.2-0.2,0.2-0.3S-354.6,324.2-354.7,324.1z M-355.9,324.6c-0.5,0.3-0.9,0.7-1.1,1.1l-0.1,0.2l-0.1-0.2
				c-0.3-0.5-0.7-0.9-1.1-1.1l-0.2-0.1l0.2-0.1c0.5-0.3,0.9-0.7,1.1-1.1l0.1-0.2l0.1,0.2c0.3,0.5,0.7,0.9,1.1,1.1l0.2,0.1
				L-355.9,324.6z"/>
		</g>
		<g id="XMLID_1492_">
			<g id="XMLID_1499_">
				<path id="XMLID_1188_" class="st2" d="M-306.4,326.8h-0.7c-0.2,0-0.4,0.2-0.4,0.4c0,0.2,0.2,0.4,0.4,0.4h0.7
					c0.2,0,0.4-0.2,0.4-0.4C-306,327-306.2,326.8-306.4,326.8z"/>
			</g>
			<g id="XMLID_1497_">
				<path id="XMLID_1178_" class="st2" d="M-310,326.8h-0.7c-0.2,0-0.4,0.2-0.4,0.4c0,0.2,0.2,0.4,0.4,0.4h0.7
					c0.2,0,0.4-0.2,0.4-0.4C-309.6,327-309.8,326.8-310,326.8z"/>
			</g>
			<g id="XMLID_1495_">
				<path id="XMLID_1171_" class="st2" d="M-308.6,324.6c-0.2,0-0.4,0.2-0.4,0.4v0.7c0,0.2,0.2,0.4,0.4,0.4c0.2,0,0.4-0.2,0.4-0.4
					V325C-308.2,324.8-308.4,324.6-308.6,324.6z"/>
			</g>
			<g id="XMLID_1493_">
				<path id="XMLID_1163_" class="st2" d="M-308.6,328.2c-0.2,0-0.4,0.2-0.4,0.4v0.7c0,0.2,0.2,0.4,0.4,0.4c0.2,0,0.4-0.2,0.4-0.4
					v-0.7C-308.2,328.3-308.4,328.2-308.6,328.2z"/>
			</g>
		</g>
		<g id="XMLID_1483_">
			<g id="XMLID_1490_">
				<path id="XMLID_1153_" class="st2" d="M-357.5,279.2h-0.7c-0.2,0-0.4,0.2-0.4,0.4c0,0.2,0.2,0.4,0.4,0.4h0.7
					c0.2,0,0.4-0.2,0.4-0.4C-357.1,279.4-357.3,279.2-357.5,279.2z"/>
			</g>
			<g id="XMLID_1488_">
				<path id="XMLID_1147_" class="st2" d="M-361.1,279.2h-0.7c-0.2,0-0.4,0.2-0.4,0.4c0,0.2,0.2,0.4,0.4,0.4h0.7
					c0.2,0,0.4-0.2,0.4-0.4C-360.7,279.4-360.9,279.2-361.1,279.2z"/>
			</g>
			<g id="XMLID_1486_">
				<path id="XMLID_1138_" class="st2" d="M-359.6,277.1c-0.2,0-0.4,0.2-0.4,0.4v0.7c0,0.2,0.2,0.4,0.4,0.4c0.2,0,0.4-0.2,0.4-0.4
					v-0.7C-359.3,277.3-359.4,277.1-359.6,277.1z"/>
			</g>
			<g id="XMLID_1484_">
				<path id="XMLID_1131_" class="st2" d="M-359.6,280.7c-0.2,0-0.4,0.2-0.4,0.4v0.7c0,0.2,0.2,0.4,0.4,0.4c0.2,0,0.4-0.2,0.4-0.4
					v-0.7C-359.3,280.8-359.4,280.7-359.6,280.7z"/>
			</g>
		</g>
		<g id="XMLID_1481_">
			<path id="XMLID_1117_" class="st2" d="M-295.7,271.7h-3.6c-0.2,0-0.4,0.2-0.4,0.4c0,0.2,0.2,0.4,0.4,0.4h3.6
				c0.2,0,0.4-0.2,0.4-0.4C-295.3,271.9-295.5,271.7-295.7,271.7z"/>
		</g>
		<g id="XMLID_1479_">
			<path id="XMLID_1109_" class="st2" d="M-300.3,274.2h-11.5c-0.2,0-0.4,0.2-0.4,0.4c0,0.2,0.2,0.4,0.4,0.4h11.4
				c0.2,0,0.4-0.2,0.4-0.4C-300,274.4-300.1,274.2-300.3,274.2z"/>
		</g>
		<g id="XMLID_1477_">
			<path id="XMLID_1097_" class="st2" d="M-307.5,276.7h-2.9c-0.2,0-0.4,0.2-0.4,0.4c0,0.2,0.2,0.4,0.4,0.4h2.9
				c0.2,0,0.4-0.2,0.4-0.4C-307.1,276.9-307.3,276.7-307.5,276.7z"/>
		</g>
		<g id="XMLID_1475_">
			<path id="XMLID_1087_" class="st2" d="M-298.2,276.7h-6.4c-0.2,0-0.4,0.2-0.4,0.4c0,0.2,0.2,0.4,0.4,0.4h6.4
				c0.2,0,0.4-0.2,0.4-0.4C-297.8,276.9-298,276.7-298.2,276.7z"/>
		</g>
		<g id="XMLID_1473_">
			<path id="XMLID_1079_" class="st2" d="M-334.6,269.6h-18.6c-0.2,0-0.4,0.2-0.4,0.4c0,0.2,0.2,0.3,0.4,0.3h18.6
				c0.2,0,0.4-0.2,0.4-0.4C-334.2,269.7-334.4,269.6-334.6,269.6z"/>
		</g>
		<g id="XMLID_1471_">
			<path id="XMLID_1070_" class="st2" d="M-338.2,267.1h-6.4c-0.2,0-0.4,0.2-0.4,0.4c0,0.2,0.2,0.4,0.4,0.4h6.4
				c0.2,0,0.4-0.2,0.4-0.4C-337.8,267.3-338,267.1-338.2,267.1z"/>
		</g>
		<g id="XMLID_1469_">
			<path id="XMLID_1059_" class="st2" d="M-348.2,267.1h-2.1c-0.2,0-0.4,0.2-0.4,0.4c0,0.2,0.2,0.4,0.4,0.4h2.1
				c0.2,0,0.4-0.2,0.4-0.4C-347.8,267.3-348,267.1-348.2,267.1z"/>
		</g>
	</g>
	<g id="XMLID_1331_">
		<g id="XMLID_1466_">
			<path id="XMLID_1053_" class="st3" d="M-352.5,317.2c0,0,13.2,4.3,22.1,7v-31.8l-22.1-6.6C-352.5,285.8-352.5,317.2-352.5,317.2z
				"/>
		</g>
		<g id="XMLID_1464_">
			<path id="XMLID_1044_" class="st3" d="M-325,323.9c9.3-2.7,22.1-7,22.1-7v-31.5L-325,292V323.9z"/>
		</g>
		<g id="XMLID_1462_">
			<rect id="XMLID_1039_" x="-329" y="293" class="st3" width="2.6" height="31.6"/>
		</g>
		<g id="XMLID_1460_">
			<rect id="XMLID_1027_" x="-332.8" y="292.1" class="st3" width="2.6" height="31.6"/>
		</g>
		<g id="XMLID_1458_">
			<rect id="XMLID_1022_" x="-305.2" y="285.8" class="st3" width="2.6" height="31.6"/>
		</g>
		<g id="XMLID_1456_">
			<rect id="XMLID_1010_" x="-328.1" y="293.2" class="st3" width="1.7" height="31.3"/>
		</g>
		<g id="XMLID_1454_">
			<path id="XMLID_999_" class="st4" d="M-330.4,319.3L-330.4,319.3l-0.1,2.3l0.1,0.1c1.2,0.8,2.7,0.9,4,0.1l0.2-0.1v-2.3l-0.2-0.1
				C-327.7,320.1-329.2,320.1-330.4,319.3z"/>
		</g>
		<g id="XMLID_1452_">
			<path id="XMLID_994_" class="st4" d="M-330.4,296.6L-330.4,296.6l-0.1,2.3l0.1,0.1c1.2,0.8,2.7,0.9,4,0.1l0.2-0.1v-2.3l-0.2,0.1
				C-327.7,297.5-329.2,297.5-330.4,296.6z"/>
		</g>
		<g id="XMLID_1450_">
			<path id="XMLID_981_" class="st4" d="M-330.4,311L-330.4,311l-0.1,5.1l0.1,0.1c1.2,0.8,2.7,0.9,4,0.1l0.2-0.1V311l-0.2,0.1
				C-327.7,311.9-329.2,311.8-330.4,311z"/>
		</g>
		<g id="XMLID_1448_">
			<polygon id="XMLID_972_" class="st5" points="-349.9,283.8 -352.3,285.5 -328.6,292.6 -329.2,291.2 			"/>
		</g>
		<g id="XMLID_1444_">
			<polygon id="XMLID_954_" class="st5" points="-326.1,291 -325.9,291.8 -304.7,285.5 -307,283.8 			"/>
		</g>
		<g id="XMLID_1438_">
			<path id="XMLID_1439_" class="st2" d="M-330.1,291.7l-23.6-6.9c-0.2-0.1-0.4,0-0.6,0.1c-0.2,0.1-0.3,0.3-0.3,0.6v31.4
				c0,0.3,0.2,0.6,0.5,0.7c0.1,0,14.8,4.7,23.6,7.4c0.1,0,0.1,0,0.2,0c0.2,0,0.3,0,0.4-0.1c0.2-0.1,0.3-0.3,0.3-0.6v-31.9
				C-329.6,292.1-329.8,291.8-330.1,291.7z M-331.1,323.3c-7.9-2.4-19.6-6.1-22.1-6.9v-30l22.1,6.5V323.3z"/>
		</g>
		<g id="XMLID_1436_">
			<path id="XMLID_919_" class="st1" d="M-322.1,301.8c5.7-0.8,15-4.4,15-4.4v-6.2l-15,4.3V301.8z"/>
		</g>
		<g id="XMLID_1434_">
			<path id="XMLID_915_" class="st1" d="M-350,315.3c0,0,9.3,2.8,15,4.4v-2.1l-15-4.3V315.3z"/>
		</g>
		<g id="XMLID_1428_">
			<path id="XMLID_1429_" class="st2" d="M-302.4,284.9c-0.2-0.1-0.4-0.2-0.6-0.1l-23.6,6.9c-0.3,0.1-0.5,0.4-0.5,0.7v31.9
				c0,0.2,0.1,0.4,0.3,0.6c0.1,0.1,0.3,0.1,0.4,0.1c0.1,0,0.1,0,0.2,0c9.2-2.7,23.5-7.3,23.6-7.4c0.3-0.1,0.5-0.4,0.5-0.7v-31.5
				C-302.1,285.2-302.2,285-302.4,284.9z M-303.6,316.4c-2.5,0.8-14,4.6-22.1,6.9v-30.4l22.1-6.5V316.4z"/>
		</g>
		<g id="XMLID_1424_">
			<path id="XMLID_1425_" class="st2" d="M-306.7,290.6c-0.2-0.1-0.4-0.2-0.6-0.1l-15,4.3c-0.3,0.1-0.5,0.4-0.5,0.7v6.4
				c0,0.2,0.1,0.4,0.3,0.6c0.1,0.1,0.3,0.1,0.4,0.1s0.1,0,0.2,0c6.1-1.6,15-4.4,15-4.5c0.3-0.1,0.5-0.4,0.5-0.7v-6.2
				C-306.4,290.9-306.5,290.7-306.7,290.6z M-307.8,296.9c-1.8,0.6-8.4,2.6-13.6,4V296l13.6-3.9V296.9z"/>
		</g>
		<g id="XMLID_1422_">
			<path id="XMLID_867_" class="st6" d="M-323,279.6c-3-0.6-5.2-0.7-5.8-1.4c-0.6-0.7-2.7-3.3-2.7-3.3s-1.8,2-1.5,3.4
				c0.2,1.4-0.4,1.5-0.4,1.5s-2.6-0.1-3.2-1.8c0,0-1.3-0.2-1.4,1.7c-0.1,1.9-0.1,2.6-0.1,2.6s-3.5,2.2-4.2,4.2
				c0,0,12.4,3.3,14.7,5.3l8.5-3.5l5.6-2C-313.5,286.4-317.3,280.7-323,279.6z"/>
		</g>
		<g id="XMLID_1414_">
			<path id="XMLID_836_" class="st2" d="M-325.8,291.6c-0.3-0.2-0.8-0.1-1,0.2c-0.3,0.4-0.8,0.6-1.3,0.7c-0.3,0-1,0-1.5-0.6
				c-0.3-0.3-0.7-0.3-1,0c-0.3,0.3-0.3,0.7,0,1c0.6,0.7,1.5,1.1,2.4,1.1c0.1,0,0.2,0,0.2,0c1-0.1,1.9-0.6,2.4-1.3
				C-325.4,292.3-325.5,291.9-325.8,291.6z"/>
		</g>
		<g id="XMLID_1412_">
			<path id="XMLID_833_" class="st7" d="M-326.8,296.3c-0.7,0.6-2.5,0.5-3.1,0c-0.2-0.1-0.4-0.1-0.5,0.1c-0.1,0.2-0.1,0.4,0.1,0.5
				c0.4,0.3,1.2,0.5,2,0.5c0.8,0,1.5-0.2,2-0.6c0.1-0.1,0.2-0.4,0-0.5C-326.4,296.2-326.6,296.2-326.8,296.3z"/>
		</g>
		<g id="XMLID_1410_">
			<path id="XMLID_831_" class="st7" d="M-326.8,299.2c-0.7,0.6-2.5,0.5-3.1,0c-0.2-0.1-0.4-0.1-0.5,0.1c-0.1,0.2-0.1,0.4,0.1,0.5
				c0.4,0.3,1.2,0.5,2,0.5c0.8,0,1.5-0.2,2-0.6c0.1-0.1,0.2-0.4,0-0.5C-326.4,299-326.6,299-326.8,299.2z"/>
		</g>
		<g id="XMLID_1406_">
			<path id="XMLID_829_" class="st7" d="M-326.8,310.6c-0.7,0.6-2.5,0.5-3.1,0c-0.2-0.1-0.4-0.1-0.5,0.1c-0.1,0.2-0.1,0.4,0.1,0.5
				c0.4,0.3,1.2,0.5,2,0.5c0.8,0,1.5-0.2,2-0.6c0.1-0.1,0.2-0.4,0-0.5C-326.4,310.5-326.6,310.5-326.8,310.6z"/>
		</g>
		<g id="XMLID_1402_">
			<path id="XMLID_828_" class="st7" d="M-326.8,316.3c-0.7,0.6-2.5,0.5-3.1,0c-0.2-0.1-0.4-0.1-0.5,0.1c-0.1,0.2-0.1,0.4,0.1,0.5
				c0.4,0.3,1.2,0.5,2,0.5c0.8,0,1.5-0.2,2-0.6c0.1-0.1,0.2-0.4,0-0.5C-326.4,316.2-326.6,316.2-326.8,316.3z"/>
		</g>
		<g id="XMLID_1397_">
			<path id="XMLID_825_" class="st7" d="M-326.8,319.2c-0.7,0.6-2.5,0.5-3.1,0c-0.2-0.1-0.4-0.1-0.5,0.1c-0.1,0.2-0.1,0.4,0.1,0.5
				c0.4,0.3,1.2,0.5,2,0.5c0.8,0,1.5-0.2,2-0.6c0.1-0.1,0.2-0.4,0-0.5C-326.4,319.1-326.6,319-326.8,319.2z"/>
		</g>
		<g id="XMLID_1393_">
			<path id="XMLID_821_" class="st7" d="M-326.8,321.7c-0.7,0.6-2.5,0.5-3.1,0c-0.2-0.1-0.4-0.1-0.5,0.1c-0.1,0.2-0.1,0.4,0.1,0.5
				c0.4,0.3,1.2,0.5,2,0.5c0.8,0,1.5-0.2,2-0.6c0.1-0.1,0.2-0.4,0-0.5C-326.4,321.6-326.6,321.5-326.8,321.7z"/>
		</g>
		<g id="XMLID_1389_">
			<path id="XMLID_819_" class="st0" d="M-322.7,285.9c-2.2,0-3.8,1.1-5.4,1s-3.6-1.3-5.6-1.1c-2.1,0.3-3.2,1.6-3.2,1.6
				s0.4,0.5,3.8,2s4.5,2.6,5.5,2.4c1.1-0.2,8.5-3.5,8.5-3.5S-320.5,285.9-322.7,285.9z"/>
		</g>
		<g id="XMLID_1385_">
			<path id="XMLID_790_" class="st2" d="M-327.1,324c-0.8,0.4-1.8,0.5-2.6,0.1c-0.4-0.2-0.8,0-1,0.3c-0.2,0.4,0,0.8,0.3,1
				c0.6,0.3,1.2,0.4,1.9,0.4c0.7,0,1.4-0.2,2-0.5c0.3-0.2,0.5-0.6,0.3-1C-326.3,323.9-326.7,323.8-327.1,324z"/>
		</g>
		<g id="XMLID_1380_">
			<path id="XMLID_787_" class="st8" d="M-303.9,285.1c-0.5-0.4-1.8-1.6-2.5-2.3c-0.2-0.2-0.5-0.3-0.8-0.2c-1.7,0.7-3.3,1.3-4.8,2
				c-1.6,0.6-3.2,1.3-4.8,2c-4.3,1.8-8.7,3.6-12.4,4.8c-0.4,0.1-0.6,0.5-0.5,0.9c0.1,0.3,0.4,0.5,0.7,0.5c0.1,0,0.1,0,0.2,0
				c3.8-1.2,8.3-3,12.6-4.8c1.7-0.7,3.3-1.3,4.8-2c1.4-0.6,2.9-1.2,4.4-1.8c0.7,0.7,1.8,1.6,2.2,2c0.3,0.3,0.7,0.2,1-0.1
				C-303.6,285.8-303.6,285.4-303.9,285.1z"/>
		</g>
		<g id="XMLID_1376_">
			<path id="XMLID_785_" class="st8" d="M-326.9,291.4c-0.9-0.3-1.9-0.8-2.8-1.2c-1-0.5-2-1-2.9-1.3c-3-1-5.8-2-8.6-2.9
				c-2.7-0.9-5.6-1.9-8.6-2.9c-0.2-0.1-0.5,0-0.7,0.1c-0.3,0.3-0.8,0.6-1.2,0.9c-0.4,0.3-0.8,0.6-1.2,0.9c-0.3,0.2-0.4,0.7-0.1,1
				c0.2,0.3,0.7,0.4,1,0.1c0.3-0.3,0.8-0.6,1.2-0.9c0.3-0.2,0.6-0.4,0.9-0.7c2.9,1,5.6,1.9,8.2,2.8c2.8,1,5.6,2,8.7,3
				c0.9,0.3,1.8,0.7,2.8,1.2c0.9,0.5,1.9,0.9,2.9,1.3c0.1,0,0.2,0,0.2,0c0.3,0,0.6-0.2,0.7-0.5C-326.3,292-326.5,291.6-326.9,291.4z
				"/>
		</g>
		<g id="XMLID_1372_">
			<path id="XMLID_784_" class="st1" d="M-303.3,299.3c-2.2,0-3.9,1.8-3.9,3.9c0,2.2,1.8,3.9,3.9,3.9c2.2,0,2.1-1.8,2.1-3.9
				C-301.2,301-301.2,299.3-303.3,299.3z"/>
		</g>
		<g id="XMLID_1368_">
			<path id="XMLID_781_" class="st1" d="M-302.9,299.3c-0.9,0-0.1,1.7-0.1,3.8c0,2.2-0.7,3.8,0.2,3.8s1.5-1.5,1.5-3.7
				C-301.3,301-302,299.3-302.9,299.3z"/>
		</g>
		<g id="XMLID_1363_">
			<path id="XMLID_779_" class="st1" d="M-353.4,299.3c-2.2,0-2.1,1.8-2.1,3.9c0,2.2,0,3.9,2.1,3.9c2.1,0,3.9-1.8,3.9-3.9
				C-349.4,301-351.2,299.3-353.4,299.3z"/>
		</g>
		<g id="XMLID_1359_">
			<path id="XMLID_778_" class="st1" d="M-351.6,300.2c-0.7,0,0.3,1,0.2,3.2c-0.1,2.1-1.1,3.1-0.4,3.1c0.7,0,2.1-1.3,2.1-3
				C-349.7,301.8-350.9,300.2-351.6,300.2z"/>
		</g>
		<g id="XMLID_1355_">
			<path id="XMLID_774_" class="st9" d="M-327.3,278.3c-0.1,0-0.1,0-0.2,0c-0.6-0.2-2.3-2.2-3.4-4c-0.1-0.2-0.3-0.3-0.4-0.3
				c-0.2,0-0.4,0-0.5,0.1c-2.2,1.4-2.6,3.4-2.2,5c-0.8-0.2-1.8-0.7-2.2-1.9c-0.1-0.2-0.3-0.4-0.5-0.5c-0.3-0.1-0.5,0-0.7,0.2
				c-1.7,2-1.4,3.7-1.3,4.5c0,0.1,0,0.1,0,0.2c-1.5,0.8-3.1,2.6-3.8,3.7c-0.2,0.3-0.1,0.8,0.2,1c0.1,0.1,0.3,0.1,0.4,0.1
				c0.2,0,0.5-0.1,0.6-0.3c0.7-1.1,2.3-2.8,3.4-3.3c0.8-0.3,0.6-1.2,0.6-1.7c-0.1-0.6-0.3-1.4,0.3-2.5c0.5,0.6,1.1,1.1,1.6,1.3
				c0.9,0.5,2,0.6,2.6,0.4c0.2-0.1,0.4-0.2,0.4-0.4c0.1-0.2,0.1-0.4,0-0.6c-0.4-0.7-1-2.4,0.7-3.8c0.5,0.7,1.1,1.5,1.7,2.2
				c1.2,1.4,2,1.9,2.7,1.7c5,0,9.9,2.5,12.8,6.4c0.2,0.3,0.7,0.4,1,0.2c0.3-0.2,0.4-0.7,0.2-1C-316.4,281-321.8,278.3-327.3,278.3z"
				/>
		</g>
		<g id="XMLID_1351_">
			<path id="XMLID_772_" class="st9" d="M-318.7,287.4c-2.3-2-4.7-2.6-7.1-1.8c-1.8,0.6-3.8,0.2-5.8-0.3c-0.2,0-0.3-0.1-0.5-0.1
				c-2.5-0.5-3.4,0.1-4.9,1.1c-0.3,0.2-0.6,0.4-0.9,0.6c-0.3,0.2-0.4,0.7-0.2,1c0.2,0.3,0.7,0.4,1,0.2c0.4-0.2,0.7-0.4,0.9-0.6
				c1.4-1,1.9-1.3,3.7-0.9c0.1,0,0.3,0.1,0.5,0.1c2.1,0.4,4.4,0.9,6.6,0.2c2-0.7,3.8-0.2,5.7,1.5c0.1,0.1,0.3,0.2,0.5,0.2
				s0.4-0.1,0.5-0.2C-318.3,288.1-318.4,287.7-318.7,287.4z"/>
		</g>
		<g id="XMLID_1342_">
			<path id="XMLID_1344_" class="st2" d="M-303.3,298.5c-2.6,0-4.6,2.1-4.6,4.6s2.1,4.6,4.6,4.6c1.3,0,2.2-0.5,2.6-1.6
				c0.3-0.8,0.3-1.9,0.3-3v-0.2c0-1.1,0-2.2-0.3-3C-301.2,299.1-302.1,298.5-303.3,298.5z M-301.9,303.3c0,1,0,1.9-0.2,2.5
				c-0.1,0.3-0.3,0.7-1.2,0.7c-1.8,0-3.2-1.4-3.2-3.2s1.4-3.2,3.2-3.2c0.9,0,1.1,0.3,1.2,0.7C-301.9,301.4-301.9,302.3-301.9,303.3
				L-301.9,303.3z"/>
		</g>
		<g id="XMLID_1333_">
			<path id="XMLID_1335_" class="st2" d="M-353.4,298.5c-1.3,0-2.1,0.5-2.5,1.6c-0.3,0.8-0.3,1.9-0.3,3v0.2c0,1.1,0,2.2,0.3,3
				c0.4,1.1,1.2,1.6,2.5,1.6c2.6,0,4.6-2.1,4.6-4.6S-350.8,298.5-353.4,298.5z M-353.4,306.4c-0.9,0-1.1-0.3-1.2-0.7
				c-0.2-0.6-0.2-1.5-0.2-2.5V303c0-1,0-1.9,0.2-2.5c0.1-0.3,0.3-0.7,1.2-0.7c1.8,0,3.2,1.4,3.2,3.2
				C-350.2,304.8-351.6,306.4-353.4,306.4z"/>
		</g>
	</g>
</g>
</svg>
