<?xml version="1.0" encoding="utf-8"?>
<!-- Generator: Adobe Illustrator 19.0.0, SVG Export Plug-In . SVG Version: 6.00 Build 0)  -->
<svg version="1.1" id="Digital_Marketing" xmlns="http://www.w3.org/2000/svg" xmlns:xlink="http://www.w3.org/1999/xlink" x="0px"
	 y="0px" viewBox="-381.7 271.1 74.7 54.3" style="enable-background:new -381.7 271.1 74.7 54.3;" xml:space="preserve">
<style type="text/css">
	.st0{fill:#D9EDF8;}
	.st1{fill:#263137;}
	.st2{fill:#D2E9F7;}
	.st3{fill:#ABD7F2;}
	.st4{fill:#253238;}
	.st5{fill:#FFFFFF;}
	.st6{fill:#D9ECFA;}
	.st7{fill:#86D1E4;}
</style>
<g id="XMLID_2027_">
	<g id="XMLID_2238_">
		<g id="XMLID_19_">
			<path id="XMLID_20_" class="st0" d="M-315.6,314.8h-3.8h-7c-1.3,0-2.4-1.1-2.4-2.4l0,0c0-1.3,1.1-2.4,2.4-2.4h7l0,0
				c1.4,0,2.4-1.1,2.4-2.4l0,0c0-1.3-1.1-2.4-2.4-2.4l0,0h-2.1c-1.3,0-2.4-1.1-2.4-2.4l0,0c0-1.3,1.1-2.4,2.4-2.4h2.1h2.9
				c1.3,0,2.5-1.1,2.5-2.4l0,0c0-1.3-1.1-2.4-2.5-2.4h-4.7c-0.9-4.8-3.2-9.3-6.9-13c-9.2-9.2-23.7-9.8-33.5-1.8l-8.3-0.1
				c-1.3,0-2.4,1.1-2.5,2.4l0,0c0,0.3,0,0.6,0.1,0.8c0.3,0.5,1.2,1.2,2.3,1.2l4.3,0.1c1.3,0,2.4,1.1,2.4,2.5l0,0
				c0,1.4-1.1,2.4-2.5,2.4l-6.6-0.1l-6.8-0.1c-1.3,0-2.5,1.1-2.5,2.4l0,0c0,1.3,1.1,2.5,2.4,2.5l6.8,0.1h1.7c1.3,0,2.4,1.1,2.4,2.5
				l0,0c0,1.3-1.1,2.4-2.5,2.4h-1.7h-0.9c-1.3,0-2.5,1.1-2.5,2.4l0,0c0,1.3,1.1,2.5,2.4,2.5h2.8c0.9,4.8,3.2,9.3,6.9,13
				c9.1,9.1,23.5,9.7,33.3,2h14.7c1.3,0,2.5-1.1,2.5-2.4l0,0C-313.2,315.8-314.3,314.8-315.6,314.8z"/>
		</g>
	</g>
	<g id="XMLID_2149_">
		<g id="XMLID_631_">
			<g id="XMLID_718_">
				<path id="XMLID_719_" class="st1" d="M-347.7,323.8h-3.3c-0.1,0-0.3-0.1-0.3-0.3c0-0.2,0.1-0.3,0.3-0.3h3.3
					c0.1,0,0.3,0.1,0.3,0.3C-347.4,323.7-347.5,323.8-347.7,323.8z"/>
			</g>
			<g id="XMLID_716_">
				<path id="XMLID_717_" class="st1" d="M-352.6,323.8h-6c-0.1,0-0.3-0.1-0.3-0.3c0-0.2,0.1-0.3,0.3-0.3h6c0.1,0,0.3,0.1,0.3,0.3
					C-352.3,323.7-352.4,323.8-352.6,323.8z"/>
			</g>
			<g id="XMLID_714_">
				<path id="XMLID_715_" class="st1" d="M-368.3,301.8h-2.2c-0.1,0-0.3-0.1-0.3-0.3c0-0.2,0.1-0.3,0.3-0.3h2.2
					c0.1,0,0.3,0.1,0.3,0.3C-368,301.7-368.2,301.8-368.3,301.8z"/>
			</g>
			<g id="XMLID_712_">
				<path id="XMLID_713_" class="st1" d="M-372.1,301.8h-6c-0.1,0-0.3-0.1-0.3-0.3c0-0.2,0.1-0.3,0.3-0.3h6c0.1,0,0.3,0.1,0.3,0.3
					C-371.8,301.7-372,301.8-372.1,301.8z"/>
			</g>
			<g id="XMLID_710_">
				<path id="XMLID_711_" class="st1" d="M-370.7,300.2h-4.4c-0.1,0-0.3-0.1-0.3-0.3c0-0.2,0.1-0.3,0.3-0.3h4.3
					c0.1,0,0.3,0.1,0.3,0.3C-370.5,300.1-370.6,300.2-370.7,300.2z"/>
			</g>
			<g id="XMLID_708_">
				<path id="XMLID_709_" class="st1" d="M-340.3,325.4h-13.3c-0.1,0-0.3-0.1-0.3-0.3s0.1-0.3,0.3-0.3h13.3c0.1,0,0.3,0.1,0.3,0.3
					S-340.2,325.4-340.3,325.4z"/>
			</g>
			<g id="XMLID_706_">
				<path id="XMLID_707_" class="st1" d="M-355.8,325.4h-1.1c-0.1,0-0.3-0.1-0.3-0.3s0.1-0.3,0.3-0.3h1.1c0.1,0,0.3,0.1,0.3,0.3
					S-355.7,325.4-355.8,325.4z"/>
			</g>
			<g id="XMLID_689_">
				<g id="XMLID_704_">
					<path id="XMLID_705_" class="st1" d="M-338.4,274.1h-0.8c-0.1,0-0.3-0.1-0.3-0.3c0-0.2,0.1-0.3,0.3-0.3h0.8
						c0.1,0,0.3,0.1,0.3,0.3C-338.1,274-338.3,274.1-338.4,274.1z"/>
				</g>
				<g id="XMLID_702_">
					<path id="XMLID_703_" class="st1" d="M-342.5,274.1h-0.8c-0.1,0-0.3-0.1-0.3-0.3c0-0.2,0.1-0.3,0.3-0.3h0.8
						c0.1,0,0.3,0.1,0.3,0.3C-342.2,274-342.4,274.1-342.5,274.1z"/>
				</g>
				<g id="XMLID_700_">
					<path id="XMLID_701_" class="st1" d="M-339.7,273c-0.1,0-0.1,0-0.2-0.1c-0.1-0.1-0.1-0.3,0-0.4l0.6-0.6c0.1-0.1,0.3-0.1,0.4,0
						c0.1,0.1,0.1,0.3,0,0.4l-0.6,0.6C-339.6,272.9-339.7,273-339.7,273z"/>
				</g>
				<g id="XMLID_698_">
					<path id="XMLID_699_" class="st1" d="M-342.6,275.8c-0.1,0-0.1,0-0.2-0.1c-0.1-0.1-0.1-0.3,0-0.4l0.6-0.6
						c0.1-0.1,0.3-0.1,0.4,0s0.1,0.3,0,0.4l-0.6,0.6C-342.5,275.8-342.5,275.8-342.6,275.8z"/>
				</g>
				<g id="XMLID_696_">
					<path id="XMLID_697_" class="st1" d="M-340.9,272.5c-0.1,0-0.3-0.1-0.3-0.3v-0.8c0-0.1,0.2-0.3,0.3-0.3c0.1,0,0.3,0.1,0.3,0.3
						v0.8C-340.6,272.4-340.7,272.5-340.9,272.5z"/>
				</g>
				<g id="XMLID_694_">
					<path id="XMLID_695_" class="st1" d="M-340.9,276.6c-0.1,0-0.3-0.1-0.3-0.3v-0.8c0-0.1,0.1-0.3,0.3-0.3c0.2,0,0.3,0.1,0.3,0.3
						v0.8C-340.6,276.4-340.7,276.6-340.9,276.6z"/>
				</g>
				<g id="XMLID_692_">
					<path id="XMLID_693_" class="st1" d="M-342,273c-0.1,0-0.1,0-0.2-0.1l-0.6-0.6c-0.1-0.1-0.1-0.3,0-0.4c0.1-0.1,0.3-0.1,0.4,0
						l0.6,0.6c0.1,0.1,0.1,0.3,0,0.4C-341.9,272.9-342,273-342,273z"/>
				</g>
				<g id="XMLID_690_">
					<path id="XMLID_691_" class="st1" d="M-339.2,275.8c-0.1,0-0.1,0-0.2-0.1l-0.6-0.6c0,0,0-0.2,0.1-0.3c0.1-0.1,0.3-0.1,0.4,0
						l0.5,0.6c0.1,0.1,0.1,0.3,0,0.4C-339,275.8-339.1,275.8-339.2,275.8z"/>
				</g>
			</g>
			<g id="XMLID_672_">
				<g id="XMLID_687_">
					<path id="XMLID_688_" class="st1" d="M-315,311h-0.8c-0.1,0-0.3-0.1-0.3-0.3c0-0.1,0.1-0.3,0.3-0.3h0.8c0.1,0,0.3,0.1,0.3,0.3
						C-314.7,310.8-314.8,311-315,311z"/>
				</g>
				<g id="XMLID_685_">
					<path id="XMLID_686_" class="st1" d="M-319.1,311h-0.8c-0.1,0-0.3-0.1-0.3-0.3c0-0.1,0.1-0.3,0.3-0.3h0.8
						c0.1,0,0.3,0.1,0.3,0.3C-318.8,310.8-318.9,311-319.1,311z"/>
				</g>
				<g id="XMLID_683_">
					<path id="XMLID_684_" class="st1" d="M-316.3,309.8c-0.1,0-0.1,0-0.2-0.1c-0.1-0.1-0.1-0.3,0-0.4l0.6-0.6
						c0.1-0.1,0.3-0.1,0.4,0c0.1,0.1,0.1,0.3,0,0.4l-0.6,0.6C-316.1,309.8-316.2,309.8-316.3,309.8z"/>
				</g>
				<g id="XMLID_681_">
					<path id="XMLID_682_" class="st1" d="M-319.2,312.7c-0.1,0-0.1,0-0.2-0.1c-0.1-0.1-0.1-0.3,0-0.4l0.6-0.6
						c0.1-0.1,0.3-0.1,0.4,0c0.1,0.1,0.1,0.3,0,0.4l-0.6,0.6C-319,312.7-319.1,312.7-319.2,312.7z"/>
				</g>
				<g id="XMLID_679_">
					<path id="XMLID_680_" class="st1" d="M-317.4,309.3c-0.1,0-0.3-0.1-0.3-0.3v-0.8c0-0.1,0.1-0.3,0.3-0.3c0.1,0,0.3,0.1,0.3,0.3
						v0.9C-317.2,309.2-317.3,309.3-317.4,309.3z"/>
				</g>
				<g id="XMLID_677_">
					<path id="XMLID_678_" class="st1" d="M-317.4,313.4c-0.1,0-0.3-0.1-0.3-0.3v-0.8c0-0.1,0.1-0.3,0.3-0.3c0.1,0,0.3,0.1,0.3,0.3
						v0.8C-317.2,313.3-317.3,313.4-317.4,313.4z"/>
				</g>
				<g id="XMLID_675_">
					<path id="XMLID_676_" class="st1" d="M-318.6,309.8c-0.1,0-0.1,0-0.2-0.1l-0.6-0.6c-0.1-0.1-0.1-0.3,0-0.4
						c0.1-0.1,0.3-0.1,0.4,0l0.6,0.6c0.1,0.1,0.1,0.3,0,0.4C-318.5,309.8-318.5,309.8-318.6,309.8z"/>
				</g>
				<g id="XMLID_673_">
					<path id="XMLID_674_" class="st1" d="M-315.7,312.7c-0.1,0-0.1,0-0.2-0.1l-0.6-0.6c-0.1-0.1-0.1-0.3,0-0.4s0.3-0.1,0.4,0
						l0.6,0.6c0.1,0.1,0.1,0.3,0,0.4S-315.6,312.7-315.7,312.7z"/>
				</g>
			</g>
			<g id="XMLID_668_">
				<path id="XMLID_669_" class="st1" d="M-318.3,286.9c-0.1,0-0.2-0.1-0.2-0.1l-0.4-0.7c-0.2-0.3-0.4-0.5-0.6-0.6l-0.7-0.4
					c-0.1,0-0.1-0.1-0.1-0.2c0-0.1,0.1-0.2,0.1-0.2l0.6-0.3c0.3-0.2,0.5-0.4,0.6-0.6l0.3-0.6c0-0.1,0.1-0.1,0.2-0.1
					c0.1,0,0.2,0.1,0.2,0.1l0.3,0.6c0.2,0.3,0.4,0.5,0.6,0.6l0.6,0.3c0.1,0,0.1,0.1,0.1,0.2c0,0.1-0.1,0.2-0.1,0.2l-0.6,0.3
					c-0.3,0.2-0.5,0.4-0.6,0.6l-0.3,0.6C-318.2,286.8-318.2,286.9-318.3,286.9z M-319.5,284.9l0.2,0.1c0.4,0.2,0.7,0.5,0.9,0.9
					l0.1,0.2l0.1-0.2c0.2-0.4,0.5-0.7,0.9-0.9l0.2-0.1l-0.2-0.1c-0.4-0.2-0.7-0.5-0.9-0.9l-0.1-0.2l-0.1,0.2
					c-0.2,0.4-0.5,0.7-0.9,0.9L-319.5,284.9z"/>
			</g>
			<g id="XMLID_664_">
				<path id="XMLID_665_" class="st1" d="M-364.4,319.8c-0.1,0-0.2-0.1-0.2-0.1l-0.4-0.7c-0.2-0.3-0.4-0.5-0.6-0.6l-0.6-0.3
					c-0.1,0-0.1-0.1-0.1-0.2c0-0.1,0.1-0.2,0.1-0.2l0.6-0.3c0.3-0.2,0.5-0.4,0.6-0.6l0.3-0.6c0-0.1,0.1-0.1,0.2-0.1
					c0.1,0,0.2,0.1,0.2,0.1l0.3,0.6c0.2,0.3,0.4,0.5,0.6,0.6l0.6,0.3c0.1,0,0.1,0.1,0.1,0.2c0,0.1-0.1,0.2-0.1,0.2l-0.6,0.3
					c-0.3,0.2-0.5,0.4-0.6,0.6l-0.3,0.6C-364.2,319.7-364.3,319.8-364.4,319.8z M-365.5,317.8l0.2,0.1c0.4,0.2,0.7,0.5,0.9,0.9
					l0.1,0.2l0.1-0.2c0.2-0.4,0.5-0.7,0.9-0.9l0.2-0.1l-0.2-0.1c-0.4-0.2-0.7-0.5-0.9-0.9l-0.1-0.2l-0.1,0.2
					c-0.2,0.4-0.5,0.7-0.9,0.9L-365.5,317.8z"/>
			</g>
			<g id="XMLID_655_">
				<g id="XMLID_662_">
					<path id="XMLID_663_" class="st1" d="M-333,322.2h-0.5c-0.1,0-0.3-0.1-0.3-0.3c0-0.2,0.1-0.3,0.3-0.3h0.5
						c0.1,0,0.3,0.1,0.3,0.3C-332.7,322.1-332.9,322.2-333,322.2z"/>
				</g>
				<g id="XMLID_660_">
					<path id="XMLID_661_" class="st1" d="M-335.7,322.2h-0.5c-0.1,0-0.3-0.1-0.3-0.3c0-0.2,0.1-0.3,0.3-0.3h0.5
						c0.1,0,0.3,0.1,0.3,0.3C-335.4,322.1-335.6,322.2-335.7,322.2z"/>
				</g>
				<g id="XMLID_658_">
					<path id="XMLID_659_" class="st1" d="M-334.6,321.1c-0.1,0-0.3-0.1-0.3-0.3v-0.5c0-0.1,0.1-0.3,0.3-0.3c0.1,0,0.3,0.1,0.3,0.3
						v0.5C-334.4,321-334.5,321.1-334.6,321.1z"/>
				</g>
				<g id="XMLID_656_">
					<path id="XMLID_657_" class="st1" d="M-334.6,323.8c-0.1,0-0.3-0.1-0.3-0.3V323c0-0.1,0.1-0.3,0.3-0.3c0.1,0,0.3,0.1,0.3,0.3
						v0.5C-334.4,323.7-334.5,323.8-334.6,323.8z"/>
				</g>
			</g>
			<g id="XMLID_646_">
				<g id="XMLID_653_">
					<path id="XMLID_654_" class="st1" d="M-368.3,284.2h-0.5c-0.1,0-0.3-0.1-0.3-0.3c0-0.1,0.1-0.3,0.3-0.3h0.5
						c0.1,0,0.3,0.1,0.3,0.3C-368,284-368.2,284.2-368.3,284.2z"/>
				</g>
				<g id="XMLID_651_">
					<path id="XMLID_652_" class="st1" d="M-371,284.2h-0.5c-0.1,0-0.3-0.1-0.3-0.3c0-0.1,0.1-0.3,0.3-0.3h0.5
						c0.1,0,0.3,0.1,0.3,0.3C-370.7,284-370.9,284.2-371,284.2z"/>
				</g>
				<g id="XMLID_649_">
					<path id="XMLID_650_" class="st1" d="M-369.9,283.1c-0.1,0-0.3-0.1-0.3-0.3v-0.5c0-0.1,0.1-0.3,0.3-0.3c0.2,0,0.3,0.1,0.3,0.3
						v0.5C-369.7,283-369.8,283.1-369.9,283.1z"/>
				</g>
				<g id="XMLID_647_">
					<path id="XMLID_648_" class="st1" d="M-369.9,285.8c-0.1,0-0.3-0.1-0.3-0.3V285c0-0.1,0.1-0.3,0.3-0.3c0.2,0,0.3,0.1,0.3,0.3
						v0.5C-369.7,285.7-369.8,285.8-369.9,285.8z"/>
				</g>
			</g>
			<g id="XMLID_644_">
				<path id="XMLID_645_" class="st1" d="M-307.3,292.6h-2.7c-0.1,0-0.3-0.1-0.3-0.3c0-0.1,0.1-0.3,0.3-0.3h2.7
					c0.1,0,0.3,0.1,0.3,0.3C-307,292.5-307.1,292.6-307.3,292.6z"/>
			</g>
			<g id="XMLID_642_">
				<path id="XMLID_643_" class="st1" d="M-310.8,294.5h-8.7c-0.1,0-0.3-0.1-0.3-0.3c0-0.2,0.1-0.3,0.3-0.3h8.7
					c0.1,0,0.3,0.1,0.3,0.3C-310.5,294.4-310.7,294.5-310.8,294.5z"/>
			</g>
			<g id="XMLID_640_">
				<path id="XMLID_641_" class="st1" d="M-316.2,296.4h-2.2c-0.1,0-0.3-0.1-0.3-0.3s0.1-0.3,0.3-0.3h2.2c0.1,0,0.3,0.1,0.3,0.3
					S-316.1,296.4-316.2,296.4z"/>
			</g>
			<g id="XMLID_638_">
				<path id="XMLID_639_" class="st1" d="M-309.2,296.4h-4.9c-0.1,0-0.3-0.1-0.3-0.3s0.1-0.3,0.3-0.3h4.9c0.1,0,0.3,0.1,0.3,0.3
					S-309,296.4-309.2,296.4z"/>
			</g>
			<g id="XMLID_636_">
				<path id="XMLID_637_" class="st1" d="M-350.9,276.8H-365c-0.1,0-0.3-0.1-0.3-0.3c0-0.1,0.1-0.3,0.3-0.3h14.1
					c0.1,0,0.3,0.1,0.3,0.3C-350.7,276.7-350.8,276.8-350.9,276.8z"/>
			</g>
			<g id="XMLID_634_">
				<path id="XMLID_635_" class="st1" d="M-353.6,274.9h-4.9c-0.1,0-0.3-0.1-0.3-0.3s0.1-0.3,0.3-0.3h4.9c0.1,0,0.3,0.1,0.3,0.3
					S-353.5,274.9-353.6,274.9z"/>
			</g>
			<g id="XMLID_632_">
				<path id="XMLID_633_" class="st1" d="M-361.2,274.9h-1.6c-0.1,0-0.3-0.1-0.3-0.3c0-0.1,0.1-0.3,0.3-0.3h1.6
					c0.1,0,0.3,0.1,0.3,0.3C-361,274.8-361.1,274.9-361.2,274.9z"/>
			</g>
		</g>
	</g>
	<g id="XMLID_2028_">
		<g id="XMLID_2087_">
			<g id="XMLID_2145_">
				<g id="XMLID_2146_">
					<path id="XMLID_2147_" class="st2" d="M-363.2,285.9c-0.6,0-1.3,0.5-1.3,1.3l0.1,23.8c0,0.8,0.6,1.3,1.3,1.3L-363.2,285.9z"/>
				</g>
			</g>
			<g id="XMLID_2143_">
				<path id="XMLID_1941_" class="st2" d="M-352.2,285.5l7.2,8.2h-6.7c0,0-1.4-0.2-1.4-1.6c0-1-0.1-5.6,0-6.6
					C-353.2,285.5-352.2,285.5-352.2,285.5z"/>
			</g>
			<g id="XMLID_2138_">
				<g id="XMLID_2139_">
					<path id="XMLID_2140_" class="st2" d="M-351.8,285.9h-10.3c-0.8,0-1.4,0.5-1.4,1.3l0.1,23.8c0,0.8,0.6,1.3,1.4,1.3l15.7-0.1
						c0,0,0.9,0.2,1.3-0.4c0.5-0.5,0.7-4.4,0.7-4.4v-14.3L-351.8,285.9z M-352,293.4c0,0-0.8-0.4-0.8-1.1c0-0.8,0-6.4,0-6.4h0.9v4.5
						v1.6c0,0.8,0.5,1.4,1.3,1.4H-352z"/>
				</g>
			</g>
			<g id="XMLID_2136_">
				<path id="XMLID_1935_" class="st2" d="M-351.7,285.3l7.2,7.4h-5.9c0,0-1.3-0.2-1.3-1.4C-351.7,290.1-351.7,285.3-351.7,285.3z"
					/>
			</g>
			<g id="XMLID_2134_">
				<g id="XMLID_93_">
					<polygon id="XMLID_94_" class="st3" points="-351.9,286 -344.9,293.3 -346,293.3 -351.9,287.3 					"/>
				</g>
			</g>
			<g id="XMLID_2132_">
				<path id="XMLID_1930_" class="st2" d="M-345.9,312.3L-345.9,312.3c0.7,0,1.3-0.6,1.3-1.4l-0.1-17.9h-1.3
					C-345.9,293-345.9,312.3-345.9,312.3z"/>
			</g>
			<g id="XMLID_2130_">
				<g id="XMLID_85_">
					<path id="XMLID_86_" class="st4" d="M-362.9,313.1c-1.1,0-2-0.9-2-2v-10.9c0-0.3,0.3-0.6,0.6-0.6l0,0c0.3,0,0.6,0.3,0.6,0.6
						v10.9c0,0.4,0.4,0.8,0.8,0.8l0,0l17-0.1c0.4,0,0.8-0.4,0.8-0.8v-3.8c0-0.3,0.3-0.6,0.6-0.6l0,0c0.3,0,0.6,0.3,0.6,0.6v3.8
						c0,1.1-0.9,2-2,2L-362.9,313.1L-362.9,313.1z"/>
				</g>
			</g>
			<g id="XMLID_2128_">
				<g id="XMLID_82_">
					<path id="XMLID_83_" class="st4" d="M-344.5,306.2c-0.3,0-0.6-0.3-0.6-0.6v-0.1c0-0.3,0.3-0.6,0.6-0.6l0,0
						c0.3,0,0.6,0.3,0.6,0.6v0.1C-343.9,305.9-344.2,306.2-344.5,306.2L-344.5,306.2z"/>
				</g>
			</g>
			<g id="XMLID_2126_">
				<g id="XMLID_79_">
					<path id="XMLID_80_" class="st4" d="M-344.5,304.2c-0.3,0-0.6-0.3-0.6-0.6v-10.3l-7-7.2h-10.8c-0.2,0-0.4,0.1-0.6,0.3
						c-0.2,0.2-0.3,0.4-0.3,0.6v11.4c0,0.3-0.3,0.6-0.6,0.6l0,0c-0.3,0-0.6-0.3-0.6-0.6V287c0-0.5,0.2-1.1,0.6-1.4
						c0.4-0.4,0.9-0.6,1.4-0.6h11.1l0,0c0.2,0,0.3,0.1,0.4,0.2l7.3,7.6c0.1,0.1,0.2,0.3,0.2,0.4v10.6
						C-343.9,303.9-344.2,304.2-344.5,304.2L-344.5,304.2z"/>
				</g>
			</g>
			<g id="XMLID_2124_">
				<g id="XMLID_76_">
					<path id="XMLID_77_" class="st4" d="M-352,287.7c-0.3,0-0.6-0.3-0.6-0.6V286c0-0.3,0.3-0.6,0.6-0.6l0,0c0.3,0,0.6,0.3,0.6,0.6
						v1.1C-351.4,287.4-351.7,287.7-352,287.7L-352,287.7z"/>
				</g>
			</g>
			<g id="XMLID_2122_">
				<g id="XMLID_73_">
					<path id="XMLID_74_" class="st4" d="M-352,289.6c-0.3,0-0.6-0.3-0.6-0.6v-0.2c0-0.3,0.3-0.6,0.6-0.6l0,0c0.3,0,0.6,0.3,0.6,0.6
						v0.2C-351.4,289.3-351.6,289.6-352,289.6L-352,289.6z"/>
				</g>
			</g>
			<g id="XMLID_2120_">
				<g id="XMLID_70_">
					<path id="XMLID_71_" class="st4" d="M-350.6,293.6c-0.5,0-1-0.2-1.4-0.6c-0.4-0.4-0.6-0.9-0.6-1.4v-1c0-0.3,0.3-0.6,0.6-0.6
						l0,0c0.3,0,0.6,0.3,0.6,0.6v1c0,0.2,0.1,0.4,0.2,0.6c0.2,0.2,0.4,0.2,0.6,0.2l0,0h5.9l0,0c0.3,0,0.6,0.3,0.6,0.6
						c0,0.3-0.3,0.6-0.6,0.6H-350.6L-350.6,293.6z"/>
				</g>
			</g>
			<g id="XMLID_2118_">
				<g id="XMLID_67_">
					<path id="XMLID_68_" class="st4" d="M-361.9,307.2c-0.3,0-0.6-0.3-0.6-0.6s0.3-0.6,0.6-0.6l14.8-0.1l0,0c0.3,0,0.6,0.3,0.6,0.6
						c0,0.3-0.3,0.6-0.6,0.6L-361.9,307.2L-361.9,307.2z"/>
				</g>
			</g>
			<g id="XMLID_2116_">
				<g id="XMLID_64_">
					<path id="XMLID_65_" class="st4" d="M-361.9,310.1c-0.3,0-0.6-0.3-0.6-0.6c0-0.3,0.3-0.6,0.6-0.6h11l0,0c0.3,0,0.6,0.3,0.6,0.6
						c0,0.3-0.3,0.6-0.6,0.6H-361.9L-361.9,310.1z"/>
				</g>
			</g>
			<g id="XMLID_2114_">
				<g id="XMLID_61_">
					<path id="XMLID_62_" class="st4" d="M-361.9,304.4c-0.3,0-0.6-0.3-0.6-0.6c0-0.3,0.3-0.6,0.6-0.6h8.5l0,0
						c0.3,0,0.6,0.2,0.6,0.6c0,0.3-0.3,0.6-0.6,0.6H-361.9L-361.9,304.4z"/>
				</g>
			</g>
			<g id="XMLID_2112_">
				<g id="XMLID_58_">
					<path id="XMLID_59_" class="st4" d="M-351.5,304.3c-0.3,0-0.6-0.2-0.6-0.6c0-0.3,0.3-0.6,0.6-0.6h4.4l0,0
						c0.3,0,0.6,0.3,0.6,0.6c0,0.3-0.3,0.6-0.6,0.6H-351.5L-351.5,304.3z"/>
				</g>
			</g>
			<g id="XMLID_2110_">
				<g id="XMLID_55_">
					<path id="XMLID_56_" class="st4" d="M-356.2,300.9c-0.3,0-0.6-0.3-0.6-0.6c0-0.3,0.3-0.6,0.6-0.6h9.1l0,0
						c0.3,0,0.6,0.3,0.6,0.6c0,0.3-0.3,0.6-0.6,0.6H-356.2L-356.2,300.9z"/>
				</g>
			</g>
			<g id="XMLID_2108_">
				<g id="XMLID_52_">
					<path id="XMLID_53_" class="st4" d="M-358.1,300.9c-0.2,0-0.3-0.1-0.4-0.2c-0.1-0.1-0.2-0.3-0.2-0.4c0-0.2,0.1-0.3,0.2-0.4
						c0.1-0.1,0.3-0.2,0.4-0.2c0.2,0,0.3,0.1,0.4,0.2c0.1,0.1,0.2,0.3,0.2,0.4c0,0.2-0.1,0.3-0.2,0.4S-358,300.9-358.1,300.9z"/>
				</g>
			</g>
			<g id="XMLID_2106_">
				<g id="XMLID_49_">
					<path id="XMLID_50_" class="st4" d="M-361.9,300.9c-0.3,0-0.6-0.3-0.6-0.6c0-0.3,0.3-0.6,0.6-0.6h1.9l0,0
						c0.3,0,0.6,0.3,0.6,0.6c0,0.3-0.3,0.6-0.6,0.6H-361.9L-361.9,300.9z"/>
				</g>
			</g>
			<g id="XMLID_2104_">
				<g id="XMLID_46_">
					<path id="XMLID_47_" class="st4" d="M-361.9,297.5c-0.3,0-0.6-0.3-0.6-0.6c0-0.3,0.3-0.6,0.6-0.6h6.3l0,0
						c0.3,0,0.6,0.3,0.6,0.6c0,0.3-0.3,0.6-0.6,0.6H-361.9L-361.9,297.5z"/>
				</g>
			</g>
			<g id="XMLID_2102_">
				<g id="XMLID_43_">
					<path id="XMLID_44_" class="st4" d="M-347.8,297.4c-0.3,0-0.6-0.3-0.6-0.6c0-0.3,0.3-0.6,0.6-0.6h0.6l0,0
						c0.3,0,0.6,0.3,0.6,0.6c0,0.3-0.3,0.6-0.6,0.6H-347.8L-347.8,297.4z"/>
				</g>
			</g>
			<g id="XMLID_2100_">
				<g id="XMLID_40_">
					<path id="XMLID_41_" class="st4" d="M-349.4,297.3c-0.2,0-0.3-0.1-0.4-0.2s-0.2-0.3-0.2-0.4c0-0.2,0.1-0.3,0.2-0.4
						c0.1-0.1,0.3-0.2,0.4-0.2c0.2,0,0.3,0.1,0.4,0.2c0.1,0.1,0.2,0.3,0.2,0.4c0,0.2-0.1,0.3-0.2,0.4S-349.2,297.3-349.4,297.3z"/>
				</g>
			</g>
			<g id="XMLID_2098_">
				<g id="XMLID_37_">
					<path id="XMLID_38_" class="st4" d="M-354.1,297.5c-0.3,0-0.6-0.3-0.6-0.6c0-0.3,0.3-0.6,0.6-0.6h3.1l0,0
						c0.3,0,0.6,0.3,0.6,0.6c0,0.3-0.3,0.6-0.6,0.6H-354.1L-354.1,297.5z"/>
				</g>
			</g>
			<g id="XMLID_2096_">
				<g id="XMLID_34_">
					<path id="XMLID_35_" class="st4" d="M-355.7,293.9c-0.3,0-0.6-0.3-0.6-0.6c0-0.3,0.3-0.6,0.6-0.6h0.6l0,0
						c0.3,0,0.6,0.3,0.6,0.6c0,0.3-0.3,0.6-0.6,0.6H-355.7L-355.7,293.9z"/>
				</g>
			</g>
			<g id="XMLID_2094_">
				<g id="XMLID_31_">
					<path id="XMLID_32_" class="st4" d="M-357.3,293.8c-0.2,0-0.3-0.1-0.4-0.2s-0.2-0.3-0.2-0.4c0-0.2,0.1-0.3,0.2-0.4
						c0.1-0.1,0.3-0.2,0.4-0.2c0.2,0,0.3,0.1,0.4,0.2c0.1,0.1,0.2,0.3,0.2,0.4c0,0.2-0.1,0.3-0.2,0.4
						C-357,293.7-357.1,293.8-357.3,293.8z"/>
				</g>
			</g>
			<g id="XMLID_2092_">
				<g id="XMLID_28_">
					<path id="XMLID_29_" class="st4" d="M-361.9,294c-0.3,0-0.6-0.3-0.6-0.6c0-0.3,0.3-0.6,0.6-0.6h3.1l0,0c0.3,0,0.6,0.3,0.6,0.6
						c0,0.3-0.3,0.6-0.6,0.6H-361.9L-361.9,294z"/>
				</g>
			</g>
			<g id="XMLID_2090_">
				<g id="XMLID_25_">
					<path id="XMLID_26_" class="st4" d="M-358.9,290.7c-0.3,0-0.6-0.3-0.6-0.6s0.3-0.6,0.6-0.6h3.9l0,0c0.3,0,0.6,0.3,0.6,0.6
						s-0.3,0.6-0.6,0.6H-358.9L-358.9,290.7z"/>
				</g>
			</g>
			<g id="XMLID_2088_">
				<g id="XMLID_22_">
					<path id="XMLID_23_" class="st4" d="M-361.9,290.7c-0.3,0-0.6-0.3-0.6-0.6s0.3-0.6,0.6-0.6h1.4l0,0c0.3,0,0.6,0.3,0.6,0.6
						s-0.3,0.6-0.6,0.6H-361.9L-361.9,290.7z"/>
				</g>
			</g>
		</g>
		<g id="XMLID_2079_">
			<g id="XMLID_2082_">
				<circle id="XMLID_1884_" class="st5" cx="-327.3" cy="282.8" r="3.6"/>
				<path id="XMLID_2083_" class="st4" d="M-327.3,287c-2.3,0-4.2-1.9-4.2-4.2c0-2.3,1.9-4.2,4.2-4.2c2.3,0,4.2,1.9,4.2,4.2
					C-323.1,285.1-325,287-327.3,287z M-327.3,279.7c-1.7,0-3.1,1.4-3.1,3.1c0,1.7,1.4,3.1,3.1,3.1c1.7,0,3.1-1.4,3.1-3.1
					C-324.2,281.1-325.6,279.7-327.3,279.7z"/>
			</g>
			<g id="XMLID_2080_">
				<g id="XMLID_90_">
					<path id="XMLID_91_" class="st6" d="M-324.2,282.8c0,1.6-1.2,2.9-2.3,2.9c1.2-0.7,1.2-1.8,1.2-2.9c0-1.3-0.6-2.2-1.2-2.9
						C-325.2,279.9-324.2,281.5-324.2,282.8z"/>
				</g>
			</g>
		</g>
		<g id="XMLID_2073_">
			<g id="XMLID_2074_">
				<path id="XMLID_1875_" class="st7" d="M-327.5,284.8c-0.2,0-0.5-0.1-0.7-0.3l-2.6-2.6c-0.4-0.4-0.4-1,0-1.4c0.4-0.4,1-0.4,1.4,0
					l1.9,1.9l4.3-4.3c0.4-0.4,1-0.4,1.4,0c0.4,0.4,0.4,1,0,1.4l-5,5C-327,284.7-327.2,284.8-327.5,284.8z"/>
				<path id="XMLID_2075_" class="st4" d="M-327.5,285.4c-0.4,0-0.8-0.2-1.1-0.5l-2.6-2.6c-0.3-0.3-0.5-0.7-0.5-1.1s0.2-0.8,0.5-1.1
					c0.3-0.3,0.7-0.5,1.1-0.5s0.8,0.2,1.1,0.5l1.5,1.5l3.9-3.9c0.3-0.3,0.7-0.5,1.1-0.5s0.8,0.2,1.1,0.5c0.3,0.4,0.4,0.8,0.4,1.2
					c0,0.4-0.2,0.8-0.5,1.1l-5,5C-326.7,285.3-327.1,285.4-327.5,285.4z M-330.1,280.9c-0.1,0-0.2,0-0.3,0.1
					c-0.1,0.1-0.1,0.2-0.1,0.3c0,0.1,0,0.2,0.1,0.3l2.6,2.6c0.1,0.1,0.2,0.1,0.3,0.1c0.1,0,0.2,0,0.3-0.1l5-5
					c0.1-0.1,0.1-0.2,0.1-0.3c0-0.1,0-0.2-0.1-0.3s-0.2-0.1-0.3-0.1c-0.1,0-0.2,0-0.3,0.1l-4.3,4.3c-0.2,0.2-0.6,0.2-0.8,0l-1.9-1.9
					C-329.9,281-330,280.9-330.1,280.9z"/>
			</g>
		</g>
		<g id="XMLID_2065_">
			<g id="XMLID_2068_">
				<circle id="XMLID_1869_" class="st5" cx="-327.3" cy="293.3" r="3.6"/>
				<path id="XMLID_2069_" class="st4" d="M-327.3,297.5c-2.3,0-4.2-1.9-4.2-4.2c0-2.3,1.9-4.2,4.2-4.2c2.3,0,4.2,1.9,4.2,4.2
					C-323.1,295.6-325,297.5-327.3,297.5z M-327.3,290.2c-1.7,0-3.1,1.4-3.1,3.1c0,1.7,1.4,3.1,3.1,3.1c1.7,0,3.1-1.4,3.1-3.1
					C-324.3,291.6-325.6,290.2-327.3,290.2z"/>
			</g>
			<g id="XMLID_2066_">
				<path id="XMLID_1861_" class="st6" d="M-324.2,293.3c0,1.6-1.2,2.9-2.3,2.9c1.2-0.7,1.2-1.8,1.2-2.9c0-1.3-0.6-2.2-1.2-2.9
					C-325.2,290.4-324.2,292-324.2,293.3z"/>
			</g>
		</g>
		<g id="XMLID_2059_">
			<g id="XMLID_2060_">
				<path id="XMLID_1860_" class="st7" d="M-327.5,295.3c-0.2,0-0.5-0.1-0.7-0.3l-2.6-2.6c-0.4-0.4-0.4-1,0-1.4c0.4-0.4,1-0.4,1.4,0
					l1.9,1.9l4.3-4.3c0.4-0.4,1-0.4,1.4,0c0.4,0.4,0.4,1,0,1.4l-5,5C-327,295.2-327.2,295.3-327.5,295.3z"/>
				<path id="XMLID_2061_" class="st4" d="M-327.5,295.9c-0.4,0-0.8-0.2-1.1-0.5l-2.6-2.6c-0.3-0.3-0.5-0.7-0.5-1.1s0.2-0.8,0.5-1.1
					c0.3-0.3,0.7-0.5,1.1-0.5s0.8,0.2,1.1,0.5l1.5,1.5l3.9-3.9c0.3-0.3,0.7-0.5,1.1-0.5s0.8,0.2,1.1,0.5c0.3,0.3,0.5,0.7,0.5,1.1
					c0,0.4-0.2,0.8-0.5,1.1l-5,5C-326.7,295.8-327.1,295.9-327.5,295.9z M-330.1,291.4c-0.1,0-0.2,0-0.3,0.1
					c-0.1,0.1-0.1,0.2-0.1,0.3c0,0.1,0,0.2,0.1,0.3l2.6,2.6c0.1,0.1,0.2,0.1,0.3,0.1c0.1,0,0.2,0,0.3-0.1l5-5
					c0.1-0.1,0.1-0.2,0.1-0.3c0-0.1,0-0.2-0.1-0.3s-0.2-0.1-0.3-0.1c-0.1,0-0.2,0-0.3,0.1l-4.3,4.3c-0.2,0.2-0.6,0.2-0.8,0l-1.9-1.9
					C-329.9,291.5-330,291.4-330.1,291.4z"/>
			</g>
		</g>
		<g id="XMLID_2051_">
			<g id="XMLID_2054_">
				<circle id="XMLID_1854_" class="st5" cx="-327.3" cy="303.8" r="3.6"/>
				<path id="XMLID_2055_" class="st4" d="M-327.3,308c-2.3,0-4.2-1.9-4.2-4.2c0-2.3,1.9-4.2,4.2-4.2c2.3,0,4.2,1.9,4.2,4.2
					C-323.1,306.1-325,308-327.3,308z M-327.3,300.7c-1.7,0-3.1,1.4-3.1,3.1c0,1.7,1.4,3.1,3.1,3.1c1.7,0,3.1-1.4,3.1-3.1
					C-324.2,302.1-325.6,300.7-327.3,300.7z"/>
			</g>
			<g id="XMLID_2052_">
				<path id="XMLID_1848_" class="st6" d="M-324.2,303.8c0,1.6-1.2,2.9-2.3,2.9c1.2-0.7,1.2-1.8,1.2-2.9c0-1.3-0.6-2.2-1.2-2.9
					C-325.2,300.9-324.2,302.5-324.2,303.8z"/>
			</g>
		</g>
		<g id="XMLID_2045_">
			<g id="XMLID_2046_">
				<path id="XMLID_1846_" class="st7" d="M-327.5,305.6c-0.2,0-0.5-0.1-0.7-0.3l-2.6-2.6c-0.4-0.4-0.4-1,0-1.4c0.4-0.4,1-0.4,1.4,0
					l1.9,1.9l4.3-4.3c0.4-0.4,1-0.4,1.4,0c0.4,0.4,0.4,1,0,1.4l-5,5C-327,305.5-327.2,305.6-327.5,305.6z"/>
				<path id="XMLID_2047_" class="st4" d="M-327.5,306.1c-0.4,0-0.8-0.2-1.1-0.5l-2.5-2.5c-0.3-0.3-0.5-0.7-0.5-1.1s0.2-0.8,0.5-1.1
					c0.3-0.3,0.7-0.5,1.1-0.5s0.8,0.2,1.1,0.5l1.5,1.5l3.9-3.9c0.3-0.3,0.7-0.5,1.1-0.5c0.4,0,0.8,0.2,1.1,0.5
					c0.3,0.3,0.5,0.7,0.5,1.1s-0.2,0.8-0.5,1.1l-5,5C-326.7,306-327.1,306.1-327.5,306.1z M-330.1,301.6c-0.1,0-0.2,0-0.3,0.1
					c-0.1,0.1-0.1,0.2-0.1,0.3s0,0.2,0.1,0.3l2.6,2.6c0.1,0.1,0.2,0.1,0.3,0.1c0.1,0,0.2,0,0.3-0.1l5-5c0.1-0.1,0.1-0.2,0.1-0.3
					s0-0.2-0.1-0.3c-0.1-0.1-0.2-0.1-0.3-0.1c-0.1,0-0.2,0-0.3,0.1l-4.3,4.3c-0.2,0.2-0.6,0.2-0.8,0l-1.9-1.9
					C-329.9,301.7-330,301.6-330.1,301.6z"/>
			</g>
		</g>
		<g id="XMLID_2037_">
			<g id="XMLID_2040_">
				<circle id="XMLID_1840_" class="st5" cx="-327.3" cy="314.3" r="3.6"/>
				<path id="XMLID_2041_" class="st4" d="M-327.3,318.5c-2.3,0-4.2-1.9-4.2-4.2c0-2.3,1.9-4.2,4.2-4.2c2.3,0,4.2,1.9,4.2,4.2
					C-323.1,316.6-325,318.5-327.3,318.5z M-327.3,311.2c-1.7,0-3.1,1.4-3.1,3.1c0,1.7,1.4,3.1,3.1,3.1c1.7,0,3.1-1.4,3.1-3.1
					C-324.2,312.6-325.6,311.2-327.3,311.2z"/>
			</g>
			<g id="XMLID_2038_">
				<path id="XMLID_1834_" class="st6" d="M-324.2,314.3c0,1.6-1.2,2.9-2.3,2.9c1.2-0.7,1.2-1.8,1.2-2.9c0-1.3-0.6-2.2-1.2-2.9
					C-325.2,311.4-324.2,313-324.2,314.3z"/>
			</g>
		</g>
		<g id="XMLID_2035_">
			<path id="XMLID_1832_" class="st4" d="M-339.4,293h-2.7c-0.3,0-0.6-0.3-0.6-0.6c0-0.3,0.3-0.6,0.6-0.6h2.5l6.2-5.3
				c0.2-0.2,0.6-0.2,0.8,0.1c0.2,0.2,0.2,0.6-0.1,0.8l-6.3,5.4C-339.1,292.9-339.2,293-339.4,293z"/>
		</g>
		<g id="XMLID_2033_">
			<path id="XMLID_1830_" class="st4" d="M-333.1,311.9c-0.1,0-0.3,0-0.4-0.1l-6.2-5.3h-2.5c-0.3,0-0.6-0.3-0.6-0.6
				c0-0.3,0.3-0.6,0.6-0.6h2.7c0.1,0,0.3,0.1,0.4,0.1l6.3,5.4c0.2,0.2,0.3,0.6,0.1,0.8C-332.7,311.8-332.9,311.9-333.1,311.9z"/>
		</g>
		<g id="XMLID_2031_">
			<path id="XMLID_1828_" class="st4" d="M-333.1,304.3c-0.1,0-0.2,0-0.2,0l-5.9-2.5h-2.9c-0.3,0-0.6-0.3-0.6-0.6
				c0-0.3,0.3-0.6,0.6-0.6h3c0.1,0,0.2,0,0.2,0l6,2.5c0.3,0.1,0.4,0.5,0.3,0.8C-332.6,304.1-332.8,304.3-333.1,304.3z"/>
		</g>
		<g id="XMLID_2029_">
			<path id="XMLID_1823_" class="st4" d="M-339.1,297.7h-3c-0.3,0-0.6-0.3-0.6-0.6s0.3-0.6,0.6-0.6h2.9l5.9-2.5
				c0.3-0.1,0.6,0,0.8,0.3c0.1,0.3,0,0.6-0.3,0.8l-6,2.5C-338.9,297.6-339,297.7-339.1,297.7z"/>
		</g>
	</g>
</g>
</svg>
