<?xml version="1.0" encoding="utf-8"?>
<!-- Generator: Adobe Illustrator 19.0.0, SVG Export Plug-In . SVG Version: 6.00 Build 0)  -->
<svg version="1.1" id="Digital_Marketing" xmlns="http://www.w3.org/2000/svg" xmlns:xlink="http://www.w3.org/1999/xlink" x="0px"
	 y="0px" viewBox="-373.4 262.8 91.8 69.7" style="enable-background:new -373.4 262.8 91.8 69.7;" xml:space="preserve">
<style type="text/css">
	.st0{fill:#DFF1FB;}
	.st1{fill:#4B6270;}
	.st2{fill:#D2E9F7;}
	.st3{fill:#BCE2F7;}
	.st4{fill:#9ECFEF;}
	.st5{fill:#BCE2F5;}
	.st6{fill:#8FCFF2;}
	.st7{fill:#FFFFFF;}
	.st8{opacity:0.3;}
	.st9{fill:#9ABBCE;}
	.st10{fill:#4E6472;}
</style>
<g id="XMLID_1824_">
	<g id="XMLID_2014_">
		<g id="XMLID_89_">
			<g id="XMLID_90_">
				<path id="XMLID_100_" class="st0" d="M-373.4,302.3L-373.4,302.3L-373.4,302.3z"/>
				<path id="XMLID_99_" class="st0" d="M-364.6,314.5L-364.6,314.5L-364.6,314.5z"/>
				<path id="XMLID_98_" class="st0" d="M-367.2,290.2L-367.2,290.2L-367.2,290.2z"/>
				<path id="XMLID_97_" class="st0" d="M-281.6,288.3L-281.6,288.3L-281.6,288.3z"/>
				<path id="XMLID_96_" class="st0" d="M-284.6,285.3h-10.3h-8.1c-1.7,0-3.1-1.4-3.1-3l0,0l0,0l0,0c0-1.7,1.4-3,3.1-3h8.2h1.5
					c1.7,0,3-1.4,3-3c0-1.7-1.4-3-3-3h-15.9c-12.2-9.1-29.6-8.1-40.6,3c-3.2,3.2-5.6,7-7.1,10.9h-7.3c-1.7,0-3,1.4-3,3.1s1.4,3,3,3
					h3.5h2.6c1.7,0,3,1.4,3,3.1l0,0l0,0l0,0c0,1.7-1.4,3-3,3h-2.6h-9.7c-1.7,0-3,1.4-3,3.1c0,1.7,1.3,3,3,3h9.7h8.7
					c1.7,0,3,1.4,3,3.1l0,0l0,0l0,0c0,1.7-1.4,3-3,3h-8.7h-1c-1.7,0-3,1.4-3,3.1c0,1.7,1.3,3,3,3h9.3c0.8,1,1.6,1.9,2.5,2.8
					c12.2,12.2,32,12.2,44.2,0c4.8-4.8,7.7-10.6,8.7-16.8h6.1c1.7,0,3-1.4,3-3c0-1.7-1.3-3-3-3h-4h-2.1c-1.7,0-3.1-1.4-3.1-3l0,0
					l0,0l0,0c0-1.7,1.4-3,3.1-3h2.1h10.2c1.7,0,3-1.4,3-3C-281.6,286.7-282.9,285.3-284.6,285.3z"/>
				<path id="XMLID_95_" class="st0" d="M-287.9,300.5L-287.9,300.5L-287.9,300.5z"/>
				<path id="XMLID_94_" class="st0" d="M-300,294.4L-300,294.4L-300,294.4z"/>
				<path id="XMLID_93_" class="st0" d="M-349,308.4L-349,308.4L-349,308.4z"/>
				<path id="XMLID_92_" class="st0" d="M-355.1,296.2L-355.1,296.2L-355.1,296.2z"/>
				<path id="XMLID_91_" class="st0" d="M-306.1,282.3L-306.1,282.3L-306.1,282.3z"/>
			</g>
		</g>
	</g>
	<g id="XMLID_1933_">
		<g id="XMLID_585_">
			<g id="XMLID_664_">
				<path id="XMLID_665_" class="st1" d="M-306.8,273.3h-2c-0.2,0-0.3,0.2-0.3,0.3c0,0.1,0.2,0.3,0.3,0.3h2c0.2,0,0.3-0.2,0.3-0.3
					C-306.5,273.5-306.6,273.3-306.8,273.3z"/>
			</g>
			<g id="XMLID_662_">
				<path id="XMLID_663_" class="st1" d="M-297.3,273.3h-7.4c-0.2,0-0.3,0.2-0.3,0.3c0,0.1,0.2,0.3,0.3,0.3h7.4
					c0.2,0,0.3-0.2,0.3-0.3C-297,273.5-297.2,273.3-297.3,273.3z"/>
			</g>
			<g id="XMLID_660_">
				<path id="XMLID_661_" class="st1" d="M-303.4,275.3h-7.4c-0.2,0-0.3,0.2-0.3,0.3c0,0.2,0.2,0.3,0.3,0.3h7.4
					c0.2,0,0.3-0.2,0.3-0.3C-303.1,275.4-303.2,275.3-303.4,275.3z"/>
			</g>
			<g id="XMLID_658_">
				<path id="XMLID_659_" class="st1" d="M-299.4,275.3h-1.4c-0.2,0-0.3,0.2-0.3,0.3c0,0.2,0.2,0.3,0.3,0.3h1.4
					c0.2,0,0.3-0.2,0.3-0.3C-299,275.4-299.2,275.3-299.4,275.3z"/>
			</g>
			<g id="XMLID_641_">
				<g id="XMLID_656_">
					<path id="XMLID_657_" class="st1" d="M-325.4,265.8h-1c-0.2,0-0.3,0.2-0.3,0.3c0,0.1,0.2,0.3,0.3,0.3h1c0.2,0,0.3-0.2,0.3-0.3
						C-325.1,266-325.2,265.8-325.4,265.8z"/>
				</g>
				<g id="XMLID_654_">
					<path id="XMLID_655_" class="st1" d="M-320.3,265.8h-1c-0.2,0-0.3,0.2-0.3,0.3c0,0.1,0.2,0.3,0.3,0.3h1c0.2,0,0.3-0.2,0.3-0.3
						C-320,266-320.1,265.8-320.3,265.8z"/>
				</g>
				<g id="XMLID_652_">
					<path id="XMLID_653_" class="st1" d="M-325.3,263.8c-0.1-0.1-0.3-0.1-0.5,0c-0.1,0.1-0.1,0.3,0,0.5l0.7,0.7
						c0.1,0.1,0.2,0.1,0.2,0.1s0.2,0,0.2-0.1c0.1-0.1,0.1-0.3,0-0.5L-325.3,263.8z"/>
				</g>
				<g id="XMLID_650_">
					<path id="XMLID_651_" class="st1" d="M-321.7,267.4c-0.1-0.1-0.3-0.1-0.5,0c-0.1,0.1-0.1,0.3,0,0.5l0.7,0.7
						c0.1,0.1,0.2,0.1,0.2,0.1c0.1,0,0.2,0,0.2-0.1c0.1-0.1,0.1-0.3,0-0.5L-321.7,267.4z"/>
				</g>
				<g id="XMLID_648_">
					<path id="XMLID_649_" class="st1" d="M-323.3,262.8c-0.2,0-0.3,0.2-0.3,0.3v1c0,0.2,0.2,0.3,0.3,0.3c0.1,0.1,0.3-0.1,0.3-0.2
						v-1C-323,263-323.2,262.8-323.3,262.8z"/>
				</g>
				<g id="XMLID_646_">
					<path id="XMLID_647_" class="st1" d="M-323.3,267.9c-0.2,0-0.3,0.2-0.3,0.3v1c0,0.2,0.2,0.3,0.3,0.3c0.2,0,0.3-0.2,0.3-0.3v-1
						C-323,268-323.2,267.9-323.3,267.9z"/>
				</g>
				<g id="XMLID_644_">
					<path id="XMLID_645_" class="st1" d="M-321.5,263.8l-0.7,0.7c-0.1,0.1-0.1,0.3,0,0.5c0.1,0.1,0.2,0.1,0.2,0.1
						c0.1,0,0.2,0,0.2-0.1l0.8-0.7c0.1-0.1,0.1-0.3,0-0.5C-321.1,263.7-321.4,263.7-321.5,263.8z"/>
				</g>
				<g id="XMLID_642_">
					<path id="XMLID_643_" class="st1" d="M-325.1,267.4l-0.7,0.7c-0.1,0.1-0.1,0.3,0,0.5c0.1,0.1,0.2,0.1,0.2,0.1
						c0.1,0,0.2,0,0.2-0.1l0.7-0.7c0.1-0.1,0.1-0.3,0-0.5C-324.7,267.3-324.9,267.3-325.1,267.4z"/>
				</g>
			</g>
			<g id="XMLID_624_">
				<g id="XMLID_639_">
					<path id="XMLID_640_" class="st1" d="M-347.6,326.9h-1c-0.2,0-0.3,0.2-0.3,0.3s0.2,0.3,0.3,0.3h1c0.2,0,0.3-0.2,0.3-0.3
						S-347.4,326.9-347.6,326.9z"/>
				</g>
				<g id="XMLID_637_">
					<path id="XMLID_638_" class="st1" d="M-342.6,326.9h-1c-0.2,0-0.3,0.2-0.3,0.3s0.2,0.3,0.3,0.3h1c0.2,0,0.3-0.2,0.3-0.3
						S-342.4,326.9-342.6,326.9z"/>
				</g>
				<g id="XMLID_635_">
					<path id="XMLID_636_" class="st1" d="M-347.6,324.9c-0.1-0.1-0.3-0.1-0.5,0c-0.1,0.1-0.1,0.3,0,0.5l0.7,0.7
						c0.1,0.1,0.2,0.1,0.2,0.1c0.1,0,0.2,0,0.2-0.1c0.1-0.1,0.1-0.3,0-0.5L-347.6,324.9z"/>
				</g>
				<g id="XMLID_633_">
					<path id="XMLID_634_" class="st1" d="M-344,328.5c-0.1-0.1-0.3-0.1-0.5,0c-0.1,0.1-0.1,0.3,0,0.5l0.7,0.7
						c0.1,0.1,0.2,0.1,0.2,0.1c0.1,0,0.2,0,0.2-0.1c0.1-0.1,0.1-0.3,0-0.5L-344,328.5z"/>
				</g>
				<g id="XMLID_631_">
					<path id="XMLID_632_" class="st1" d="M-345.6,323.9c-0.2,0-0.3,0.2-0.3,0.3v1c0,0.2,0.2,0.3,0.3,0.3c0.2,0,0.3-0.2,0.3-0.3v-1
						C-345.3,324-345.4,323.9-345.6,323.9z"/>
				</g>
				<g id="XMLID_629_">
					<path id="XMLID_630_" class="st1" d="M-345.6,328.9c-0.2,0-0.3,0.2-0.3,0.3v1c0,0.2,0.2,0.3,0.3,0.3c0.2,0,0.3-0.2,0.3-0.3v-1
						C-345.3,329.1-345.4,328.9-345.6,328.9z"/>
				</g>
				<g id="XMLID_627_">
					<path id="XMLID_628_" class="st1" d="M-343.7,324.9l-0.7,0.7c-0.1,0.1-0.1,0.3,0,0.5c0.1,0.1,0.2,0.1,0.2,0.1
						c0.1,0,0.2,0,0.2-0.1l0.7-0.7c0.1-0.1,0.1-0.3,0-0.5C-343.4,324.8-343.6,324.8-343.7,324.9z"/>
				</g>
				<g id="XMLID_625_">
					<path id="XMLID_626_" class="st1" d="M-347.3,328.5l-0.7,0.7c-0.1,0.1-0.1,0.3,0,0.5c0.1,0.1,0.2,0.1,0.2,0.1
						c0.1,0,0.2,0,0.2-0.1l0.7-0.7c0.1-0.1,0.1-0.3,0-0.5C-347,328.3-347.2,328.3-347.3,328.5z"/>
				</g>
			</g>
			<g id="XMLID_620_">
				<path id="XMLID_621_" class="st1" d="M-353.3,268.7l-0.8-0.4c-0.3-0.2-0.6-0.5-0.8-0.8l-0.4-0.8c-0.1-0.1-0.2-0.2-0.3-0.2
					c-0.1,0-0.2,0.1-0.3,0.2l-0.4,0.8c-0.2,0.3-0.5,0.6-0.8,0.8l-0.8,0.4c-0.1,0-0.1,0.1-0.1,0.3c0,0.2,0,0.2,0.1,0.3l0.8,0.4
					c0.3,0.2,0.6,0.5,0.8,0.8l0.4,0.8c0.1,0.1,0.2,0.2,0.3,0.2c0.1,0,0.2-0.1,0.3-0.2l0.4-0.8c0.2-0.3,0.5-0.6,0.8-0.8l0.8-0.4
					c0.1-0.1,0.2-0.2,0.2-0.3C-353.1,268.9-353.2,268.7-353.3,268.7z M-354.4,269.1c-0.5,0.2-0.8,0.6-1.1,1.1l-0.1,0.2l-0.1-0.2
					c-0.3-0.5-0.6-0.9-1.1-1.1l-0.2-0.1l0.2-0.1c0.5-0.2,0.8-0.6,1.1-1.1l0.1-0.2l0.1,0.2c0.2,0.5,0.6,0.8,1.1,1.1l0.2,0.1
					L-354.4,269.1z"/>
			</g>
			<g id="XMLID_616_">
				<path id="XMLID_617_" class="st1" d="M-293.6,310.6l-0.8-0.4c-0.3-0.2-0.6-0.5-0.8-0.8l-0.4-0.8c-0.1-0.1-0.2-0.2-0.3-0.2
					s-0.2,0.1-0.3,0.2l-0.4,0.7c-0.2,0.3-0.5,0.6-0.8,0.8l-0.8,0.4c-0.1,0.1-0.2,0.2-0.2,0.3s0.1,0.2,0.2,0.3l0.8,0.4
					c0.3,0.2,0.6,0.5,0.8,0.8l0.4,0.8c0.1,0.1,0.2,0.2,0.3,0.2s0.2-0.1,0.3-0.2l0.4-0.8c0.2-0.3,0.5-0.6,0.8-0.8l0.8-0.4
					c0.1-0.1,0.2-0.2,0.2-0.3S-293.5,310.6-293.6,310.6z M-294.7,311c-0.5,0.2-0.8,0.6-1.1,1.1l-0.1,0.2l-0.1-0.3
					c-0.2-0.5-0.6-0.8-1.1-1.1l-0.2-0.1l0.2-0.1c0.5-0.2,0.8-0.6,1.1-1.1l0.1-0.2l0.1,0.2c0.2,0.5,0.6,0.8,1.1,1.1l0.2,0.1
					L-294.7,311z"/>
			</g>
			<g id="XMLID_607_">
				<g id="XMLID_614_">
					<path id="XMLID_615_" class="st1" d="M-294,285.8h-0.7c-0.2,0-0.3,0.2-0.3,0.3c0,0.2,0.2,0.3,0.3,0.3h0.7
						c0.2,0,0.3-0.2,0.3-0.3C-293.6,285.9-293.8,285.8-294,285.8z"/>
				</g>
				<g id="XMLID_612_">
					<path id="XMLID_613_" class="st1" d="M-290.6,285.8h-0.7c-0.2,0-0.3,0.2-0.3,0.3c0,0.2,0.2,0.3,0.3,0.3h0.7
						c0.2,0,0.3-0.2,0.3-0.3C-290.2,285.9-290.4,285.8-290.6,285.8z"/>
				</g>
				<g id="XMLID_610_">
					<path id="XMLID_611_" class="st1" d="M-292.6,283.7c-0.2,0-0.3,0.2-0.3,0.3v0.7c0,0.2,0.2,0.3,0.3,0.3s0.3-0.2,0.3-0.3V284
						C-292.3,283.9-292.4,283.7-292.6,283.7z"/>
				</g>
				<g id="XMLID_608_">
					<path id="XMLID_609_" class="st1" d="M-292.6,287.1c-0.2,0-0.3,0.2-0.3,0.3v0.7c0,0.2,0.2,0.3,0.3,0.3s0.3-0.2,0.3-0.3v-0.7
						C-292.3,287.3-292.4,287.1-292.6,287.1z"/>
				</g>
			</g>
			<g id="XMLID_598_">
				<g id="XMLID_605_">
					<path id="XMLID_606_" class="st1" d="M-364.9,285.1h-0.6c-0.2,0-0.3,0.2-0.3,0.3c0,0.2,0.2,0.3,0.3,0.3h0.7
						c0.2,0,0.3-0.2,0.3-0.3C-364.5,285.2-364.7,285.1-364.9,285.1z"/>
				</g>
				<g id="XMLID_603_">
					<path id="XMLID_604_" class="st1" d="M-361.5,285.1h-0.7c-0.2,0-0.3,0.2-0.3,0.3c0,0.2,0.2,0.3,0.3,0.3h0.7
						c0.2,0,0.3-0.2,0.3-0.3C-361.2,285.2-361.3,285.1-361.5,285.1z"/>
				</g>
				<g id="XMLID_601_">
					<path id="XMLID_602_" class="st1" d="M-363.5,283.1c-0.2,0-0.3,0.2-0.3,0.3v0.7c0,0.2,0.2,0.3,0.3,0.3c0.2,0,0.3-0.2,0.3-0.3
						v-0.7C-363.2,283.2-363.3,283.1-363.5,283.1z"/>
				</g>
				<g id="XMLID_599_">
					<path id="XMLID_600_" class="st1" d="M-363.5,286.4c-0.2,0-0.3,0.2-0.3,0.3v0.7c0,0.2,0.2,0.3,0.3,0.3c0.2,0,0.3-0.2,0.3-0.3
						v-0.7C-363.2,286.6-363.3,286.4-363.5,286.4z"/>
				</g>
			</g>
			<g id="XMLID_596_">
				<path id="XMLID_597_" class="st1" d="M-355,310.1h-14.2c-0.2,0-0.3,0.2-0.3,0.3s0.2,0.3,0.3,0.3h14.2c0.2,0,0.3-0.2,0.3-0.3
					S-354.9,310.1-355,310.1z"/>
			</g>
			<g id="XMLID_594_">
				<path id="XMLID_595_" class="st1" d="M-300.1,329.6h-10.8c-0.2,0-0.3,0.2-0.3,0.3s0.2,0.3,0.3,0.3h10.8c0.2,0,0.3-0.2,0.3-0.3
					S-299.9,329.6-300.1,329.6z"/>
			</g>
			<g id="XMLID_592_">
				<path id="XMLID_593_" class="st1" d="M-301.4,331.9h-2.7c-0.2,0-0.3,0.2-0.3,0.3s0.2,0.3,0.3,0.3h2.7c0.2,0,0.3-0.2,0.3-0.3
					S-301.2,331.9-301.4,331.9z"/>
			</g>
			<g id="XMLID_590_">
				<path id="XMLID_591_" class="st1" d="M-306.8,331.9h-6.1c-0.2,0-0.3,0.2-0.3,0.3s0.2,0.3,0.3,0.3h6.1c0.2,0,0.3-0.2,0.3-0.3
					S-306.6,331.9-306.8,331.9z"/>
			</g>
			<g id="XMLID_588_">
				<path id="XMLID_589_" class="st1" d="M-361.5,307.7h-4.4c-0.2,0-0.3,0.2-0.3,0.3c0,0.1,0.2,0.3,0.3,0.3h4.4
					c0.2,0,0.3-0.2,0.3-0.3C-361.2,307.9-361.3,307.7-361.5,307.7z"/>
			</g>
			<g id="XMLID_586_">
				<path id="XMLID_587_" class="st1" d="M-357.7,307.7h-2c-0.2,0-0.3,0.2-0.3,0.3c0,0.1,0.2,0.3,0.3,0.3h2c0.2,0,0.3-0.2,0.3-0.3
					C-357.4,307.9-357.6,307.7-357.7,307.7z"/>
			</g>
		</g>
	</g>
	<g id="XMLID_1825_">
		<g id="XMLID_1876_">
			<g id="XMLID_1931_">
				<path id="XMLID_1709_" class="st2" d="M-347.4,280.3l7.1,34.8c0.8-0.2,1.5-0.5,1.5-0.5l-7-34.4L-347.4,280.3z"/>
			</g>
			<g id="XMLID_1929_">
				<g id="XMLID_77_">
					<path id="XMLID_81_" class="st3" d="M-346.3,279.7l7.1,34.8c10.8-2.3,24.2-5.2,24.2-5.2l-7-34.4L-346.3,279.7z"/>
				</g>
			</g>
			<g id="XMLID_1927_">
				<polygon id="XMLID_1702_" class="st4" points="-350.3,278.7 -343.2,313.3 -340.8,314.8 -347.8,280.3 				"/>
			</g>
			<g id="XMLID_1925_">
				<g id="XMLID_146_">
					<polygon id="XMLID_147_" class="st5" points="-352.1,278.5 -345,313.1 -342.3,315.7 -349.6,280 					"/>
				</g>
			</g>
			<g id="XMLID_1923_">
				<g id="XMLID_83_">
					
						<rect id="XMLID_128_" x="-337.6" y="291" transform="matrix(0.2005 0.9797 -0.9797 0.2005 30.7702 547.2643)" class="st3" width="35.3" height="2.9"/>
				</g>
			</g>
			<g id="XMLID_1921_">
				<g id="XMLID_136_">
					<polygon id="XMLID_137_" class="st6" points="-349.9,279.7 -342.6,315 -340.8,314.7 -347.8,280.5 					"/>
				</g>
			</g>
			<g id="XMLID_1913_">
				<path id="XMLID_1679_" class="st7" d="M-351.5,278c-0.5,1.1,3.3,2.3,3.3,2.3l24.1-4.8l-3.7-2C-327.8,273.4-351,276.8-351.5,278z
					"/>
			</g>
			<g id="XMLID_1919_" class="st8">
				<g id="XMLID_155_">
					<path id="XMLID_156_" class="st9" d="M-342,309.1c-1.2,1.1-2.5-0.7-4-1.3l-0.1-0.1l0.5,2.5l0.1,0.1c1.5,0.6,2.8,2.4,4,1.3
						l0.2-0.2l-0.5-2.5L-342,309.1z"/>
				</g>
			</g>
			<g id="XMLID_1917_" class="st8">
				<g id="XMLID_152_">
					<path id="XMLID_153_" class="st9" d="M-347.1,284.3c-1.2,1.1-2.5-0.7-4-1.3l-0.1-0.1l0.5,2.5l0.1,0.1c1.5,0.6,2.8,2.4,4,1.3
						l0.2-0.2l-0.5-2.5L-347.1,284.3z"/>
				</g>
			</g>
			<g id="XMLID_1915_" class="st8">
				<g id="XMLID_149_">
					<path id="XMLID_150_" class="st9" d="M-343.8,300.1c-1.2,1.1-2.5-0.7-4-1.3l-0.1-0.1l1.2,5.7l0.1,0.1c1.5,0.6,2.8,2.4,4,1.3
						l0.2-0.2l-1.2-5.7L-343.8,300.1z"/>
				</g>
			</g>
			<g id="XMLID_1911_">
				<polygon id="XMLID_1676_" class="st2" points="-329.1,273.8 -326.5,275.8 -322.7,274.8 -325.6,273.2 				"/>
			</g>
			<g id="XMLID_1909_">
				<g id="XMLID_158_">
					<path id="XMLID_159_" class="st0" d="M-342.7,282.5l1.2,7c6.1-2,16.3-3.8,16.3-3.8l-1.2-6.9L-342.7,282.5z"/>
				</g>
			</g>
			<g id="XMLID_1905_">
				<g id="XMLID_132_">
					<path id="XMLID_133_" class="st10" d="M-321.3,274.8c-0.1-0.4-0.5-0.7-0.9-0.6l-25.7,5.2c-0.2,0-0.4,0.2-0.5,0.3
						c-0.1,0.2-0.1,0.4-0.1,0.6l2.6,12c0.1,0.4,0.5,0.7,0.9,0.6s0.7-0.5,0.6-0.9l-2.3-11.4l24.2-4.9l5.1,24.7
						c0.1,0.4,0.4,0.6,0.7,0.6h0.1c0.4-0.1,0.7-0.5,0.6-0.9L-321.3,274.8z"/>
				</g>
			</g>
			<g id="XMLID_1903_">
				<g id="XMLID_129_">
					<path id="XMLID_130_" class="st10" d="M-344.2,293.8c-0.2-0.4-0.6-0.6-1-0.4c-0.4,0.2-0.6,0.6-0.4,1l0.1,0.3
						c0.1,0.3,0.4,0.5,0.7,0.5c0.1,0,0.2,0,0.3-0.1c0.4-0.2,0.6-0.6,0.4-1L-344.2,293.8z"/>
				</g>
			</g>
			<g id="XMLID_1901_">
				<g id="XMLID_126_">
					<path id="XMLID_127_" class="st10" d="M-315.6,302.8c-0.1-0.4-0.5-0.7-0.9-0.6s-0.7,0.5-0.6,0.9l1.2,5.7
						c-3,0.8-15.2,3.8-24.3,5.3l-3.6-17.9c-0.1-0.4-0.5-0.7-0.9-0.6c-0.4,0.1-0.7,0.5-0.6,0.9l3.7,18.6c0.1,0.4,0.4,0.6,0.7,0.6h0.1
						c10.4-1.7,25.6-5.6,25.8-5.6c0.4-0.1,0.6-0.5,0.5-0.9L-315.6,302.8z"/>
				</g>
			</g>
			<g id="XMLID_1897_">
				<g id="XMLID_140_">
					<path id="XMLID_141_" class="st10" d="M-326,279.2c-0.1-0.4-0.5-0.6-0.9-0.6l-15.7,3.1c-0.2,0-0.4,0.2-0.5,0.3
						c-0.1,0.2-0.1,0.4-0.1,0.6l1.4,6.9c0,0.2,0.2,0.4,0.3,0.5c0.1,0.1,0.3,0.1,0.4,0.1h0.1c5.9-1.2,15.6-3.1,15.7-3.1
						c0.2,0,0.4-0.2,0.5-0.3c0.1-0.2,0.1-0.4,0.1-0.6L-326,279.2z M-340.4,288.6l-1.1-5.5l14.2-2.8l1.2,5.5
						C-328.4,286.2-335.4,287.6-340.4,288.6z"/>
				</g>
			</g>
			<g id="XMLID_1895_">
				<g id="XMLID_123_">
					<path id="XMLID_124_" class="st10" d="M-341.4,314.1c-0.2,0.2-0.6,0.2-0.8,0.1c-0.6-0.1-1.1-0.5-1.4-0.9l-6.9-32.9
						c0.8,0.4,1.8,0.5,2.8,0.5c0.4,0,0.7-0.4,0.7-0.8c0-0.4-0.4-0.7-0.8-0.7c-1.8,0.1-2.9-0.8-3.1-1.1v-0.1
						c-0.1-0.4-0.4-0.6-0.8-0.6c-0.4,0-0.7,0.4-0.7,0.8c0,0.1,0,0.3,0.1,0.4l7.3,35c0,0.1,0,0.1,0.1,0.2c0.4,0.8,1.4,1.5,2.4,1.7
						c0.2,0,0.4,0.1,0.6,0.1c0.6,0,1.1-0.2,1.5-0.5c0.3-0.3,0.4-0.7,0.1-1C-340.6,313.9-341.1,313.8-341.4,314.1z"/>
				</g>
			</g>
			<g id="XMLID_1893_">
				<g id="XMLID_120_">
					<path id="XMLID_121_" class="st10" d="M-347,283.9c-0.2-0.1-0.4-0.1-0.6,0.1c-0.3,0.4-1.3-0.3-2-0.8c-0.4-0.3-0.7-0.5-1-0.6
						c-0.2-0.1-0.4,0-0.5,0.2c-0.1,0.2,0,0.4,0.2,0.5s0.5,0.3,0.9,0.5c0.7,0.5,1.5,1,2.2,1c0.3,0,0.6-0.1,0.9-0.4
						C-346.8,284.3-346.8,284-347,283.9z"/>
				</g>
			</g>
			<g id="XMLID_1891_">
				<g id="XMLID_117_">
					<path id="XMLID_118_" class="st10" d="M-346.3,287c-0.2-0.1-0.4-0.1-0.6,0.1c-0.3,0.4-1.3-0.3-2-0.8c-0.4-0.3-0.7-0.5-1-0.6
						c-0.2-0.1-0.4,0-0.5,0.2c-0.1,0.2,0,0.4,0.2,0.5c0.2,0.1,0.5,0.3,0.9,0.5c0.7,0.5,1.5,1,2.2,1c0.3,0,0.6-0.1,0.9-0.4
						C-346.1,287.4-346.2,287.2-346.3,287z"/>
				</g>
			</g>
			<g id="XMLID_1889_">
				<g id="XMLID_114_">
					<path id="XMLID_115_" class="st10" d="M-343.8,299.5c-0.2-0.1-0.4-0.1-0.6,0.1c-0.3,0.4-1.3-0.3-2-0.8c-0.4-0.3-0.7-0.5-1-0.6
						c-0.2-0.1-0.4,0-0.5,0.2c-0.1,0.2,0,0.4,0.2,0.5c0.2,0.1,0.5,0.3,0.9,0.5c0.7,0.5,1.5,1,2.2,1c0.3,0,0.6-0.1,0.9-0.4
						C-343.6,299.9-343.6,299.7-343.8,299.5z"/>
				</g>
			</g>
			<g id="XMLID_1887_">
				<g id="XMLID_111_">
					<path id="XMLID_112_" class="st10" d="M-342.5,305.8c-0.2-0.1-0.4-0.1-0.6,0.1c-0.3,0.4-1.3-0.3-2-0.8c-0.4-0.3-0.7-0.5-1-0.6
						c-0.2-0.1-0.4,0-0.5,0.2c-0.1,0.2,0,0.4,0.2,0.5s0.5,0.3,0.9,0.5c0.7,0.5,1.5,1,2.2,1c0.3,0,0.6-0.1,0.9-0.4
						C-342.3,306.2-342.3,305.9-342.5,305.8z"/>
				</g>
			</g>
			<g id="XMLID_1885_">
				<g id="XMLID_103_">
					<path id="XMLID_109_" class="st10" d="M-341.9,308.9c-0.2-0.1-0.4-0.1-0.6,0.1c-0.3,0.4-1.3-0.3-2-0.8c-0.4-0.3-0.7-0.5-1-0.6
						c-0.2-0.1-0.4,0-0.5,0.2s0,0.4,0.2,0.5c0.2,0.1,0.5,0.3,0.9,0.5c0.7,0.5,1.5,1,2.2,1c0.3,0,0.6-0.1,0.9-0.4
						C-341.7,309.3-341.7,309-341.9,308.9z"/>
				</g>
			</g>
			<g id="XMLID_1883_">
				<g id="XMLID_88_">
					<path id="XMLID_101_" class="st10" d="M-341.3,311.6c-0.2-0.1-0.4-0.1-0.6,0.1c-0.3,0.4-1.3-0.3-2-0.8c-0.4-0.3-0.7-0.5-1-0.6
						c-0.2-0.1-0.4,0-0.5,0.2c-0.1,0.2,0,0.4,0.2,0.5c0.2,0.1,0.5,0.3,0.9,0.5c0.7,0.5,1.5,1,2.2,1c0.3,0,0.6-0.1,0.9-0.4
						C-341.1,312-341.1,311.8-341.3,311.6z"/>
				</g>
			</g>
			<g id="XMLID_1881_">
				<g id="XMLID_84_">
					<path id="XMLID_85_" class="st10" d="M-340,275c-6.7,1.4-10.5,2.1-11.6,2.3c-0.4,0.1-0.7,0.4-0.6,0.9c0.1,0.4,0.4,0.6,0.7,0.6
						h0.1c1.1-0.2,4.9-1,11.6-2.3c0.4-0.1,0.7-0.5,0.6-0.9C-339.2,275.2-339.6,274.9-340,275z"/>
				</g>
			</g>
			<g id="XMLID_1879_">
				<g id="XMLID_78_">
					<path id="XMLID_79_" class="st10" d="M-337.1,274.4c-0.2,0-0.3,0.1-0.3,0.1s-0.1,0-0.2,0.1c-0.4,0.1-0.7,0.5-0.6,0.9
						c0.1,0.4,0.4,0.6,0.7,0.6c0,0,0.1,0,0.2,0c0.2,0,0.3-0.1,0.3-0.1s0.1,0,0.2-0.1c0.4-0.1,0.7-0.5,0.6-0.9
						C-336.3,274.6-336.7,274.3-337.1,274.4z"/>
				</g>
			</g>
			<g id="XMLID_1877_">
				<g id="XMLID_73_">
					<path id="XMLID_74_" class="st10" d="M-322.7,274.3c-1.3-0.4-2.2-1-2.4-1.7c-0.1-0.4-0.5-0.6-0.9-0.5c-1.1,0.2-3.2,0.7-5.8,1.2
						l-3.2,0.6c-0.4,0.1-0.7,0.5-0.6,0.9c0.1,0.4,0.5,0.7,0.9,0.6l3.2-0.7c2.2-0.5,4-0.8,5.2-1.1c0.5,0.9,1.6,1.6,3.1,2
						c0.1,0,0.1,0,0.2,0c0.3,0,0.6-0.2,0.7-0.5C-322.1,274.8-322.4,274.4-322.7,274.3z"/>
				</g>
			</g>
		</g>
		<g id="XMLID_1826_">
			<g id="XMLID_1871_">
				<g id="XMLID_70_">
					<path id="XMLID_71_" class="st0" d="M-312,292.5c-0.4,1.1-2,6.8-2.3,8c-0.5,1.7,1.2,2.5,1.2,2.5l8.1,2.3l-5.8-12.6
						C-310.7,292.7-311.9,292.4-312,292.5z"/>
				</g>
			</g>
			<g id="XMLID_1866_">
				<g id="XMLID_104_">
					<g id="XMLID_105_">
						<path id="XMLID_106_" class="st0" d="M-322.9,289.7c-0.9-0.3-1.9,0.1-2.2,1l-7.4,25.6c-0.3,0.9,0.3,1.8,1.3,2.1l19.1,5.6
							c0,0,1,0.5,1.7,0c0.8-0.5,1.4-1.6,1.4-1.6l5.1-17.6l-6.4-11.5L-322.9,289.7z M-312.1,298.8l-0.6,2c-0.3,0.9,0.1,1.9,1.1,2.2
							l-1.7-0.5c0,0-0.9-0.7-0.6-1.7s2.3-7.8,2.3-7.8l1.1,0.3L-312.1,298.8z"/>
					</g>
				</g>
			</g>
			<g id="XMLID_1864_">
				<g id="XMLID_67_">
					<path id="XMLID_68_" class="st0" d="M-312.6,299.9c-0.4,1.5,1,2.2,1,2.2l7.1,2.1l-6.1-11.5
						C-310.5,292.7-312.2,298.5-312.6,299.9z"/>
				</g>
			</g>
			<g id="XMLID_1862_">
				<polygon id="XMLID_1608_" class="st0" points="-310.8,294.3 -305.8,303.8 -304.5,304.2 -310.3,292.8 				"/>
			</g>
			<g id="XMLID_1859_">
				<path id="XMLID_1605_" class="st2" d="M-311.6,324.2L-311.6,324.2L-311.6,324.2L-311.6,324.2z"/>
				<path id="XMLID_1602_" class="st2" d="M-311.6,324.2c0.9,0.2,1.8-0.3,2.1-1.2l5.4-18.4l-1.6-0.5
					C-305.8,304.2-311.6,323.8-311.6,324.2z"/>
			</g>
			<g id="XMLID_1855_">
				<g id="XMLID_61_">
					<path id="XMLID_62_" class="st1" d="M-308.3,319.2c-0.4-0.1-0.9,0.1-1,0.5v0.1c-0.1,0.4,0.1,0.9,0.5,1c0.1,0,0.1,0,0.2,0
						c0.3,0,0.7-0.2,0.8-0.6v-0.1C-307.6,319.8-307.9,319.3-308.3,319.2z"/>
				</g>
			</g>
			<g id="XMLID_1851_">
				<g id="XMLID_55_">
					<path id="XMLID_56_" class="st1" d="M-310.4,292.7c-0.4-0.1-0.9,0.1-1,0.5l-0.4,1.4c-0.1,0.4,0.1,0.9,0.5,1c0.1,0,0.1,0,0.2,0
						c0.3,0,0.7-0.2,0.8-0.6l0.4-1.4C-309.7,293.2-310,292.8-310.4,292.7z"/>
				</g>
			</g>
			<g id="XMLID_1873_">
				<g id="XMLID_139_">
					<g id="XMLID_144_">
						<path id="XMLID_145_" class="st0" d="M-326.2,290.4l-7.5,25.6c-0.3,0.9,0.3,1.8,1.1,2.1l8.3-28.8
							C-325,289.1-326,289.4-326.2,290.4z"/>
					</g>
				</g>
			</g>
			<g id="XMLID_1853_">
				<g id="XMLID_59_">
					<path id="XMLID_64_" class="st1" d="M-309.6,292.5c-0.1-0.2-0.3-0.3-0.5-0.4l-13.5-4c-0.7-0.2-1.4-0.1-2,0.2
						c-0.6,0.3-1.1,0.9-1.3,1.6l-4.1,13.9c-0.1,0.4,0.1,0.9,0.5,1c0.4,0.1,0.9-0.1,1-0.5l4.1-13.9c0.1-0.3,0.3-0.5,0.5-0.6
						s0.5-0.2,0.8-0.1l13.2,3.9l5.9,11.3l-3.7,12.6c-0.1,0.4,0.1,0.9,0.5,1c0.1,0,0.1,0,0.2,0c0.3,0,0.7-0.2,0.8-0.6l3.8-12.9
						c0.1-0.2,0-0.4-0.1-0.6L-309.6,292.5z"/>
				</g>
			</g>
			<g id="XMLID_1849_">
				<g id="XMLID_52_">
					<path id="XMLID_53_" class="st1" d="M-311.4,296.1c-0.4-0.1-0.9,0.1-1,0.5l-0.1,0.2c-0.1,0.4,0.1,0.9,0.5,1c0.1,0,0.1,0,0.2,0
						c0.3,0,0.7-0.2,0.8-0.6l0.1-0.2C-310.7,296.7-311,296.2-311.4,296.1z"/>
				</g>
			</g>
			<g id="XMLID_1857_">
				<path id="XMLID_1599_" class="st1" d="M-308.9,321.3c-0.4-0.1-0.9,0.1-1,0.5l-0.3,1.2c-0.2,0.5-0.7,0.8-1.2,0.7l-20.8-6.1
					c-0.2-0.1-0.5-0.2-0.6-0.5c-0.1-0.2-0.2-0.5-0.1-0.7l2.9-9.8c0.1-0.4-0.1-0.9-0.5-1c-0.4-0.1-0.9,0.1-1,0.5l-2.9,9.8
					c-0.4,1.4,0.4,2.8,1.8,3.2l20.8,6.1c0.2,0.1,0.5,0.1,0.7,0.1c0.4,0,0.9-0.1,1.2-0.3c0.6-0.3,1-0.9,1.2-1.5l0.3-1.2
					C-308.2,321.8-308.5,321.4-308.9,321.3z"/>
			</g>
			<g id="XMLID_1847_">
				<g id="XMLID_49_">
					<path id="XMLID_50_" class="st1" d="M-304,303.9l-7.2-2.1c-0.2-0.1-0.5-0.2-0.6-0.5c-0.1-0.2-0.2-0.5-0.1-0.7l0.4-1.2
						c0.1-0.4-0.1-0.9-0.5-1c-0.4-0.1-0.9,0.1-1,0.5l-0.4,1.2c-0.4,1.4,0.4,2.8,1.8,3.2l7.2,2.1c0.1,0,0.1,0,0.2,0
						c0.3,0,0.7-0.2,0.8-0.6S-303.6,304-304,303.9z"/>
				</g>
			</g>
			<g id="XMLID_1845_">
				<g id="XMLID_46_">
					<path id="XMLID_47_" class="st1" d="M-311.9,319.5l-18-5.2c-0.4-0.1-0.9,0.1-1,0.5s0.1,0.9,0.5,1l18,5.2c0.1,0,0.1,0,0.2,0
						c0.3,0,0.7-0.2,0.8-0.6C-311.2,320.1-311.5,319.6-311.9,319.5z"/>
				</g>
			</g>
			<g id="XMLID_1843_">
				<g id="XMLID_43_">
					<path id="XMLID_44_" class="st1" d="M-318.5,313.8l-10.3-3c-0.4-0.1-0.9,0.1-1,0.5s0.1,0.9,0.5,1l10.3,3c0.1,0,0.1,0,0.2,0
						c0.3,0,0.7-0.2,0.8-0.6C-317.9,314.4-318.1,313.9-318.5,313.8z"/>
				</g>
			</g>
			<g id="XMLID_1841_">
				<g id="XMLID_40_">
					<path id="XMLID_41_" class="st1" d="M-310.9,316.1l-5.4-1.6c-0.4-0.1-0.9,0.1-1,0.5c-0.1,0.4,0.1,0.9,0.5,1l5.4,1.6
						c0.1,0,0.1,0,0.2,0c0.3,0,0.7-0.2,0.8-0.6C-310.2,316.6-310.4,316.2-310.9,316.1z"/>
				</g>
			</g>
			<g id="XMLID_1839_">
				<g id="XMLID_37_">
					<path id="XMLID_38_" class="st1" d="M-309.6,311.8l-11.1-3.2c-0.4-0.1-0.9,0.1-1,0.5c-0.1,0.4,0.1,0.9,0.5,1l11.1,3.2
						c0.1,0,0.1,0,0.2,0c0.3,0,0.7-0.2,0.8-0.6C-309,312.4-309.2,312-309.6,311.8z"/>
				</g>
			</g>
			<g id="XMLID_1837_">
				<g id="XMLID_34_">
					<path id="XMLID_35_" class="st1" d="M-323.3,307.9c-0.2,0-0.4,0.1-0.6,0.2c-0.1,0.1-0.2,0.4-0.2,0.6c0,0.2,0.1,0.4,0.2,0.6
						c0.1,0.1,0.4,0.2,0.6,0.2c0.2,0,0.4-0.1,0.6-0.2c0.1-0.1,0.2-0.4,0.2-0.6c0-0.2-0.1-0.4-0.2-0.6
						C-322.9,308-323.1,307.9-323.3,307.9z"/>
				</g>
			</g>
			<g id="XMLID_1835_">
				<g id="XMLID_31_">
					<path id="XMLID_32_" class="st1" d="M-325.3,307.3l-2.3-0.7c-0.4-0.1-0.9,0.1-1,0.5c-0.1,0.4,0.1,0.9,0.5,1l2.3,0.7
						c0.1,0,0.1,0,0.2,0c0.3,0,0.7-0.2,0.8-0.6S-324.9,307.4-325.3,307.3z"/>
				</g>
			</g>
			<g id="XMLID_1833_">
				<g id="XMLID_28_">
					<path id="XMLID_29_" class="st1" d="M-318.8,304.6l-7.7-2.2c-0.4-0.1-0.9,0.1-1,0.5s0.1,0.9,0.5,1l7.7,2.2c0.1,0,0.1,0,0.2,0
						c0.3,0,0.7-0.2,0.8-0.6C-318.1,305.2-318.3,304.7-318.8,304.6z"/>
				</g>
			</g>
			<g id="XMLID_1831_">
				<g id="XMLID_25_">
					<path id="XMLID_26_" class="st1" d="M-308.4,307.6l-0.8-0.2c-0.4-0.1-0.9,0.1-1,0.5c-0.1,0.4,0.1,0.9,0.5,1l0.8,0.2
						c0.1,0,0.1,0,0.2,0c0.3,0,0.7-0.2,0.8-0.6C-307.7,308.2-308,307.8-308.4,307.6z"/>
				</g>
			</g>
			<g id="XMLID_1829_">
				<g id="XMLID_22_">
					<path id="XMLID_23_" class="st1" d="M-311.3,306.7c-0.2,0-0.4,0.1-0.6,0.2c-0.1,0.1-0.2,0.4-0.2,0.6c0,0.2,0.1,0.4,0.2,0.6
						c0.1,0.1,0.4,0.2,0.6,0.2c0.2,0,0.4-0.1,0.6-0.2c0.1-0.1,0.2-0.4,0.2-0.6c0-0.2-0.1-0.4-0.2-0.6
						C-310.9,306.7-311.1,306.7-311.3,306.7z"/>
				</g>
			</g>
			<g id="XMLID_1827_">
				<g id="XMLID_19_">
					<path id="XMLID_20_" class="st1" d="M-313,306.3l-3.8-1.1c-0.4-0.1-0.9,0.1-1,0.5s0.1,0.9,0.5,1l3.8,1.1c0.1,0,0.1,0,0.2,0
						c0.3,0,0.7-0.2,0.8-0.6C-312.3,306.9-312.6,306.4-313,306.3z"/>
				</g>
			</g>
		</g>
	</g>
</g>
</svg>
